M48
; DRILL file {KiCad (6.0.1)} date Tue Jan 17 23:28:08 2023
; FORMAT={-:-/ absolute / metric / decimal}
; #@! TF.CreationDate,2023-01-17T23:28:08-08:00
; #@! TF.GenerationSoftware,Kicad,Pcbnew,(6.0.1)
; #@! TF.FileFunction,Plated,1,2,PTH
FMAT,2
METRIC
; #@! TA.AperFunction,Plated,PTH,ViaDrill
T1C0.400
; #@! TA.AperFunction,Plated,PTH,ComponentDrill
T2C0.400
; #@! TA.AperFunction,Plated,PTH,ComponentDrill
T3C0.600
; #@! TA.AperFunction,Plated,PTH,ComponentDrill
T4C0.754
; #@! TA.AperFunction,Plated,PTH,ComponentDrill
T5C0.920
; #@! TA.AperFunction,Plated,PTH,ComponentDrill
T6C0.950
; #@! TA.AperFunction,Plated,PTH,ComponentDrill
T7C1.000
; #@! TA.AperFunction,Plated,PTH,ComponentDrill
T8C1.100
; #@! TA.AperFunction,Plated,PTH,ComponentDrill
T9C1.200
; #@! TA.AperFunction,Plated,PTH,ComponentDrill
T10C1.500
; #@! TA.AperFunction,Plated,PTH,ComponentDrill
T11C1.800
; #@! TA.AperFunction,Plated,PTH,ComponentDrill
T12C2.200
; #@! TA.AperFunction,Plated,PTH,ComponentDrill
T13C2.300
; #@! TA.AperFunction,Plated,PTH,ComponentDrill
T14C3.500
%
G90
G05
T1
X66.7Y-164.097
X82.7Y-164.097
X85.7Y-145.2
X88.0Y-149.2
X88.0Y-157.0
X91.5Y-160.5
X98.7Y-164.097
X104.124Y-163.9
X117.0Y-135.0
X118.0Y-125.0
X119.547Y-135.0
X122.996Y-148.724
X125.0Y-141.0
X125.282Y-148.724
X126.5Y-143.5
X131.989Y-125.61
X131.989Y-129.166
X131.989Y-132.468
X131.989Y-135.77
X131.989Y-139.072
X175.0Y-135.0
X176.0Y-125.0
X177.5Y-135.0
X181.081Y-148.814
X183.0Y-141.0
X183.0Y-144.0
X183.367Y-148.814
X190.075Y-125.7
X190.075Y-129.256
X190.075Y-132.558
X190.075Y-135.86
X190.075Y-139.162
T2
X52.025Y-165.472
X52.025Y-166.822
X52.875Y-165.472
X52.875Y-166.822
X53.725Y-165.472
X53.725Y-166.822
X54.575Y-165.472
X54.575Y-166.822
X55.425Y-165.472
X55.425Y-166.822
X56.275Y-165.472
X56.275Y-166.822
X57.125Y-165.472
X57.125Y-166.822
X57.975Y-165.472
X57.975Y-166.822
X68.025Y-165.472
X68.025Y-166.822
X68.875Y-165.472
X68.875Y-166.822
X69.725Y-165.472
X69.725Y-166.822
X70.575Y-165.472
X70.575Y-166.822
X71.425Y-165.472
X71.425Y-166.822
X72.275Y-165.472
X72.275Y-166.822
X73.125Y-165.472
X73.125Y-166.822
X73.975Y-165.472
X73.975Y-166.822
X84.025Y-165.472
X84.025Y-166.822
X84.875Y-165.472
X84.875Y-166.822
X85.725Y-165.472
X85.725Y-166.822
X86.575Y-165.472
X86.575Y-166.822
X87.425Y-165.472
X87.425Y-166.822
X88.275Y-165.472
X88.275Y-166.822
X89.125Y-165.472
X89.125Y-166.822
X89.975Y-165.472
X89.975Y-166.822
X100.025Y-165.472
X100.025Y-166.822
X100.875Y-165.472
X100.875Y-166.822
X101.725Y-165.472
X101.725Y-166.822
X102.575Y-165.472
X102.575Y-166.822
X103.425Y-165.472
X103.425Y-166.822
X104.275Y-165.472
X104.275Y-166.822
X105.125Y-165.472
X105.125Y-166.822
X105.975Y-165.472
X105.975Y-166.822
T4
X102.352Y-104.692
X102.352Y-112.312
X104.892Y-104.692
X104.892Y-112.312
X107.432Y-104.692
X107.432Y-112.312
X109.972Y-104.692
X109.972Y-112.312
X112.512Y-104.692
X112.512Y-112.312
X115.052Y-104.692
X115.052Y-112.312
X117.592Y-104.692
X117.592Y-112.312
X120.132Y-104.692
X120.132Y-112.312
X160.437Y-104.782
X160.437Y-112.402
X162.977Y-104.782
X162.977Y-112.402
X165.517Y-104.782
X165.517Y-112.402
X168.057Y-104.782
X168.057Y-112.402
X170.597Y-104.782
X170.597Y-112.402
X173.137Y-104.782
X173.137Y-112.402
X175.677Y-104.782
X175.677Y-112.402
X178.217Y-104.782
X178.217Y-112.402
T5
X55.5Y-153.285
X55.5Y-155.905
X58.0Y-153.285
X58.0Y-155.905
X60.0Y-153.285
X60.0Y-155.905
X62.5Y-153.285
X62.5Y-155.905
X74.5Y-153.285
X74.5Y-155.905
X77.0Y-153.285
X77.0Y-155.905
X79.0Y-153.285
X79.0Y-155.905
X81.5Y-153.285
X81.5Y-155.905
T6
X99.36Y-129.742
X100.492Y-135.942
X100.492Y-138.442
X100.492Y-140.942
X100.492Y-143.442
X100.492Y-145.942
X100.492Y-148.442
X100.492Y-150.942
X100.492Y-153.442
X101.86Y-129.742
X102.492Y-98.942
X104.36Y-129.742
X104.992Y-98.942
X106.86Y-129.742
X107.492Y-98.942
X109.36Y-129.742
X109.992Y-98.942
X111.86Y-129.742
X112.492Y-98.942
X114.36Y-129.742
X114.992Y-98.942
X116.86Y-129.742
X117.492Y-98.942
X119.36Y-129.742
X121.86Y-129.742
X124.36Y-129.742
X124.992Y-98.942
X127.492Y-98.942
X129.992Y-98.942
X132.492Y-98.942
X134.992Y-98.942
X137.492Y-98.942
X157.445Y-129.832
X158.577Y-136.032
X158.577Y-138.532
X158.577Y-141.032
X158.577Y-143.532
X158.577Y-146.032
X158.577Y-148.532
X158.577Y-151.032
X158.577Y-153.532
X159.945Y-129.832
X160.577Y-99.032
X162.445Y-129.832
X163.077Y-99.032
X164.945Y-129.832
X165.577Y-99.032
X167.445Y-129.832
X168.077Y-99.032
X169.945Y-129.832
X170.577Y-99.032
X172.445Y-129.832
X173.077Y-99.032
X174.945Y-129.832
X175.577Y-99.032
X177.445Y-129.832
X179.945Y-129.832
X182.445Y-129.832
X183.077Y-99.032
X185.577Y-99.032
X188.077Y-99.032
X190.577Y-99.032
X193.077Y-99.032
X195.577Y-99.032
X226.416Y-99.332
X226.416Y-118.332
X226.416Y-137.332
X226.416Y-156.332
X228.916Y-99.332
X228.916Y-118.332
X228.916Y-137.332
X228.916Y-156.332
X231.416Y-99.332
X231.416Y-118.332
X231.416Y-137.332
X231.416Y-156.332
X239.416Y-99.332
X239.416Y-118.332
X239.416Y-137.332
X239.416Y-156.332
X241.916Y-99.332
X241.916Y-118.332
X241.916Y-137.332
X241.916Y-156.332
X244.416Y-99.332
X244.416Y-118.332
X244.416Y-137.332
X244.416Y-156.332
T7
X91.5Y-121.8
X91.5Y-124.34
X91.5Y-126.88
X91.5Y-129.42
X91.5Y-131.96
X91.5Y-134.5
X91.5Y-137.04
X91.5Y-139.58
X91.5Y-144.66
X91.5Y-147.2
X91.5Y-149.74
X91.5Y-152.28
X91.5Y-154.82
X91.5Y-157.36
X106.74Y-140.85
X106.74Y-151.01
X109.28Y-140.85
X109.28Y-151.01
X111.82Y-140.85
X111.82Y-151.01
X114.36Y-140.85
X114.36Y-151.01
X114.36Y-157.487
X114.36Y-160.027
X116.9Y-140.85
X116.9Y-151.01
X116.9Y-157.487
X116.9Y-160.027
X119.44Y-140.85
X119.44Y-151.01
X119.44Y-157.487
X119.44Y-160.027
X139.76Y-112.656
X139.76Y-115.196
X139.76Y-117.736
X139.76Y-120.276
X139.76Y-122.816
X139.76Y-125.356
X139.76Y-127.896
X139.76Y-130.436
X139.76Y-132.976
X139.76Y-135.516
X139.76Y-139.58
X139.76Y-142.12
X139.76Y-144.66
X139.76Y-147.2
X139.76Y-149.74
X139.76Y-152.28
X139.76Y-154.82
X139.76Y-157.36
X149.585Y-121.89
X149.585Y-124.43
X149.585Y-126.97
X149.585Y-129.51
X149.585Y-132.05
X149.585Y-134.59
X149.585Y-137.13
X149.585Y-139.67
X149.585Y-144.75
X149.585Y-147.29
X149.585Y-149.83
X149.585Y-152.37
X149.585Y-154.91
X149.585Y-157.45
X164.825Y-140.94
X164.825Y-151.1
X167.365Y-140.94
X167.365Y-151.1
X169.905Y-140.94
X169.905Y-151.1
X172.445Y-140.94
X172.445Y-151.1
X172.445Y-157.577
X172.445Y-160.117
X174.985Y-140.94
X174.985Y-151.1
X174.985Y-157.577
X174.985Y-160.117
X177.525Y-140.94
X177.525Y-151.1
X177.525Y-157.577
X177.525Y-160.117
X197.845Y-112.746
X197.845Y-115.286
X197.845Y-117.826
X197.845Y-120.366
X197.845Y-122.906
X197.845Y-125.446
X197.845Y-127.986
X197.845Y-130.526
X197.845Y-133.066
X197.845Y-135.606
X197.845Y-139.67
X197.845Y-142.21
X197.845Y-144.75
X197.845Y-147.29
X197.845Y-149.83
X197.845Y-152.37
X197.845Y-154.91
X197.845Y-157.45
X226.284Y-108.032
X226.284Y-127.032
X226.284Y-146.032
X226.284Y-165.032
X231.284Y-108.032
X231.284Y-127.032
X231.284Y-146.032
X231.284Y-165.032
X239.284Y-108.032
X239.284Y-127.032
X239.284Y-146.032
X239.284Y-165.032
X244.284Y-108.032
X244.284Y-127.032
X244.284Y-146.032
X244.284Y-165.032
T8
X201.457Y-134.732
X201.457Y-137.272
X201.457Y-139.812
X201.457Y-142.352
X201.457Y-144.892
X201.457Y-147.432
X201.457Y-149.972
X201.457Y-152.512
X201.457Y-155.052
X201.457Y-157.592
X201.457Y-160.132
X201.457Y-162.672
X216.697Y-134.732
X216.697Y-137.272
X216.697Y-139.812
X216.697Y-142.352
X216.697Y-144.892
X216.697Y-147.432
X216.697Y-149.972
X216.697Y-152.512
X216.697Y-155.052
X216.697Y-157.592
X216.697Y-160.132
X216.697Y-162.672
T9
X330.577Y-137.782
X330.577Y-144.532
T10
X342.295Y-146.332
X355.095Y-101.332
X363.095Y-101.332
X363.095Y-146.332
T11
X301.884Y-155.026
X310.884Y-155.026
X319.884Y-155.026
T12
X254.577Y-103.282
X254.577Y-108.782
T13
X52.43Y-150.575
X52.43Y-156.255
X65.57Y-150.575
X65.57Y-156.255
X71.43Y-150.575
X71.43Y-156.255
X84.57Y-150.575
X84.57Y-156.255
T14
X290.884Y-162.326
X330.884Y-162.326
T3
X50.675Y-165.702G85X50.675Y-167.202
G05
X50.675Y-169.432G85X50.675Y-170.232
G05
X59.325Y-165.702G85X59.325Y-167.202
G05
X59.325Y-169.432G85X59.325Y-170.232
G05
X66.675Y-165.702G85X66.675Y-167.202
G05
X66.675Y-169.432G85X66.675Y-170.232
G05
X75.325Y-165.702G85X75.325Y-167.202
G05
X75.325Y-169.432G85X75.325Y-170.232
G05
X82.675Y-165.702G85X82.675Y-167.202
G05
X82.675Y-169.432G85X82.675Y-170.232
G05
X91.325Y-165.702G85X91.325Y-167.202
G05
X91.325Y-169.432G85X91.325Y-170.232
G05
X98.675Y-165.702G85X98.675Y-167.202
G05
X98.675Y-169.432G85X98.675Y-170.232
G05
X107.325Y-165.702G85X107.325Y-167.202
G05
X107.325Y-169.432G85X107.325Y-170.232
G05
T0
M30
