G04 #@! TF.GenerationSoftware,KiCad,Pcbnew,(6.0.1)*
G04 #@! TF.CreationDate,2023-01-17T23:28:05-08:00*
G04 #@! TF.ProjectId,DDRduino2,44445264-7569-46e6-9f32-2e6b69636164,rev?*
G04 #@! TF.SameCoordinates,Original*
G04 #@! TF.FileFunction,Legend,Bot*
G04 #@! TF.FilePolarity,Positive*
%FSLAX46Y46*%
G04 Gerber Fmt 4.6, Leading zero omitted, Abs format (unit mm)*
G04 Created by KiCad (PCBNEW (6.0.1)) date 2023-01-17 23:28:05*
%MOMM*%
%LPD*%
G01*
G04 APERTURE LIST*
G04 Aperture macros list*
%AMRoundRect*
0 Rectangle with rounded corners*
0 $1 Rounding radius*
0 $2 $3 $4 $5 $6 $7 $8 $9 X,Y pos of 4 corners*
0 Add a 4 corners polygon primitive as box body*
4,1,4,$2,$3,$4,$5,$6,$7,$8,$9,$2,$3,0*
0 Add four circle primitives for the rounded corners*
1,1,$1+$1,$2,$3*
1,1,$1+$1,$4,$5*
1,1,$1+$1,$6,$7*
1,1,$1+$1,$8,$9*
0 Add four rect primitives between the rounded corners*
20,1,$1+$1,$2,$3,$4,$5,0*
20,1,$1+$1,$4,$5,$6,$7,0*
20,1,$1+$1,$6,$7,$8,$9,0*
20,1,$1+$1,$8,$9,$2,$3,0*%
G04 Aperture macros list end*
%ADD10C,0.150000*%
%ADD11C,0.120000*%
%ADD12C,2.700000*%
%ADD13C,4.516000*%
%ADD14C,0.650000*%
%ADD15O,1.108000X2.216000*%
%ADD16R,1.262126X1.262126*%
%ADD17C,1.262126*%
%ADD18C,1.600000*%
%ADD19C,4.000000*%
%ADD20C,3.200000*%
%ADD21RoundRect,0.250000X0.600000X0.725000X-0.600000X0.725000X-0.600000X-0.725000X0.600000X-0.725000X0*%
%ADD22O,1.700000X1.950000*%
%ADD23R,2.000000X2.000000*%
%ADD24C,2.000000*%
%ADD25C,4.500000*%
%ADD26R,1.700000X1.700000*%
%ADD27O,1.700000X1.700000*%
%ADD28RoundRect,0.250000X-0.725000X0.600000X-0.725000X-0.600000X0.725000X-0.600000X0.725000X0.600000X0*%
%ADD29O,1.950000X1.700000*%
%ADD30R,2.500000X2.500000*%
%ADD31C,2.500000*%
%ADD32R,1.600000X1.600000*%
%ADD33R,3.000000X3.000000*%
%ADD34C,3.000000*%
G04 APERTURE END LIST*
D10*
X254840476Y-99202380D02*
X255316666Y-99202380D01*
X255364285Y-99678571D01*
X255316666Y-99630952D01*
X255221428Y-99583333D01*
X254983333Y-99583333D01*
X254888095Y-99630952D01*
X254840476Y-99678571D01*
X254792857Y-99773809D01*
X254792857Y-100011904D01*
X254840476Y-100107142D01*
X254888095Y-100154761D01*
X254983333Y-100202380D01*
X255221428Y-100202380D01*
X255316666Y-100154761D01*
X255364285Y-100107142D01*
X254507142Y-99202380D02*
X254173809Y-100202380D01*
X253840476Y-99202380D01*
X255361904Y-112100000D02*
X255457142Y-112052380D01*
X255600000Y-112052380D01*
X255742857Y-112100000D01*
X255838095Y-112195238D01*
X255885714Y-112290476D01*
X255933333Y-112480952D01*
X255933333Y-112623809D01*
X255885714Y-112814285D01*
X255838095Y-112909523D01*
X255742857Y-113004761D01*
X255600000Y-113052380D01*
X255504761Y-113052380D01*
X255361904Y-113004761D01*
X255314285Y-112957142D01*
X255314285Y-112623809D01*
X255504761Y-112623809D01*
X254885714Y-113052380D02*
X254885714Y-112052380D01*
X254314285Y-113052380D01*
X254314285Y-112052380D01*
X253838095Y-113052380D02*
X253838095Y-112052380D01*
X253600000Y-112052380D01*
X253457142Y-112100000D01*
X253361904Y-112195238D01*
X253314285Y-112290476D01*
X253266666Y-112480952D01*
X253266666Y-112623809D01*
X253314285Y-112814285D01*
X253361904Y-112909523D01*
X253457142Y-113004761D01*
X253600000Y-113052380D01*
X253838095Y-113052380D01*
X363861904Y-103500000D02*
X363957142Y-103452380D01*
X364100000Y-103452380D01*
X364242857Y-103500000D01*
X364338095Y-103595238D01*
X364385714Y-103690476D01*
X364433333Y-103880952D01*
X364433333Y-104023809D01*
X364385714Y-104214285D01*
X364338095Y-104309523D01*
X364242857Y-104404761D01*
X364100000Y-104452380D01*
X364004761Y-104452380D01*
X363861904Y-104404761D01*
X363814285Y-104357142D01*
X363814285Y-104023809D01*
X364004761Y-104023809D01*
X363385714Y-104452380D02*
X363385714Y-103452380D01*
X362814285Y-104452380D01*
X362814285Y-103452380D01*
X362338095Y-104452380D02*
X362338095Y-103452380D01*
X362100000Y-103452380D01*
X361957142Y-103500000D01*
X361861904Y-103595238D01*
X361814285Y-103690476D01*
X361766666Y-103880952D01*
X361766666Y-104023809D01*
X361814285Y-104214285D01*
X361861904Y-104309523D01*
X361957142Y-104404761D01*
X362100000Y-104452380D01*
X362338095Y-104452380D01*
X355719047Y-104502380D02*
X356290476Y-104502380D01*
X356004761Y-104502380D02*
X356004761Y-103502380D01*
X356100000Y-103645238D01*
X356195238Y-103740476D01*
X356290476Y-103788095D01*
X355338095Y-103597619D02*
X355290476Y-103550000D01*
X355195238Y-103502380D01*
X354957142Y-103502380D01*
X354861904Y-103550000D01*
X354814285Y-103597619D01*
X354766666Y-103692857D01*
X354766666Y-103788095D01*
X354814285Y-103930952D01*
X355385714Y-104502380D01*
X354766666Y-104502380D01*
X354480952Y-103502380D02*
X354147619Y-104502380D01*
X353814285Y-103502380D01*
X311064285Y-158478571D02*
X310730952Y-158478571D01*
X310588095Y-159002380D02*
X311064285Y-159002380D01*
X311064285Y-158002380D01*
X310588095Y-158002380D01*
X330885714Y-141302380D02*
X330885714Y-140302380D01*
X330314285Y-141302380D01*
X330314285Y-140302380D01*
X363335714Y-150402380D02*
X363335714Y-149402380D01*
X362764285Y-150402380D01*
X362764285Y-149402380D01*
X320135714Y-159202380D02*
X320135714Y-158202380D01*
X319564285Y-159202380D01*
X319564285Y-158202380D01*
X342140476Y-150502380D02*
X342616666Y-150502380D01*
X342616666Y-149502380D01*
X330390476Y-148352380D02*
X330866666Y-148352380D01*
X330866666Y-147352380D01*
X301640476Y-159052380D02*
X302116666Y-159052380D01*
X302116666Y-158052380D01*
X205267480Y-133462480D02*
X205267480Y-130922480D01*
X205267480Y-130922480D02*
X212887480Y-130922480D01*
X212887480Y-133462480D02*
X217967480Y-133462480D01*
X212887480Y-130922480D02*
X212887480Y-133462480D01*
X200187480Y-163942480D02*
X200187480Y-133462480D01*
X217967480Y-133462480D02*
X217967480Y-163942480D01*
X200187480Y-133462480D02*
X205267480Y-133462480D01*
X217967480Y-163942480D02*
X200187480Y-163942480D01*
D11*
X196515480Y-135606480D02*
X196515480Y-136936480D01*
X196515480Y-136936480D02*
X197845480Y-136936480D01*
X196515480Y-111416480D02*
X199175480Y-111416480D01*
X196515480Y-134336480D02*
X199175480Y-134336480D01*
X196515480Y-134336480D02*
X196515480Y-111416480D01*
X199175480Y-134336480D02*
X199175480Y-111416480D01*
X118170000Y-158757000D02*
X118170000Y-156157000D01*
X113030000Y-161357000D02*
X113030000Y-156157000D01*
X120770000Y-161357000D02*
X120770000Y-158757000D01*
X120770000Y-156157000D02*
X119440000Y-156157000D01*
X120770000Y-158757000D02*
X118170000Y-158757000D01*
X118170000Y-156157000D02*
X113030000Y-156157000D01*
X120770000Y-161357000D02*
X113030000Y-161357000D01*
X120770000Y-157487000D02*
X120770000Y-156157000D01*
X138430000Y-158690000D02*
X139760000Y-158690000D01*
X138430000Y-138250000D02*
X141090000Y-138250000D01*
X141090000Y-156090000D02*
X141090000Y-138250000D01*
X138430000Y-156090000D02*
X141090000Y-156090000D01*
X138430000Y-156090000D02*
X138430000Y-138250000D01*
X138430000Y-157360000D02*
X138430000Y-158690000D01*
X199175480Y-156180480D02*
X199175480Y-138340480D01*
X196515480Y-156180480D02*
X196515480Y-138340480D01*
X196515480Y-157450480D02*
X196515480Y-158780480D01*
X196515480Y-156180480D02*
X199175480Y-156180480D01*
X196515480Y-138340480D02*
X199175480Y-138340480D01*
X196515480Y-158780480D02*
X197845480Y-158780480D01*
X178855480Y-157577480D02*
X178855480Y-156247480D01*
X176255480Y-156247480D02*
X171115480Y-156247480D01*
X178855480Y-161447480D02*
X178855480Y-158847480D01*
X171115480Y-161447480D02*
X171115480Y-156247480D01*
X176255480Y-158847480D02*
X176255480Y-156247480D01*
X178855480Y-158847480D02*
X176255480Y-158847480D01*
X178855480Y-156247480D02*
X177525480Y-156247480D01*
X178855480Y-161447480D02*
X171115480Y-161447480D01*
X141090000Y-134246000D02*
X141090000Y-111326000D01*
X138430000Y-136846000D02*
X139760000Y-136846000D01*
X138430000Y-135516000D02*
X138430000Y-136846000D01*
X138430000Y-111326000D02*
X141090000Y-111326000D01*
X138430000Y-134246000D02*
X141090000Y-134246000D01*
X138430000Y-134246000D02*
X138430000Y-111326000D01*
X148255480Y-123160480D02*
X148255480Y-141000480D01*
X150915480Y-123160480D02*
X150915480Y-141000480D01*
X150915480Y-120560480D02*
X149585480Y-120560480D01*
X150915480Y-141000480D02*
X148255480Y-141000480D01*
X150915480Y-123160480D02*
X148255480Y-123160480D01*
X150915480Y-121890480D02*
X150915480Y-120560480D01*
X92830000Y-158690000D02*
X90170000Y-158690000D01*
X92830000Y-145930000D02*
X90170000Y-145930000D01*
X92830000Y-144660000D02*
X92830000Y-143330000D01*
X92830000Y-145930000D02*
X92830000Y-158690000D01*
X90170000Y-145930000D02*
X90170000Y-158690000D01*
X92830000Y-143330000D02*
X91500000Y-143330000D01*
X92830000Y-140910000D02*
X90170000Y-140910000D01*
X92830000Y-120470000D02*
X91500000Y-120470000D01*
X92830000Y-121800000D02*
X92830000Y-120470000D01*
X90170000Y-123070000D02*
X90170000Y-140910000D01*
X92830000Y-123070000D02*
X92830000Y-140910000D01*
X92830000Y-123070000D02*
X90170000Y-123070000D01*
X150915480Y-146020480D02*
X148255480Y-146020480D01*
X150915480Y-146020480D02*
X150915480Y-158780480D01*
X150915480Y-144750480D02*
X150915480Y-143420480D01*
X150915480Y-143420480D02*
X149585480Y-143420480D01*
X150915480Y-158780480D02*
X148255480Y-158780480D01*
X148255480Y-146020480D02*
X148255480Y-158780480D01*
%LPC*%
D12*
X319884230Y-155025730D03*
X310884230Y-155025730D03*
X301884230Y-155025730D03*
D13*
X330884230Y-162325730D03*
X290884230Y-162325730D03*
D14*
X52025000Y-165472480D03*
X52875000Y-165472480D03*
X53725000Y-165472480D03*
X54575000Y-165472480D03*
X55425000Y-165472480D03*
X56275000Y-165472480D03*
X57125000Y-165472480D03*
X57975000Y-165472480D03*
X57975000Y-166822480D03*
X57125000Y-166822480D03*
X56275000Y-166822480D03*
X55425000Y-166822480D03*
X54575000Y-166822480D03*
X53725000Y-166822480D03*
X52875000Y-166822480D03*
X52025000Y-166822480D03*
D15*
X50675000Y-166452480D03*
X59325000Y-166452480D03*
X59325000Y-169832480D03*
X50675000Y-169832480D03*
D16*
X102352000Y-112312000D03*
D17*
X104892000Y-112312000D03*
X107432000Y-112312000D03*
X109972000Y-112312000D03*
X112512000Y-112312000D03*
X115052000Y-112312000D03*
X117592000Y-112312000D03*
X120132000Y-112312000D03*
X120132000Y-104692000D03*
X117592000Y-104692000D03*
X115052000Y-104692000D03*
X112512000Y-104692000D03*
X109972000Y-104692000D03*
X107432000Y-104692000D03*
X104892000Y-104692000D03*
X102352000Y-104692000D03*
D16*
X160437480Y-112402480D03*
D17*
X162977480Y-112402480D03*
X165517480Y-112402480D03*
X168057480Y-112402480D03*
X170597480Y-112402480D03*
X173137480Y-112402480D03*
X175677480Y-112402480D03*
X178217480Y-112402480D03*
X178217480Y-104782480D03*
X175677480Y-104782480D03*
X173137480Y-104782480D03*
X170597480Y-104782480D03*
X168057480Y-104782480D03*
X165517480Y-104782480D03*
X162977480Y-104782480D03*
X160437480Y-104782480D03*
D18*
X81500000Y-155904700D03*
X81500000Y-153284700D03*
X79000000Y-155904700D03*
X79000000Y-153284700D03*
X77000000Y-155904700D03*
X77000000Y-153284700D03*
X74500000Y-155904700D03*
X74500000Y-153284700D03*
D19*
X84570000Y-150574700D03*
X71430000Y-150574700D03*
X84570000Y-156254700D03*
X71430000Y-156254700D03*
D20*
X154647480Y-160002480D03*
D21*
X244415865Y-118332480D03*
D22*
X241915865Y-118332480D03*
X239415865Y-118332480D03*
D23*
X244283542Y-127032480D03*
D24*
X239283542Y-127032480D03*
D25*
X371577480Y-99532480D03*
X83577480Y-99532480D03*
D21*
X244415865Y-156332480D03*
D22*
X241915865Y-156332480D03*
X239415865Y-156332480D03*
D14*
X68025000Y-165472480D03*
X68875000Y-165472480D03*
X69725000Y-165472480D03*
X70575000Y-165472480D03*
X71425000Y-165472480D03*
X72275000Y-165472480D03*
X73125000Y-165472480D03*
X73975000Y-165472480D03*
X73975000Y-166822480D03*
X73125000Y-166822480D03*
X72275000Y-166822480D03*
X71425000Y-166822480D03*
X70575000Y-166822480D03*
X69725000Y-166822480D03*
X68875000Y-166822480D03*
X68025000Y-166822480D03*
D15*
X66675000Y-166452480D03*
X75325000Y-166452480D03*
X75325000Y-169832480D03*
X66675000Y-169832480D03*
D21*
X244415865Y-99332480D03*
D22*
X241915865Y-99332480D03*
X239415865Y-99332480D03*
D23*
X231283542Y-146032480D03*
D24*
X226283542Y-146032480D03*
D26*
X177525480Y-151100480D03*
D27*
X174985480Y-151100480D03*
X172445480Y-151100480D03*
X169905480Y-151100480D03*
X167365480Y-151100480D03*
X164825480Y-151100480D03*
D28*
X100492000Y-135942000D03*
D29*
X100492000Y-138442000D03*
X100492000Y-140942000D03*
X100492000Y-143442000D03*
X100492000Y-145942000D03*
X100492000Y-148442000D03*
X100492000Y-150942000D03*
X100492000Y-153442000D03*
D21*
X175577480Y-99032480D03*
D22*
X173077480Y-99032480D03*
X170577480Y-99032480D03*
X168077480Y-99032480D03*
X165577480Y-99032480D03*
X163077480Y-99032480D03*
X160577480Y-99032480D03*
D21*
X117492000Y-98942000D03*
D22*
X114992000Y-98942000D03*
X112492000Y-98942000D03*
X109992000Y-98942000D03*
X107492000Y-98942000D03*
X104992000Y-98942000D03*
X102492000Y-98942000D03*
D23*
X244283542Y-165032480D03*
D24*
X239283542Y-165032480D03*
D30*
X330577480Y-144532480D03*
D31*
X330577480Y-137782480D03*
D19*
X254577480Y-103282480D03*
X254577480Y-108782480D03*
D21*
X231415865Y-156332480D03*
D22*
X228915865Y-156332480D03*
X226415865Y-156332480D03*
D23*
X244283542Y-108032480D03*
D24*
X239283542Y-108032480D03*
D20*
X139742000Y-109112000D03*
X149577480Y-107932480D03*
X197827480Y-109202480D03*
D26*
X119440000Y-151010000D03*
D27*
X116900000Y-151010000D03*
X114360000Y-151010000D03*
X111820000Y-151010000D03*
X109280000Y-151010000D03*
X106740000Y-151010000D03*
D23*
X231283542Y-165032480D03*
D24*
X226283542Y-165032480D03*
D21*
X124360000Y-129742000D03*
D22*
X121860000Y-129742000D03*
X119360000Y-129742000D03*
X116860000Y-129742000D03*
X114360000Y-129742000D03*
X111860000Y-129742000D03*
X109360000Y-129742000D03*
X106860000Y-129742000D03*
X104360000Y-129742000D03*
X101860000Y-129742000D03*
X99360000Y-129742000D03*
D21*
X231415865Y-118332480D03*
D22*
X228915865Y-118332480D03*
X226415865Y-118332480D03*
D20*
X182587480Y-160012480D03*
D21*
X244415865Y-137332480D03*
D22*
X241915865Y-137332480D03*
X239415865Y-137332480D03*
D21*
X137492000Y-98942000D03*
D22*
X134992000Y-98942000D03*
X132492000Y-98942000D03*
X129992000Y-98942000D03*
X127492000Y-98942000D03*
X124992000Y-98942000D03*
D26*
X177525480Y-140940480D03*
D27*
X174985480Y-140940480D03*
X172445480Y-140940480D03*
X169905480Y-140940480D03*
X167365480Y-140940480D03*
X164825480Y-140940480D03*
D14*
X100025000Y-165472480D03*
X100875000Y-165472480D03*
X101725000Y-165472480D03*
X102575000Y-165472480D03*
X103425000Y-165472480D03*
X104275000Y-165472480D03*
X105125000Y-165472480D03*
X105975000Y-165472480D03*
X105975000Y-166822480D03*
X105125000Y-166822480D03*
X104275000Y-166822480D03*
X103425000Y-166822480D03*
X102575000Y-166822480D03*
X101725000Y-166822480D03*
X100875000Y-166822480D03*
X100025000Y-166822480D03*
D15*
X98675000Y-166452480D03*
X107325000Y-166452480D03*
X107325000Y-169832480D03*
X98675000Y-169832480D03*
D14*
X84025000Y-165472480D03*
X84875000Y-165472480D03*
X85725000Y-165472480D03*
X86575000Y-165472480D03*
X87425000Y-165472480D03*
X88275000Y-165472480D03*
X89125000Y-165472480D03*
X89975000Y-165472480D03*
X89975000Y-166822480D03*
X89125000Y-166822480D03*
X88275000Y-166822480D03*
X87425000Y-166822480D03*
X86575000Y-166822480D03*
X85725000Y-166822480D03*
X84875000Y-166822480D03*
X84025000Y-166822480D03*
D15*
X82675000Y-166452480D03*
X91325000Y-166452480D03*
X91325000Y-169832480D03*
X82675000Y-169832480D03*
D23*
X244283542Y-146032480D03*
D24*
X239283542Y-146032480D03*
D21*
X231415865Y-137332480D03*
D22*
X228915865Y-137332480D03*
X226415865Y-137332480D03*
D20*
X96562000Y-159912000D03*
D25*
X269500000Y-166500000D03*
D21*
X182445480Y-129832480D03*
D22*
X179945480Y-129832480D03*
X177445480Y-129832480D03*
X174945480Y-129832480D03*
X172445480Y-129832480D03*
X169945480Y-129832480D03*
X167445480Y-129832480D03*
X164945480Y-129832480D03*
X162445480Y-129832480D03*
X159945480Y-129832480D03*
X157445480Y-129832480D03*
D18*
X201457480Y-137272480D03*
D32*
X201457480Y-134732480D03*
D18*
X201457480Y-144892480D03*
X201457480Y-147432480D03*
X201457480Y-149972480D03*
X201457480Y-152512480D03*
X201457480Y-155052480D03*
X201457480Y-157592480D03*
X201457480Y-160132480D03*
X201457480Y-162672480D03*
X216697480Y-162672480D03*
X216697480Y-157592480D03*
X216697480Y-155052480D03*
X216697480Y-160132480D03*
X216697480Y-152512480D03*
X216697480Y-149972480D03*
X216697480Y-147432480D03*
X216697480Y-144892480D03*
X201457480Y-139812480D03*
X201457480Y-142352480D03*
X216697480Y-137272480D03*
X216697480Y-134732480D03*
X216697480Y-139812480D03*
X216697480Y-142352480D03*
D20*
X124502000Y-159922000D03*
X91492000Y-107842000D03*
D25*
X118000000Y-166500000D03*
D21*
X195577480Y-99032480D03*
D22*
X193077480Y-99032480D03*
X190577480Y-99032480D03*
X188077480Y-99032480D03*
X185577480Y-99032480D03*
X183077480Y-99032480D03*
D26*
X119440000Y-140850000D03*
D27*
X116900000Y-140850000D03*
X114360000Y-140850000D03*
X111820000Y-140850000D03*
X109280000Y-140850000D03*
X106740000Y-140850000D03*
D18*
X62500000Y-155904700D03*
X62500000Y-153284700D03*
X60000000Y-155904700D03*
X60000000Y-153284700D03*
X58000000Y-155904700D03*
X58000000Y-153284700D03*
X55500000Y-155904700D03*
X55500000Y-153284700D03*
D19*
X65570000Y-150574700D03*
X52430000Y-150574700D03*
X65570000Y-156254700D03*
X52430000Y-156254700D03*
D25*
X371577480Y-166532480D03*
D33*
X342294980Y-146332480D03*
D34*
X363094980Y-146332480D03*
X363094980Y-101332480D03*
X355094980Y-101332480D03*
D23*
X231283542Y-127032480D03*
D24*
X226283542Y-127032480D03*
D21*
X231415865Y-99332480D03*
D22*
X228915865Y-99332480D03*
X226415865Y-99332480D03*
D23*
X231283542Y-108032480D03*
D24*
X226283542Y-108032480D03*
D28*
X158577480Y-136032480D03*
D29*
X158577480Y-138532480D03*
X158577480Y-141032480D03*
X158577480Y-143532480D03*
X158577480Y-146032480D03*
X158577480Y-148532480D03*
X158577480Y-151032480D03*
X158577480Y-153532480D03*
D25*
X217500000Y-99500000D03*
D26*
X197845480Y-135606480D03*
D27*
X197845480Y-133066480D03*
X197845480Y-130526480D03*
X197845480Y-127986480D03*
X197845480Y-125446480D03*
X197845480Y-122906480D03*
X197845480Y-120366480D03*
X197845480Y-117826480D03*
X197845480Y-115286480D03*
X197845480Y-112746480D03*
D26*
X119440000Y-157487000D03*
D27*
X119440000Y-160027000D03*
X116900000Y-157487000D03*
X116900000Y-160027000D03*
X114360000Y-157487000D03*
X114360000Y-160027000D03*
D26*
X139760000Y-157360000D03*
D27*
X139760000Y-154820000D03*
X139760000Y-152280000D03*
X139760000Y-149740000D03*
X139760000Y-147200000D03*
X139760000Y-144660000D03*
X139760000Y-142120000D03*
X139760000Y-139580000D03*
D26*
X197845480Y-157450480D03*
D27*
X197845480Y-154910480D03*
X197845480Y-152370480D03*
X197845480Y-149830480D03*
X197845480Y-147290480D03*
X197845480Y-144750480D03*
X197845480Y-142210480D03*
X197845480Y-139670480D03*
D26*
X177525480Y-157577480D03*
D27*
X177525480Y-160117480D03*
X174985480Y-157577480D03*
X174985480Y-160117480D03*
X172445480Y-157577480D03*
X172445480Y-160117480D03*
D26*
X139760000Y-135516000D03*
D27*
X139760000Y-132976000D03*
X139760000Y-130436000D03*
X139760000Y-127896000D03*
X139760000Y-125356000D03*
X139760000Y-122816000D03*
X139760000Y-120276000D03*
X139760000Y-117736000D03*
X139760000Y-115196000D03*
X139760000Y-112656000D03*
D26*
X149585480Y-121890480D03*
D27*
X149585480Y-124430480D03*
X149585480Y-126970480D03*
X149585480Y-129510480D03*
X149585480Y-132050480D03*
X149585480Y-134590480D03*
X149585480Y-137130480D03*
X149585480Y-139670480D03*
D26*
X91500000Y-144660000D03*
D27*
X91500000Y-147200000D03*
X91500000Y-149740000D03*
X91500000Y-152280000D03*
X91500000Y-154820000D03*
X91500000Y-157360000D03*
D26*
X91500000Y-121800000D03*
D27*
X91500000Y-124340000D03*
X91500000Y-126880000D03*
X91500000Y-129420000D03*
X91500000Y-131960000D03*
X91500000Y-134500000D03*
X91500000Y-137040000D03*
X91500000Y-139580000D03*
D26*
X149585480Y-144750480D03*
D27*
X149585480Y-147290480D03*
X149585480Y-149830480D03*
X149585480Y-152370480D03*
X149585480Y-154910480D03*
X149585480Y-157450480D03*
M02*
