%FSLAX45Y45*%
G04 Gerber Fmt 4.5, Leading zero omitted, Abs format (unit mm)*
G04 Created by KiCad (PCBNEW (6.0.1)) date 2023-01-17 23:26:00*
%MOMM*%
%LPD*%
G01*
G04 APERTURE LIST*
%TA.AperFunction,Profile*%
%ADD10C,0.100000*%
%TD*%
%ADD11C,0.200000*%
%ADD12C,0.320000*%
%ADD13C,0.450000*%
G04 APERTURE END LIST*
D10*
X4957748Y-13900000D02*
X7857748Y-9453248D01*
X7857748Y-9453248D02*
X37757748Y-9453248D01*
X37757748Y-9453248D02*
X37757748Y-17153248D01*
X37757748Y-17153248D02*
X4957748Y-17153248D01*
X4957748Y-17153248D02*
X4957748Y-13900000D01*
D11*
D12*
X8989200Y-10624200D02*
X9309200Y-10944200D01*
X9309200Y-10624200D02*
X8989200Y-10944200D01*
X9496200Y-15831200D02*
X9816200Y-16151200D01*
X9816200Y-15831200D02*
X9496200Y-16151200D01*
X12290200Y-15832200D02*
X12610200Y-16152200D01*
X12610200Y-15832200D02*
X12290200Y-16152200D01*
X13814200Y-10751200D02*
X14134200Y-11071200D01*
X14134200Y-10751200D02*
X13814200Y-11071200D01*
X14797748Y-10633248D02*
X15117748Y-10953248D01*
X15117748Y-10633248D02*
X14797748Y-10953248D01*
X15304748Y-15840248D02*
X15624748Y-16160248D01*
X15624748Y-15840248D02*
X15304748Y-16160248D01*
X18098748Y-15841248D02*
X18418748Y-16161248D01*
X18418748Y-15841248D02*
X18098748Y-16161248D01*
X19622748Y-10760248D02*
X19942748Y-11080248D01*
X19942748Y-10760248D02*
X19622748Y-11080248D01*
D13*
X8582748Y-9953248D02*
G75*
G03*
X8582748Y-9953248I-225000J0D01*
G01*
X12025000Y-16650000D02*
G75*
G03*
X12025000Y-16650000I-225000J0D01*
G01*
X21975000Y-9950000D02*
G75*
G03*
X21975000Y-9950000I-225000J0D01*
G01*
X27175000Y-16650000D02*
G75*
G03*
X27175000Y-16650000I-225000J0D01*
G01*
X37382748Y-9953248D02*
G75*
G03*
X37382748Y-9953248I-225000J0D01*
G01*
X37382748Y-16653248D02*
G75*
G03*
X37382748Y-16653248I-225000J0D01*
G01*
D11*
X5210367Y-17468724D02*
X5210367Y-17268724D01*
X5257986Y-17268724D01*
X5286558Y-17278248D01*
X5305605Y-17297296D01*
X5315129Y-17316343D01*
X5324653Y-17354438D01*
X5324653Y-17383010D01*
X5315129Y-17421105D01*
X5305605Y-17440153D01*
X5286558Y-17459200D01*
X5257986Y-17468724D01*
X5210367Y-17468724D01*
X5410367Y-17468724D02*
X5410367Y-17335391D01*
X5410367Y-17373486D02*
X5419891Y-17354438D01*
X5429415Y-17344915D01*
X5448462Y-17335391D01*
X5467510Y-17335391D01*
X5534177Y-17468724D02*
X5534177Y-17335391D01*
X5534177Y-17268724D02*
X5524653Y-17278248D01*
X5534177Y-17287772D01*
X5543700Y-17278248D01*
X5534177Y-17268724D01*
X5534177Y-17287772D01*
X5657986Y-17468724D02*
X5638938Y-17459200D01*
X5629415Y-17440153D01*
X5629415Y-17268724D01*
X5762748Y-17468724D02*
X5743700Y-17459200D01*
X5734176Y-17440153D01*
X5734176Y-17268724D01*
X5991319Y-17468724D02*
X5991319Y-17268724D01*
X6057986Y-17411581D01*
X6124653Y-17268724D01*
X6124653Y-17468724D01*
X6305605Y-17468724D02*
X6305605Y-17363962D01*
X6296081Y-17344915D01*
X6277034Y-17335391D01*
X6238938Y-17335391D01*
X6219891Y-17344915D01*
X6305605Y-17459200D02*
X6286557Y-17468724D01*
X6238938Y-17468724D01*
X6219891Y-17459200D01*
X6210367Y-17440153D01*
X6210367Y-17421105D01*
X6219891Y-17402058D01*
X6238938Y-17392534D01*
X6286557Y-17392534D01*
X6305605Y-17383010D01*
X6400843Y-17335391D02*
X6400843Y-17535391D01*
X6400843Y-17344915D02*
X6419891Y-17335391D01*
X6457986Y-17335391D01*
X6477034Y-17344915D01*
X6486557Y-17354438D01*
X6496081Y-17373486D01*
X6496081Y-17430629D01*
X6486557Y-17449677D01*
X6477034Y-17459200D01*
X6457986Y-17468724D01*
X6419891Y-17468724D01*
X6400843Y-17459200D01*
X6581796Y-17449677D02*
X6591319Y-17459200D01*
X6581796Y-17468724D01*
X6572272Y-17459200D01*
X6581796Y-17449677D01*
X6581796Y-17468724D01*
X6581796Y-17344915D02*
X6591319Y-17354438D01*
X6581796Y-17363962D01*
X6572272Y-17354438D01*
X6581796Y-17344915D01*
X6581796Y-17363962D01*
X4752748Y-17698248D02*
X4952748Y-17898248D01*
X4952748Y-17698248D02*
X4752748Y-17898248D01*
X5191319Y-17688724D02*
X5315129Y-17688724D01*
X5248462Y-17764915D01*
X5277034Y-17764915D01*
X5296081Y-17774438D01*
X5305605Y-17783962D01*
X5315129Y-17803010D01*
X5315129Y-17850629D01*
X5305605Y-17869677D01*
X5296081Y-17879200D01*
X5277034Y-17888724D01*
X5219891Y-17888724D01*
X5200843Y-17879200D01*
X5191319Y-17869677D01*
X5400843Y-17869677D02*
X5410367Y-17879200D01*
X5400843Y-17888724D01*
X5391319Y-17879200D01*
X5400843Y-17869677D01*
X5400843Y-17888724D01*
X5486558Y-17707772D02*
X5496081Y-17698248D01*
X5515129Y-17688724D01*
X5562748Y-17688724D01*
X5581796Y-17698248D01*
X5591319Y-17707772D01*
X5600843Y-17726819D01*
X5600843Y-17745867D01*
X5591319Y-17774438D01*
X5477034Y-17888724D01*
X5600843Y-17888724D01*
X5724653Y-17688724D02*
X5743700Y-17688724D01*
X5762748Y-17698248D01*
X5772272Y-17707772D01*
X5781796Y-17726819D01*
X5791319Y-17764915D01*
X5791319Y-17812534D01*
X5781796Y-17850629D01*
X5772272Y-17869677D01*
X5762748Y-17879200D01*
X5743700Y-17888724D01*
X5724653Y-17888724D01*
X5705605Y-17879200D01*
X5696081Y-17869677D01*
X5686557Y-17850629D01*
X5677034Y-17812534D01*
X5677034Y-17764915D01*
X5686557Y-17726819D01*
X5696081Y-17707772D01*
X5705605Y-17698248D01*
X5724653Y-17688724D01*
X5915129Y-17688724D02*
X5934176Y-17688724D01*
X5953224Y-17698248D01*
X5962748Y-17707772D01*
X5972272Y-17726819D01*
X5981796Y-17764915D01*
X5981796Y-17812534D01*
X5972272Y-17850629D01*
X5962748Y-17869677D01*
X5953224Y-17879200D01*
X5934176Y-17888724D01*
X5915129Y-17888724D01*
X5896081Y-17879200D01*
X5886557Y-17869677D01*
X5877034Y-17850629D01*
X5867510Y-17812534D01*
X5867510Y-17764915D01*
X5877034Y-17726819D01*
X5886557Y-17707772D01*
X5896081Y-17698248D01*
X5915129Y-17688724D01*
X6067510Y-17888724D02*
X6067510Y-17755391D01*
X6067510Y-17774438D02*
X6077034Y-17764915D01*
X6096081Y-17755391D01*
X6124653Y-17755391D01*
X6143700Y-17764915D01*
X6153224Y-17783962D01*
X6153224Y-17888724D01*
X6153224Y-17783962D02*
X6162748Y-17764915D01*
X6181796Y-17755391D01*
X6210367Y-17755391D01*
X6229415Y-17764915D01*
X6238938Y-17783962D01*
X6238938Y-17888724D01*
X6334176Y-17888724D02*
X6334176Y-17755391D01*
X6334176Y-17774438D02*
X6343700Y-17764915D01*
X6362748Y-17755391D01*
X6391319Y-17755391D01*
X6410367Y-17764915D01*
X6419891Y-17783962D01*
X6419891Y-17888724D01*
X6419891Y-17783962D02*
X6429415Y-17764915D01*
X6448462Y-17755391D01*
X6477034Y-17755391D01*
X6496081Y-17764915D01*
X6505605Y-17783962D01*
X6505605Y-17888724D01*
X6896081Y-17679200D02*
X6724653Y-17936343D01*
X7153224Y-17688724D02*
X7172272Y-17688724D01*
X7191319Y-17698248D01*
X7200843Y-17707772D01*
X7210367Y-17726819D01*
X7219891Y-17764915D01*
X7219891Y-17812534D01*
X7210367Y-17850629D01*
X7200843Y-17869677D01*
X7191319Y-17879200D01*
X7172272Y-17888724D01*
X7153224Y-17888724D01*
X7134176Y-17879200D01*
X7124653Y-17869677D01*
X7115129Y-17850629D01*
X7105605Y-17812534D01*
X7105605Y-17764915D01*
X7115129Y-17726819D01*
X7124653Y-17707772D01*
X7134176Y-17698248D01*
X7153224Y-17688724D01*
X7305605Y-17869677D02*
X7315129Y-17879200D01*
X7305605Y-17888724D01*
X7296081Y-17879200D01*
X7305605Y-17869677D01*
X7305605Y-17888724D01*
X7505605Y-17888724D02*
X7391319Y-17888724D01*
X7448462Y-17888724D02*
X7448462Y-17688724D01*
X7429415Y-17717296D01*
X7410367Y-17736343D01*
X7391319Y-17745867D01*
X7581796Y-17707772D02*
X7591319Y-17698248D01*
X7610367Y-17688724D01*
X7657986Y-17688724D01*
X7677034Y-17698248D01*
X7686557Y-17707772D01*
X7696081Y-17726819D01*
X7696081Y-17745867D01*
X7686557Y-17774438D01*
X7572272Y-17888724D01*
X7696081Y-17888724D01*
X7867510Y-17688724D02*
X7829415Y-17688724D01*
X7810367Y-17698248D01*
X7800843Y-17707772D01*
X7781796Y-17736343D01*
X7772272Y-17774438D01*
X7772272Y-17850629D01*
X7781796Y-17869677D01*
X7791319Y-17879200D01*
X7810367Y-17888724D01*
X7848462Y-17888724D01*
X7867510Y-17879200D01*
X7877034Y-17869677D01*
X7886557Y-17850629D01*
X7886557Y-17803010D01*
X7877034Y-17783962D01*
X7867510Y-17774438D01*
X7848462Y-17764915D01*
X7810367Y-17764915D01*
X7791319Y-17774438D01*
X7781796Y-17783962D01*
X7772272Y-17803010D01*
X8010367Y-17688724D02*
X8029415Y-17688724D01*
X8048462Y-17698248D01*
X8057986Y-17707772D01*
X8067510Y-17726819D01*
X8077034Y-17764915D01*
X8077034Y-17812534D01*
X8067510Y-17850629D01*
X8057986Y-17869677D01*
X8048462Y-17879200D01*
X8029415Y-17888724D01*
X8010367Y-17888724D01*
X7991319Y-17879200D01*
X7981796Y-17869677D01*
X7972272Y-17850629D01*
X7962748Y-17812534D01*
X7962748Y-17764915D01*
X7972272Y-17726819D01*
X7981796Y-17707772D01*
X7991319Y-17698248D01*
X8010367Y-17688724D01*
X8153224Y-17688724D02*
X8153224Y-17726819D01*
X8229415Y-17688724D02*
X8229415Y-17726819D01*
X8524653Y-17964915D02*
X8515129Y-17955391D01*
X8496081Y-17926819D01*
X8486558Y-17907772D01*
X8477034Y-17879200D01*
X8467510Y-17831581D01*
X8467510Y-17793486D01*
X8477034Y-17745867D01*
X8486558Y-17717296D01*
X8496081Y-17698248D01*
X8515129Y-17669677D01*
X8524653Y-17660153D01*
X8629415Y-17774438D02*
X8610367Y-17764915D01*
X8600843Y-17755391D01*
X8591319Y-17736343D01*
X8591319Y-17726819D01*
X8600843Y-17707772D01*
X8610367Y-17698248D01*
X8629415Y-17688724D01*
X8667510Y-17688724D01*
X8686558Y-17698248D01*
X8696081Y-17707772D01*
X8705605Y-17726819D01*
X8705605Y-17736343D01*
X8696081Y-17755391D01*
X8686558Y-17764915D01*
X8667510Y-17774438D01*
X8629415Y-17774438D01*
X8610367Y-17783962D01*
X8600843Y-17793486D01*
X8591319Y-17812534D01*
X8591319Y-17850629D01*
X8600843Y-17869677D01*
X8610367Y-17879200D01*
X8629415Y-17888724D01*
X8667510Y-17888724D01*
X8686558Y-17879200D01*
X8696081Y-17869677D01*
X8705605Y-17850629D01*
X8705605Y-17812534D01*
X8696081Y-17793486D01*
X8686558Y-17783962D01*
X8667510Y-17774438D01*
X8943700Y-17888724D02*
X8943700Y-17688724D01*
X9029415Y-17888724D02*
X9029415Y-17783962D01*
X9019891Y-17764915D01*
X9000843Y-17755391D01*
X8972272Y-17755391D01*
X8953224Y-17764915D01*
X8943700Y-17774438D01*
X9153224Y-17888724D02*
X9134177Y-17879200D01*
X9124653Y-17869677D01*
X9115129Y-17850629D01*
X9115129Y-17793486D01*
X9124653Y-17774438D01*
X9134177Y-17764915D01*
X9153224Y-17755391D01*
X9181796Y-17755391D01*
X9200843Y-17764915D01*
X9210367Y-17774438D01*
X9219891Y-17793486D01*
X9219891Y-17850629D01*
X9210367Y-17869677D01*
X9200843Y-17879200D01*
X9181796Y-17888724D01*
X9153224Y-17888724D01*
X9334177Y-17888724D02*
X9315129Y-17879200D01*
X9305605Y-17860153D01*
X9305605Y-17688724D01*
X9486558Y-17879200D02*
X9467510Y-17888724D01*
X9429415Y-17888724D01*
X9410367Y-17879200D01*
X9400843Y-17860153D01*
X9400843Y-17783962D01*
X9410367Y-17764915D01*
X9429415Y-17755391D01*
X9467510Y-17755391D01*
X9486558Y-17764915D01*
X9496081Y-17783962D01*
X9496081Y-17803010D01*
X9400843Y-17822058D01*
X9572272Y-17879200D02*
X9591319Y-17888724D01*
X9629415Y-17888724D01*
X9648462Y-17879200D01*
X9657986Y-17860153D01*
X9657986Y-17850629D01*
X9648462Y-17831581D01*
X9629415Y-17822058D01*
X9600843Y-17822058D01*
X9581796Y-17812534D01*
X9572272Y-17793486D01*
X9572272Y-17783962D01*
X9581796Y-17764915D01*
X9600843Y-17755391D01*
X9629415Y-17755391D01*
X9648462Y-17764915D01*
X9724653Y-17964915D02*
X9734177Y-17955391D01*
X9753224Y-17926819D01*
X9762748Y-17907772D01*
X9772272Y-17879200D01*
X9781796Y-17831581D01*
X9781796Y-17793486D01*
X9772272Y-17745867D01*
X9762748Y-17717296D01*
X9753224Y-17698248D01*
X9734177Y-17669677D01*
X9724653Y-17660153D01*
X10086558Y-17964915D02*
X10077034Y-17955391D01*
X10057986Y-17926819D01*
X10048462Y-17907772D01*
X10038938Y-17879200D01*
X10029415Y-17831581D01*
X10029415Y-17793486D01*
X10038938Y-17745867D01*
X10048462Y-17717296D01*
X10057986Y-17698248D01*
X10077034Y-17669677D01*
X10086558Y-17660153D01*
X10162748Y-17755391D02*
X10162748Y-17888724D01*
X10162748Y-17774438D02*
X10172272Y-17764915D01*
X10191319Y-17755391D01*
X10219891Y-17755391D01*
X10238938Y-17764915D01*
X10248462Y-17783962D01*
X10248462Y-17888724D01*
X10372272Y-17888724D02*
X10353224Y-17879200D01*
X10343700Y-17869677D01*
X10334177Y-17850629D01*
X10334177Y-17793486D01*
X10343700Y-17774438D01*
X10353224Y-17764915D01*
X10372272Y-17755391D01*
X10400843Y-17755391D01*
X10419891Y-17764915D01*
X10429415Y-17774438D01*
X10438938Y-17793486D01*
X10438938Y-17850629D01*
X10429415Y-17869677D01*
X10419891Y-17879200D01*
X10400843Y-17888724D01*
X10372272Y-17888724D01*
X10496081Y-17755391D02*
X10572272Y-17755391D01*
X10524653Y-17688724D02*
X10524653Y-17860153D01*
X10534177Y-17879200D01*
X10553224Y-17888724D01*
X10572272Y-17888724D01*
X10791319Y-17755391D02*
X10791319Y-17955391D01*
X10791319Y-17764915D02*
X10810367Y-17755391D01*
X10848462Y-17755391D01*
X10867510Y-17764915D01*
X10877034Y-17774438D01*
X10886558Y-17793486D01*
X10886558Y-17850629D01*
X10877034Y-17869677D01*
X10867510Y-17879200D01*
X10848462Y-17888724D01*
X10810367Y-17888724D01*
X10791319Y-17879200D01*
X11000843Y-17888724D02*
X10981796Y-17879200D01*
X10972272Y-17860153D01*
X10972272Y-17688724D01*
X11162748Y-17888724D02*
X11162748Y-17783962D01*
X11153224Y-17764915D01*
X11134177Y-17755391D01*
X11096081Y-17755391D01*
X11077034Y-17764915D01*
X11162748Y-17879200D02*
X11143700Y-17888724D01*
X11096081Y-17888724D01*
X11077034Y-17879200D01*
X11067510Y-17860153D01*
X11067510Y-17841105D01*
X11077034Y-17822058D01*
X11096081Y-17812534D01*
X11143700Y-17812534D01*
X11162748Y-17803010D01*
X11229415Y-17755391D02*
X11305605Y-17755391D01*
X11257986Y-17688724D02*
X11257986Y-17860153D01*
X11267510Y-17879200D01*
X11286557Y-17888724D01*
X11305605Y-17888724D01*
X11448462Y-17879200D02*
X11429415Y-17888724D01*
X11391319Y-17888724D01*
X11372272Y-17879200D01*
X11362748Y-17860153D01*
X11362748Y-17783962D01*
X11372272Y-17764915D01*
X11391319Y-17755391D01*
X11429415Y-17755391D01*
X11448462Y-17764915D01*
X11457986Y-17783962D01*
X11457986Y-17803010D01*
X11362748Y-17822058D01*
X11629415Y-17888724D02*
X11629415Y-17688724D01*
X11629415Y-17879200D02*
X11610367Y-17888724D01*
X11572272Y-17888724D01*
X11553224Y-17879200D01*
X11543700Y-17869677D01*
X11534176Y-17850629D01*
X11534176Y-17793486D01*
X11543700Y-17774438D01*
X11553224Y-17764915D01*
X11572272Y-17755391D01*
X11610367Y-17755391D01*
X11629415Y-17764915D01*
X11705605Y-17964915D02*
X11715129Y-17955391D01*
X11734176Y-17926819D01*
X11743700Y-17907772D01*
X11753224Y-17879200D01*
X11762748Y-17831581D01*
X11762748Y-17793486D01*
X11753224Y-17745867D01*
X11743700Y-17717296D01*
X11734176Y-17698248D01*
X11715129Y-17669677D01*
X11705605Y-17660153D01*
X4952748Y-18118248D02*
G75*
G03*
X4952748Y-18118248I-100000J0D01*
G01*
X5296081Y-18075391D02*
X5296081Y-18208724D01*
X5248462Y-17999200D02*
X5200843Y-18142058D01*
X5324653Y-18142058D01*
X5400843Y-18189677D02*
X5410367Y-18199200D01*
X5400843Y-18208724D01*
X5391319Y-18199200D01*
X5400843Y-18189677D01*
X5400843Y-18208724D01*
X5591319Y-18008724D02*
X5496081Y-18008724D01*
X5486558Y-18103962D01*
X5496081Y-18094438D01*
X5515129Y-18084915D01*
X5562748Y-18084915D01*
X5581796Y-18094438D01*
X5591319Y-18103962D01*
X5600843Y-18123010D01*
X5600843Y-18170629D01*
X5591319Y-18189677D01*
X5581796Y-18199200D01*
X5562748Y-18208724D01*
X5515129Y-18208724D01*
X5496081Y-18199200D01*
X5486558Y-18189677D01*
X5724653Y-18008724D02*
X5743700Y-18008724D01*
X5762748Y-18018248D01*
X5772272Y-18027772D01*
X5781796Y-18046819D01*
X5791319Y-18084915D01*
X5791319Y-18132534D01*
X5781796Y-18170629D01*
X5772272Y-18189677D01*
X5762748Y-18199200D01*
X5743700Y-18208724D01*
X5724653Y-18208724D01*
X5705605Y-18199200D01*
X5696081Y-18189677D01*
X5686557Y-18170629D01*
X5677034Y-18132534D01*
X5677034Y-18084915D01*
X5686557Y-18046819D01*
X5696081Y-18027772D01*
X5705605Y-18018248D01*
X5724653Y-18008724D01*
X5915129Y-18008724D02*
X5934176Y-18008724D01*
X5953224Y-18018248D01*
X5962748Y-18027772D01*
X5972272Y-18046819D01*
X5981796Y-18084915D01*
X5981796Y-18132534D01*
X5972272Y-18170629D01*
X5962748Y-18189677D01*
X5953224Y-18199200D01*
X5934176Y-18208724D01*
X5915129Y-18208724D01*
X5896081Y-18199200D01*
X5886557Y-18189677D01*
X5877034Y-18170629D01*
X5867510Y-18132534D01*
X5867510Y-18084915D01*
X5877034Y-18046819D01*
X5886557Y-18027772D01*
X5896081Y-18018248D01*
X5915129Y-18008724D01*
X6067510Y-18208724D02*
X6067510Y-18075391D01*
X6067510Y-18094438D02*
X6077034Y-18084915D01*
X6096081Y-18075391D01*
X6124653Y-18075391D01*
X6143700Y-18084915D01*
X6153224Y-18103962D01*
X6153224Y-18208724D01*
X6153224Y-18103962D02*
X6162748Y-18084915D01*
X6181796Y-18075391D01*
X6210367Y-18075391D01*
X6229415Y-18084915D01*
X6238938Y-18103962D01*
X6238938Y-18208724D01*
X6334176Y-18208724D02*
X6334176Y-18075391D01*
X6334176Y-18094438D02*
X6343700Y-18084915D01*
X6362748Y-18075391D01*
X6391319Y-18075391D01*
X6410367Y-18084915D01*
X6419891Y-18103962D01*
X6419891Y-18208724D01*
X6419891Y-18103962D02*
X6429415Y-18084915D01*
X6448462Y-18075391D01*
X6477034Y-18075391D01*
X6496081Y-18084915D01*
X6505605Y-18103962D01*
X6505605Y-18208724D01*
X6896081Y-17999200D02*
X6724653Y-18256343D01*
X7153224Y-18008724D02*
X7172272Y-18008724D01*
X7191319Y-18018248D01*
X7200843Y-18027772D01*
X7210367Y-18046819D01*
X7219891Y-18084915D01*
X7219891Y-18132534D01*
X7210367Y-18170629D01*
X7200843Y-18189677D01*
X7191319Y-18199200D01*
X7172272Y-18208724D01*
X7153224Y-18208724D01*
X7134176Y-18199200D01*
X7124653Y-18189677D01*
X7115129Y-18170629D01*
X7105605Y-18132534D01*
X7105605Y-18084915D01*
X7115129Y-18046819D01*
X7124653Y-18027772D01*
X7134176Y-18018248D01*
X7153224Y-18008724D01*
X7305605Y-18189677D02*
X7315129Y-18199200D01*
X7305605Y-18208724D01*
X7296081Y-18199200D01*
X7305605Y-18189677D01*
X7305605Y-18208724D01*
X7505605Y-18208724D02*
X7391319Y-18208724D01*
X7448462Y-18208724D02*
X7448462Y-18008724D01*
X7429415Y-18037296D01*
X7410367Y-18056343D01*
X7391319Y-18065867D01*
X7572272Y-18008724D02*
X7705605Y-18008724D01*
X7619891Y-18208724D01*
X7762748Y-18008724D02*
X7896081Y-18008724D01*
X7810367Y-18208724D01*
X7962748Y-18027772D02*
X7972272Y-18018248D01*
X7991319Y-18008724D01*
X8038938Y-18008724D01*
X8057986Y-18018248D01*
X8067510Y-18027772D01*
X8077034Y-18046819D01*
X8077034Y-18065867D01*
X8067510Y-18094438D01*
X7953224Y-18208724D01*
X8077034Y-18208724D01*
X8153224Y-18008724D02*
X8153224Y-18046819D01*
X8229415Y-18008724D02*
X8229415Y-18046819D01*
X8524653Y-18284915D02*
X8515129Y-18275391D01*
X8496081Y-18246819D01*
X8486558Y-18227772D01*
X8477034Y-18199200D01*
X8467510Y-18151581D01*
X8467510Y-18113486D01*
X8477034Y-18065867D01*
X8486558Y-18037296D01*
X8496081Y-18018248D01*
X8515129Y-17989677D01*
X8524653Y-17980153D01*
X8686558Y-18008724D02*
X8648462Y-18008724D01*
X8629415Y-18018248D01*
X8619891Y-18027772D01*
X8600843Y-18056343D01*
X8591319Y-18094438D01*
X8591319Y-18170629D01*
X8600843Y-18189677D01*
X8610367Y-18199200D01*
X8629415Y-18208724D01*
X8667510Y-18208724D01*
X8686558Y-18199200D01*
X8696081Y-18189677D01*
X8705605Y-18170629D01*
X8705605Y-18123010D01*
X8696081Y-18103962D01*
X8686558Y-18094438D01*
X8667510Y-18084915D01*
X8629415Y-18084915D01*
X8610367Y-18094438D01*
X8600843Y-18103962D01*
X8591319Y-18123010D01*
X8943700Y-18208724D02*
X8943700Y-18008724D01*
X9029415Y-18208724D02*
X9029415Y-18103962D01*
X9019891Y-18084915D01*
X9000843Y-18075391D01*
X8972272Y-18075391D01*
X8953224Y-18084915D01*
X8943700Y-18094438D01*
X9153224Y-18208724D02*
X9134177Y-18199200D01*
X9124653Y-18189677D01*
X9115129Y-18170629D01*
X9115129Y-18113486D01*
X9124653Y-18094438D01*
X9134177Y-18084915D01*
X9153224Y-18075391D01*
X9181796Y-18075391D01*
X9200843Y-18084915D01*
X9210367Y-18094438D01*
X9219891Y-18113486D01*
X9219891Y-18170629D01*
X9210367Y-18189677D01*
X9200843Y-18199200D01*
X9181796Y-18208724D01*
X9153224Y-18208724D01*
X9334177Y-18208724D02*
X9315129Y-18199200D01*
X9305605Y-18180153D01*
X9305605Y-18008724D01*
X9486558Y-18199200D02*
X9467510Y-18208724D01*
X9429415Y-18208724D01*
X9410367Y-18199200D01*
X9400843Y-18180153D01*
X9400843Y-18103962D01*
X9410367Y-18084915D01*
X9429415Y-18075391D01*
X9467510Y-18075391D01*
X9486558Y-18084915D01*
X9496081Y-18103962D01*
X9496081Y-18123010D01*
X9400843Y-18142058D01*
X9572272Y-18199200D02*
X9591319Y-18208724D01*
X9629415Y-18208724D01*
X9648462Y-18199200D01*
X9657986Y-18180153D01*
X9657986Y-18170629D01*
X9648462Y-18151581D01*
X9629415Y-18142058D01*
X9600843Y-18142058D01*
X9581796Y-18132534D01*
X9572272Y-18113486D01*
X9572272Y-18103962D01*
X9581796Y-18084915D01*
X9600843Y-18075391D01*
X9629415Y-18075391D01*
X9648462Y-18084915D01*
X9724653Y-18284915D02*
X9734177Y-18275391D01*
X9753224Y-18246819D01*
X9762748Y-18227772D01*
X9772272Y-18199200D01*
X9781796Y-18151581D01*
X9781796Y-18113486D01*
X9772272Y-18065867D01*
X9762748Y-18037296D01*
X9753224Y-18018248D01*
X9734177Y-17989677D01*
X9724653Y-17980153D01*
X10086558Y-18284915D02*
X10077034Y-18275391D01*
X10057986Y-18246819D01*
X10048462Y-18227772D01*
X10038938Y-18199200D01*
X10029415Y-18151581D01*
X10029415Y-18113486D01*
X10038938Y-18065867D01*
X10048462Y-18037296D01*
X10057986Y-18018248D01*
X10077034Y-17989677D01*
X10086558Y-17980153D01*
X10162748Y-18075391D02*
X10162748Y-18208724D01*
X10162748Y-18094438D02*
X10172272Y-18084915D01*
X10191319Y-18075391D01*
X10219891Y-18075391D01*
X10238938Y-18084915D01*
X10248462Y-18103962D01*
X10248462Y-18208724D01*
X10372272Y-18208724D02*
X10353224Y-18199200D01*
X10343700Y-18189677D01*
X10334177Y-18170629D01*
X10334177Y-18113486D01*
X10343700Y-18094438D01*
X10353224Y-18084915D01*
X10372272Y-18075391D01*
X10400843Y-18075391D01*
X10419891Y-18084915D01*
X10429415Y-18094438D01*
X10438938Y-18113486D01*
X10438938Y-18170629D01*
X10429415Y-18189677D01*
X10419891Y-18199200D01*
X10400843Y-18208724D01*
X10372272Y-18208724D01*
X10496081Y-18075391D02*
X10572272Y-18075391D01*
X10524653Y-18008724D02*
X10524653Y-18180153D01*
X10534177Y-18199200D01*
X10553224Y-18208724D01*
X10572272Y-18208724D01*
X10791319Y-18075391D02*
X10791319Y-18275391D01*
X10791319Y-18084915D02*
X10810367Y-18075391D01*
X10848462Y-18075391D01*
X10867510Y-18084915D01*
X10877034Y-18094438D01*
X10886558Y-18113486D01*
X10886558Y-18170629D01*
X10877034Y-18189677D01*
X10867510Y-18199200D01*
X10848462Y-18208724D01*
X10810367Y-18208724D01*
X10791319Y-18199200D01*
X11000843Y-18208724D02*
X10981796Y-18199200D01*
X10972272Y-18180153D01*
X10972272Y-18008724D01*
X11162748Y-18208724D02*
X11162748Y-18103962D01*
X11153224Y-18084915D01*
X11134177Y-18075391D01*
X11096081Y-18075391D01*
X11077034Y-18084915D01*
X11162748Y-18199200D02*
X11143700Y-18208724D01*
X11096081Y-18208724D01*
X11077034Y-18199200D01*
X11067510Y-18180153D01*
X11067510Y-18161105D01*
X11077034Y-18142058D01*
X11096081Y-18132534D01*
X11143700Y-18132534D01*
X11162748Y-18123010D01*
X11229415Y-18075391D02*
X11305605Y-18075391D01*
X11257986Y-18008724D02*
X11257986Y-18180153D01*
X11267510Y-18199200D01*
X11286557Y-18208724D01*
X11305605Y-18208724D01*
X11448462Y-18199200D02*
X11429415Y-18208724D01*
X11391319Y-18208724D01*
X11372272Y-18199200D01*
X11362748Y-18180153D01*
X11362748Y-18103962D01*
X11372272Y-18084915D01*
X11391319Y-18075391D01*
X11429415Y-18075391D01*
X11448462Y-18084915D01*
X11457986Y-18103962D01*
X11457986Y-18123010D01*
X11362748Y-18142058D01*
X11629415Y-18208724D02*
X11629415Y-18008724D01*
X11629415Y-18199200D02*
X11610367Y-18208724D01*
X11572272Y-18208724D01*
X11553224Y-18199200D01*
X11543700Y-18189677D01*
X11534176Y-18170629D01*
X11534176Y-18113486D01*
X11543700Y-18094438D01*
X11553224Y-18084915D01*
X11572272Y-18075391D01*
X11610367Y-18075391D01*
X11629415Y-18084915D01*
X11705605Y-18284915D02*
X11715129Y-18275391D01*
X11734176Y-18246819D01*
X11743700Y-18227772D01*
X11753224Y-18199200D01*
X11762748Y-18151581D01*
X11762748Y-18113486D01*
X11753224Y-18065867D01*
X11743700Y-18037296D01*
X11734176Y-18018248D01*
X11715129Y-17989677D01*
X11705605Y-17980153D01*
M02*
