%FSLAX45Y45*%
G04 Gerber Fmt 4.5, Leading zero omitted, Abs format (unit mm)*
G04 Created by KiCad (PCBNEW (6.0.1)) date 2023-01-17 23:26:00*
%MOMM*%
%LPD*%
G01*
G04 APERTURE LIST*
%TA.AperFunction,Profile*%
%ADD10C,0.100000*%
%TD*%
%ADD11C,0.200000*%
%ADD12C,0.040000*%
%ADD13C,0.060000*%
%ADD14C,0.075412*%
%ADD15C,0.092000*%
%ADD16C,0.095000*%
%ADD17C,0.100000*%
%ADD18C,0.110000*%
%ADD19C,0.120000*%
%ADD20C,0.150000*%
%ADD21C,0.180000*%
%ADD22C,0.220000*%
%ADD23C,0.230000*%
%ADD24C,0.350000*%
G04 APERTURE END LIST*
D10*
X4957748Y-13900000D02*
X7857748Y-9453248D01*
X7857748Y-9453248D02*
X37757748Y-9453248D01*
X37757748Y-9453248D02*
X37757748Y-17153248D01*
X37757748Y-17153248D02*
X4957748Y-17153248D01*
X4957748Y-17153248D02*
X4957748Y-13900000D01*
D11*
D12*
X6650000Y-16389748D02*
X6690000Y-16429748D01*
X6690000Y-16389748D02*
X6650000Y-16429748D01*
X8250000Y-16389748D02*
X8290000Y-16429748D01*
X8290000Y-16389748D02*
X8250000Y-16429748D01*
X8550000Y-14500000D02*
X8590000Y-14540000D01*
X8590000Y-14500000D02*
X8550000Y-14540000D01*
X8780000Y-14900000D02*
X8820000Y-14940000D01*
X8820000Y-14900000D02*
X8780000Y-14940000D01*
X8780000Y-15680000D02*
X8820000Y-15720000D01*
X8820000Y-15680000D02*
X8780000Y-15720000D01*
X9130000Y-16030000D02*
X9170000Y-16070000D01*
X9170000Y-16030000D02*
X9130000Y-16070000D01*
X9850000Y-16389748D02*
X9890000Y-16429748D01*
X9890000Y-16389748D02*
X9850000Y-16429748D01*
X10392450Y-16370000D02*
X10432450Y-16410000D01*
X10432450Y-16370000D02*
X10392450Y-16410000D01*
X11680000Y-13480000D02*
X11720000Y-13520000D01*
X11720000Y-13480000D02*
X11680000Y-13520000D01*
X11780000Y-12480000D02*
X11820000Y-12520000D01*
X11820000Y-12480000D02*
X11780000Y-12520000D01*
X11934670Y-13480000D02*
X11974670Y-13520000D01*
X11974670Y-13480000D02*
X11934670Y-13520000D01*
X12279600Y-14852400D02*
X12319600Y-14892400D01*
X12319600Y-14852400D02*
X12279600Y-14892400D01*
X12480000Y-14080000D02*
X12520000Y-14120000D01*
X12520000Y-14080000D02*
X12480000Y-14120000D01*
X12508200Y-14852400D02*
X12548200Y-14892400D01*
X12548200Y-14852400D02*
X12508200Y-14892400D01*
X12630000Y-14330000D02*
X12670000Y-14370000D01*
X12670000Y-14330000D02*
X12630000Y-14370000D01*
X13178950Y-12541000D02*
X13218950Y-12581000D01*
X13218950Y-12541000D02*
X13178950Y-12581000D01*
X13178950Y-12896600D02*
X13218950Y-12936600D01*
X13218950Y-12896600D02*
X13178950Y-12936600D01*
X13178950Y-13226800D02*
X13218950Y-13266800D01*
X13218950Y-13226800D02*
X13178950Y-13266800D01*
X13178950Y-13557000D02*
X13218950Y-13597000D01*
X13218950Y-13557000D02*
X13178950Y-13597000D01*
X13178950Y-13887200D02*
X13218950Y-13927200D01*
X13218950Y-13887200D02*
X13178950Y-13927200D01*
X17480000Y-13480000D02*
X17520000Y-13520000D01*
X17520000Y-13480000D02*
X17480000Y-13520000D01*
X17580000Y-12480000D02*
X17620000Y-12520000D01*
X17620000Y-12480000D02*
X17580000Y-12520000D01*
X17730000Y-13480000D02*
X17770000Y-13520000D01*
X17770000Y-13480000D02*
X17730000Y-13520000D01*
X18088148Y-14861448D02*
X18128148Y-14901448D01*
X18128148Y-14861448D02*
X18088148Y-14901448D01*
X18280000Y-14080000D02*
X18320000Y-14120000D01*
X18320000Y-14080000D02*
X18280000Y-14120000D01*
X18280000Y-14380000D02*
X18320000Y-14420000D01*
X18320000Y-14380000D02*
X18280000Y-14420000D01*
X18316748Y-14861448D02*
X18356748Y-14901448D01*
X18356748Y-14861448D02*
X18316748Y-14901448D01*
X18987498Y-12550048D02*
X19027498Y-12590048D01*
X19027498Y-12550048D02*
X18987498Y-12590048D01*
X18987498Y-12905648D02*
X19027498Y-12945648D01*
X19027498Y-12905648D02*
X18987498Y-12945648D01*
X18987498Y-13235848D02*
X19027498Y-13275848D01*
X19027498Y-13235848D02*
X18987498Y-13275848D01*
X18987498Y-13566048D02*
X19027498Y-13606048D01*
X19027498Y-13566048D02*
X18987498Y-13606048D01*
X18987498Y-13896248D02*
X19027498Y-13936248D01*
X19027498Y-13896248D02*
X18987498Y-13936248D01*
X5222500Y-16547248D02*
G75*
G03*
X5222500Y-16547248I-20000J0D01*
G01*
X5222500Y-16682248D02*
G75*
G03*
X5222500Y-16682248I-20000J0D01*
G01*
X5307500Y-16547248D02*
G75*
G03*
X5307500Y-16547248I-20000J0D01*
G01*
X5307500Y-16682248D02*
G75*
G03*
X5307500Y-16682248I-20000J0D01*
G01*
X5392500Y-16547248D02*
G75*
G03*
X5392500Y-16547248I-20000J0D01*
G01*
X5392500Y-16682248D02*
G75*
G03*
X5392500Y-16682248I-20000J0D01*
G01*
X5477500Y-16547248D02*
G75*
G03*
X5477500Y-16547248I-20000J0D01*
G01*
X5477500Y-16682248D02*
G75*
G03*
X5477500Y-16682248I-20000J0D01*
G01*
X5562500Y-16547248D02*
G75*
G03*
X5562500Y-16547248I-20000J0D01*
G01*
X5562500Y-16682248D02*
G75*
G03*
X5562500Y-16682248I-20000J0D01*
G01*
X5647500Y-16547248D02*
G75*
G03*
X5647500Y-16547248I-20000J0D01*
G01*
X5647500Y-16682248D02*
G75*
G03*
X5647500Y-16682248I-20000J0D01*
G01*
X5732500Y-16547248D02*
G75*
G03*
X5732500Y-16547248I-20000J0D01*
G01*
X5732500Y-16682248D02*
G75*
G03*
X5732500Y-16682248I-20000J0D01*
G01*
X5817500Y-16547248D02*
G75*
G03*
X5817500Y-16547248I-20000J0D01*
G01*
X5817500Y-16682248D02*
G75*
G03*
X5817500Y-16682248I-20000J0D01*
G01*
X6822500Y-16547248D02*
G75*
G03*
X6822500Y-16547248I-20000J0D01*
G01*
X6822500Y-16682248D02*
G75*
G03*
X6822500Y-16682248I-20000J0D01*
G01*
X6907500Y-16547248D02*
G75*
G03*
X6907500Y-16547248I-20000J0D01*
G01*
X6907500Y-16682248D02*
G75*
G03*
X6907500Y-16682248I-20000J0D01*
G01*
X6992500Y-16547248D02*
G75*
G03*
X6992500Y-16547248I-20000J0D01*
G01*
X6992500Y-16682248D02*
G75*
G03*
X6992500Y-16682248I-20000J0D01*
G01*
X7077500Y-16547248D02*
G75*
G03*
X7077500Y-16547248I-20000J0D01*
G01*
X7077500Y-16682248D02*
G75*
G03*
X7077500Y-16682248I-20000J0D01*
G01*
X7162500Y-16547248D02*
G75*
G03*
X7162500Y-16547248I-20000J0D01*
G01*
X7162500Y-16682248D02*
G75*
G03*
X7162500Y-16682248I-20000J0D01*
G01*
X7247500Y-16547248D02*
G75*
G03*
X7247500Y-16547248I-20000J0D01*
G01*
X7247500Y-16682248D02*
G75*
G03*
X7247500Y-16682248I-20000J0D01*
G01*
X7332500Y-16547248D02*
G75*
G03*
X7332500Y-16547248I-20000J0D01*
G01*
X7332500Y-16682248D02*
G75*
G03*
X7332500Y-16682248I-20000J0D01*
G01*
X7417500Y-16547248D02*
G75*
G03*
X7417500Y-16547248I-20000J0D01*
G01*
X7417500Y-16682248D02*
G75*
G03*
X7417500Y-16682248I-20000J0D01*
G01*
X8422500Y-16547248D02*
G75*
G03*
X8422500Y-16547248I-20000J0D01*
G01*
X8422500Y-16682248D02*
G75*
G03*
X8422500Y-16682248I-20000J0D01*
G01*
X8507500Y-16547248D02*
G75*
G03*
X8507500Y-16547248I-20000J0D01*
G01*
X8507500Y-16682248D02*
G75*
G03*
X8507500Y-16682248I-20000J0D01*
G01*
X8592500Y-16547248D02*
G75*
G03*
X8592500Y-16547248I-20000J0D01*
G01*
X8592500Y-16682248D02*
G75*
G03*
X8592500Y-16682248I-20000J0D01*
G01*
X8677500Y-16547248D02*
G75*
G03*
X8677500Y-16547248I-20000J0D01*
G01*
X8677500Y-16682248D02*
G75*
G03*
X8677500Y-16682248I-20000J0D01*
G01*
X8762500Y-16547248D02*
G75*
G03*
X8762500Y-16547248I-20000J0D01*
G01*
X8762500Y-16682248D02*
G75*
G03*
X8762500Y-16682248I-20000J0D01*
G01*
X8847500Y-16547248D02*
G75*
G03*
X8847500Y-16547248I-20000J0D01*
G01*
X8847500Y-16682248D02*
G75*
G03*
X8847500Y-16682248I-20000J0D01*
G01*
X8932500Y-16547248D02*
G75*
G03*
X8932500Y-16547248I-20000J0D01*
G01*
X8932500Y-16682248D02*
G75*
G03*
X8932500Y-16682248I-20000J0D01*
G01*
X9017500Y-16547248D02*
G75*
G03*
X9017500Y-16547248I-20000J0D01*
G01*
X9017500Y-16682248D02*
G75*
G03*
X9017500Y-16682248I-20000J0D01*
G01*
X10022500Y-16547248D02*
G75*
G03*
X10022500Y-16547248I-20000J0D01*
G01*
X10022500Y-16682248D02*
G75*
G03*
X10022500Y-16682248I-20000J0D01*
G01*
X10107500Y-16547248D02*
G75*
G03*
X10107500Y-16547248I-20000J0D01*
G01*
X10107500Y-16682248D02*
G75*
G03*
X10107500Y-16682248I-20000J0D01*
G01*
X10192500Y-16547248D02*
G75*
G03*
X10192500Y-16547248I-20000J0D01*
G01*
X10192500Y-16682248D02*
G75*
G03*
X10192500Y-16682248I-20000J0D01*
G01*
X10277500Y-16547248D02*
G75*
G03*
X10277500Y-16547248I-20000J0D01*
G01*
X10277500Y-16682248D02*
G75*
G03*
X10277500Y-16682248I-20000J0D01*
G01*
X10362500Y-16547248D02*
G75*
G03*
X10362500Y-16547248I-20000J0D01*
G01*
X10362500Y-16682248D02*
G75*
G03*
X10362500Y-16682248I-20000J0D01*
G01*
X10447500Y-16547248D02*
G75*
G03*
X10447500Y-16547248I-20000J0D01*
G01*
X10447500Y-16682248D02*
G75*
G03*
X10447500Y-16682248I-20000J0D01*
G01*
X10532500Y-16547248D02*
G75*
G03*
X10532500Y-16547248I-20000J0D01*
G01*
X10532500Y-16682248D02*
G75*
G03*
X10532500Y-16682248I-20000J0D01*
G01*
X10617500Y-16547248D02*
G75*
G03*
X10617500Y-16547248I-20000J0D01*
G01*
X10617500Y-16682248D02*
G75*
G03*
X10617500Y-16682248I-20000J0D01*
G01*
D13*
X5067500Y-16615248D02*
X5067500Y-16675248D01*
X5037500Y-16645248D02*
X5097500Y-16645248D01*
D11*
X5047500Y-16570248D02*
X5047500Y-16720248D01*
X5087500Y-16570248D02*
X5087500Y-16720248D01*
X5047500Y-16720248D02*
G75*
G03*
X5087500Y-16720248I20000J0D01*
G01*
X5087500Y-16570248D02*
G75*
G03*
X5047500Y-16570248I-20000J0D01*
G01*
D13*
X5067500Y-16953248D02*
X5067500Y-17013248D01*
X5037500Y-16983248D02*
X5097500Y-16983248D01*
D11*
X5047500Y-16943248D02*
X5047500Y-17023248D01*
X5087500Y-16943248D02*
X5087500Y-17023248D01*
X5047500Y-17023248D02*
G75*
G03*
X5087500Y-17023248I20000J0D01*
G01*
X5087500Y-16943248D02*
G75*
G03*
X5047500Y-16943248I-20000J0D01*
G01*
D13*
X5932500Y-16615248D02*
X5932500Y-16675248D01*
X5902500Y-16645248D02*
X5962500Y-16645248D01*
D11*
X5912500Y-16570248D02*
X5912500Y-16720248D01*
X5952500Y-16570248D02*
X5952500Y-16720248D01*
X5912500Y-16720248D02*
G75*
G03*
X5952500Y-16720248I20000J0D01*
G01*
X5952500Y-16570248D02*
G75*
G03*
X5912500Y-16570248I-20000J0D01*
G01*
D13*
X5932500Y-16953248D02*
X5932500Y-17013248D01*
X5902500Y-16983248D02*
X5962500Y-16983248D01*
D11*
X5912500Y-16943248D02*
X5912500Y-17023248D01*
X5952500Y-16943248D02*
X5952500Y-17023248D01*
X5912500Y-17023248D02*
G75*
G03*
X5952500Y-17023248I20000J0D01*
G01*
X5952500Y-16943248D02*
G75*
G03*
X5912500Y-16943248I-20000J0D01*
G01*
D13*
X6667500Y-16615248D02*
X6667500Y-16675248D01*
X6637500Y-16645248D02*
X6697500Y-16645248D01*
D11*
X6647500Y-16570248D02*
X6647500Y-16720248D01*
X6687500Y-16570248D02*
X6687500Y-16720248D01*
X6647500Y-16720248D02*
G75*
G03*
X6687500Y-16720248I20000J0D01*
G01*
X6687500Y-16570248D02*
G75*
G03*
X6647500Y-16570248I-20000J0D01*
G01*
D13*
X6667500Y-16953248D02*
X6667500Y-17013248D01*
X6637500Y-16983248D02*
X6697500Y-16983248D01*
D11*
X6647500Y-16943248D02*
X6647500Y-17023248D01*
X6687500Y-16943248D02*
X6687500Y-17023248D01*
X6647500Y-17023248D02*
G75*
G03*
X6687500Y-17023248I20000J0D01*
G01*
X6687500Y-16943248D02*
G75*
G03*
X6647500Y-16943248I-20000J0D01*
G01*
D13*
X7532500Y-16615248D02*
X7532500Y-16675248D01*
X7502500Y-16645248D02*
X7562500Y-16645248D01*
D11*
X7512500Y-16570248D02*
X7512500Y-16720248D01*
X7552500Y-16570248D02*
X7552500Y-16720248D01*
X7512500Y-16720248D02*
G75*
G03*
X7552500Y-16720248I20000J0D01*
G01*
X7552500Y-16570248D02*
G75*
G03*
X7512500Y-16570248I-20000J0D01*
G01*
D13*
X7532500Y-16953248D02*
X7532500Y-17013248D01*
X7502500Y-16983248D02*
X7562500Y-16983248D01*
D11*
X7512500Y-16943248D02*
X7512500Y-17023248D01*
X7552500Y-16943248D02*
X7552500Y-17023248D01*
X7512500Y-17023248D02*
G75*
G03*
X7552500Y-17023248I20000J0D01*
G01*
X7552500Y-16943248D02*
G75*
G03*
X7512500Y-16943248I-20000J0D01*
G01*
D13*
X8267500Y-16615248D02*
X8267500Y-16675248D01*
X8237500Y-16645248D02*
X8297500Y-16645248D01*
D11*
X8247500Y-16570248D02*
X8247500Y-16720248D01*
X8287500Y-16570248D02*
X8287500Y-16720248D01*
X8247500Y-16720248D02*
G75*
G03*
X8287500Y-16720248I20000J0D01*
G01*
X8287500Y-16570248D02*
G75*
G03*
X8247500Y-16570248I-20000J0D01*
G01*
D13*
X8267500Y-16953248D02*
X8267500Y-17013248D01*
X8237500Y-16983248D02*
X8297500Y-16983248D01*
D11*
X8247500Y-16943248D02*
X8247500Y-17023248D01*
X8287500Y-16943248D02*
X8287500Y-17023248D01*
X8247500Y-17023248D02*
G75*
G03*
X8287500Y-17023248I20000J0D01*
G01*
X8287500Y-16943248D02*
G75*
G03*
X8247500Y-16943248I-20000J0D01*
G01*
D13*
X9132500Y-16615248D02*
X9132500Y-16675248D01*
X9102500Y-16645248D02*
X9162500Y-16645248D01*
D11*
X9112500Y-16570248D02*
X9112500Y-16720248D01*
X9152500Y-16570248D02*
X9152500Y-16720248D01*
X9112500Y-16720248D02*
G75*
G03*
X9152500Y-16720248I20000J0D01*
G01*
X9152500Y-16570248D02*
G75*
G03*
X9112500Y-16570248I-20000J0D01*
G01*
D13*
X9132500Y-16953248D02*
X9132500Y-17013248D01*
X9102500Y-16983248D02*
X9162500Y-16983248D01*
D11*
X9112500Y-16943248D02*
X9112500Y-17023248D01*
X9152500Y-16943248D02*
X9152500Y-17023248D01*
X9112500Y-17023248D02*
G75*
G03*
X9152500Y-17023248I20000J0D01*
G01*
X9152500Y-16943248D02*
G75*
G03*
X9112500Y-16943248I-20000J0D01*
G01*
D13*
X9867500Y-16615248D02*
X9867500Y-16675248D01*
X9837500Y-16645248D02*
X9897500Y-16645248D01*
D11*
X9847500Y-16570248D02*
X9847500Y-16720248D01*
X9887500Y-16570248D02*
X9887500Y-16720248D01*
X9847500Y-16720248D02*
G75*
G03*
X9887500Y-16720248I20000J0D01*
G01*
X9887500Y-16570248D02*
G75*
G03*
X9847500Y-16570248I-20000J0D01*
G01*
D13*
X9867500Y-16953248D02*
X9867500Y-17013248D01*
X9837500Y-16983248D02*
X9897500Y-16983248D01*
D11*
X9847500Y-16943248D02*
X9847500Y-17023248D01*
X9887500Y-16943248D02*
X9887500Y-17023248D01*
X9847500Y-17023248D02*
G75*
G03*
X9887500Y-17023248I20000J0D01*
G01*
X9887500Y-16943248D02*
G75*
G03*
X9847500Y-16943248I-20000J0D01*
G01*
D13*
X10732500Y-16615248D02*
X10732500Y-16675248D01*
X10702500Y-16645248D02*
X10762500Y-16645248D01*
D11*
X10712500Y-16570248D02*
X10712500Y-16720248D01*
X10752500Y-16570248D02*
X10752500Y-16720248D01*
X10712500Y-16720248D02*
G75*
G03*
X10752500Y-16720248I20000J0D01*
G01*
X10752500Y-16570248D02*
G75*
G03*
X10712500Y-16570248I-20000J0D01*
G01*
D13*
X10732500Y-16953248D02*
X10732500Y-17013248D01*
X10702500Y-16983248D02*
X10762500Y-16983248D01*
D11*
X10712500Y-16943248D02*
X10712500Y-17023248D01*
X10752500Y-16943248D02*
X10752500Y-17023248D01*
X10712500Y-17023248D02*
G75*
G03*
X10752500Y-17023248I20000J0D01*
G01*
X10752500Y-16943248D02*
G75*
G03*
X10712500Y-16943248I-20000J0D01*
G01*
D14*
X10261863Y-10495863D02*
X10261863Y-10442537D01*
X10208537Y-10442537D01*
X10208537Y-10495863D01*
X10261863Y-10495863D01*
X10261863Y-11257863D02*
X10261863Y-11204537D01*
X10208537Y-11204537D01*
X10208537Y-11257863D01*
X10261863Y-11257863D01*
X10515863Y-10495863D02*
X10515863Y-10442537D01*
X10462537Y-10442537D01*
X10462537Y-10495863D01*
X10515863Y-10495863D01*
X10515863Y-11257863D02*
X10515863Y-11204537D01*
X10462537Y-11204537D01*
X10462537Y-11257863D01*
X10515863Y-11257863D01*
X10769863Y-10495863D02*
X10769863Y-10442537D01*
X10716537Y-10442537D01*
X10716537Y-10495863D01*
X10769863Y-10495863D01*
X10769863Y-11257863D02*
X10769863Y-11204537D01*
X10716537Y-11204537D01*
X10716537Y-11257863D01*
X10769863Y-11257863D01*
X11023863Y-10495863D02*
X11023863Y-10442537D01*
X10970537Y-10442537D01*
X10970537Y-10495863D01*
X11023863Y-10495863D01*
X11023863Y-11257863D02*
X11023863Y-11204537D01*
X10970537Y-11204537D01*
X10970537Y-11257863D01*
X11023863Y-11257863D01*
X11277863Y-10495863D02*
X11277863Y-10442537D01*
X11224537Y-10442537D01*
X11224537Y-10495863D01*
X11277863Y-10495863D01*
X11277863Y-11257863D02*
X11277863Y-11204537D01*
X11224537Y-11204537D01*
X11224537Y-11257863D01*
X11277863Y-11257863D01*
X11531863Y-10495863D02*
X11531863Y-10442537D01*
X11478537Y-10442537D01*
X11478537Y-10495863D01*
X11531863Y-10495863D01*
X11531863Y-11257863D02*
X11531863Y-11204537D01*
X11478537Y-11204537D01*
X11478537Y-11257863D01*
X11531863Y-11257863D01*
X11785863Y-10495863D02*
X11785863Y-10442537D01*
X11732537Y-10442537D01*
X11732537Y-10495863D01*
X11785863Y-10495863D01*
X11785863Y-11257863D02*
X11785863Y-11204537D01*
X11732537Y-11204537D01*
X11732537Y-11257863D01*
X11785863Y-11257863D01*
X12039863Y-10495863D02*
X12039863Y-10442537D01*
X11986537Y-10442537D01*
X11986537Y-10495863D01*
X12039863Y-10495863D01*
X12039863Y-11257863D02*
X12039863Y-11204537D01*
X11986537Y-11204537D01*
X11986537Y-11257863D01*
X12039863Y-11257863D01*
X16070411Y-10504911D02*
X16070411Y-10451585D01*
X16017085Y-10451585D01*
X16017085Y-10504911D01*
X16070411Y-10504911D01*
X16070411Y-11266911D02*
X16070411Y-11213585D01*
X16017085Y-11213585D01*
X16017085Y-11266911D01*
X16070411Y-11266911D01*
X16324411Y-10504911D02*
X16324411Y-10451585D01*
X16271085Y-10451585D01*
X16271085Y-10504911D01*
X16324411Y-10504911D01*
X16324411Y-11266911D02*
X16324411Y-11213585D01*
X16271085Y-11213585D01*
X16271085Y-11266911D01*
X16324411Y-11266911D01*
X16578411Y-10504911D02*
X16578411Y-10451585D01*
X16525085Y-10451585D01*
X16525085Y-10504911D01*
X16578411Y-10504911D01*
X16578411Y-11266911D02*
X16578411Y-11213585D01*
X16525085Y-11213585D01*
X16525085Y-11266911D01*
X16578411Y-11266911D01*
X16832411Y-10504911D02*
X16832411Y-10451585D01*
X16779085Y-10451585D01*
X16779085Y-10504911D01*
X16832411Y-10504911D01*
X16832411Y-11266911D02*
X16832411Y-11213585D01*
X16779085Y-11213585D01*
X16779085Y-11266911D01*
X16832411Y-11266911D01*
X17086411Y-10504911D02*
X17086411Y-10451585D01*
X17033085Y-10451585D01*
X17033085Y-10504911D01*
X17086411Y-10504911D01*
X17086411Y-11266911D02*
X17086411Y-11213585D01*
X17033085Y-11213585D01*
X17033085Y-11266911D01*
X17086411Y-11266911D01*
X17340411Y-10504911D02*
X17340411Y-10451585D01*
X17287085Y-10451585D01*
X17287085Y-10504911D01*
X17340411Y-10504911D01*
X17340411Y-11266911D02*
X17340411Y-11213585D01*
X17287085Y-11213585D01*
X17287085Y-11266911D01*
X17340411Y-11266911D01*
X17594411Y-10504911D02*
X17594411Y-10451585D01*
X17541085Y-10451585D01*
X17541085Y-10504911D01*
X17594411Y-10504911D01*
X17594411Y-11266911D02*
X17594411Y-11213585D01*
X17541085Y-11213585D01*
X17541085Y-11266911D01*
X17594411Y-11266911D01*
X17848411Y-10504911D02*
X17848411Y-10451585D01*
X17795085Y-10451585D01*
X17795085Y-10504911D01*
X17848411Y-10504911D01*
X17848411Y-11266911D02*
X17848411Y-11213585D01*
X17795085Y-11213585D01*
X17795085Y-11266911D01*
X17848411Y-11266911D01*
D15*
X5550000Y-15374470D02*
X5596000Y-15328470D01*
X5550000Y-15282470D01*
X5504000Y-15328470D01*
X5550000Y-15374470D01*
X5550000Y-15636470D02*
X5596000Y-15590470D01*
X5550000Y-15544470D01*
X5504000Y-15590470D01*
X5550000Y-15636470D01*
X5800000Y-15374470D02*
X5846000Y-15328470D01*
X5800000Y-15282470D01*
X5754000Y-15328470D01*
X5800000Y-15374470D01*
X5800000Y-15636470D02*
X5846000Y-15590470D01*
X5800000Y-15544470D01*
X5754000Y-15590470D01*
X5800000Y-15636470D01*
X6000000Y-15374470D02*
X6046000Y-15328470D01*
X6000000Y-15282470D01*
X5954000Y-15328470D01*
X6000000Y-15374470D01*
X6000000Y-15636470D02*
X6046000Y-15590470D01*
X6000000Y-15544470D01*
X5954000Y-15590470D01*
X6000000Y-15636470D01*
X6250000Y-15374470D02*
X6296000Y-15328470D01*
X6250000Y-15282470D01*
X6204000Y-15328470D01*
X6250000Y-15374470D01*
X6250000Y-15636470D02*
X6296000Y-15590470D01*
X6250000Y-15544470D01*
X6204000Y-15590470D01*
X6250000Y-15636470D01*
X7450000Y-15374470D02*
X7496000Y-15328470D01*
X7450000Y-15282470D01*
X7404000Y-15328470D01*
X7450000Y-15374470D01*
X7450000Y-15636470D02*
X7496000Y-15590470D01*
X7450000Y-15544470D01*
X7404000Y-15590470D01*
X7450000Y-15636470D01*
X7700000Y-15374470D02*
X7746000Y-15328470D01*
X7700000Y-15282470D01*
X7654000Y-15328470D01*
X7700000Y-15374470D01*
X7700000Y-15636470D02*
X7746000Y-15590470D01*
X7700000Y-15544470D01*
X7654000Y-15590470D01*
X7700000Y-15636470D01*
X7900000Y-15374470D02*
X7946000Y-15328470D01*
X7900000Y-15282470D01*
X7854000Y-15328470D01*
X7900000Y-15374470D01*
X7900000Y-15636470D02*
X7946000Y-15590470D01*
X7900000Y-15544470D01*
X7854000Y-15590470D01*
X7900000Y-15636470D01*
X8150000Y-15374470D02*
X8196000Y-15328470D01*
X8150000Y-15282470D01*
X8104000Y-15328470D01*
X8150000Y-15374470D01*
X8150000Y-15636470D02*
X8196000Y-15590470D01*
X8150000Y-15544470D01*
X8104000Y-15590470D01*
X8150000Y-15636470D01*
D16*
X9888500Y-12926700D02*
X9983500Y-13021700D01*
X9983500Y-12926700D02*
X9888500Y-13021700D01*
X9983500Y-12974200D02*
G75*
G03*
X9983500Y-12974200I-47500J0D01*
G01*
X10001700Y-13546700D02*
X10096700Y-13641700D01*
X10096700Y-13546700D02*
X10001700Y-13641700D01*
X10096700Y-13594200D02*
G75*
G03*
X10096700Y-13594200I-47500J0D01*
G01*
X10001700Y-13796700D02*
X10096700Y-13891700D01*
X10096700Y-13796700D02*
X10001700Y-13891700D01*
X10096700Y-13844200D02*
G75*
G03*
X10096700Y-13844200I-47500J0D01*
G01*
X10001700Y-14046700D02*
X10096700Y-14141700D01*
X10096700Y-14046700D02*
X10001700Y-14141700D01*
X10096700Y-14094200D02*
G75*
G03*
X10096700Y-14094200I-47500J0D01*
G01*
X10001700Y-14296700D02*
X10096700Y-14391700D01*
X10096700Y-14296700D02*
X10001700Y-14391700D01*
X10096700Y-14344200D02*
G75*
G03*
X10096700Y-14344200I-47500J0D01*
G01*
X10001700Y-14546700D02*
X10096700Y-14641700D01*
X10096700Y-14546700D02*
X10001700Y-14641700D01*
X10096700Y-14594200D02*
G75*
G03*
X10096700Y-14594200I-47500J0D01*
G01*
X10001700Y-14796700D02*
X10096700Y-14891700D01*
X10096700Y-14796700D02*
X10001700Y-14891700D01*
X10096700Y-14844200D02*
G75*
G03*
X10096700Y-14844200I-47500J0D01*
G01*
X10001700Y-15046700D02*
X10096700Y-15141700D01*
X10096700Y-15046700D02*
X10001700Y-15141700D01*
X10096700Y-15094200D02*
G75*
G03*
X10096700Y-15094200I-47500J0D01*
G01*
X10001700Y-15296700D02*
X10096700Y-15391700D01*
X10096700Y-15296700D02*
X10001700Y-15391700D01*
X10096700Y-15344200D02*
G75*
G03*
X10096700Y-15344200I-47500J0D01*
G01*
X10138500Y-12926700D02*
X10233500Y-13021700D01*
X10233500Y-12926700D02*
X10138500Y-13021700D01*
X10233500Y-12974200D02*
G75*
G03*
X10233500Y-12974200I-47500J0D01*
G01*
X10201700Y-9846700D02*
X10296700Y-9941700D01*
X10296700Y-9846700D02*
X10201700Y-9941700D01*
X10296700Y-9894200D02*
G75*
G03*
X10296700Y-9894200I-47500J0D01*
G01*
X10388500Y-12926700D02*
X10483500Y-13021700D01*
X10483500Y-12926700D02*
X10388500Y-13021700D01*
X10483500Y-12974200D02*
G75*
G03*
X10483500Y-12974200I-47500J0D01*
G01*
X10451700Y-9846700D02*
X10546700Y-9941700D01*
X10546700Y-9846700D02*
X10451700Y-9941700D01*
X10546700Y-9894200D02*
G75*
G03*
X10546700Y-9894200I-47500J0D01*
G01*
X10638500Y-12926700D02*
X10733500Y-13021700D01*
X10733500Y-12926700D02*
X10638500Y-13021700D01*
X10733500Y-12974200D02*
G75*
G03*
X10733500Y-12974200I-47500J0D01*
G01*
X10701700Y-9846700D02*
X10796700Y-9941700D01*
X10796700Y-9846700D02*
X10701700Y-9941700D01*
X10796700Y-9894200D02*
G75*
G03*
X10796700Y-9894200I-47500J0D01*
G01*
X10888500Y-12926700D02*
X10983500Y-13021700D01*
X10983500Y-12926700D02*
X10888500Y-13021700D01*
X10983500Y-12974200D02*
G75*
G03*
X10983500Y-12974200I-47500J0D01*
G01*
X10951700Y-9846700D02*
X11046700Y-9941700D01*
X11046700Y-9846700D02*
X10951700Y-9941700D01*
X11046700Y-9894200D02*
G75*
G03*
X11046700Y-9894200I-47500J0D01*
G01*
X11138500Y-12926700D02*
X11233500Y-13021700D01*
X11233500Y-12926700D02*
X11138500Y-13021700D01*
X11233500Y-12974200D02*
G75*
G03*
X11233500Y-12974200I-47500J0D01*
G01*
X11201700Y-9846700D02*
X11296700Y-9941700D01*
X11296700Y-9846700D02*
X11201700Y-9941700D01*
X11296700Y-9894200D02*
G75*
G03*
X11296700Y-9894200I-47500J0D01*
G01*
X11388500Y-12926700D02*
X11483500Y-13021700D01*
X11483500Y-12926700D02*
X11388500Y-13021700D01*
X11483500Y-12974200D02*
G75*
G03*
X11483500Y-12974200I-47500J0D01*
G01*
X11451700Y-9846700D02*
X11546700Y-9941700D01*
X11546700Y-9846700D02*
X11451700Y-9941700D01*
X11546700Y-9894200D02*
G75*
G03*
X11546700Y-9894200I-47500J0D01*
G01*
X11638500Y-12926700D02*
X11733500Y-13021700D01*
X11733500Y-12926700D02*
X11638500Y-13021700D01*
X11733500Y-12974200D02*
G75*
G03*
X11733500Y-12974200I-47500J0D01*
G01*
X11701700Y-9846700D02*
X11796700Y-9941700D01*
X11796700Y-9846700D02*
X11701700Y-9941700D01*
X11796700Y-9894200D02*
G75*
G03*
X11796700Y-9894200I-47500J0D01*
G01*
X11888500Y-12926700D02*
X11983500Y-13021700D01*
X11983500Y-12926700D02*
X11888500Y-13021700D01*
X11983500Y-12974200D02*
G75*
G03*
X11983500Y-12974200I-47500J0D01*
G01*
X12138500Y-12926700D02*
X12233500Y-13021700D01*
X12233500Y-12926700D02*
X12138500Y-13021700D01*
X12233500Y-12974200D02*
G75*
G03*
X12233500Y-12974200I-47500J0D01*
G01*
X12388500Y-12926700D02*
X12483500Y-13021700D01*
X12483500Y-12926700D02*
X12388500Y-13021700D01*
X12483500Y-12974200D02*
G75*
G03*
X12483500Y-12974200I-47500J0D01*
G01*
X12451700Y-9846700D02*
X12546700Y-9941700D01*
X12546700Y-9846700D02*
X12451700Y-9941700D01*
X12546700Y-9894200D02*
G75*
G03*
X12546700Y-9894200I-47500J0D01*
G01*
X12701700Y-9846700D02*
X12796700Y-9941700D01*
X12796700Y-9846700D02*
X12701700Y-9941700D01*
X12796700Y-9894200D02*
G75*
G03*
X12796700Y-9894200I-47500J0D01*
G01*
X12951700Y-9846700D02*
X13046700Y-9941700D01*
X13046700Y-9846700D02*
X12951700Y-9941700D01*
X13046700Y-9894200D02*
G75*
G03*
X13046700Y-9894200I-47500J0D01*
G01*
X13201700Y-9846700D02*
X13296700Y-9941700D01*
X13296700Y-9846700D02*
X13201700Y-9941700D01*
X13296700Y-9894200D02*
G75*
G03*
X13296700Y-9894200I-47500J0D01*
G01*
X13451700Y-9846700D02*
X13546700Y-9941700D01*
X13546700Y-9846700D02*
X13451700Y-9941700D01*
X13546700Y-9894200D02*
G75*
G03*
X13546700Y-9894200I-47500J0D01*
G01*
X13701700Y-9846700D02*
X13796700Y-9941700D01*
X13796700Y-9846700D02*
X13701700Y-9941700D01*
X13796700Y-9894200D02*
G75*
G03*
X13796700Y-9894200I-47500J0D01*
G01*
X15697048Y-12935748D02*
X15792048Y-13030748D01*
X15792048Y-12935748D02*
X15697048Y-13030748D01*
X15792048Y-12983248D02*
G75*
G03*
X15792048Y-12983248I-47500J0D01*
G01*
X15810248Y-13555748D02*
X15905248Y-13650748D01*
X15905248Y-13555748D02*
X15810248Y-13650748D01*
X15905248Y-13603248D02*
G75*
G03*
X15905248Y-13603248I-47500J0D01*
G01*
X15810248Y-13805748D02*
X15905248Y-13900748D01*
X15905248Y-13805748D02*
X15810248Y-13900748D01*
X15905248Y-13853248D02*
G75*
G03*
X15905248Y-13853248I-47500J0D01*
G01*
X15810248Y-14055748D02*
X15905248Y-14150748D01*
X15905248Y-14055748D02*
X15810248Y-14150748D01*
X15905248Y-14103248D02*
G75*
G03*
X15905248Y-14103248I-47500J0D01*
G01*
X15810248Y-14305748D02*
X15905248Y-14400748D01*
X15905248Y-14305748D02*
X15810248Y-14400748D01*
X15905248Y-14353248D02*
G75*
G03*
X15905248Y-14353248I-47500J0D01*
G01*
X15810248Y-14555748D02*
X15905248Y-14650748D01*
X15905248Y-14555748D02*
X15810248Y-14650748D01*
X15905248Y-14603248D02*
G75*
G03*
X15905248Y-14603248I-47500J0D01*
G01*
X15810248Y-14805748D02*
X15905248Y-14900748D01*
X15905248Y-14805748D02*
X15810248Y-14900748D01*
X15905248Y-14853248D02*
G75*
G03*
X15905248Y-14853248I-47500J0D01*
G01*
X15810248Y-15055748D02*
X15905248Y-15150748D01*
X15905248Y-15055748D02*
X15810248Y-15150748D01*
X15905248Y-15103248D02*
G75*
G03*
X15905248Y-15103248I-47500J0D01*
G01*
X15810248Y-15305748D02*
X15905248Y-15400748D01*
X15905248Y-15305748D02*
X15810248Y-15400748D01*
X15905248Y-15353248D02*
G75*
G03*
X15905248Y-15353248I-47500J0D01*
G01*
X15947048Y-12935748D02*
X16042048Y-13030748D01*
X16042048Y-12935748D02*
X15947048Y-13030748D01*
X16042048Y-12983248D02*
G75*
G03*
X16042048Y-12983248I-47500J0D01*
G01*
X16010248Y-9855748D02*
X16105248Y-9950748D01*
X16105248Y-9855748D02*
X16010248Y-9950748D01*
X16105248Y-9903248D02*
G75*
G03*
X16105248Y-9903248I-47500J0D01*
G01*
X16197048Y-12935748D02*
X16292048Y-13030748D01*
X16292048Y-12935748D02*
X16197048Y-13030748D01*
X16292048Y-12983248D02*
G75*
G03*
X16292048Y-12983248I-47500J0D01*
G01*
X16260248Y-9855748D02*
X16355248Y-9950748D01*
X16355248Y-9855748D02*
X16260248Y-9950748D01*
X16355248Y-9903248D02*
G75*
G03*
X16355248Y-9903248I-47500J0D01*
G01*
X16447048Y-12935748D02*
X16542048Y-13030748D01*
X16542048Y-12935748D02*
X16447048Y-13030748D01*
X16542048Y-12983248D02*
G75*
G03*
X16542048Y-12983248I-47500J0D01*
G01*
X16510248Y-9855748D02*
X16605248Y-9950748D01*
X16605248Y-9855748D02*
X16510248Y-9950748D01*
X16605248Y-9903248D02*
G75*
G03*
X16605248Y-9903248I-47500J0D01*
G01*
X16697048Y-12935748D02*
X16792048Y-13030748D01*
X16792048Y-12935748D02*
X16697048Y-13030748D01*
X16792048Y-12983248D02*
G75*
G03*
X16792048Y-12983248I-47500J0D01*
G01*
X16760248Y-9855748D02*
X16855248Y-9950748D01*
X16855248Y-9855748D02*
X16760248Y-9950748D01*
X16855248Y-9903248D02*
G75*
G03*
X16855248Y-9903248I-47500J0D01*
G01*
X16947048Y-12935748D02*
X17042048Y-13030748D01*
X17042048Y-12935748D02*
X16947048Y-13030748D01*
X17042048Y-12983248D02*
G75*
G03*
X17042048Y-12983248I-47500J0D01*
G01*
X17010248Y-9855748D02*
X17105248Y-9950748D01*
X17105248Y-9855748D02*
X17010248Y-9950748D01*
X17105248Y-9903248D02*
G75*
G03*
X17105248Y-9903248I-47500J0D01*
G01*
X17197048Y-12935748D02*
X17292048Y-13030748D01*
X17292048Y-12935748D02*
X17197048Y-13030748D01*
X17292048Y-12983248D02*
G75*
G03*
X17292048Y-12983248I-47500J0D01*
G01*
X17260248Y-9855748D02*
X17355248Y-9950748D01*
X17355248Y-9855748D02*
X17260248Y-9950748D01*
X17355248Y-9903248D02*
G75*
G03*
X17355248Y-9903248I-47500J0D01*
G01*
X17447048Y-12935748D02*
X17542048Y-13030748D01*
X17542048Y-12935748D02*
X17447048Y-13030748D01*
X17542048Y-12983248D02*
G75*
G03*
X17542048Y-12983248I-47500J0D01*
G01*
X17510248Y-9855748D02*
X17605248Y-9950748D01*
X17605248Y-9855748D02*
X17510248Y-9950748D01*
X17605248Y-9903248D02*
G75*
G03*
X17605248Y-9903248I-47500J0D01*
G01*
X17697048Y-12935748D02*
X17792048Y-13030748D01*
X17792048Y-12935748D02*
X17697048Y-13030748D01*
X17792048Y-12983248D02*
G75*
G03*
X17792048Y-12983248I-47500J0D01*
G01*
X17947048Y-12935748D02*
X18042048Y-13030748D01*
X18042048Y-12935748D02*
X17947048Y-13030748D01*
X18042048Y-12983248D02*
G75*
G03*
X18042048Y-12983248I-47500J0D01*
G01*
X18197048Y-12935748D02*
X18292048Y-13030748D01*
X18292048Y-12935748D02*
X18197048Y-13030748D01*
X18292048Y-12983248D02*
G75*
G03*
X18292048Y-12983248I-47500J0D01*
G01*
X18260248Y-9855748D02*
X18355248Y-9950748D01*
X18355248Y-9855748D02*
X18260248Y-9950748D01*
X18355248Y-9903248D02*
G75*
G03*
X18355248Y-9903248I-47500J0D01*
G01*
X18510248Y-9855748D02*
X18605248Y-9950748D01*
X18605248Y-9855748D02*
X18510248Y-9950748D01*
X18605248Y-9903248D02*
G75*
G03*
X18605248Y-9903248I-47500J0D01*
G01*
X18760248Y-9855748D02*
X18855248Y-9950748D01*
X18855248Y-9855748D02*
X18760248Y-9950748D01*
X18855248Y-9903248D02*
G75*
G03*
X18855248Y-9903248I-47500J0D01*
G01*
X19010248Y-9855748D02*
X19105248Y-9950748D01*
X19105248Y-9855748D02*
X19010248Y-9950748D01*
X19105248Y-9903248D02*
G75*
G03*
X19105248Y-9903248I-47500J0D01*
G01*
X19260248Y-9855748D02*
X19355248Y-9950748D01*
X19355248Y-9855748D02*
X19260248Y-9950748D01*
X19355248Y-9903248D02*
G75*
G03*
X19355248Y-9903248I-47500J0D01*
G01*
X19510248Y-9855748D02*
X19605248Y-9950748D01*
X19605248Y-9855748D02*
X19510248Y-9950748D01*
X19605248Y-9903248D02*
G75*
G03*
X19605248Y-9903248I-47500J0D01*
G01*
X22594086Y-9885748D02*
X22689086Y-9980748D01*
X22689086Y-9885748D02*
X22594086Y-9980748D01*
X22689086Y-9933248D02*
G75*
G03*
X22689086Y-9933248I-47500J0D01*
G01*
X22594086Y-11785748D02*
X22689086Y-11880748D01*
X22689086Y-11785748D02*
X22594086Y-11880748D01*
X22689086Y-11833248D02*
G75*
G03*
X22689086Y-11833248I-47500J0D01*
G01*
X22594086Y-13685748D02*
X22689086Y-13780748D01*
X22689086Y-13685748D02*
X22594086Y-13780748D01*
X22689086Y-13733248D02*
G75*
G03*
X22689086Y-13733248I-47500J0D01*
G01*
X22594086Y-15585748D02*
X22689086Y-15680748D01*
X22689086Y-15585748D02*
X22594086Y-15680748D01*
X22689086Y-15633248D02*
G75*
G03*
X22689086Y-15633248I-47500J0D01*
G01*
X22844086Y-9885748D02*
X22939086Y-9980748D01*
X22939086Y-9885748D02*
X22844086Y-9980748D01*
X22939086Y-9933248D02*
G75*
G03*
X22939086Y-9933248I-47500J0D01*
G01*
X22844086Y-11785748D02*
X22939086Y-11880748D01*
X22939086Y-11785748D02*
X22844086Y-11880748D01*
X22939086Y-11833248D02*
G75*
G03*
X22939086Y-11833248I-47500J0D01*
G01*
X22844086Y-13685748D02*
X22939086Y-13780748D01*
X22939086Y-13685748D02*
X22844086Y-13780748D01*
X22939086Y-13733248D02*
G75*
G03*
X22939086Y-13733248I-47500J0D01*
G01*
X22844086Y-15585748D02*
X22939086Y-15680748D01*
X22939086Y-15585748D02*
X22844086Y-15680748D01*
X22939086Y-15633248D02*
G75*
G03*
X22939086Y-15633248I-47500J0D01*
G01*
X23094086Y-9885748D02*
X23189086Y-9980748D01*
X23189086Y-9885748D02*
X23094086Y-9980748D01*
X23189086Y-9933248D02*
G75*
G03*
X23189086Y-9933248I-47500J0D01*
G01*
X23094086Y-11785748D02*
X23189086Y-11880748D01*
X23189086Y-11785748D02*
X23094086Y-11880748D01*
X23189086Y-11833248D02*
G75*
G03*
X23189086Y-11833248I-47500J0D01*
G01*
X23094086Y-13685748D02*
X23189086Y-13780748D01*
X23189086Y-13685748D02*
X23094086Y-13780748D01*
X23189086Y-13733248D02*
G75*
G03*
X23189086Y-13733248I-47500J0D01*
G01*
X23094086Y-15585748D02*
X23189086Y-15680748D01*
X23189086Y-15585748D02*
X23094086Y-15680748D01*
X23189086Y-15633248D02*
G75*
G03*
X23189086Y-15633248I-47500J0D01*
G01*
X23894086Y-9885748D02*
X23989086Y-9980748D01*
X23989086Y-9885748D02*
X23894086Y-9980748D01*
X23989086Y-9933248D02*
G75*
G03*
X23989086Y-9933248I-47500J0D01*
G01*
X23894086Y-11785748D02*
X23989086Y-11880748D01*
X23989086Y-11785748D02*
X23894086Y-11880748D01*
X23989086Y-11833248D02*
G75*
G03*
X23989086Y-11833248I-47500J0D01*
G01*
X23894086Y-13685748D02*
X23989086Y-13780748D01*
X23989086Y-13685748D02*
X23894086Y-13780748D01*
X23989086Y-13733248D02*
G75*
G03*
X23989086Y-13733248I-47500J0D01*
G01*
X23894086Y-15585748D02*
X23989086Y-15680748D01*
X23989086Y-15585748D02*
X23894086Y-15680748D01*
X23989086Y-15633248D02*
G75*
G03*
X23989086Y-15633248I-47500J0D01*
G01*
X24144086Y-9885748D02*
X24239086Y-9980748D01*
X24239086Y-9885748D02*
X24144086Y-9980748D01*
X24239086Y-9933248D02*
G75*
G03*
X24239086Y-9933248I-47500J0D01*
G01*
X24144086Y-11785748D02*
X24239086Y-11880748D01*
X24239086Y-11785748D02*
X24144086Y-11880748D01*
X24239086Y-11833248D02*
G75*
G03*
X24239086Y-11833248I-47500J0D01*
G01*
X24144086Y-13685748D02*
X24239086Y-13780748D01*
X24239086Y-13685748D02*
X24144086Y-13780748D01*
X24239086Y-13733248D02*
G75*
G03*
X24239086Y-13733248I-47500J0D01*
G01*
X24144086Y-15585748D02*
X24239086Y-15680748D01*
X24239086Y-15585748D02*
X24144086Y-15680748D01*
X24239086Y-15633248D02*
G75*
G03*
X24239086Y-15633248I-47500J0D01*
G01*
X24394086Y-9885748D02*
X24489086Y-9980748D01*
X24489086Y-9885748D02*
X24394086Y-9980748D01*
X24489086Y-9933248D02*
G75*
G03*
X24489086Y-9933248I-47500J0D01*
G01*
X24394086Y-11785748D02*
X24489086Y-11880748D01*
X24489086Y-11785748D02*
X24394086Y-11880748D01*
X24489086Y-11833248D02*
G75*
G03*
X24489086Y-11833248I-47500J0D01*
G01*
X24394086Y-13685748D02*
X24489086Y-13780748D01*
X24489086Y-13685748D02*
X24394086Y-13780748D01*
X24489086Y-13733248D02*
G75*
G03*
X24489086Y-13733248I-47500J0D01*
G01*
X24394086Y-15585748D02*
X24489086Y-15680748D01*
X24489086Y-15585748D02*
X24394086Y-15680748D01*
X24489086Y-15633248D02*
G75*
G03*
X24489086Y-15633248I-47500J0D01*
G01*
D17*
X9100000Y-12130000D02*
X9200000Y-12230000D01*
X9200000Y-12130000D02*
X9100000Y-12230000D01*
X9150000Y-12130000D02*
X9150000Y-12230000D01*
X9100000Y-12180000D02*
X9200000Y-12180000D01*
X9100000Y-12384000D02*
X9200000Y-12484000D01*
X9200000Y-12384000D02*
X9100000Y-12484000D01*
X9150000Y-12384000D02*
X9150000Y-12484000D01*
X9100000Y-12434000D02*
X9200000Y-12434000D01*
X9100000Y-12638000D02*
X9200000Y-12738000D01*
X9200000Y-12638000D02*
X9100000Y-12738000D01*
X9150000Y-12638000D02*
X9150000Y-12738000D01*
X9100000Y-12688000D02*
X9200000Y-12688000D01*
X9100000Y-12892000D02*
X9200000Y-12992000D01*
X9200000Y-12892000D02*
X9100000Y-12992000D01*
X9150000Y-12892000D02*
X9150000Y-12992000D01*
X9100000Y-12942000D02*
X9200000Y-12942000D01*
X9100000Y-13146000D02*
X9200000Y-13246000D01*
X9200000Y-13146000D02*
X9100000Y-13246000D01*
X9150000Y-13146000D02*
X9150000Y-13246000D01*
X9100000Y-13196000D02*
X9200000Y-13196000D01*
X9100000Y-13400000D02*
X9200000Y-13500000D01*
X9200000Y-13400000D02*
X9100000Y-13500000D01*
X9150000Y-13400000D02*
X9150000Y-13500000D01*
X9100000Y-13450000D02*
X9200000Y-13450000D01*
X9100000Y-13654000D02*
X9200000Y-13754000D01*
X9200000Y-13654000D02*
X9100000Y-13754000D01*
X9150000Y-13654000D02*
X9150000Y-13754000D01*
X9100000Y-13704000D02*
X9200000Y-13704000D01*
X9100000Y-13908000D02*
X9200000Y-14008000D01*
X9200000Y-13908000D02*
X9100000Y-14008000D01*
X9150000Y-13908000D02*
X9150000Y-14008000D01*
X9100000Y-13958000D02*
X9200000Y-13958000D01*
X9100000Y-14416000D02*
X9200000Y-14516000D01*
X9200000Y-14416000D02*
X9100000Y-14516000D01*
X9150000Y-14416000D02*
X9150000Y-14516000D01*
X9100000Y-14466000D02*
X9200000Y-14466000D01*
X9100000Y-14670000D02*
X9200000Y-14770000D01*
X9200000Y-14670000D02*
X9100000Y-14770000D01*
X9150000Y-14670000D02*
X9150000Y-14770000D01*
X9100000Y-14720000D02*
X9200000Y-14720000D01*
X9100000Y-14924000D02*
X9200000Y-15024000D01*
X9200000Y-14924000D02*
X9100000Y-15024000D01*
X9150000Y-14924000D02*
X9150000Y-15024000D01*
X9100000Y-14974000D02*
X9200000Y-14974000D01*
X9100000Y-15178000D02*
X9200000Y-15278000D01*
X9200000Y-15178000D02*
X9100000Y-15278000D01*
X9150000Y-15178000D02*
X9150000Y-15278000D01*
X9100000Y-15228000D02*
X9200000Y-15228000D01*
X9100000Y-15432000D02*
X9200000Y-15532000D01*
X9200000Y-15432000D02*
X9100000Y-15532000D01*
X9150000Y-15432000D02*
X9150000Y-15532000D01*
X9100000Y-15482000D02*
X9200000Y-15482000D01*
X9100000Y-15686000D02*
X9200000Y-15786000D01*
X9200000Y-15686000D02*
X9100000Y-15786000D01*
X9150000Y-15686000D02*
X9150000Y-15786000D01*
X9100000Y-15736000D02*
X9200000Y-15736000D01*
X10624000Y-14035000D02*
X10724000Y-14135000D01*
X10724000Y-14035000D02*
X10624000Y-14135000D01*
X10674000Y-14035000D02*
X10674000Y-14135000D01*
X10624000Y-14085000D02*
X10724000Y-14085000D01*
X10624000Y-15051000D02*
X10724000Y-15151000D01*
X10724000Y-15051000D02*
X10624000Y-15151000D01*
X10674000Y-15051000D02*
X10674000Y-15151000D01*
X10624000Y-15101000D02*
X10724000Y-15101000D01*
X10878000Y-14035000D02*
X10978000Y-14135000D01*
X10978000Y-14035000D02*
X10878000Y-14135000D01*
X10928000Y-14035000D02*
X10928000Y-14135000D01*
X10878000Y-14085000D02*
X10978000Y-14085000D01*
X10878000Y-15051000D02*
X10978000Y-15151000D01*
X10978000Y-15051000D02*
X10878000Y-15151000D01*
X10928000Y-15051000D02*
X10928000Y-15151000D01*
X10878000Y-15101000D02*
X10978000Y-15101000D01*
X11132000Y-14035000D02*
X11232000Y-14135000D01*
X11232000Y-14035000D02*
X11132000Y-14135000D01*
X11182000Y-14035000D02*
X11182000Y-14135000D01*
X11132000Y-14085000D02*
X11232000Y-14085000D01*
X11132000Y-15051000D02*
X11232000Y-15151000D01*
X11232000Y-15051000D02*
X11132000Y-15151000D01*
X11182000Y-15051000D02*
X11182000Y-15151000D01*
X11132000Y-15101000D02*
X11232000Y-15101000D01*
X11386000Y-14035000D02*
X11486000Y-14135000D01*
X11486000Y-14035000D02*
X11386000Y-14135000D01*
X11436000Y-14035000D02*
X11436000Y-14135000D01*
X11386000Y-14085000D02*
X11486000Y-14085000D01*
X11386000Y-15051000D02*
X11486000Y-15151000D01*
X11486000Y-15051000D02*
X11386000Y-15151000D01*
X11436000Y-15051000D02*
X11436000Y-15151000D01*
X11386000Y-15101000D02*
X11486000Y-15101000D01*
X11386000Y-15698700D02*
X11486000Y-15798700D01*
X11486000Y-15698700D02*
X11386000Y-15798700D01*
X11436000Y-15698700D02*
X11436000Y-15798700D01*
X11386000Y-15748700D02*
X11486000Y-15748700D01*
X11386000Y-15952700D02*
X11486000Y-16052700D01*
X11486000Y-15952700D02*
X11386000Y-16052700D01*
X11436000Y-15952700D02*
X11436000Y-16052700D01*
X11386000Y-16002700D02*
X11486000Y-16002700D01*
X11640000Y-14035000D02*
X11740000Y-14135000D01*
X11740000Y-14035000D02*
X11640000Y-14135000D01*
X11690000Y-14035000D02*
X11690000Y-14135000D01*
X11640000Y-14085000D02*
X11740000Y-14085000D01*
X11640000Y-15051000D02*
X11740000Y-15151000D01*
X11740000Y-15051000D02*
X11640000Y-15151000D01*
X11690000Y-15051000D02*
X11690000Y-15151000D01*
X11640000Y-15101000D02*
X11740000Y-15101000D01*
X11640000Y-15698700D02*
X11740000Y-15798700D01*
X11740000Y-15698700D02*
X11640000Y-15798700D01*
X11690000Y-15698700D02*
X11690000Y-15798700D01*
X11640000Y-15748700D02*
X11740000Y-15748700D01*
X11640000Y-15952700D02*
X11740000Y-16052700D01*
X11740000Y-15952700D02*
X11640000Y-16052700D01*
X11690000Y-15952700D02*
X11690000Y-16052700D01*
X11640000Y-16002700D02*
X11740000Y-16002700D01*
X11894000Y-14035000D02*
X11994000Y-14135000D01*
X11994000Y-14035000D02*
X11894000Y-14135000D01*
X11944000Y-14035000D02*
X11944000Y-14135000D01*
X11894000Y-14085000D02*
X11994000Y-14085000D01*
X11894000Y-15051000D02*
X11994000Y-15151000D01*
X11994000Y-15051000D02*
X11894000Y-15151000D01*
X11944000Y-15051000D02*
X11944000Y-15151000D01*
X11894000Y-15101000D02*
X11994000Y-15101000D01*
X11894000Y-15698700D02*
X11994000Y-15798700D01*
X11994000Y-15698700D02*
X11894000Y-15798700D01*
X11944000Y-15698700D02*
X11944000Y-15798700D01*
X11894000Y-15748700D02*
X11994000Y-15748700D01*
X11894000Y-15952700D02*
X11994000Y-16052700D01*
X11994000Y-15952700D02*
X11894000Y-16052700D01*
X11944000Y-15952700D02*
X11944000Y-16052700D01*
X11894000Y-16002700D02*
X11994000Y-16002700D01*
X13926000Y-11215600D02*
X14026000Y-11315600D01*
X14026000Y-11215600D02*
X13926000Y-11315600D01*
X13976000Y-11215600D02*
X13976000Y-11315600D01*
X13926000Y-11265600D02*
X14026000Y-11265600D01*
X13926000Y-11469600D02*
X14026000Y-11569600D01*
X14026000Y-11469600D02*
X13926000Y-11569600D01*
X13976000Y-11469600D02*
X13976000Y-11569600D01*
X13926000Y-11519600D02*
X14026000Y-11519600D01*
X13926000Y-11723600D02*
X14026000Y-11823600D01*
X14026000Y-11723600D02*
X13926000Y-11823600D01*
X13976000Y-11723600D02*
X13976000Y-11823600D01*
X13926000Y-11773600D02*
X14026000Y-11773600D01*
X13926000Y-11977600D02*
X14026000Y-12077600D01*
X14026000Y-11977600D02*
X13926000Y-12077600D01*
X13976000Y-11977600D02*
X13976000Y-12077600D01*
X13926000Y-12027600D02*
X14026000Y-12027600D01*
X13926000Y-12231600D02*
X14026000Y-12331600D01*
X14026000Y-12231600D02*
X13926000Y-12331600D01*
X13976000Y-12231600D02*
X13976000Y-12331600D01*
X13926000Y-12281600D02*
X14026000Y-12281600D01*
X13926000Y-12485600D02*
X14026000Y-12585600D01*
X14026000Y-12485600D02*
X13926000Y-12585600D01*
X13976000Y-12485600D02*
X13976000Y-12585600D01*
X13926000Y-12535600D02*
X14026000Y-12535600D01*
X13926000Y-12739600D02*
X14026000Y-12839600D01*
X14026000Y-12739600D02*
X13926000Y-12839600D01*
X13976000Y-12739600D02*
X13976000Y-12839600D01*
X13926000Y-12789600D02*
X14026000Y-12789600D01*
X13926000Y-12993600D02*
X14026000Y-13093600D01*
X14026000Y-12993600D02*
X13926000Y-13093600D01*
X13976000Y-12993600D02*
X13976000Y-13093600D01*
X13926000Y-13043600D02*
X14026000Y-13043600D01*
X13926000Y-13247600D02*
X14026000Y-13347600D01*
X14026000Y-13247600D02*
X13926000Y-13347600D01*
X13976000Y-13247600D02*
X13976000Y-13347600D01*
X13926000Y-13297600D02*
X14026000Y-13297600D01*
X13926000Y-13501600D02*
X14026000Y-13601600D01*
X14026000Y-13501600D02*
X13926000Y-13601600D01*
X13976000Y-13501600D02*
X13976000Y-13601600D01*
X13926000Y-13551600D02*
X14026000Y-13551600D01*
X13926000Y-13908000D02*
X14026000Y-14008000D01*
X14026000Y-13908000D02*
X13926000Y-14008000D01*
X13976000Y-13908000D02*
X13976000Y-14008000D01*
X13926000Y-13958000D02*
X14026000Y-13958000D01*
X13926000Y-14162000D02*
X14026000Y-14262000D01*
X14026000Y-14162000D02*
X13926000Y-14262000D01*
X13976000Y-14162000D02*
X13976000Y-14262000D01*
X13926000Y-14212000D02*
X14026000Y-14212000D01*
X13926000Y-14416000D02*
X14026000Y-14516000D01*
X14026000Y-14416000D02*
X13926000Y-14516000D01*
X13976000Y-14416000D02*
X13976000Y-14516000D01*
X13926000Y-14466000D02*
X14026000Y-14466000D01*
X13926000Y-14670000D02*
X14026000Y-14770000D01*
X14026000Y-14670000D02*
X13926000Y-14770000D01*
X13976000Y-14670000D02*
X13976000Y-14770000D01*
X13926000Y-14720000D02*
X14026000Y-14720000D01*
X13926000Y-14924000D02*
X14026000Y-15024000D01*
X14026000Y-14924000D02*
X13926000Y-15024000D01*
X13976000Y-14924000D02*
X13976000Y-15024000D01*
X13926000Y-14974000D02*
X14026000Y-14974000D01*
X13926000Y-15178000D02*
X14026000Y-15278000D01*
X14026000Y-15178000D02*
X13926000Y-15278000D01*
X13976000Y-15178000D02*
X13976000Y-15278000D01*
X13926000Y-15228000D02*
X14026000Y-15228000D01*
X13926000Y-15432000D02*
X14026000Y-15532000D01*
X14026000Y-15432000D02*
X13926000Y-15532000D01*
X13976000Y-15432000D02*
X13976000Y-15532000D01*
X13926000Y-15482000D02*
X14026000Y-15482000D01*
X13926000Y-15686000D02*
X14026000Y-15786000D01*
X14026000Y-15686000D02*
X13926000Y-15786000D01*
X13976000Y-15686000D02*
X13976000Y-15786000D01*
X13926000Y-15736000D02*
X14026000Y-15736000D01*
X14908548Y-12139048D02*
X15008548Y-12239048D01*
X15008548Y-12139048D02*
X14908548Y-12239048D01*
X14958548Y-12139048D02*
X14958548Y-12239048D01*
X14908548Y-12189048D02*
X15008548Y-12189048D01*
X14908548Y-12393048D02*
X15008548Y-12493048D01*
X15008548Y-12393048D02*
X14908548Y-12493048D01*
X14958548Y-12393048D02*
X14958548Y-12493048D01*
X14908548Y-12443048D02*
X15008548Y-12443048D01*
X14908548Y-12647048D02*
X15008548Y-12747048D01*
X15008548Y-12647048D02*
X14908548Y-12747048D01*
X14958548Y-12647048D02*
X14958548Y-12747048D01*
X14908548Y-12697048D02*
X15008548Y-12697048D01*
X14908548Y-12901048D02*
X15008548Y-13001048D01*
X15008548Y-12901048D02*
X14908548Y-13001048D01*
X14958548Y-12901048D02*
X14958548Y-13001048D01*
X14908548Y-12951048D02*
X15008548Y-12951048D01*
X14908548Y-13155048D02*
X15008548Y-13255048D01*
X15008548Y-13155048D02*
X14908548Y-13255048D01*
X14958548Y-13155048D02*
X14958548Y-13255048D01*
X14908548Y-13205048D02*
X15008548Y-13205048D01*
X14908548Y-13409048D02*
X15008548Y-13509048D01*
X15008548Y-13409048D02*
X14908548Y-13509048D01*
X14958548Y-13409048D02*
X14958548Y-13509048D01*
X14908548Y-13459048D02*
X15008548Y-13459048D01*
X14908548Y-13663048D02*
X15008548Y-13763048D01*
X15008548Y-13663048D02*
X14908548Y-13763048D01*
X14958548Y-13663048D02*
X14958548Y-13763048D01*
X14908548Y-13713048D02*
X15008548Y-13713048D01*
X14908548Y-13917048D02*
X15008548Y-14017048D01*
X15008548Y-13917048D02*
X14908548Y-14017048D01*
X14958548Y-13917048D02*
X14958548Y-14017048D01*
X14908548Y-13967048D02*
X15008548Y-13967048D01*
X14908548Y-14425048D02*
X15008548Y-14525048D01*
X15008548Y-14425048D02*
X14908548Y-14525048D01*
X14958548Y-14425048D02*
X14958548Y-14525048D01*
X14908548Y-14475048D02*
X15008548Y-14475048D01*
X14908548Y-14679048D02*
X15008548Y-14779048D01*
X15008548Y-14679048D02*
X14908548Y-14779048D01*
X14958548Y-14679048D02*
X14958548Y-14779048D01*
X14908548Y-14729048D02*
X15008548Y-14729048D01*
X14908548Y-14933048D02*
X15008548Y-15033048D01*
X15008548Y-14933048D02*
X14908548Y-15033048D01*
X14958548Y-14933048D02*
X14958548Y-15033048D01*
X14908548Y-14983048D02*
X15008548Y-14983048D01*
X14908548Y-15187048D02*
X15008548Y-15287048D01*
X15008548Y-15187048D02*
X14908548Y-15287048D01*
X14958548Y-15187048D02*
X14958548Y-15287048D01*
X14908548Y-15237048D02*
X15008548Y-15237048D01*
X14908548Y-15441048D02*
X15008548Y-15541048D01*
X15008548Y-15441048D02*
X14908548Y-15541048D01*
X14958548Y-15441048D02*
X14958548Y-15541048D01*
X14908548Y-15491048D02*
X15008548Y-15491048D01*
X14908548Y-15695048D02*
X15008548Y-15795048D01*
X15008548Y-15695048D02*
X14908548Y-15795048D01*
X14958548Y-15695048D02*
X14958548Y-15795048D01*
X14908548Y-15745048D02*
X15008548Y-15745048D01*
X16432548Y-14044048D02*
X16532548Y-14144048D01*
X16532548Y-14044048D02*
X16432548Y-14144048D01*
X16482548Y-14044048D02*
X16482548Y-14144048D01*
X16432548Y-14094048D02*
X16532548Y-14094048D01*
X16432548Y-15060048D02*
X16532548Y-15160048D01*
X16532548Y-15060048D02*
X16432548Y-15160048D01*
X16482548Y-15060048D02*
X16482548Y-15160048D01*
X16432548Y-15110048D02*
X16532548Y-15110048D01*
X16686548Y-14044048D02*
X16786548Y-14144048D01*
X16786548Y-14044048D02*
X16686548Y-14144048D01*
X16736548Y-14044048D02*
X16736548Y-14144048D01*
X16686548Y-14094048D02*
X16786548Y-14094048D01*
X16686548Y-15060048D02*
X16786548Y-15160048D01*
X16786548Y-15060048D02*
X16686548Y-15160048D01*
X16736548Y-15060048D02*
X16736548Y-15160048D01*
X16686548Y-15110048D02*
X16786548Y-15110048D01*
X16940548Y-14044048D02*
X17040548Y-14144048D01*
X17040548Y-14044048D02*
X16940548Y-14144048D01*
X16990548Y-14044048D02*
X16990548Y-14144048D01*
X16940548Y-14094048D02*
X17040548Y-14094048D01*
X16940548Y-15060048D02*
X17040548Y-15160048D01*
X17040548Y-15060048D02*
X16940548Y-15160048D01*
X16990548Y-15060048D02*
X16990548Y-15160048D01*
X16940548Y-15110048D02*
X17040548Y-15110048D01*
X17194548Y-14044048D02*
X17294548Y-14144048D01*
X17294548Y-14044048D02*
X17194548Y-14144048D01*
X17244548Y-14044048D02*
X17244548Y-14144048D01*
X17194548Y-14094048D02*
X17294548Y-14094048D01*
X17194548Y-15060048D02*
X17294548Y-15160048D01*
X17294548Y-15060048D02*
X17194548Y-15160048D01*
X17244548Y-15060048D02*
X17244548Y-15160048D01*
X17194548Y-15110048D02*
X17294548Y-15110048D01*
X17194548Y-15707748D02*
X17294548Y-15807748D01*
X17294548Y-15707748D02*
X17194548Y-15807748D01*
X17244548Y-15707748D02*
X17244548Y-15807748D01*
X17194548Y-15757748D02*
X17294548Y-15757748D01*
X17194548Y-15961748D02*
X17294548Y-16061748D01*
X17294548Y-15961748D02*
X17194548Y-16061748D01*
X17244548Y-15961748D02*
X17244548Y-16061748D01*
X17194548Y-16011748D02*
X17294548Y-16011748D01*
X17448548Y-14044048D02*
X17548548Y-14144048D01*
X17548548Y-14044048D02*
X17448548Y-14144048D01*
X17498548Y-14044048D02*
X17498548Y-14144048D01*
X17448548Y-14094048D02*
X17548548Y-14094048D01*
X17448548Y-15060048D02*
X17548548Y-15160048D01*
X17548548Y-15060048D02*
X17448548Y-15160048D01*
X17498548Y-15060048D02*
X17498548Y-15160048D01*
X17448548Y-15110048D02*
X17548548Y-15110048D01*
X17448548Y-15707748D02*
X17548548Y-15807748D01*
X17548548Y-15707748D02*
X17448548Y-15807748D01*
X17498548Y-15707748D02*
X17498548Y-15807748D01*
X17448548Y-15757748D02*
X17548548Y-15757748D01*
X17448548Y-15961748D02*
X17548548Y-16061748D01*
X17548548Y-15961748D02*
X17448548Y-16061748D01*
X17498548Y-15961748D02*
X17498548Y-16061748D01*
X17448548Y-16011748D02*
X17548548Y-16011748D01*
X17702548Y-14044048D02*
X17802548Y-14144048D01*
X17802548Y-14044048D02*
X17702548Y-14144048D01*
X17752548Y-14044048D02*
X17752548Y-14144048D01*
X17702548Y-14094048D02*
X17802548Y-14094048D01*
X17702548Y-15060048D02*
X17802548Y-15160048D01*
X17802548Y-15060048D02*
X17702548Y-15160048D01*
X17752548Y-15060048D02*
X17752548Y-15160048D01*
X17702548Y-15110048D02*
X17802548Y-15110048D01*
X17702548Y-15707748D02*
X17802548Y-15807748D01*
X17802548Y-15707748D02*
X17702548Y-15807748D01*
X17752548Y-15707748D02*
X17752548Y-15807748D01*
X17702548Y-15757748D02*
X17802548Y-15757748D01*
X17702548Y-15961748D02*
X17802548Y-16061748D01*
X17802548Y-15961748D02*
X17702548Y-16061748D01*
X17752548Y-15961748D02*
X17752548Y-16061748D01*
X17702548Y-16011748D02*
X17802548Y-16011748D01*
X19734548Y-11224648D02*
X19834548Y-11324648D01*
X19834548Y-11224648D02*
X19734548Y-11324648D01*
X19784548Y-11224648D02*
X19784548Y-11324648D01*
X19734548Y-11274648D02*
X19834548Y-11274648D01*
X19734548Y-11478648D02*
X19834548Y-11578648D01*
X19834548Y-11478648D02*
X19734548Y-11578648D01*
X19784548Y-11478648D02*
X19784548Y-11578648D01*
X19734548Y-11528648D02*
X19834548Y-11528648D01*
X19734548Y-11732648D02*
X19834548Y-11832648D01*
X19834548Y-11732648D02*
X19734548Y-11832648D01*
X19784548Y-11732648D02*
X19784548Y-11832648D01*
X19734548Y-11782648D02*
X19834548Y-11782648D01*
X19734548Y-11986648D02*
X19834548Y-12086648D01*
X19834548Y-11986648D02*
X19734548Y-12086648D01*
X19784548Y-11986648D02*
X19784548Y-12086648D01*
X19734548Y-12036648D02*
X19834548Y-12036648D01*
X19734548Y-12240648D02*
X19834548Y-12340648D01*
X19834548Y-12240648D02*
X19734548Y-12340648D01*
X19784548Y-12240648D02*
X19784548Y-12340648D01*
X19734548Y-12290648D02*
X19834548Y-12290648D01*
X19734548Y-12494648D02*
X19834548Y-12594648D01*
X19834548Y-12494648D02*
X19734548Y-12594648D01*
X19784548Y-12494648D02*
X19784548Y-12594648D01*
X19734548Y-12544648D02*
X19834548Y-12544648D01*
X19734548Y-12748648D02*
X19834548Y-12848648D01*
X19834548Y-12748648D02*
X19734548Y-12848648D01*
X19784548Y-12748648D02*
X19784548Y-12848648D01*
X19734548Y-12798648D02*
X19834548Y-12798648D01*
X19734548Y-13002648D02*
X19834548Y-13102648D01*
X19834548Y-13002648D02*
X19734548Y-13102648D01*
X19784548Y-13002648D02*
X19784548Y-13102648D01*
X19734548Y-13052648D02*
X19834548Y-13052648D01*
X19734548Y-13256648D02*
X19834548Y-13356648D01*
X19834548Y-13256648D02*
X19734548Y-13356648D01*
X19784548Y-13256648D02*
X19784548Y-13356648D01*
X19734548Y-13306648D02*
X19834548Y-13306648D01*
X19734548Y-13510648D02*
X19834548Y-13610648D01*
X19834548Y-13510648D02*
X19734548Y-13610648D01*
X19784548Y-13510648D02*
X19784548Y-13610648D01*
X19734548Y-13560648D02*
X19834548Y-13560648D01*
X19734548Y-13917048D02*
X19834548Y-14017048D01*
X19834548Y-13917048D02*
X19734548Y-14017048D01*
X19784548Y-13917048D02*
X19784548Y-14017048D01*
X19734548Y-13967048D02*
X19834548Y-13967048D01*
X19734548Y-14171048D02*
X19834548Y-14271048D01*
X19834548Y-14171048D02*
X19734548Y-14271048D01*
X19784548Y-14171048D02*
X19784548Y-14271048D01*
X19734548Y-14221048D02*
X19834548Y-14221048D01*
X19734548Y-14425048D02*
X19834548Y-14525048D01*
X19834548Y-14425048D02*
X19734548Y-14525048D01*
X19784548Y-14425048D02*
X19784548Y-14525048D01*
X19734548Y-14475048D02*
X19834548Y-14475048D01*
X19734548Y-14679048D02*
X19834548Y-14779048D01*
X19834548Y-14679048D02*
X19734548Y-14779048D01*
X19784548Y-14679048D02*
X19784548Y-14779048D01*
X19734548Y-14729048D02*
X19834548Y-14729048D01*
X19734548Y-14933048D02*
X19834548Y-15033048D01*
X19834548Y-14933048D02*
X19734548Y-15033048D01*
X19784548Y-14933048D02*
X19784548Y-15033048D01*
X19734548Y-14983048D02*
X19834548Y-14983048D01*
X19734548Y-15187048D02*
X19834548Y-15287048D01*
X19834548Y-15187048D02*
X19734548Y-15287048D01*
X19784548Y-15187048D02*
X19784548Y-15287048D01*
X19734548Y-15237048D02*
X19834548Y-15237048D01*
X19734548Y-15441048D02*
X19834548Y-15541048D01*
X19834548Y-15441048D02*
X19734548Y-15541048D01*
X19784548Y-15441048D02*
X19784548Y-15541048D01*
X19734548Y-15491048D02*
X19834548Y-15491048D01*
X19734548Y-15695048D02*
X19834548Y-15795048D01*
X19834548Y-15695048D02*
X19734548Y-15795048D01*
X19784548Y-15695048D02*
X19784548Y-15795048D01*
X19734548Y-15745048D02*
X19834548Y-15745048D01*
X22578354Y-10753248D02*
X22678354Y-10853248D01*
X22678354Y-10753248D02*
X22578354Y-10853248D01*
X22628354Y-10753248D02*
X22628354Y-10853248D01*
X22578354Y-10803248D02*
X22678354Y-10803248D01*
X22578354Y-12653248D02*
X22678354Y-12753248D01*
X22678354Y-12653248D02*
X22578354Y-12753248D01*
X22628354Y-12653248D02*
X22628354Y-12753248D01*
X22578354Y-12703248D02*
X22678354Y-12703248D01*
X22578354Y-14553248D02*
X22678354Y-14653248D01*
X22678354Y-14553248D02*
X22578354Y-14653248D01*
X22628354Y-14553248D02*
X22628354Y-14653248D01*
X22578354Y-14603248D02*
X22678354Y-14603248D01*
X22578354Y-16453248D02*
X22678354Y-16553248D01*
X22678354Y-16453248D02*
X22578354Y-16553248D01*
X22628354Y-16453248D02*
X22628354Y-16553248D01*
X22578354Y-16503248D02*
X22678354Y-16503248D01*
X23078354Y-10753248D02*
X23178354Y-10853248D01*
X23178354Y-10753248D02*
X23078354Y-10853248D01*
X23128354Y-10753248D02*
X23128354Y-10853248D01*
X23078354Y-10803248D02*
X23178354Y-10803248D01*
X23078354Y-12653248D02*
X23178354Y-12753248D01*
X23178354Y-12653248D02*
X23078354Y-12753248D01*
X23128354Y-12653248D02*
X23128354Y-12753248D01*
X23078354Y-12703248D02*
X23178354Y-12703248D01*
X23078354Y-14553248D02*
X23178354Y-14653248D01*
X23178354Y-14553248D02*
X23078354Y-14653248D01*
X23128354Y-14553248D02*
X23128354Y-14653248D01*
X23078354Y-14603248D02*
X23178354Y-14603248D01*
X23078354Y-16453248D02*
X23178354Y-16553248D01*
X23178354Y-16453248D02*
X23078354Y-16553248D01*
X23128354Y-16453248D02*
X23128354Y-16553248D01*
X23078354Y-16503248D02*
X23178354Y-16503248D01*
X23878354Y-10753248D02*
X23978354Y-10853248D01*
X23978354Y-10753248D02*
X23878354Y-10853248D01*
X23928354Y-10753248D02*
X23928354Y-10853248D01*
X23878354Y-10803248D02*
X23978354Y-10803248D01*
X23878354Y-12653248D02*
X23978354Y-12753248D01*
X23978354Y-12653248D02*
X23878354Y-12753248D01*
X23928354Y-12653248D02*
X23928354Y-12753248D01*
X23878354Y-12703248D02*
X23978354Y-12703248D01*
X23878354Y-14553248D02*
X23978354Y-14653248D01*
X23978354Y-14553248D02*
X23878354Y-14653248D01*
X23928354Y-14553248D02*
X23928354Y-14653248D01*
X23878354Y-14603248D02*
X23978354Y-14603248D01*
X23878354Y-16453248D02*
X23978354Y-16553248D01*
X23978354Y-16453248D02*
X23878354Y-16553248D01*
X23928354Y-16453248D02*
X23928354Y-16553248D01*
X23878354Y-16503248D02*
X23978354Y-16503248D01*
X24378354Y-10753248D02*
X24478354Y-10853248D01*
X24478354Y-10753248D02*
X24378354Y-10853248D01*
X24428354Y-10753248D02*
X24428354Y-10853248D01*
X24378354Y-10803248D02*
X24478354Y-10803248D01*
X24378354Y-12653248D02*
X24478354Y-12753248D01*
X24478354Y-12653248D02*
X24378354Y-12753248D01*
X24428354Y-12653248D02*
X24428354Y-12753248D01*
X24378354Y-12703248D02*
X24478354Y-12703248D01*
X24378354Y-14553248D02*
X24478354Y-14653248D01*
X24478354Y-14553248D02*
X24378354Y-14653248D01*
X24428354Y-14553248D02*
X24428354Y-14653248D01*
X24378354Y-14603248D02*
X24478354Y-14603248D01*
X24378354Y-16453248D02*
X24478354Y-16553248D01*
X24478354Y-16453248D02*
X24378354Y-16553248D01*
X24428354Y-16453248D02*
X24428354Y-16553248D01*
X24378354Y-16503248D02*
X24478354Y-16503248D01*
D18*
X20090748Y-13418248D02*
X20200748Y-13528248D01*
X20200748Y-13418248D02*
X20090748Y-13528248D01*
X20184639Y-13512139D02*
X20184639Y-13434357D01*
X20106857Y-13434357D01*
X20106857Y-13512139D01*
X20184639Y-13512139D01*
X20090748Y-13672248D02*
X20200748Y-13782248D01*
X20200748Y-13672248D02*
X20090748Y-13782248D01*
X20184639Y-13766139D02*
X20184639Y-13688357D01*
X20106857Y-13688357D01*
X20106857Y-13766139D01*
X20184639Y-13766139D01*
X20090748Y-13926248D02*
X20200748Y-14036248D01*
X20200748Y-13926248D02*
X20090748Y-14036248D01*
X20184639Y-14020139D02*
X20184639Y-13942357D01*
X20106857Y-13942357D01*
X20106857Y-14020139D01*
X20184639Y-14020139D01*
X20090748Y-14180248D02*
X20200748Y-14290248D01*
X20200748Y-14180248D02*
X20090748Y-14290248D01*
X20184639Y-14274139D02*
X20184639Y-14196357D01*
X20106857Y-14196357D01*
X20106857Y-14274139D01*
X20184639Y-14274139D01*
X20090748Y-14434248D02*
X20200748Y-14544248D01*
X20200748Y-14434248D02*
X20090748Y-14544248D01*
X20184639Y-14528139D02*
X20184639Y-14450357D01*
X20106857Y-14450357D01*
X20106857Y-14528139D01*
X20184639Y-14528139D01*
X20090748Y-14688248D02*
X20200748Y-14798248D01*
X20200748Y-14688248D02*
X20090748Y-14798248D01*
X20184639Y-14782139D02*
X20184639Y-14704357D01*
X20106857Y-14704357D01*
X20106857Y-14782139D01*
X20184639Y-14782139D01*
X20090748Y-14942248D02*
X20200748Y-15052248D01*
X20200748Y-14942248D02*
X20090748Y-15052248D01*
X20184639Y-15036139D02*
X20184639Y-14958357D01*
X20106857Y-14958357D01*
X20106857Y-15036139D01*
X20184639Y-15036139D01*
X20090748Y-15196248D02*
X20200748Y-15306248D01*
X20200748Y-15196248D02*
X20090748Y-15306248D01*
X20184639Y-15290139D02*
X20184639Y-15212357D01*
X20106857Y-15212357D01*
X20106857Y-15290139D01*
X20184639Y-15290139D01*
X20090748Y-15450248D02*
X20200748Y-15560248D01*
X20200748Y-15450248D02*
X20090748Y-15560248D01*
X20184639Y-15544139D02*
X20184639Y-15466357D01*
X20106857Y-15466357D01*
X20106857Y-15544139D01*
X20184639Y-15544139D01*
X20090748Y-15704248D02*
X20200748Y-15814248D01*
X20200748Y-15704248D02*
X20090748Y-15814248D01*
X20184639Y-15798139D02*
X20184639Y-15720357D01*
X20106857Y-15720357D01*
X20106857Y-15798139D01*
X20184639Y-15798139D01*
X20090748Y-15958248D02*
X20200748Y-16068248D01*
X20200748Y-15958248D02*
X20090748Y-16068248D01*
X20184639Y-16052139D02*
X20184639Y-15974357D01*
X20106857Y-15974357D01*
X20106857Y-16052139D01*
X20184639Y-16052139D01*
X20090748Y-16212248D02*
X20200748Y-16322248D01*
X20200748Y-16212248D02*
X20090748Y-16322248D01*
X20184639Y-16306139D02*
X20184639Y-16228357D01*
X20106857Y-16228357D01*
X20106857Y-16306139D01*
X20184639Y-16306139D01*
X21614748Y-13418248D02*
X21724748Y-13528248D01*
X21724748Y-13418248D02*
X21614748Y-13528248D01*
X21708639Y-13512139D02*
X21708639Y-13434357D01*
X21630857Y-13434357D01*
X21630857Y-13512139D01*
X21708639Y-13512139D01*
X21614748Y-13672248D02*
X21724748Y-13782248D01*
X21724748Y-13672248D02*
X21614748Y-13782248D01*
X21708639Y-13766139D02*
X21708639Y-13688357D01*
X21630857Y-13688357D01*
X21630857Y-13766139D01*
X21708639Y-13766139D01*
X21614748Y-13926248D02*
X21724748Y-14036248D01*
X21724748Y-13926248D02*
X21614748Y-14036248D01*
X21708639Y-14020139D02*
X21708639Y-13942357D01*
X21630857Y-13942357D01*
X21630857Y-14020139D01*
X21708639Y-14020139D01*
X21614748Y-14180248D02*
X21724748Y-14290248D01*
X21724748Y-14180248D02*
X21614748Y-14290248D01*
X21708639Y-14274139D02*
X21708639Y-14196357D01*
X21630857Y-14196357D01*
X21630857Y-14274139D01*
X21708639Y-14274139D01*
X21614748Y-14434248D02*
X21724748Y-14544248D01*
X21724748Y-14434248D02*
X21614748Y-14544248D01*
X21708639Y-14528139D02*
X21708639Y-14450357D01*
X21630857Y-14450357D01*
X21630857Y-14528139D01*
X21708639Y-14528139D01*
X21614748Y-14688248D02*
X21724748Y-14798248D01*
X21724748Y-14688248D02*
X21614748Y-14798248D01*
X21708639Y-14782139D02*
X21708639Y-14704357D01*
X21630857Y-14704357D01*
X21630857Y-14782139D01*
X21708639Y-14782139D01*
X21614748Y-14942248D02*
X21724748Y-15052248D01*
X21724748Y-14942248D02*
X21614748Y-15052248D01*
X21708639Y-15036139D02*
X21708639Y-14958357D01*
X21630857Y-14958357D01*
X21630857Y-15036139D01*
X21708639Y-15036139D01*
X21614748Y-15196248D02*
X21724748Y-15306248D01*
X21724748Y-15196248D02*
X21614748Y-15306248D01*
X21708639Y-15290139D02*
X21708639Y-15212357D01*
X21630857Y-15212357D01*
X21630857Y-15290139D01*
X21708639Y-15290139D01*
X21614748Y-15450248D02*
X21724748Y-15560248D01*
X21724748Y-15450248D02*
X21614748Y-15560248D01*
X21708639Y-15544139D02*
X21708639Y-15466357D01*
X21630857Y-15466357D01*
X21630857Y-15544139D01*
X21708639Y-15544139D01*
X21614748Y-15704248D02*
X21724748Y-15814248D01*
X21724748Y-15704248D02*
X21614748Y-15814248D01*
X21708639Y-15798139D02*
X21708639Y-15720357D01*
X21630857Y-15720357D01*
X21630857Y-15798139D01*
X21708639Y-15798139D01*
X21614748Y-15958248D02*
X21724748Y-16068248D01*
X21724748Y-15958248D02*
X21614748Y-16068248D01*
X21708639Y-16052139D02*
X21708639Y-15974357D01*
X21630857Y-15974357D01*
X21630857Y-16052139D01*
X21708639Y-16052139D01*
X21614748Y-16212248D02*
X21724748Y-16322248D01*
X21724748Y-16212248D02*
X21614748Y-16322248D01*
X21708639Y-16306139D02*
X21708639Y-16228357D01*
X21630857Y-16228357D01*
X21630857Y-16306139D01*
X21708639Y-16306139D01*
D19*
X32997748Y-13718248D02*
X33117748Y-13838248D01*
X33117748Y-13718248D02*
X32997748Y-13838248D01*
X33057748Y-13838248D02*
X33117748Y-13778248D01*
X33057748Y-13718248D01*
X32997748Y-13778248D01*
X33057748Y-13838248D01*
X32997748Y-14393248D02*
X33117748Y-14513248D01*
X33117748Y-14393248D02*
X32997748Y-14513248D01*
X33057748Y-14513248D02*
X33117748Y-14453248D01*
X33057748Y-14393248D01*
X32997748Y-14453248D01*
X33057748Y-14513248D01*
D20*
X34229498Y-14558248D02*
X34229498Y-14708248D01*
X34154498Y-14633248D02*
X34304498Y-14633248D01*
X34304498Y-14633248D02*
G75*
G03*
X34304498Y-14633248I-75000J0D01*
G01*
X35509498Y-10058248D02*
X35509498Y-10208248D01*
X35434498Y-10133248D02*
X35584498Y-10133248D01*
X35584498Y-10133248D02*
G75*
G03*
X35584498Y-10133248I-75000J0D01*
G01*
X36309498Y-10058248D02*
X36309498Y-10208248D01*
X36234498Y-10133248D02*
X36384498Y-10133248D01*
X36384498Y-10133248D02*
G75*
G03*
X36384498Y-10133248I-75000J0D01*
G01*
X36309498Y-14558248D02*
X36309498Y-14708248D01*
X36234498Y-14633248D02*
X36384498Y-14633248D01*
X36384498Y-14633248D02*
G75*
G03*
X36384498Y-14633248I-75000J0D01*
G01*
D21*
X30252063Y-15566213D02*
X30252063Y-15438933D01*
X30124783Y-15438933D01*
X30124783Y-15566213D01*
X30252063Y-15566213D01*
X30278423Y-15502573D02*
G75*
G03*
X30278423Y-15502573I-90000J0D01*
G01*
X31152063Y-15566213D02*
X31152063Y-15438933D01*
X31024783Y-15438933D01*
X31024783Y-15566213D01*
X31152063Y-15566213D01*
X31178423Y-15502573D02*
G75*
G03*
X31178423Y-15502573I-90000J0D01*
G01*
X32052063Y-15566213D02*
X32052063Y-15438933D01*
X31924783Y-15438933D01*
X31924783Y-15566213D01*
X32052063Y-15566213D01*
X32078423Y-15502573D02*
G75*
G03*
X32078423Y-15502573I-90000J0D01*
G01*
D22*
X25457748Y-10438248D02*
X25567748Y-10328248D01*
X25457748Y-10218248D01*
X25347748Y-10328248D01*
X25457748Y-10438248D01*
X25567748Y-10328248D02*
G75*
G03*
X25567748Y-10328248I-110000J0D01*
G01*
X25457748Y-10988248D02*
X25567748Y-10878248D01*
X25457748Y-10768248D01*
X25347748Y-10878248D01*
X25457748Y-10988248D01*
X25567748Y-10878248D02*
G75*
G03*
X25567748Y-10878248I-110000J0D01*
G01*
D23*
X5243000Y-14942470D02*
X5243000Y-15172470D01*
X5128000Y-15057470D02*
X5358000Y-15057470D01*
X5324318Y-15138788D02*
X5324318Y-14976152D01*
X5161682Y-14976152D01*
X5161682Y-15138788D01*
X5324318Y-15138788D01*
X5243000Y-15510470D02*
X5243000Y-15740470D01*
X5128000Y-15625470D02*
X5358000Y-15625470D01*
X5324318Y-15706788D02*
X5324318Y-15544152D01*
X5161682Y-15544152D01*
X5161682Y-15706788D01*
X5324318Y-15706788D01*
X6557000Y-14942470D02*
X6557000Y-15172470D01*
X6442000Y-15057470D02*
X6672000Y-15057470D01*
X6638318Y-15138788D02*
X6638318Y-14976152D01*
X6475682Y-14976152D01*
X6475682Y-15138788D01*
X6638318Y-15138788D01*
X6557000Y-15510470D02*
X6557000Y-15740470D01*
X6442000Y-15625470D02*
X6672000Y-15625470D01*
X6638318Y-15706788D02*
X6638318Y-15544152D01*
X6475682Y-15544152D01*
X6475682Y-15706788D01*
X6638318Y-15706788D01*
X7143000Y-14942470D02*
X7143000Y-15172470D01*
X7028000Y-15057470D02*
X7258000Y-15057470D01*
X7224318Y-15138788D02*
X7224318Y-14976152D01*
X7061682Y-14976152D01*
X7061682Y-15138788D01*
X7224318Y-15138788D01*
X7143000Y-15510470D02*
X7143000Y-15740470D01*
X7028000Y-15625470D02*
X7258000Y-15625470D01*
X7224318Y-15706788D02*
X7224318Y-15544152D01*
X7061682Y-15544152D01*
X7061682Y-15706788D01*
X7224318Y-15706788D01*
X8457000Y-14942470D02*
X8457000Y-15172470D01*
X8342000Y-15057470D02*
X8572000Y-15057470D01*
X8538318Y-15138788D02*
X8538318Y-14976152D01*
X8375682Y-14976152D01*
X8375682Y-15138788D01*
X8538318Y-15138788D01*
X8457000Y-15510470D02*
X8457000Y-15740470D01*
X8342000Y-15625470D02*
X8572000Y-15625470D01*
X8538318Y-15706788D02*
X8538318Y-15544152D01*
X8375682Y-15544152D01*
X8375682Y-15706788D01*
X8538318Y-15706788D01*
D24*
X29088423Y-16057573D02*
X29088423Y-16407573D01*
X28913423Y-16232573D02*
X29263423Y-16232573D01*
X29088423Y-16407573D02*
X29263423Y-16232573D01*
X29088423Y-16057573D01*
X28913423Y-16232573D01*
X29088423Y-16407573D01*
X33088423Y-16057573D02*
X33088423Y-16407573D01*
X32913423Y-16232573D02*
X33263423Y-16232573D01*
X33088423Y-16407573D02*
X33263423Y-16232573D01*
X33088423Y-16057573D01*
X32913423Y-16232573D01*
X33088423Y-16407573D01*
D11*
X5210367Y-17468724D02*
X5210367Y-17268724D01*
X5257986Y-17268724D01*
X5286558Y-17278248D01*
X5305605Y-17297296D01*
X5315129Y-17316343D01*
X5324653Y-17354438D01*
X5324653Y-17383010D01*
X5315129Y-17421105D01*
X5305605Y-17440153D01*
X5286558Y-17459200D01*
X5257986Y-17468724D01*
X5210367Y-17468724D01*
X5410367Y-17468724D02*
X5410367Y-17335391D01*
X5410367Y-17373486D02*
X5419891Y-17354438D01*
X5429415Y-17344915D01*
X5448462Y-17335391D01*
X5467510Y-17335391D01*
X5534177Y-17468724D02*
X5534177Y-17335391D01*
X5534177Y-17268724D02*
X5524653Y-17278248D01*
X5534177Y-17287772D01*
X5543700Y-17278248D01*
X5534177Y-17268724D01*
X5534177Y-17287772D01*
X5657986Y-17468724D02*
X5638938Y-17459200D01*
X5629415Y-17440153D01*
X5629415Y-17268724D01*
X5762748Y-17468724D02*
X5743700Y-17459200D01*
X5734176Y-17440153D01*
X5734176Y-17268724D01*
X5991319Y-17468724D02*
X5991319Y-17268724D01*
X6057986Y-17411581D01*
X6124653Y-17268724D01*
X6124653Y-17468724D01*
X6305605Y-17468724D02*
X6305605Y-17363962D01*
X6296081Y-17344915D01*
X6277034Y-17335391D01*
X6238938Y-17335391D01*
X6219891Y-17344915D01*
X6305605Y-17459200D02*
X6286557Y-17468724D01*
X6238938Y-17468724D01*
X6219891Y-17459200D01*
X6210367Y-17440153D01*
X6210367Y-17421105D01*
X6219891Y-17402058D01*
X6238938Y-17392534D01*
X6286557Y-17392534D01*
X6305605Y-17383010D01*
X6400843Y-17335391D02*
X6400843Y-17535391D01*
X6400843Y-17344915D02*
X6419891Y-17335391D01*
X6457986Y-17335391D01*
X6477034Y-17344915D01*
X6486557Y-17354438D01*
X6496081Y-17373486D01*
X6496081Y-17430629D01*
X6486557Y-17449677D01*
X6477034Y-17459200D01*
X6457986Y-17468724D01*
X6419891Y-17468724D01*
X6400843Y-17459200D01*
X6581796Y-17449677D02*
X6591319Y-17459200D01*
X6581796Y-17468724D01*
X6572272Y-17459200D01*
X6581796Y-17449677D01*
X6581796Y-17468724D01*
X6581796Y-17344915D02*
X6591319Y-17354438D01*
X6581796Y-17363962D01*
X6572272Y-17354438D01*
X6581796Y-17344915D01*
X6581796Y-17363962D01*
D12*
X4912748Y-17778248D02*
X4952748Y-17818248D01*
X4952748Y-17778248D02*
X4912748Y-17818248D01*
D11*
X5248462Y-17688724D02*
X5267510Y-17688724D01*
X5286558Y-17698248D01*
X5296081Y-17707772D01*
X5305605Y-17726819D01*
X5315129Y-17764915D01*
X5315129Y-17812534D01*
X5305605Y-17850629D01*
X5296081Y-17869677D01*
X5286558Y-17879200D01*
X5267510Y-17888724D01*
X5248462Y-17888724D01*
X5229415Y-17879200D01*
X5219891Y-17869677D01*
X5210367Y-17850629D01*
X5200843Y-17812534D01*
X5200843Y-17764915D01*
X5210367Y-17726819D01*
X5219891Y-17707772D01*
X5229415Y-17698248D01*
X5248462Y-17688724D01*
X5400843Y-17869677D02*
X5410367Y-17879200D01*
X5400843Y-17888724D01*
X5391319Y-17879200D01*
X5400843Y-17869677D01*
X5400843Y-17888724D01*
X5581796Y-17755391D02*
X5581796Y-17888724D01*
X5534177Y-17679200D02*
X5486558Y-17822058D01*
X5610367Y-17822058D01*
X5724653Y-17688724D02*
X5743700Y-17688724D01*
X5762748Y-17698248D01*
X5772272Y-17707772D01*
X5781796Y-17726819D01*
X5791319Y-17764915D01*
X5791319Y-17812534D01*
X5781796Y-17850629D01*
X5772272Y-17869677D01*
X5762748Y-17879200D01*
X5743700Y-17888724D01*
X5724653Y-17888724D01*
X5705605Y-17879200D01*
X5696081Y-17869677D01*
X5686557Y-17850629D01*
X5677034Y-17812534D01*
X5677034Y-17764915D01*
X5686557Y-17726819D01*
X5696081Y-17707772D01*
X5705605Y-17698248D01*
X5724653Y-17688724D01*
X5915129Y-17688724D02*
X5934176Y-17688724D01*
X5953224Y-17698248D01*
X5962748Y-17707772D01*
X5972272Y-17726819D01*
X5981796Y-17764915D01*
X5981796Y-17812534D01*
X5972272Y-17850629D01*
X5962748Y-17869677D01*
X5953224Y-17879200D01*
X5934176Y-17888724D01*
X5915129Y-17888724D01*
X5896081Y-17879200D01*
X5886557Y-17869677D01*
X5877034Y-17850629D01*
X5867510Y-17812534D01*
X5867510Y-17764915D01*
X5877034Y-17726819D01*
X5886557Y-17707772D01*
X5896081Y-17698248D01*
X5915129Y-17688724D01*
X6067510Y-17888724D02*
X6067510Y-17755391D01*
X6067510Y-17774438D02*
X6077034Y-17764915D01*
X6096081Y-17755391D01*
X6124653Y-17755391D01*
X6143700Y-17764915D01*
X6153224Y-17783962D01*
X6153224Y-17888724D01*
X6153224Y-17783962D02*
X6162748Y-17764915D01*
X6181796Y-17755391D01*
X6210367Y-17755391D01*
X6229415Y-17764915D01*
X6238938Y-17783962D01*
X6238938Y-17888724D01*
X6334176Y-17888724D02*
X6334176Y-17755391D01*
X6334176Y-17774438D02*
X6343700Y-17764915D01*
X6362748Y-17755391D01*
X6391319Y-17755391D01*
X6410367Y-17764915D01*
X6419891Y-17783962D01*
X6419891Y-17888724D01*
X6419891Y-17783962D02*
X6429415Y-17764915D01*
X6448462Y-17755391D01*
X6477034Y-17755391D01*
X6496081Y-17764915D01*
X6505605Y-17783962D01*
X6505605Y-17888724D01*
X6896081Y-17679200D02*
X6724653Y-17936343D01*
X7153224Y-17688724D02*
X7172272Y-17688724D01*
X7191319Y-17698248D01*
X7200843Y-17707772D01*
X7210367Y-17726819D01*
X7219891Y-17764915D01*
X7219891Y-17812534D01*
X7210367Y-17850629D01*
X7200843Y-17869677D01*
X7191319Y-17879200D01*
X7172272Y-17888724D01*
X7153224Y-17888724D01*
X7134176Y-17879200D01*
X7124653Y-17869677D01*
X7115129Y-17850629D01*
X7105605Y-17812534D01*
X7105605Y-17764915D01*
X7115129Y-17726819D01*
X7124653Y-17707772D01*
X7134176Y-17698248D01*
X7153224Y-17688724D01*
X7305605Y-17869677D02*
X7315129Y-17879200D01*
X7305605Y-17888724D01*
X7296081Y-17879200D01*
X7305605Y-17869677D01*
X7305605Y-17888724D01*
X7438938Y-17688724D02*
X7457986Y-17688724D01*
X7477034Y-17698248D01*
X7486557Y-17707772D01*
X7496081Y-17726819D01*
X7505605Y-17764915D01*
X7505605Y-17812534D01*
X7496081Y-17850629D01*
X7486557Y-17869677D01*
X7477034Y-17879200D01*
X7457986Y-17888724D01*
X7438938Y-17888724D01*
X7419891Y-17879200D01*
X7410367Y-17869677D01*
X7400843Y-17850629D01*
X7391319Y-17812534D01*
X7391319Y-17764915D01*
X7400843Y-17726819D01*
X7410367Y-17707772D01*
X7419891Y-17698248D01*
X7438938Y-17688724D01*
X7696081Y-17888724D02*
X7581796Y-17888724D01*
X7638938Y-17888724D02*
X7638938Y-17688724D01*
X7619891Y-17717296D01*
X7600843Y-17736343D01*
X7581796Y-17745867D01*
X7877034Y-17688724D02*
X7781796Y-17688724D01*
X7772272Y-17783962D01*
X7781796Y-17774438D01*
X7800843Y-17764915D01*
X7848462Y-17764915D01*
X7867510Y-17774438D01*
X7877034Y-17783962D01*
X7886557Y-17803010D01*
X7886557Y-17850629D01*
X7877034Y-17869677D01*
X7867510Y-17879200D01*
X7848462Y-17888724D01*
X7800843Y-17888724D01*
X7781796Y-17879200D01*
X7772272Y-17869677D01*
X7953224Y-17688724D02*
X8086557Y-17688724D01*
X8000843Y-17888724D01*
X8153224Y-17688724D02*
X8153224Y-17726819D01*
X8229415Y-17688724D02*
X8229415Y-17726819D01*
X8524653Y-17964915D02*
X8515129Y-17955391D01*
X8496081Y-17926819D01*
X8486558Y-17907772D01*
X8477034Y-17879200D01*
X8467510Y-17831581D01*
X8467510Y-17793486D01*
X8477034Y-17745867D01*
X8486558Y-17717296D01*
X8496081Y-17698248D01*
X8515129Y-17669677D01*
X8524653Y-17660153D01*
X8581796Y-17688724D02*
X8705605Y-17688724D01*
X8638938Y-17764915D01*
X8667510Y-17764915D01*
X8686558Y-17774438D01*
X8696081Y-17783962D01*
X8705605Y-17803010D01*
X8705605Y-17850629D01*
X8696081Y-17869677D01*
X8686558Y-17879200D01*
X8667510Y-17888724D01*
X8610367Y-17888724D01*
X8591319Y-17879200D01*
X8581796Y-17869677D01*
X8781796Y-17707772D02*
X8791319Y-17698248D01*
X8810367Y-17688724D01*
X8857986Y-17688724D01*
X8877034Y-17698248D01*
X8886558Y-17707772D01*
X8896081Y-17726819D01*
X8896081Y-17745867D01*
X8886558Y-17774438D01*
X8772272Y-17888724D01*
X8896081Y-17888724D01*
X9134177Y-17888724D02*
X9134177Y-17688724D01*
X9219891Y-17888724D02*
X9219891Y-17783962D01*
X9210367Y-17764915D01*
X9191319Y-17755391D01*
X9162748Y-17755391D01*
X9143700Y-17764915D01*
X9134177Y-17774438D01*
X9343700Y-17888724D02*
X9324653Y-17879200D01*
X9315129Y-17869677D01*
X9305605Y-17850629D01*
X9305605Y-17793486D01*
X9315129Y-17774438D01*
X9324653Y-17764915D01*
X9343700Y-17755391D01*
X9372272Y-17755391D01*
X9391319Y-17764915D01*
X9400843Y-17774438D01*
X9410367Y-17793486D01*
X9410367Y-17850629D01*
X9400843Y-17869677D01*
X9391319Y-17879200D01*
X9372272Y-17888724D01*
X9343700Y-17888724D01*
X9524653Y-17888724D02*
X9505605Y-17879200D01*
X9496081Y-17860153D01*
X9496081Y-17688724D01*
X9677034Y-17879200D02*
X9657986Y-17888724D01*
X9619891Y-17888724D01*
X9600843Y-17879200D01*
X9591319Y-17860153D01*
X9591319Y-17783962D01*
X9600843Y-17764915D01*
X9619891Y-17755391D01*
X9657986Y-17755391D01*
X9677034Y-17764915D01*
X9686558Y-17783962D01*
X9686558Y-17803010D01*
X9591319Y-17822058D01*
X9762748Y-17879200D02*
X9781796Y-17888724D01*
X9819891Y-17888724D01*
X9838938Y-17879200D01*
X9848462Y-17860153D01*
X9848462Y-17850629D01*
X9838938Y-17831581D01*
X9819891Y-17822058D01*
X9791319Y-17822058D01*
X9772272Y-17812534D01*
X9762748Y-17793486D01*
X9762748Y-17783962D01*
X9772272Y-17764915D01*
X9791319Y-17755391D01*
X9819891Y-17755391D01*
X9838938Y-17764915D01*
X9915129Y-17964915D02*
X9924653Y-17955391D01*
X9943700Y-17926819D01*
X9953224Y-17907772D01*
X9962748Y-17879200D01*
X9972272Y-17831581D01*
X9972272Y-17793486D01*
X9962748Y-17745867D01*
X9953224Y-17717296D01*
X9943700Y-17698248D01*
X9924653Y-17669677D01*
X9915129Y-17660153D01*
D12*
X4952748Y-18062248D02*
G75*
G03*
X4952748Y-18062248I-20000J0D01*
G01*
D11*
X5248462Y-17952724D02*
X5267510Y-17952724D01*
X5286558Y-17962248D01*
X5296081Y-17971772D01*
X5305605Y-17990819D01*
X5315129Y-18028915D01*
X5315129Y-18076534D01*
X5305605Y-18114629D01*
X5296081Y-18133677D01*
X5286558Y-18143200D01*
X5267510Y-18152724D01*
X5248462Y-18152724D01*
X5229415Y-18143200D01*
X5219891Y-18133677D01*
X5210367Y-18114629D01*
X5200843Y-18076534D01*
X5200843Y-18028915D01*
X5210367Y-17990819D01*
X5219891Y-17971772D01*
X5229415Y-17962248D01*
X5248462Y-17952724D01*
X5400843Y-18133677D02*
X5410367Y-18143200D01*
X5400843Y-18152724D01*
X5391319Y-18143200D01*
X5400843Y-18133677D01*
X5400843Y-18152724D01*
X5581796Y-18019391D02*
X5581796Y-18152724D01*
X5534177Y-17943200D02*
X5486558Y-18086058D01*
X5610367Y-18086058D01*
X5724653Y-17952724D02*
X5743700Y-17952724D01*
X5762748Y-17962248D01*
X5772272Y-17971772D01*
X5781796Y-17990819D01*
X5791319Y-18028915D01*
X5791319Y-18076534D01*
X5781796Y-18114629D01*
X5772272Y-18133677D01*
X5762748Y-18143200D01*
X5743700Y-18152724D01*
X5724653Y-18152724D01*
X5705605Y-18143200D01*
X5696081Y-18133677D01*
X5686557Y-18114629D01*
X5677034Y-18076534D01*
X5677034Y-18028915D01*
X5686557Y-17990819D01*
X5696081Y-17971772D01*
X5705605Y-17962248D01*
X5724653Y-17952724D01*
X5915129Y-17952724D02*
X5934176Y-17952724D01*
X5953224Y-17962248D01*
X5962748Y-17971772D01*
X5972272Y-17990819D01*
X5981796Y-18028915D01*
X5981796Y-18076534D01*
X5972272Y-18114629D01*
X5962748Y-18133677D01*
X5953224Y-18143200D01*
X5934176Y-18152724D01*
X5915129Y-18152724D01*
X5896081Y-18143200D01*
X5886557Y-18133677D01*
X5877034Y-18114629D01*
X5867510Y-18076534D01*
X5867510Y-18028915D01*
X5877034Y-17990819D01*
X5886557Y-17971772D01*
X5896081Y-17962248D01*
X5915129Y-17952724D01*
X6067510Y-18152724D02*
X6067510Y-18019391D01*
X6067510Y-18038438D02*
X6077034Y-18028915D01*
X6096081Y-18019391D01*
X6124653Y-18019391D01*
X6143700Y-18028915D01*
X6153224Y-18047962D01*
X6153224Y-18152724D01*
X6153224Y-18047962D02*
X6162748Y-18028915D01*
X6181796Y-18019391D01*
X6210367Y-18019391D01*
X6229415Y-18028915D01*
X6238938Y-18047962D01*
X6238938Y-18152724D01*
X6334176Y-18152724D02*
X6334176Y-18019391D01*
X6334176Y-18038438D02*
X6343700Y-18028915D01*
X6362748Y-18019391D01*
X6391319Y-18019391D01*
X6410367Y-18028915D01*
X6419891Y-18047962D01*
X6419891Y-18152724D01*
X6419891Y-18047962D02*
X6429415Y-18028915D01*
X6448462Y-18019391D01*
X6477034Y-18019391D01*
X6496081Y-18028915D01*
X6505605Y-18047962D01*
X6505605Y-18152724D01*
X6896081Y-17943200D02*
X6724653Y-18200343D01*
X7153224Y-17952724D02*
X7172272Y-17952724D01*
X7191319Y-17962248D01*
X7200843Y-17971772D01*
X7210367Y-17990819D01*
X7219891Y-18028915D01*
X7219891Y-18076534D01*
X7210367Y-18114629D01*
X7200843Y-18133677D01*
X7191319Y-18143200D01*
X7172272Y-18152724D01*
X7153224Y-18152724D01*
X7134176Y-18143200D01*
X7124653Y-18133677D01*
X7115129Y-18114629D01*
X7105605Y-18076534D01*
X7105605Y-18028915D01*
X7115129Y-17990819D01*
X7124653Y-17971772D01*
X7134176Y-17962248D01*
X7153224Y-17952724D01*
X7305605Y-18133677D02*
X7315129Y-18143200D01*
X7305605Y-18152724D01*
X7296081Y-18143200D01*
X7305605Y-18133677D01*
X7305605Y-18152724D01*
X7438938Y-17952724D02*
X7457986Y-17952724D01*
X7477034Y-17962248D01*
X7486557Y-17971772D01*
X7496081Y-17990819D01*
X7505605Y-18028915D01*
X7505605Y-18076534D01*
X7496081Y-18114629D01*
X7486557Y-18133677D01*
X7477034Y-18143200D01*
X7457986Y-18152724D01*
X7438938Y-18152724D01*
X7419891Y-18143200D01*
X7410367Y-18133677D01*
X7400843Y-18114629D01*
X7391319Y-18076534D01*
X7391319Y-18028915D01*
X7400843Y-17990819D01*
X7410367Y-17971772D01*
X7419891Y-17962248D01*
X7438938Y-17952724D01*
X7696081Y-18152724D02*
X7581796Y-18152724D01*
X7638938Y-18152724D02*
X7638938Y-17952724D01*
X7619891Y-17981296D01*
X7600843Y-18000343D01*
X7581796Y-18009867D01*
X7877034Y-17952724D02*
X7781796Y-17952724D01*
X7772272Y-18047962D01*
X7781796Y-18038438D01*
X7800843Y-18028915D01*
X7848462Y-18028915D01*
X7867510Y-18038438D01*
X7877034Y-18047962D01*
X7886557Y-18067010D01*
X7886557Y-18114629D01*
X7877034Y-18133677D01*
X7867510Y-18143200D01*
X7848462Y-18152724D01*
X7800843Y-18152724D01*
X7781796Y-18143200D01*
X7772272Y-18133677D01*
X7953224Y-17952724D02*
X8086557Y-17952724D01*
X8000843Y-18152724D01*
X8153224Y-17952724D02*
X8153224Y-17990819D01*
X8229415Y-17952724D02*
X8229415Y-17990819D01*
X8524653Y-18228915D02*
X8515129Y-18219391D01*
X8496081Y-18190819D01*
X8486558Y-18171772D01*
X8477034Y-18143200D01*
X8467510Y-18095581D01*
X8467510Y-18057486D01*
X8477034Y-18009867D01*
X8486558Y-17981296D01*
X8496081Y-17962248D01*
X8515129Y-17933677D01*
X8524653Y-17924153D01*
X8686558Y-17952724D02*
X8648462Y-17952724D01*
X8629415Y-17962248D01*
X8619891Y-17971772D01*
X8600843Y-18000343D01*
X8591319Y-18038438D01*
X8591319Y-18114629D01*
X8600843Y-18133677D01*
X8610367Y-18143200D01*
X8629415Y-18152724D01*
X8667510Y-18152724D01*
X8686558Y-18143200D01*
X8696081Y-18133677D01*
X8705605Y-18114629D01*
X8705605Y-18067010D01*
X8696081Y-18047962D01*
X8686558Y-18038438D01*
X8667510Y-18028915D01*
X8629415Y-18028915D01*
X8610367Y-18038438D01*
X8600843Y-18047962D01*
X8591319Y-18067010D01*
X8877034Y-18019391D02*
X8877034Y-18152724D01*
X8829415Y-17943200D02*
X8781796Y-18086058D01*
X8905605Y-18086058D01*
X9134177Y-18152724D02*
X9134177Y-17952724D01*
X9219891Y-18152724D02*
X9219891Y-18047962D01*
X9210367Y-18028915D01*
X9191319Y-18019391D01*
X9162748Y-18019391D01*
X9143700Y-18028915D01*
X9134177Y-18038438D01*
X9343700Y-18152724D02*
X9324653Y-18143200D01*
X9315129Y-18133677D01*
X9305605Y-18114629D01*
X9305605Y-18057486D01*
X9315129Y-18038438D01*
X9324653Y-18028915D01*
X9343700Y-18019391D01*
X9372272Y-18019391D01*
X9391319Y-18028915D01*
X9400843Y-18038438D01*
X9410367Y-18057486D01*
X9410367Y-18114629D01*
X9400843Y-18133677D01*
X9391319Y-18143200D01*
X9372272Y-18152724D01*
X9343700Y-18152724D01*
X9524653Y-18152724D02*
X9505605Y-18143200D01*
X9496081Y-18124153D01*
X9496081Y-17952724D01*
X9677034Y-18143200D02*
X9657986Y-18152724D01*
X9619891Y-18152724D01*
X9600843Y-18143200D01*
X9591319Y-18124153D01*
X9591319Y-18047962D01*
X9600843Y-18028915D01*
X9619891Y-18019391D01*
X9657986Y-18019391D01*
X9677034Y-18028915D01*
X9686558Y-18047962D01*
X9686558Y-18067010D01*
X9591319Y-18086058D01*
X9762748Y-18143200D02*
X9781796Y-18152724D01*
X9819891Y-18152724D01*
X9838938Y-18143200D01*
X9848462Y-18124153D01*
X9848462Y-18114629D01*
X9838938Y-18095581D01*
X9819891Y-18086058D01*
X9791319Y-18086058D01*
X9772272Y-18076534D01*
X9762748Y-18057486D01*
X9762748Y-18047962D01*
X9772272Y-18028915D01*
X9791319Y-18019391D01*
X9819891Y-18019391D01*
X9838938Y-18028915D01*
X9915129Y-18228915D02*
X9924653Y-18219391D01*
X9943700Y-18190819D01*
X9953224Y-18171772D01*
X9962748Y-18143200D01*
X9972272Y-18095581D01*
X9972272Y-18057486D01*
X9962748Y-18009867D01*
X9953224Y-17981296D01*
X9943700Y-17962248D01*
X9924653Y-17933677D01*
X9915129Y-17924153D01*
D13*
X4922748Y-18296248D02*
X4922748Y-18356248D01*
X4892748Y-18326248D02*
X4952748Y-18326248D01*
D11*
X5248462Y-18216724D02*
X5267510Y-18216724D01*
X5286558Y-18226248D01*
X5296081Y-18235772D01*
X5305605Y-18254819D01*
X5315129Y-18292915D01*
X5315129Y-18340534D01*
X5305605Y-18378629D01*
X5296081Y-18397677D01*
X5286558Y-18407200D01*
X5267510Y-18416724D01*
X5248462Y-18416724D01*
X5229415Y-18407200D01*
X5219891Y-18397677D01*
X5210367Y-18378629D01*
X5200843Y-18340534D01*
X5200843Y-18292915D01*
X5210367Y-18254819D01*
X5219891Y-18235772D01*
X5229415Y-18226248D01*
X5248462Y-18216724D01*
X5400843Y-18397677D02*
X5410367Y-18407200D01*
X5400843Y-18416724D01*
X5391319Y-18407200D01*
X5400843Y-18397677D01*
X5400843Y-18416724D01*
X5581796Y-18216724D02*
X5543700Y-18216724D01*
X5524653Y-18226248D01*
X5515129Y-18235772D01*
X5496081Y-18264343D01*
X5486558Y-18302438D01*
X5486558Y-18378629D01*
X5496081Y-18397677D01*
X5505605Y-18407200D01*
X5524653Y-18416724D01*
X5562748Y-18416724D01*
X5581796Y-18407200D01*
X5591319Y-18397677D01*
X5600843Y-18378629D01*
X5600843Y-18331010D01*
X5591319Y-18311962D01*
X5581796Y-18302438D01*
X5562748Y-18292915D01*
X5524653Y-18292915D01*
X5505605Y-18302438D01*
X5496081Y-18311962D01*
X5486558Y-18331010D01*
X5724653Y-18216724D02*
X5743700Y-18216724D01*
X5762748Y-18226248D01*
X5772272Y-18235772D01*
X5781796Y-18254819D01*
X5791319Y-18292915D01*
X5791319Y-18340534D01*
X5781796Y-18378629D01*
X5772272Y-18397677D01*
X5762748Y-18407200D01*
X5743700Y-18416724D01*
X5724653Y-18416724D01*
X5705605Y-18407200D01*
X5696081Y-18397677D01*
X5686557Y-18378629D01*
X5677034Y-18340534D01*
X5677034Y-18292915D01*
X5686557Y-18254819D01*
X5696081Y-18235772D01*
X5705605Y-18226248D01*
X5724653Y-18216724D01*
X5915129Y-18216724D02*
X5934176Y-18216724D01*
X5953224Y-18226248D01*
X5962748Y-18235772D01*
X5972272Y-18254819D01*
X5981796Y-18292915D01*
X5981796Y-18340534D01*
X5972272Y-18378629D01*
X5962748Y-18397677D01*
X5953224Y-18407200D01*
X5934176Y-18416724D01*
X5915129Y-18416724D01*
X5896081Y-18407200D01*
X5886557Y-18397677D01*
X5877034Y-18378629D01*
X5867510Y-18340534D01*
X5867510Y-18292915D01*
X5877034Y-18254819D01*
X5886557Y-18235772D01*
X5896081Y-18226248D01*
X5915129Y-18216724D01*
X6067510Y-18416724D02*
X6067510Y-18283391D01*
X6067510Y-18302438D02*
X6077034Y-18292915D01*
X6096081Y-18283391D01*
X6124653Y-18283391D01*
X6143700Y-18292915D01*
X6153224Y-18311962D01*
X6153224Y-18416724D01*
X6153224Y-18311962D02*
X6162748Y-18292915D01*
X6181796Y-18283391D01*
X6210367Y-18283391D01*
X6229415Y-18292915D01*
X6238938Y-18311962D01*
X6238938Y-18416724D01*
X6334176Y-18416724D02*
X6334176Y-18283391D01*
X6334176Y-18302438D02*
X6343700Y-18292915D01*
X6362748Y-18283391D01*
X6391319Y-18283391D01*
X6410367Y-18292915D01*
X6419891Y-18311962D01*
X6419891Y-18416724D01*
X6419891Y-18311962D02*
X6429415Y-18292915D01*
X6448462Y-18283391D01*
X6477034Y-18283391D01*
X6496081Y-18292915D01*
X6505605Y-18311962D01*
X6505605Y-18416724D01*
X6896081Y-18207200D02*
X6724653Y-18464343D01*
X7153224Y-18216724D02*
X7172272Y-18216724D01*
X7191319Y-18226248D01*
X7200843Y-18235772D01*
X7210367Y-18254819D01*
X7219891Y-18292915D01*
X7219891Y-18340534D01*
X7210367Y-18378629D01*
X7200843Y-18397677D01*
X7191319Y-18407200D01*
X7172272Y-18416724D01*
X7153224Y-18416724D01*
X7134176Y-18407200D01*
X7124653Y-18397677D01*
X7115129Y-18378629D01*
X7105605Y-18340534D01*
X7105605Y-18292915D01*
X7115129Y-18254819D01*
X7124653Y-18235772D01*
X7134176Y-18226248D01*
X7153224Y-18216724D01*
X7305605Y-18397677D02*
X7315129Y-18407200D01*
X7305605Y-18416724D01*
X7296081Y-18407200D01*
X7305605Y-18397677D01*
X7305605Y-18416724D01*
X7438938Y-18216724D02*
X7457986Y-18216724D01*
X7477034Y-18226248D01*
X7486557Y-18235772D01*
X7496081Y-18254819D01*
X7505605Y-18292915D01*
X7505605Y-18340534D01*
X7496081Y-18378629D01*
X7486557Y-18397677D01*
X7477034Y-18407200D01*
X7457986Y-18416724D01*
X7438938Y-18416724D01*
X7419891Y-18407200D01*
X7410367Y-18397677D01*
X7400843Y-18378629D01*
X7391319Y-18340534D01*
X7391319Y-18292915D01*
X7400843Y-18254819D01*
X7410367Y-18235772D01*
X7419891Y-18226248D01*
X7438938Y-18216724D01*
X7581796Y-18235772D02*
X7591319Y-18226248D01*
X7610367Y-18216724D01*
X7657986Y-18216724D01*
X7677034Y-18226248D01*
X7686557Y-18235772D01*
X7696081Y-18254819D01*
X7696081Y-18273867D01*
X7686557Y-18302438D01*
X7572272Y-18416724D01*
X7696081Y-18416724D01*
X7762748Y-18216724D02*
X7886557Y-18216724D01*
X7819891Y-18292915D01*
X7848462Y-18292915D01*
X7867510Y-18302438D01*
X7877034Y-18311962D01*
X7886557Y-18331010D01*
X7886557Y-18378629D01*
X7877034Y-18397677D01*
X7867510Y-18407200D01*
X7848462Y-18416724D01*
X7791319Y-18416724D01*
X7772272Y-18407200D01*
X7762748Y-18397677D01*
X8057986Y-18216724D02*
X8019891Y-18216724D01*
X8000843Y-18226248D01*
X7991319Y-18235772D01*
X7972272Y-18264343D01*
X7962748Y-18302438D01*
X7962748Y-18378629D01*
X7972272Y-18397677D01*
X7981796Y-18407200D01*
X8000843Y-18416724D01*
X8038938Y-18416724D01*
X8057986Y-18407200D01*
X8067510Y-18397677D01*
X8077034Y-18378629D01*
X8077034Y-18331010D01*
X8067510Y-18311962D01*
X8057986Y-18302438D01*
X8038938Y-18292915D01*
X8000843Y-18292915D01*
X7981796Y-18302438D01*
X7972272Y-18311962D01*
X7962748Y-18331010D01*
X8153224Y-18216724D02*
X8153224Y-18254819D01*
X8229415Y-18216724D02*
X8229415Y-18254819D01*
X8524653Y-18492915D02*
X8515129Y-18483391D01*
X8496081Y-18454819D01*
X8486558Y-18435772D01*
X8477034Y-18407200D01*
X8467510Y-18359581D01*
X8467510Y-18321486D01*
X8477034Y-18273867D01*
X8486558Y-18245296D01*
X8496081Y-18226248D01*
X8515129Y-18197677D01*
X8524653Y-18188153D01*
X8638938Y-18216724D02*
X8657986Y-18216724D01*
X8677034Y-18226248D01*
X8686558Y-18235772D01*
X8696081Y-18254819D01*
X8705605Y-18292915D01*
X8705605Y-18340534D01*
X8696081Y-18378629D01*
X8686558Y-18397677D01*
X8677034Y-18407200D01*
X8657986Y-18416724D01*
X8638938Y-18416724D01*
X8619891Y-18407200D01*
X8610367Y-18397677D01*
X8600843Y-18378629D01*
X8591319Y-18340534D01*
X8591319Y-18292915D01*
X8600843Y-18254819D01*
X8610367Y-18235772D01*
X8619891Y-18226248D01*
X8638938Y-18216724D01*
X8943700Y-18416724D02*
X8943700Y-18216724D01*
X9029415Y-18416724D02*
X9029415Y-18311962D01*
X9019891Y-18292915D01*
X9000843Y-18283391D01*
X8972272Y-18283391D01*
X8953224Y-18292915D01*
X8943700Y-18302438D01*
X9153224Y-18416724D02*
X9134177Y-18407200D01*
X9124653Y-18397677D01*
X9115129Y-18378629D01*
X9115129Y-18321486D01*
X9124653Y-18302438D01*
X9134177Y-18292915D01*
X9153224Y-18283391D01*
X9181796Y-18283391D01*
X9200843Y-18292915D01*
X9210367Y-18302438D01*
X9219891Y-18321486D01*
X9219891Y-18378629D01*
X9210367Y-18397677D01*
X9200843Y-18407200D01*
X9181796Y-18416724D01*
X9153224Y-18416724D01*
X9334177Y-18416724D02*
X9315129Y-18407200D01*
X9305605Y-18388153D01*
X9305605Y-18216724D01*
X9486558Y-18407200D02*
X9467510Y-18416724D01*
X9429415Y-18416724D01*
X9410367Y-18407200D01*
X9400843Y-18388153D01*
X9400843Y-18311962D01*
X9410367Y-18292915D01*
X9429415Y-18283391D01*
X9467510Y-18283391D01*
X9486558Y-18292915D01*
X9496081Y-18311962D01*
X9496081Y-18331010D01*
X9400843Y-18350058D01*
X9572272Y-18407200D02*
X9591319Y-18416724D01*
X9629415Y-18416724D01*
X9648462Y-18407200D01*
X9657986Y-18388153D01*
X9657986Y-18378629D01*
X9648462Y-18359581D01*
X9629415Y-18350058D01*
X9600843Y-18350058D01*
X9581796Y-18340534D01*
X9572272Y-18321486D01*
X9572272Y-18311962D01*
X9581796Y-18292915D01*
X9600843Y-18283391D01*
X9629415Y-18283391D01*
X9648462Y-18292915D01*
X9896081Y-18340534D02*
X10048462Y-18340534D01*
X9972272Y-18416724D02*
X9972272Y-18264343D01*
X10400843Y-18416724D02*
X10286558Y-18416724D01*
X10343700Y-18416724D02*
X10343700Y-18216724D01*
X10324653Y-18245296D01*
X10305605Y-18264343D01*
X10286558Y-18273867D01*
X10572272Y-18216724D02*
X10534177Y-18216724D01*
X10515129Y-18226248D01*
X10505605Y-18235772D01*
X10486558Y-18264343D01*
X10477034Y-18302438D01*
X10477034Y-18378629D01*
X10486558Y-18397677D01*
X10496081Y-18407200D01*
X10515129Y-18416724D01*
X10553224Y-18416724D01*
X10572272Y-18407200D01*
X10581796Y-18397677D01*
X10591319Y-18378629D01*
X10591319Y-18331010D01*
X10581796Y-18311962D01*
X10572272Y-18302438D01*
X10553224Y-18292915D01*
X10515129Y-18292915D01*
X10496081Y-18302438D01*
X10486558Y-18311962D01*
X10477034Y-18331010D01*
X10819891Y-18407200D02*
X10838938Y-18416724D01*
X10877034Y-18416724D01*
X10896081Y-18407200D01*
X10905605Y-18388153D01*
X10905605Y-18378629D01*
X10896081Y-18359581D01*
X10877034Y-18350058D01*
X10848462Y-18350058D01*
X10829415Y-18340534D01*
X10819891Y-18321486D01*
X10819891Y-18311962D01*
X10829415Y-18292915D01*
X10848462Y-18283391D01*
X10877034Y-18283391D01*
X10896081Y-18292915D01*
X11019891Y-18416724D02*
X11000843Y-18407200D01*
X10991319Y-18388153D01*
X10991319Y-18216724D01*
X11124653Y-18416724D02*
X11105605Y-18407200D01*
X11096081Y-18397677D01*
X11086558Y-18378629D01*
X11086558Y-18321486D01*
X11096081Y-18302438D01*
X11105605Y-18292915D01*
X11124653Y-18283391D01*
X11153224Y-18283391D01*
X11172272Y-18292915D01*
X11181796Y-18302438D01*
X11191319Y-18321486D01*
X11191319Y-18378629D01*
X11181796Y-18397677D01*
X11172272Y-18407200D01*
X11153224Y-18416724D01*
X11124653Y-18416724D01*
X11248462Y-18283391D02*
X11324653Y-18283391D01*
X11277034Y-18216724D02*
X11277034Y-18388153D01*
X11286557Y-18407200D01*
X11305605Y-18416724D01*
X11324653Y-18416724D01*
X11381796Y-18407200D02*
X11400843Y-18416724D01*
X11438938Y-18416724D01*
X11457986Y-18407200D01*
X11467510Y-18388153D01*
X11467510Y-18378629D01*
X11457986Y-18359581D01*
X11438938Y-18350058D01*
X11410367Y-18350058D01*
X11391319Y-18340534D01*
X11381796Y-18321486D01*
X11381796Y-18311962D01*
X11391319Y-18292915D01*
X11410367Y-18283391D01*
X11438938Y-18283391D01*
X11457986Y-18292915D01*
X11534176Y-18492915D02*
X11543700Y-18483391D01*
X11562748Y-18454819D01*
X11572272Y-18435772D01*
X11581796Y-18407200D01*
X11591319Y-18359581D01*
X11591319Y-18321486D01*
X11581796Y-18273867D01*
X11572272Y-18245296D01*
X11562748Y-18226248D01*
X11543700Y-18197677D01*
X11534176Y-18188153D01*
D14*
X4941704Y-18616911D02*
X4941704Y-18563585D01*
X4888379Y-18563585D01*
X4888379Y-18616911D01*
X4941704Y-18616911D01*
D11*
X5248462Y-18480724D02*
X5267510Y-18480724D01*
X5286558Y-18490248D01*
X5296081Y-18499772D01*
X5305605Y-18518819D01*
X5315129Y-18556915D01*
X5315129Y-18604534D01*
X5305605Y-18642629D01*
X5296081Y-18661677D01*
X5286558Y-18671200D01*
X5267510Y-18680724D01*
X5248462Y-18680724D01*
X5229415Y-18671200D01*
X5219891Y-18661677D01*
X5210367Y-18642629D01*
X5200843Y-18604534D01*
X5200843Y-18556915D01*
X5210367Y-18518819D01*
X5219891Y-18499772D01*
X5229415Y-18490248D01*
X5248462Y-18480724D01*
X5400843Y-18661677D02*
X5410367Y-18671200D01*
X5400843Y-18680724D01*
X5391319Y-18671200D01*
X5400843Y-18661677D01*
X5400843Y-18680724D01*
X5477034Y-18480724D02*
X5610367Y-18480724D01*
X5524653Y-18680724D01*
X5781796Y-18480724D02*
X5686557Y-18480724D01*
X5677034Y-18575962D01*
X5686557Y-18566438D01*
X5705605Y-18556915D01*
X5753224Y-18556915D01*
X5772272Y-18566438D01*
X5781796Y-18575962D01*
X5791319Y-18595010D01*
X5791319Y-18642629D01*
X5781796Y-18661677D01*
X5772272Y-18671200D01*
X5753224Y-18680724D01*
X5705605Y-18680724D01*
X5686557Y-18671200D01*
X5677034Y-18661677D01*
X5962748Y-18547391D02*
X5962748Y-18680724D01*
X5915129Y-18471200D02*
X5867510Y-18614058D01*
X5991319Y-18614058D01*
X6067510Y-18680724D02*
X6067510Y-18547391D01*
X6067510Y-18566438D02*
X6077034Y-18556915D01*
X6096081Y-18547391D01*
X6124653Y-18547391D01*
X6143700Y-18556915D01*
X6153224Y-18575962D01*
X6153224Y-18680724D01*
X6153224Y-18575962D02*
X6162748Y-18556915D01*
X6181796Y-18547391D01*
X6210367Y-18547391D01*
X6229415Y-18556915D01*
X6238938Y-18575962D01*
X6238938Y-18680724D01*
X6334176Y-18680724D02*
X6334176Y-18547391D01*
X6334176Y-18566438D02*
X6343700Y-18556915D01*
X6362748Y-18547391D01*
X6391319Y-18547391D01*
X6410367Y-18556915D01*
X6419891Y-18575962D01*
X6419891Y-18680724D01*
X6419891Y-18575962D02*
X6429415Y-18556915D01*
X6448462Y-18547391D01*
X6477034Y-18547391D01*
X6496081Y-18556915D01*
X6505605Y-18575962D01*
X6505605Y-18680724D01*
X6896081Y-18471200D02*
X6724653Y-18728343D01*
X7153224Y-18480724D02*
X7172272Y-18480724D01*
X7191319Y-18490248D01*
X7200843Y-18499772D01*
X7210367Y-18518819D01*
X7219891Y-18556915D01*
X7219891Y-18604534D01*
X7210367Y-18642629D01*
X7200843Y-18661677D01*
X7191319Y-18671200D01*
X7172272Y-18680724D01*
X7153224Y-18680724D01*
X7134176Y-18671200D01*
X7124653Y-18661677D01*
X7115129Y-18642629D01*
X7105605Y-18604534D01*
X7105605Y-18556915D01*
X7115129Y-18518819D01*
X7124653Y-18499772D01*
X7134176Y-18490248D01*
X7153224Y-18480724D01*
X7305605Y-18661677D02*
X7315129Y-18671200D01*
X7305605Y-18680724D01*
X7296081Y-18671200D01*
X7305605Y-18661677D01*
X7305605Y-18680724D01*
X7438938Y-18480724D02*
X7457986Y-18480724D01*
X7477034Y-18490248D01*
X7486557Y-18499772D01*
X7496081Y-18518819D01*
X7505605Y-18556915D01*
X7505605Y-18604534D01*
X7496081Y-18642629D01*
X7486557Y-18661677D01*
X7477034Y-18671200D01*
X7457986Y-18680724D01*
X7438938Y-18680724D01*
X7419891Y-18671200D01*
X7410367Y-18661677D01*
X7400843Y-18642629D01*
X7391319Y-18604534D01*
X7391319Y-18556915D01*
X7400843Y-18518819D01*
X7410367Y-18499772D01*
X7419891Y-18490248D01*
X7438938Y-18480724D01*
X7581796Y-18499772D02*
X7591319Y-18490248D01*
X7610367Y-18480724D01*
X7657986Y-18480724D01*
X7677034Y-18490248D01*
X7686557Y-18499772D01*
X7696081Y-18518819D01*
X7696081Y-18537867D01*
X7686557Y-18566438D01*
X7572272Y-18680724D01*
X7696081Y-18680724D01*
X7791319Y-18680724D02*
X7829415Y-18680724D01*
X7848462Y-18671200D01*
X7857986Y-18661677D01*
X7877034Y-18633105D01*
X7886557Y-18595010D01*
X7886557Y-18518819D01*
X7877034Y-18499772D01*
X7867510Y-18490248D01*
X7848462Y-18480724D01*
X7810367Y-18480724D01*
X7791319Y-18490248D01*
X7781796Y-18499772D01*
X7772272Y-18518819D01*
X7772272Y-18566438D01*
X7781796Y-18585486D01*
X7791319Y-18595010D01*
X7810367Y-18604534D01*
X7848462Y-18604534D01*
X7867510Y-18595010D01*
X7877034Y-18585486D01*
X7886557Y-18566438D01*
X7953224Y-18480724D02*
X8086557Y-18480724D01*
X8000843Y-18680724D01*
X8153224Y-18480724D02*
X8153224Y-18518819D01*
X8229415Y-18480724D02*
X8229415Y-18518819D01*
X8524653Y-18756915D02*
X8515129Y-18747391D01*
X8496081Y-18718819D01*
X8486558Y-18699772D01*
X8477034Y-18671200D01*
X8467510Y-18623581D01*
X8467510Y-18585486D01*
X8477034Y-18537867D01*
X8486558Y-18509296D01*
X8496081Y-18490248D01*
X8515129Y-18461677D01*
X8524653Y-18452153D01*
X8581796Y-18480724D02*
X8705605Y-18480724D01*
X8638938Y-18556915D01*
X8667510Y-18556915D01*
X8686558Y-18566438D01*
X8696081Y-18575962D01*
X8705605Y-18595010D01*
X8705605Y-18642629D01*
X8696081Y-18661677D01*
X8686558Y-18671200D01*
X8667510Y-18680724D01*
X8610367Y-18680724D01*
X8591319Y-18671200D01*
X8581796Y-18661677D01*
X8781796Y-18499772D02*
X8791319Y-18490248D01*
X8810367Y-18480724D01*
X8857986Y-18480724D01*
X8877034Y-18490248D01*
X8886558Y-18499772D01*
X8896081Y-18518819D01*
X8896081Y-18537867D01*
X8886558Y-18566438D01*
X8772272Y-18680724D01*
X8896081Y-18680724D01*
X9134177Y-18680724D02*
X9134177Y-18480724D01*
X9219891Y-18680724D02*
X9219891Y-18575962D01*
X9210367Y-18556915D01*
X9191319Y-18547391D01*
X9162748Y-18547391D01*
X9143700Y-18556915D01*
X9134177Y-18566438D01*
X9343700Y-18680724D02*
X9324653Y-18671200D01*
X9315129Y-18661677D01*
X9305605Y-18642629D01*
X9305605Y-18585486D01*
X9315129Y-18566438D01*
X9324653Y-18556915D01*
X9343700Y-18547391D01*
X9372272Y-18547391D01*
X9391319Y-18556915D01*
X9400843Y-18566438D01*
X9410367Y-18585486D01*
X9410367Y-18642629D01*
X9400843Y-18661677D01*
X9391319Y-18671200D01*
X9372272Y-18680724D01*
X9343700Y-18680724D01*
X9524653Y-18680724D02*
X9505605Y-18671200D01*
X9496081Y-18652153D01*
X9496081Y-18480724D01*
X9677034Y-18671200D02*
X9657986Y-18680724D01*
X9619891Y-18680724D01*
X9600843Y-18671200D01*
X9591319Y-18652153D01*
X9591319Y-18575962D01*
X9600843Y-18556915D01*
X9619891Y-18547391D01*
X9657986Y-18547391D01*
X9677034Y-18556915D01*
X9686558Y-18575962D01*
X9686558Y-18595010D01*
X9591319Y-18614058D01*
X9762748Y-18671200D02*
X9781796Y-18680724D01*
X9819891Y-18680724D01*
X9838938Y-18671200D01*
X9848462Y-18652153D01*
X9848462Y-18642629D01*
X9838938Y-18623581D01*
X9819891Y-18614058D01*
X9791319Y-18614058D01*
X9772272Y-18604534D01*
X9762748Y-18585486D01*
X9762748Y-18575962D01*
X9772272Y-18556915D01*
X9791319Y-18547391D01*
X9819891Y-18547391D01*
X9838938Y-18556915D01*
X9915129Y-18756915D02*
X9924653Y-18747391D01*
X9943700Y-18718819D01*
X9953224Y-18699772D01*
X9962748Y-18671200D01*
X9972272Y-18623581D01*
X9972272Y-18585486D01*
X9962748Y-18537867D01*
X9953224Y-18509296D01*
X9943700Y-18490248D01*
X9924653Y-18461677D01*
X9915129Y-18452153D01*
D15*
X4906748Y-18900248D02*
X4952748Y-18854248D01*
X4906748Y-18808248D01*
X4860748Y-18854248D01*
X4906748Y-18900248D01*
D11*
X5248462Y-18744724D02*
X5267510Y-18744724D01*
X5286558Y-18754248D01*
X5296081Y-18763772D01*
X5305605Y-18782819D01*
X5315129Y-18820915D01*
X5315129Y-18868534D01*
X5305605Y-18906629D01*
X5296081Y-18925677D01*
X5286558Y-18935200D01*
X5267510Y-18944724D01*
X5248462Y-18944724D01*
X5229415Y-18935200D01*
X5219891Y-18925677D01*
X5210367Y-18906629D01*
X5200843Y-18868534D01*
X5200843Y-18820915D01*
X5210367Y-18782819D01*
X5219891Y-18763772D01*
X5229415Y-18754248D01*
X5248462Y-18744724D01*
X5400843Y-18925677D02*
X5410367Y-18935200D01*
X5400843Y-18944724D01*
X5391319Y-18935200D01*
X5400843Y-18925677D01*
X5400843Y-18944724D01*
X5505605Y-18944724D02*
X5543700Y-18944724D01*
X5562748Y-18935200D01*
X5572272Y-18925677D01*
X5591319Y-18897105D01*
X5600843Y-18859010D01*
X5600843Y-18782819D01*
X5591319Y-18763772D01*
X5581796Y-18754248D01*
X5562748Y-18744724D01*
X5524653Y-18744724D01*
X5505605Y-18754248D01*
X5496081Y-18763772D01*
X5486558Y-18782819D01*
X5486558Y-18830438D01*
X5496081Y-18849486D01*
X5505605Y-18859010D01*
X5524653Y-18868534D01*
X5562748Y-18868534D01*
X5581796Y-18859010D01*
X5591319Y-18849486D01*
X5600843Y-18830438D01*
X5677034Y-18763772D02*
X5686557Y-18754248D01*
X5705605Y-18744724D01*
X5753224Y-18744724D01*
X5772272Y-18754248D01*
X5781796Y-18763772D01*
X5791319Y-18782819D01*
X5791319Y-18801867D01*
X5781796Y-18830438D01*
X5667510Y-18944724D01*
X5791319Y-18944724D01*
X5915129Y-18744724D02*
X5934176Y-18744724D01*
X5953224Y-18754248D01*
X5962748Y-18763772D01*
X5972272Y-18782819D01*
X5981796Y-18820915D01*
X5981796Y-18868534D01*
X5972272Y-18906629D01*
X5962748Y-18925677D01*
X5953224Y-18935200D01*
X5934176Y-18944724D01*
X5915129Y-18944724D01*
X5896081Y-18935200D01*
X5886557Y-18925677D01*
X5877034Y-18906629D01*
X5867510Y-18868534D01*
X5867510Y-18820915D01*
X5877034Y-18782819D01*
X5886557Y-18763772D01*
X5896081Y-18754248D01*
X5915129Y-18744724D01*
X6067510Y-18944724D02*
X6067510Y-18811391D01*
X6067510Y-18830438D02*
X6077034Y-18820915D01*
X6096081Y-18811391D01*
X6124653Y-18811391D01*
X6143700Y-18820915D01*
X6153224Y-18839962D01*
X6153224Y-18944724D01*
X6153224Y-18839962D02*
X6162748Y-18820915D01*
X6181796Y-18811391D01*
X6210367Y-18811391D01*
X6229415Y-18820915D01*
X6238938Y-18839962D01*
X6238938Y-18944724D01*
X6334176Y-18944724D02*
X6334176Y-18811391D01*
X6334176Y-18830438D02*
X6343700Y-18820915D01*
X6362748Y-18811391D01*
X6391319Y-18811391D01*
X6410367Y-18820915D01*
X6419891Y-18839962D01*
X6419891Y-18944724D01*
X6419891Y-18839962D02*
X6429415Y-18820915D01*
X6448462Y-18811391D01*
X6477034Y-18811391D01*
X6496081Y-18820915D01*
X6505605Y-18839962D01*
X6505605Y-18944724D01*
X6896081Y-18735200D02*
X6724653Y-18992343D01*
X7153224Y-18744724D02*
X7172272Y-18744724D01*
X7191319Y-18754248D01*
X7200843Y-18763772D01*
X7210367Y-18782819D01*
X7219891Y-18820915D01*
X7219891Y-18868534D01*
X7210367Y-18906629D01*
X7200843Y-18925677D01*
X7191319Y-18935200D01*
X7172272Y-18944724D01*
X7153224Y-18944724D01*
X7134176Y-18935200D01*
X7124653Y-18925677D01*
X7115129Y-18906629D01*
X7105605Y-18868534D01*
X7105605Y-18820915D01*
X7115129Y-18782819D01*
X7124653Y-18763772D01*
X7134176Y-18754248D01*
X7153224Y-18744724D01*
X7305605Y-18925677D02*
X7315129Y-18935200D01*
X7305605Y-18944724D01*
X7296081Y-18935200D01*
X7305605Y-18925677D01*
X7305605Y-18944724D01*
X7438938Y-18744724D02*
X7457986Y-18744724D01*
X7477034Y-18754248D01*
X7486557Y-18763772D01*
X7496081Y-18782819D01*
X7505605Y-18820915D01*
X7505605Y-18868534D01*
X7496081Y-18906629D01*
X7486557Y-18925677D01*
X7477034Y-18935200D01*
X7457986Y-18944724D01*
X7438938Y-18944724D01*
X7419891Y-18935200D01*
X7410367Y-18925677D01*
X7400843Y-18906629D01*
X7391319Y-18868534D01*
X7391319Y-18820915D01*
X7400843Y-18782819D01*
X7410367Y-18763772D01*
X7419891Y-18754248D01*
X7438938Y-18744724D01*
X7572272Y-18744724D02*
X7696081Y-18744724D01*
X7629415Y-18820915D01*
X7657986Y-18820915D01*
X7677034Y-18830438D01*
X7686557Y-18839962D01*
X7696081Y-18859010D01*
X7696081Y-18906629D01*
X7686557Y-18925677D01*
X7677034Y-18935200D01*
X7657986Y-18944724D01*
X7600843Y-18944724D01*
X7581796Y-18935200D01*
X7572272Y-18925677D01*
X7867510Y-18744724D02*
X7829415Y-18744724D01*
X7810367Y-18754248D01*
X7800843Y-18763772D01*
X7781796Y-18792343D01*
X7772272Y-18830438D01*
X7772272Y-18906629D01*
X7781796Y-18925677D01*
X7791319Y-18935200D01*
X7810367Y-18944724D01*
X7848462Y-18944724D01*
X7867510Y-18935200D01*
X7877034Y-18925677D01*
X7886557Y-18906629D01*
X7886557Y-18859010D01*
X7877034Y-18839962D01*
X7867510Y-18830438D01*
X7848462Y-18820915D01*
X7810367Y-18820915D01*
X7791319Y-18830438D01*
X7781796Y-18839962D01*
X7772272Y-18859010D01*
X7962748Y-18763772D02*
X7972272Y-18754248D01*
X7991319Y-18744724D01*
X8038938Y-18744724D01*
X8057986Y-18754248D01*
X8067510Y-18763772D01*
X8077034Y-18782819D01*
X8077034Y-18801867D01*
X8067510Y-18830438D01*
X7953224Y-18944724D01*
X8077034Y-18944724D01*
X8153224Y-18744724D02*
X8153224Y-18782819D01*
X8229415Y-18744724D02*
X8229415Y-18782819D01*
X8524653Y-19020915D02*
X8515129Y-19011391D01*
X8496081Y-18982819D01*
X8486558Y-18963772D01*
X8477034Y-18935200D01*
X8467510Y-18887581D01*
X8467510Y-18849486D01*
X8477034Y-18801867D01*
X8486558Y-18773296D01*
X8496081Y-18754248D01*
X8515129Y-18725677D01*
X8524653Y-18716153D01*
X8705605Y-18944724D02*
X8591319Y-18944724D01*
X8648462Y-18944724D02*
X8648462Y-18744724D01*
X8629415Y-18773296D01*
X8610367Y-18792343D01*
X8591319Y-18801867D01*
X8877034Y-18744724D02*
X8838938Y-18744724D01*
X8819891Y-18754248D01*
X8810367Y-18763772D01*
X8791319Y-18792343D01*
X8781796Y-18830438D01*
X8781796Y-18906629D01*
X8791319Y-18925677D01*
X8800843Y-18935200D01*
X8819891Y-18944724D01*
X8857986Y-18944724D01*
X8877034Y-18935200D01*
X8886558Y-18925677D01*
X8896081Y-18906629D01*
X8896081Y-18859010D01*
X8886558Y-18839962D01*
X8877034Y-18830438D01*
X8857986Y-18820915D01*
X8819891Y-18820915D01*
X8800843Y-18830438D01*
X8791319Y-18839962D01*
X8781796Y-18859010D01*
X9134177Y-18944724D02*
X9134177Y-18744724D01*
X9219891Y-18944724D02*
X9219891Y-18839962D01*
X9210367Y-18820915D01*
X9191319Y-18811391D01*
X9162748Y-18811391D01*
X9143700Y-18820915D01*
X9134177Y-18830438D01*
X9343700Y-18944724D02*
X9324653Y-18935200D01*
X9315129Y-18925677D01*
X9305605Y-18906629D01*
X9305605Y-18849486D01*
X9315129Y-18830438D01*
X9324653Y-18820915D01*
X9343700Y-18811391D01*
X9372272Y-18811391D01*
X9391319Y-18820915D01*
X9400843Y-18830438D01*
X9410367Y-18849486D01*
X9410367Y-18906629D01*
X9400843Y-18925677D01*
X9391319Y-18935200D01*
X9372272Y-18944724D01*
X9343700Y-18944724D01*
X9524653Y-18944724D02*
X9505605Y-18935200D01*
X9496081Y-18916153D01*
X9496081Y-18744724D01*
X9677034Y-18935200D02*
X9657986Y-18944724D01*
X9619891Y-18944724D01*
X9600843Y-18935200D01*
X9591319Y-18916153D01*
X9591319Y-18839962D01*
X9600843Y-18820915D01*
X9619891Y-18811391D01*
X9657986Y-18811391D01*
X9677034Y-18820915D01*
X9686558Y-18839962D01*
X9686558Y-18859010D01*
X9591319Y-18878058D01*
X9762748Y-18935200D02*
X9781796Y-18944724D01*
X9819891Y-18944724D01*
X9838938Y-18935200D01*
X9848462Y-18916153D01*
X9848462Y-18906629D01*
X9838938Y-18887581D01*
X9819891Y-18878058D01*
X9791319Y-18878058D01*
X9772272Y-18868534D01*
X9762748Y-18849486D01*
X9762748Y-18839962D01*
X9772272Y-18820915D01*
X9791319Y-18811391D01*
X9819891Y-18811391D01*
X9838938Y-18820915D01*
X9915129Y-19020915D02*
X9924653Y-19011391D01*
X9943700Y-18982819D01*
X9953224Y-18963772D01*
X9962748Y-18935200D01*
X9972272Y-18887581D01*
X9972272Y-18849486D01*
X9962748Y-18801867D01*
X9953224Y-18773296D01*
X9943700Y-18754248D01*
X9924653Y-18725677D01*
X9915129Y-18716153D01*
D16*
X4857748Y-19070748D02*
X4952748Y-19165748D01*
X4952748Y-19070748D02*
X4857748Y-19165748D01*
X4952748Y-19118248D02*
G75*
G03*
X4952748Y-19118248I-47500J0D01*
G01*
D11*
X5248462Y-19008724D02*
X5267510Y-19008724D01*
X5286558Y-19018248D01*
X5296081Y-19027772D01*
X5305605Y-19046819D01*
X5315129Y-19084915D01*
X5315129Y-19132534D01*
X5305605Y-19170629D01*
X5296081Y-19189677D01*
X5286558Y-19199200D01*
X5267510Y-19208724D01*
X5248462Y-19208724D01*
X5229415Y-19199200D01*
X5219891Y-19189677D01*
X5210367Y-19170629D01*
X5200843Y-19132534D01*
X5200843Y-19084915D01*
X5210367Y-19046819D01*
X5219891Y-19027772D01*
X5229415Y-19018248D01*
X5248462Y-19008724D01*
X5400843Y-19189677D02*
X5410367Y-19199200D01*
X5400843Y-19208724D01*
X5391319Y-19199200D01*
X5400843Y-19189677D01*
X5400843Y-19208724D01*
X5505605Y-19208724D02*
X5543700Y-19208724D01*
X5562748Y-19199200D01*
X5572272Y-19189677D01*
X5591319Y-19161105D01*
X5600843Y-19123010D01*
X5600843Y-19046819D01*
X5591319Y-19027772D01*
X5581796Y-19018248D01*
X5562748Y-19008724D01*
X5524653Y-19008724D01*
X5505605Y-19018248D01*
X5496081Y-19027772D01*
X5486558Y-19046819D01*
X5486558Y-19094438D01*
X5496081Y-19113486D01*
X5505605Y-19123010D01*
X5524653Y-19132534D01*
X5562748Y-19132534D01*
X5581796Y-19123010D01*
X5591319Y-19113486D01*
X5600843Y-19094438D01*
X5781796Y-19008724D02*
X5686557Y-19008724D01*
X5677034Y-19103962D01*
X5686557Y-19094438D01*
X5705605Y-19084915D01*
X5753224Y-19084915D01*
X5772272Y-19094438D01*
X5781796Y-19103962D01*
X5791319Y-19123010D01*
X5791319Y-19170629D01*
X5781796Y-19189677D01*
X5772272Y-19199200D01*
X5753224Y-19208724D01*
X5705605Y-19208724D01*
X5686557Y-19199200D01*
X5677034Y-19189677D01*
X5915129Y-19008724D02*
X5934176Y-19008724D01*
X5953224Y-19018248D01*
X5962748Y-19027772D01*
X5972272Y-19046819D01*
X5981796Y-19084915D01*
X5981796Y-19132534D01*
X5972272Y-19170629D01*
X5962748Y-19189677D01*
X5953224Y-19199200D01*
X5934176Y-19208724D01*
X5915129Y-19208724D01*
X5896081Y-19199200D01*
X5886557Y-19189677D01*
X5877034Y-19170629D01*
X5867510Y-19132534D01*
X5867510Y-19084915D01*
X5877034Y-19046819D01*
X5886557Y-19027772D01*
X5896081Y-19018248D01*
X5915129Y-19008724D01*
X6067510Y-19208724D02*
X6067510Y-19075391D01*
X6067510Y-19094438D02*
X6077034Y-19084915D01*
X6096081Y-19075391D01*
X6124653Y-19075391D01*
X6143700Y-19084915D01*
X6153224Y-19103962D01*
X6153224Y-19208724D01*
X6153224Y-19103962D02*
X6162748Y-19084915D01*
X6181796Y-19075391D01*
X6210367Y-19075391D01*
X6229415Y-19084915D01*
X6238938Y-19103962D01*
X6238938Y-19208724D01*
X6334176Y-19208724D02*
X6334176Y-19075391D01*
X6334176Y-19094438D02*
X6343700Y-19084915D01*
X6362748Y-19075391D01*
X6391319Y-19075391D01*
X6410367Y-19084915D01*
X6419891Y-19103962D01*
X6419891Y-19208724D01*
X6419891Y-19103962D02*
X6429415Y-19084915D01*
X6448462Y-19075391D01*
X6477034Y-19075391D01*
X6496081Y-19084915D01*
X6505605Y-19103962D01*
X6505605Y-19208724D01*
X6896081Y-18999200D02*
X6724653Y-19256343D01*
X7153224Y-19008724D02*
X7172272Y-19008724D01*
X7191319Y-19018248D01*
X7200843Y-19027772D01*
X7210367Y-19046819D01*
X7219891Y-19084915D01*
X7219891Y-19132534D01*
X7210367Y-19170629D01*
X7200843Y-19189677D01*
X7191319Y-19199200D01*
X7172272Y-19208724D01*
X7153224Y-19208724D01*
X7134176Y-19199200D01*
X7124653Y-19189677D01*
X7115129Y-19170629D01*
X7105605Y-19132534D01*
X7105605Y-19084915D01*
X7115129Y-19046819D01*
X7124653Y-19027772D01*
X7134176Y-19018248D01*
X7153224Y-19008724D01*
X7305605Y-19189677D02*
X7315129Y-19199200D01*
X7305605Y-19208724D01*
X7296081Y-19199200D01*
X7305605Y-19189677D01*
X7305605Y-19208724D01*
X7438938Y-19008724D02*
X7457986Y-19008724D01*
X7477034Y-19018248D01*
X7486557Y-19027772D01*
X7496081Y-19046819D01*
X7505605Y-19084915D01*
X7505605Y-19132534D01*
X7496081Y-19170629D01*
X7486557Y-19189677D01*
X7477034Y-19199200D01*
X7457986Y-19208724D01*
X7438938Y-19208724D01*
X7419891Y-19199200D01*
X7410367Y-19189677D01*
X7400843Y-19170629D01*
X7391319Y-19132534D01*
X7391319Y-19084915D01*
X7400843Y-19046819D01*
X7410367Y-19027772D01*
X7419891Y-19018248D01*
X7438938Y-19008724D01*
X7572272Y-19008724D02*
X7696081Y-19008724D01*
X7629415Y-19084915D01*
X7657986Y-19084915D01*
X7677034Y-19094438D01*
X7686557Y-19103962D01*
X7696081Y-19123010D01*
X7696081Y-19170629D01*
X7686557Y-19189677D01*
X7677034Y-19199200D01*
X7657986Y-19208724D01*
X7600843Y-19208724D01*
X7581796Y-19199200D01*
X7572272Y-19189677D01*
X7762748Y-19008724D02*
X7896081Y-19008724D01*
X7810367Y-19208724D01*
X8057986Y-19075391D02*
X8057986Y-19208724D01*
X8010367Y-18999200D02*
X7962748Y-19142058D01*
X8086557Y-19142058D01*
X8153224Y-19008724D02*
X8153224Y-19046819D01*
X8229415Y-19008724D02*
X8229415Y-19046819D01*
X8524653Y-19284915D02*
X8515129Y-19275391D01*
X8496081Y-19246819D01*
X8486558Y-19227772D01*
X8477034Y-19199200D01*
X8467510Y-19151581D01*
X8467510Y-19113486D01*
X8477034Y-19065867D01*
X8486558Y-19037296D01*
X8496081Y-19018248D01*
X8515129Y-18989677D01*
X8524653Y-18980153D01*
X8629415Y-19094438D02*
X8610367Y-19084915D01*
X8600843Y-19075391D01*
X8591319Y-19056343D01*
X8591319Y-19046819D01*
X8600843Y-19027772D01*
X8610367Y-19018248D01*
X8629415Y-19008724D01*
X8667510Y-19008724D01*
X8686558Y-19018248D01*
X8696081Y-19027772D01*
X8705605Y-19046819D01*
X8705605Y-19056343D01*
X8696081Y-19075391D01*
X8686558Y-19084915D01*
X8667510Y-19094438D01*
X8629415Y-19094438D01*
X8610367Y-19103962D01*
X8600843Y-19113486D01*
X8591319Y-19132534D01*
X8591319Y-19170629D01*
X8600843Y-19189677D01*
X8610367Y-19199200D01*
X8629415Y-19208724D01*
X8667510Y-19208724D01*
X8686558Y-19199200D01*
X8696081Y-19189677D01*
X8705605Y-19170629D01*
X8705605Y-19132534D01*
X8696081Y-19113486D01*
X8686558Y-19103962D01*
X8667510Y-19094438D01*
X8819891Y-19094438D02*
X8800843Y-19084915D01*
X8791319Y-19075391D01*
X8781796Y-19056343D01*
X8781796Y-19046819D01*
X8791319Y-19027772D01*
X8800843Y-19018248D01*
X8819891Y-19008724D01*
X8857986Y-19008724D01*
X8877034Y-19018248D01*
X8886558Y-19027772D01*
X8896081Y-19046819D01*
X8896081Y-19056343D01*
X8886558Y-19075391D01*
X8877034Y-19084915D01*
X8857986Y-19094438D01*
X8819891Y-19094438D01*
X8800843Y-19103962D01*
X8791319Y-19113486D01*
X8781796Y-19132534D01*
X8781796Y-19170629D01*
X8791319Y-19189677D01*
X8800843Y-19199200D01*
X8819891Y-19208724D01*
X8857986Y-19208724D01*
X8877034Y-19199200D01*
X8886558Y-19189677D01*
X8896081Y-19170629D01*
X8896081Y-19132534D01*
X8886558Y-19113486D01*
X8877034Y-19103962D01*
X8857986Y-19094438D01*
X9134177Y-19208724D02*
X9134177Y-19008724D01*
X9219891Y-19208724D02*
X9219891Y-19103962D01*
X9210367Y-19084915D01*
X9191319Y-19075391D01*
X9162748Y-19075391D01*
X9143700Y-19084915D01*
X9134177Y-19094438D01*
X9343700Y-19208724D02*
X9324653Y-19199200D01*
X9315129Y-19189677D01*
X9305605Y-19170629D01*
X9305605Y-19113486D01*
X9315129Y-19094438D01*
X9324653Y-19084915D01*
X9343700Y-19075391D01*
X9372272Y-19075391D01*
X9391319Y-19084915D01*
X9400843Y-19094438D01*
X9410367Y-19113486D01*
X9410367Y-19170629D01*
X9400843Y-19189677D01*
X9391319Y-19199200D01*
X9372272Y-19208724D01*
X9343700Y-19208724D01*
X9524653Y-19208724D02*
X9505605Y-19199200D01*
X9496081Y-19180153D01*
X9496081Y-19008724D01*
X9677034Y-19199200D02*
X9657986Y-19208724D01*
X9619891Y-19208724D01*
X9600843Y-19199200D01*
X9591319Y-19180153D01*
X9591319Y-19103962D01*
X9600843Y-19084915D01*
X9619891Y-19075391D01*
X9657986Y-19075391D01*
X9677034Y-19084915D01*
X9686558Y-19103962D01*
X9686558Y-19123010D01*
X9591319Y-19142058D01*
X9762748Y-19199200D02*
X9781796Y-19208724D01*
X9819891Y-19208724D01*
X9838938Y-19199200D01*
X9848462Y-19180153D01*
X9848462Y-19170629D01*
X9838938Y-19151581D01*
X9819891Y-19142058D01*
X9791319Y-19142058D01*
X9772272Y-19132534D01*
X9762748Y-19113486D01*
X9762748Y-19103962D01*
X9772272Y-19084915D01*
X9791319Y-19075391D01*
X9819891Y-19075391D01*
X9838938Y-19084915D01*
X9915129Y-19284915D02*
X9924653Y-19275391D01*
X9943700Y-19246819D01*
X9953224Y-19227772D01*
X9962748Y-19199200D01*
X9972272Y-19151581D01*
X9972272Y-19113486D01*
X9962748Y-19065867D01*
X9953224Y-19037296D01*
X9943700Y-19018248D01*
X9924653Y-18989677D01*
X9915129Y-18980153D01*
D17*
X4852748Y-19332248D02*
X4952748Y-19432248D01*
X4952748Y-19332248D02*
X4852748Y-19432248D01*
X4902748Y-19332248D02*
X4902748Y-19432248D01*
X4852748Y-19382248D02*
X4952748Y-19382248D01*
D11*
X5315129Y-19472724D02*
X5200843Y-19472724D01*
X5257986Y-19472724D02*
X5257986Y-19272724D01*
X5238938Y-19301296D01*
X5219891Y-19320343D01*
X5200843Y-19329867D01*
X5400843Y-19453677D02*
X5410367Y-19463200D01*
X5400843Y-19472724D01*
X5391319Y-19463200D01*
X5400843Y-19453677D01*
X5400843Y-19472724D01*
X5534177Y-19272724D02*
X5553224Y-19272724D01*
X5572272Y-19282248D01*
X5581796Y-19291772D01*
X5591319Y-19310819D01*
X5600843Y-19348915D01*
X5600843Y-19396534D01*
X5591319Y-19434629D01*
X5581796Y-19453677D01*
X5572272Y-19463200D01*
X5553224Y-19472724D01*
X5534177Y-19472724D01*
X5515129Y-19463200D01*
X5505605Y-19453677D01*
X5496081Y-19434629D01*
X5486558Y-19396534D01*
X5486558Y-19348915D01*
X5496081Y-19310819D01*
X5505605Y-19291772D01*
X5515129Y-19282248D01*
X5534177Y-19272724D01*
X5724653Y-19272724D02*
X5743700Y-19272724D01*
X5762748Y-19282248D01*
X5772272Y-19291772D01*
X5781796Y-19310819D01*
X5791319Y-19348915D01*
X5791319Y-19396534D01*
X5781796Y-19434629D01*
X5772272Y-19453677D01*
X5762748Y-19463200D01*
X5743700Y-19472724D01*
X5724653Y-19472724D01*
X5705605Y-19463200D01*
X5696081Y-19453677D01*
X5686557Y-19434629D01*
X5677034Y-19396534D01*
X5677034Y-19348915D01*
X5686557Y-19310819D01*
X5696081Y-19291772D01*
X5705605Y-19282248D01*
X5724653Y-19272724D01*
X5915129Y-19272724D02*
X5934176Y-19272724D01*
X5953224Y-19282248D01*
X5962748Y-19291772D01*
X5972272Y-19310819D01*
X5981796Y-19348915D01*
X5981796Y-19396534D01*
X5972272Y-19434629D01*
X5962748Y-19453677D01*
X5953224Y-19463200D01*
X5934176Y-19472724D01*
X5915129Y-19472724D01*
X5896081Y-19463200D01*
X5886557Y-19453677D01*
X5877034Y-19434629D01*
X5867510Y-19396534D01*
X5867510Y-19348915D01*
X5877034Y-19310819D01*
X5886557Y-19291772D01*
X5896081Y-19282248D01*
X5915129Y-19272724D01*
X6067510Y-19472724D02*
X6067510Y-19339391D01*
X6067510Y-19358438D02*
X6077034Y-19348915D01*
X6096081Y-19339391D01*
X6124653Y-19339391D01*
X6143700Y-19348915D01*
X6153224Y-19367962D01*
X6153224Y-19472724D01*
X6153224Y-19367962D02*
X6162748Y-19348915D01*
X6181796Y-19339391D01*
X6210367Y-19339391D01*
X6229415Y-19348915D01*
X6238938Y-19367962D01*
X6238938Y-19472724D01*
X6334176Y-19472724D02*
X6334176Y-19339391D01*
X6334176Y-19358438D02*
X6343700Y-19348915D01*
X6362748Y-19339391D01*
X6391319Y-19339391D01*
X6410367Y-19348915D01*
X6419891Y-19367962D01*
X6419891Y-19472724D01*
X6419891Y-19367962D02*
X6429415Y-19348915D01*
X6448462Y-19339391D01*
X6477034Y-19339391D01*
X6496081Y-19348915D01*
X6505605Y-19367962D01*
X6505605Y-19472724D01*
X6896081Y-19263200D02*
X6724653Y-19520343D01*
X7153224Y-19272724D02*
X7172272Y-19272724D01*
X7191319Y-19282248D01*
X7200843Y-19291772D01*
X7210367Y-19310819D01*
X7219891Y-19348915D01*
X7219891Y-19396534D01*
X7210367Y-19434629D01*
X7200843Y-19453677D01*
X7191319Y-19463200D01*
X7172272Y-19472724D01*
X7153224Y-19472724D01*
X7134176Y-19463200D01*
X7124653Y-19453677D01*
X7115129Y-19434629D01*
X7105605Y-19396534D01*
X7105605Y-19348915D01*
X7115129Y-19310819D01*
X7124653Y-19291772D01*
X7134176Y-19282248D01*
X7153224Y-19272724D01*
X7305605Y-19453677D02*
X7315129Y-19463200D01*
X7305605Y-19472724D01*
X7296081Y-19463200D01*
X7305605Y-19453677D01*
X7305605Y-19472724D01*
X7438938Y-19272724D02*
X7457986Y-19272724D01*
X7477034Y-19282248D01*
X7486557Y-19291772D01*
X7496081Y-19310819D01*
X7505605Y-19348915D01*
X7505605Y-19396534D01*
X7496081Y-19434629D01*
X7486557Y-19453677D01*
X7477034Y-19463200D01*
X7457986Y-19472724D01*
X7438938Y-19472724D01*
X7419891Y-19463200D01*
X7410367Y-19453677D01*
X7400843Y-19434629D01*
X7391319Y-19396534D01*
X7391319Y-19348915D01*
X7400843Y-19310819D01*
X7410367Y-19291772D01*
X7419891Y-19282248D01*
X7438938Y-19272724D01*
X7572272Y-19272724D02*
X7696081Y-19272724D01*
X7629415Y-19348915D01*
X7657986Y-19348915D01*
X7677034Y-19358438D01*
X7686557Y-19367962D01*
X7696081Y-19387010D01*
X7696081Y-19434629D01*
X7686557Y-19453677D01*
X7677034Y-19463200D01*
X7657986Y-19472724D01*
X7600843Y-19472724D01*
X7581796Y-19463200D01*
X7572272Y-19453677D01*
X7791319Y-19472724D02*
X7829415Y-19472724D01*
X7848462Y-19463200D01*
X7857986Y-19453677D01*
X7877034Y-19425105D01*
X7886557Y-19387010D01*
X7886557Y-19310819D01*
X7877034Y-19291772D01*
X7867510Y-19282248D01*
X7848462Y-19272724D01*
X7810367Y-19272724D01*
X7791319Y-19282248D01*
X7781796Y-19291772D01*
X7772272Y-19310819D01*
X7772272Y-19358438D01*
X7781796Y-19377486D01*
X7791319Y-19387010D01*
X7810367Y-19396534D01*
X7848462Y-19396534D01*
X7867510Y-19387010D01*
X7877034Y-19377486D01*
X7886557Y-19358438D01*
X8057986Y-19339391D02*
X8057986Y-19472724D01*
X8010367Y-19263200D02*
X7962748Y-19406058D01*
X8086557Y-19406058D01*
X8153224Y-19272724D02*
X8153224Y-19310819D01*
X8229415Y-19272724D02*
X8229415Y-19310819D01*
X8524653Y-19548915D02*
X8515129Y-19539391D01*
X8496081Y-19510819D01*
X8486558Y-19491772D01*
X8477034Y-19463200D01*
X8467510Y-19415581D01*
X8467510Y-19377486D01*
X8477034Y-19329867D01*
X8486558Y-19301296D01*
X8496081Y-19282248D01*
X8515129Y-19253677D01*
X8524653Y-19244153D01*
X8705605Y-19472724D02*
X8591319Y-19472724D01*
X8648462Y-19472724D02*
X8648462Y-19272724D01*
X8629415Y-19301296D01*
X8610367Y-19320343D01*
X8591319Y-19329867D01*
X8896081Y-19472724D02*
X8781796Y-19472724D01*
X8838938Y-19472724D02*
X8838938Y-19272724D01*
X8819891Y-19301296D01*
X8800843Y-19320343D01*
X8781796Y-19329867D01*
X9067510Y-19272724D02*
X9029415Y-19272724D01*
X9010367Y-19282248D01*
X9000843Y-19291772D01*
X8981796Y-19320343D01*
X8972272Y-19358438D01*
X8972272Y-19434629D01*
X8981796Y-19453677D01*
X8991319Y-19463200D01*
X9010367Y-19472724D01*
X9048462Y-19472724D01*
X9067510Y-19463200D01*
X9077034Y-19453677D01*
X9086558Y-19434629D01*
X9086558Y-19387010D01*
X9077034Y-19367962D01*
X9067510Y-19358438D01*
X9048462Y-19348915D01*
X9010367Y-19348915D01*
X8991319Y-19358438D01*
X8981796Y-19367962D01*
X8972272Y-19387010D01*
X9324653Y-19472724D02*
X9324653Y-19272724D01*
X9410367Y-19472724D02*
X9410367Y-19367962D01*
X9400843Y-19348915D01*
X9381796Y-19339391D01*
X9353224Y-19339391D01*
X9334177Y-19348915D01*
X9324653Y-19358438D01*
X9534177Y-19472724D02*
X9515129Y-19463200D01*
X9505605Y-19453677D01*
X9496081Y-19434629D01*
X9496081Y-19377486D01*
X9505605Y-19358438D01*
X9515129Y-19348915D01*
X9534177Y-19339391D01*
X9562748Y-19339391D01*
X9581796Y-19348915D01*
X9591319Y-19358438D01*
X9600843Y-19377486D01*
X9600843Y-19434629D01*
X9591319Y-19453677D01*
X9581796Y-19463200D01*
X9562748Y-19472724D01*
X9534177Y-19472724D01*
X9715129Y-19472724D02*
X9696081Y-19463200D01*
X9686558Y-19444153D01*
X9686558Y-19272724D01*
X9867510Y-19463200D02*
X9848462Y-19472724D01*
X9810367Y-19472724D01*
X9791319Y-19463200D01*
X9781796Y-19444153D01*
X9781796Y-19367962D01*
X9791319Y-19348915D01*
X9810367Y-19339391D01*
X9848462Y-19339391D01*
X9867510Y-19348915D01*
X9877034Y-19367962D01*
X9877034Y-19387010D01*
X9781796Y-19406058D01*
X9953224Y-19463200D02*
X9972272Y-19472724D01*
X10010367Y-19472724D01*
X10029415Y-19463200D01*
X10038938Y-19444153D01*
X10038938Y-19434629D01*
X10029415Y-19415581D01*
X10010367Y-19406058D01*
X9981796Y-19406058D01*
X9962748Y-19396534D01*
X9953224Y-19377486D01*
X9953224Y-19367962D01*
X9962748Y-19348915D01*
X9981796Y-19339391D01*
X10010367Y-19339391D01*
X10029415Y-19348915D01*
X10105605Y-19548915D02*
X10115129Y-19539391D01*
X10134177Y-19510819D01*
X10143700Y-19491772D01*
X10153224Y-19463200D01*
X10162748Y-19415581D01*
X10162748Y-19377486D01*
X10153224Y-19329867D01*
X10143700Y-19301296D01*
X10134177Y-19282248D01*
X10115129Y-19253677D01*
X10105605Y-19244153D01*
D18*
X4842748Y-19591248D02*
X4952748Y-19701248D01*
X4952748Y-19591248D02*
X4842748Y-19701248D01*
X4936639Y-19685139D02*
X4936639Y-19607357D01*
X4858857Y-19607357D01*
X4858857Y-19685139D01*
X4936639Y-19685139D01*
D11*
X5315129Y-19736724D02*
X5200843Y-19736724D01*
X5257986Y-19736724D02*
X5257986Y-19536724D01*
X5238938Y-19565296D01*
X5219891Y-19584343D01*
X5200843Y-19593867D01*
X5400843Y-19717677D02*
X5410367Y-19727200D01*
X5400843Y-19736724D01*
X5391319Y-19727200D01*
X5400843Y-19717677D01*
X5400843Y-19736724D01*
X5600843Y-19736724D02*
X5486558Y-19736724D01*
X5543700Y-19736724D02*
X5543700Y-19536724D01*
X5524653Y-19565296D01*
X5505605Y-19584343D01*
X5486558Y-19593867D01*
X5724653Y-19536724D02*
X5743700Y-19536724D01*
X5762748Y-19546248D01*
X5772272Y-19555772D01*
X5781796Y-19574819D01*
X5791319Y-19612915D01*
X5791319Y-19660534D01*
X5781796Y-19698629D01*
X5772272Y-19717677D01*
X5762748Y-19727200D01*
X5743700Y-19736724D01*
X5724653Y-19736724D01*
X5705605Y-19727200D01*
X5696081Y-19717677D01*
X5686557Y-19698629D01*
X5677034Y-19660534D01*
X5677034Y-19612915D01*
X5686557Y-19574819D01*
X5696081Y-19555772D01*
X5705605Y-19546248D01*
X5724653Y-19536724D01*
X5915129Y-19536724D02*
X5934176Y-19536724D01*
X5953224Y-19546248D01*
X5962748Y-19555772D01*
X5972272Y-19574819D01*
X5981796Y-19612915D01*
X5981796Y-19660534D01*
X5972272Y-19698629D01*
X5962748Y-19717677D01*
X5953224Y-19727200D01*
X5934176Y-19736724D01*
X5915129Y-19736724D01*
X5896081Y-19727200D01*
X5886557Y-19717677D01*
X5877034Y-19698629D01*
X5867510Y-19660534D01*
X5867510Y-19612915D01*
X5877034Y-19574819D01*
X5886557Y-19555772D01*
X5896081Y-19546248D01*
X5915129Y-19536724D01*
X6067510Y-19736724D02*
X6067510Y-19603391D01*
X6067510Y-19622438D02*
X6077034Y-19612915D01*
X6096081Y-19603391D01*
X6124653Y-19603391D01*
X6143700Y-19612915D01*
X6153224Y-19631962D01*
X6153224Y-19736724D01*
X6153224Y-19631962D02*
X6162748Y-19612915D01*
X6181796Y-19603391D01*
X6210367Y-19603391D01*
X6229415Y-19612915D01*
X6238938Y-19631962D01*
X6238938Y-19736724D01*
X6334176Y-19736724D02*
X6334176Y-19603391D01*
X6334176Y-19622438D02*
X6343700Y-19612915D01*
X6362748Y-19603391D01*
X6391319Y-19603391D01*
X6410367Y-19612915D01*
X6419891Y-19631962D01*
X6419891Y-19736724D01*
X6419891Y-19631962D02*
X6429415Y-19612915D01*
X6448462Y-19603391D01*
X6477034Y-19603391D01*
X6496081Y-19612915D01*
X6505605Y-19631962D01*
X6505605Y-19736724D01*
X6896081Y-19527200D02*
X6724653Y-19784343D01*
X7153224Y-19536724D02*
X7172272Y-19536724D01*
X7191319Y-19546248D01*
X7200843Y-19555772D01*
X7210367Y-19574819D01*
X7219891Y-19612915D01*
X7219891Y-19660534D01*
X7210367Y-19698629D01*
X7200843Y-19717677D01*
X7191319Y-19727200D01*
X7172272Y-19736724D01*
X7153224Y-19736724D01*
X7134176Y-19727200D01*
X7124653Y-19717677D01*
X7115129Y-19698629D01*
X7105605Y-19660534D01*
X7105605Y-19612915D01*
X7115129Y-19574819D01*
X7124653Y-19555772D01*
X7134176Y-19546248D01*
X7153224Y-19536724D01*
X7305605Y-19717677D02*
X7315129Y-19727200D01*
X7305605Y-19736724D01*
X7296081Y-19727200D01*
X7305605Y-19717677D01*
X7305605Y-19736724D01*
X7438938Y-19536724D02*
X7457986Y-19536724D01*
X7477034Y-19546248D01*
X7486557Y-19555772D01*
X7496081Y-19574819D01*
X7505605Y-19612915D01*
X7505605Y-19660534D01*
X7496081Y-19698629D01*
X7486557Y-19717677D01*
X7477034Y-19727200D01*
X7457986Y-19736724D01*
X7438938Y-19736724D01*
X7419891Y-19727200D01*
X7410367Y-19717677D01*
X7400843Y-19698629D01*
X7391319Y-19660534D01*
X7391319Y-19612915D01*
X7400843Y-19574819D01*
X7410367Y-19555772D01*
X7419891Y-19546248D01*
X7438938Y-19536724D01*
X7677034Y-19603391D02*
X7677034Y-19736724D01*
X7629415Y-19527200D02*
X7581796Y-19670058D01*
X7705605Y-19670058D01*
X7762748Y-19536724D02*
X7886557Y-19536724D01*
X7819891Y-19612915D01*
X7848462Y-19612915D01*
X7867510Y-19622438D01*
X7877034Y-19631962D01*
X7886557Y-19651010D01*
X7886557Y-19698629D01*
X7877034Y-19717677D01*
X7867510Y-19727200D01*
X7848462Y-19736724D01*
X7791319Y-19736724D01*
X7772272Y-19727200D01*
X7762748Y-19717677D01*
X7953224Y-19536724D02*
X8077034Y-19536724D01*
X8010367Y-19612915D01*
X8038938Y-19612915D01*
X8057986Y-19622438D01*
X8067510Y-19631962D01*
X8077034Y-19651010D01*
X8077034Y-19698629D01*
X8067510Y-19717677D01*
X8057986Y-19727200D01*
X8038938Y-19736724D01*
X7981796Y-19736724D01*
X7962748Y-19727200D01*
X7953224Y-19717677D01*
X8153224Y-19536724D02*
X8153224Y-19574819D01*
X8229415Y-19536724D02*
X8229415Y-19574819D01*
X8524653Y-19812915D02*
X8515129Y-19803391D01*
X8496081Y-19774819D01*
X8486558Y-19755772D01*
X8477034Y-19727200D01*
X8467510Y-19679581D01*
X8467510Y-19641486D01*
X8477034Y-19593867D01*
X8486558Y-19565296D01*
X8496081Y-19546248D01*
X8515129Y-19517677D01*
X8524653Y-19508153D01*
X8591319Y-19555772D02*
X8600843Y-19546248D01*
X8619891Y-19536724D01*
X8667510Y-19536724D01*
X8686558Y-19546248D01*
X8696081Y-19555772D01*
X8705605Y-19574819D01*
X8705605Y-19593867D01*
X8696081Y-19622438D01*
X8581796Y-19736724D01*
X8705605Y-19736724D01*
X8877034Y-19603391D02*
X8877034Y-19736724D01*
X8829415Y-19527200D02*
X8781796Y-19670058D01*
X8905605Y-19670058D01*
X9134177Y-19736724D02*
X9134177Y-19536724D01*
X9219891Y-19736724D02*
X9219891Y-19631962D01*
X9210367Y-19612915D01*
X9191319Y-19603391D01*
X9162748Y-19603391D01*
X9143700Y-19612915D01*
X9134177Y-19622438D01*
X9343700Y-19736724D02*
X9324653Y-19727200D01*
X9315129Y-19717677D01*
X9305605Y-19698629D01*
X9305605Y-19641486D01*
X9315129Y-19622438D01*
X9324653Y-19612915D01*
X9343700Y-19603391D01*
X9372272Y-19603391D01*
X9391319Y-19612915D01*
X9400843Y-19622438D01*
X9410367Y-19641486D01*
X9410367Y-19698629D01*
X9400843Y-19717677D01*
X9391319Y-19727200D01*
X9372272Y-19736724D01*
X9343700Y-19736724D01*
X9524653Y-19736724D02*
X9505605Y-19727200D01*
X9496081Y-19708153D01*
X9496081Y-19536724D01*
X9677034Y-19727200D02*
X9657986Y-19736724D01*
X9619891Y-19736724D01*
X9600843Y-19727200D01*
X9591319Y-19708153D01*
X9591319Y-19631962D01*
X9600843Y-19612915D01*
X9619891Y-19603391D01*
X9657986Y-19603391D01*
X9677034Y-19612915D01*
X9686558Y-19631962D01*
X9686558Y-19651010D01*
X9591319Y-19670058D01*
X9762748Y-19727200D02*
X9781796Y-19736724D01*
X9819891Y-19736724D01*
X9838938Y-19727200D01*
X9848462Y-19708153D01*
X9848462Y-19698629D01*
X9838938Y-19679581D01*
X9819891Y-19670058D01*
X9791319Y-19670058D01*
X9772272Y-19660534D01*
X9762748Y-19641486D01*
X9762748Y-19631962D01*
X9772272Y-19612915D01*
X9791319Y-19603391D01*
X9819891Y-19603391D01*
X9838938Y-19612915D01*
X9915129Y-19812915D02*
X9924653Y-19803391D01*
X9943700Y-19774819D01*
X9953224Y-19755772D01*
X9962748Y-19727200D01*
X9972272Y-19679581D01*
X9972272Y-19641486D01*
X9962748Y-19593867D01*
X9953224Y-19565296D01*
X9943700Y-19546248D01*
X9924653Y-19517677D01*
X9915129Y-19508153D01*
D19*
X4832748Y-19850248D02*
X4952748Y-19970248D01*
X4952748Y-19850248D02*
X4832748Y-19970248D01*
X4892748Y-19970248D02*
X4952748Y-19910248D01*
X4892748Y-19850248D01*
X4832748Y-19910248D01*
X4892748Y-19970248D01*
D11*
X5315129Y-20000724D02*
X5200843Y-20000724D01*
X5257986Y-20000724D02*
X5257986Y-19800724D01*
X5238938Y-19829296D01*
X5219891Y-19848343D01*
X5200843Y-19857867D01*
X5400843Y-19981677D02*
X5410367Y-19991200D01*
X5400843Y-20000724D01*
X5391319Y-19991200D01*
X5400843Y-19981677D01*
X5400843Y-20000724D01*
X5486558Y-19819772D02*
X5496081Y-19810248D01*
X5515129Y-19800724D01*
X5562748Y-19800724D01*
X5581796Y-19810248D01*
X5591319Y-19819772D01*
X5600843Y-19838819D01*
X5600843Y-19857867D01*
X5591319Y-19886438D01*
X5477034Y-20000724D01*
X5600843Y-20000724D01*
X5724653Y-19800724D02*
X5743700Y-19800724D01*
X5762748Y-19810248D01*
X5772272Y-19819772D01*
X5781796Y-19838819D01*
X5791319Y-19876915D01*
X5791319Y-19924534D01*
X5781796Y-19962629D01*
X5772272Y-19981677D01*
X5762748Y-19991200D01*
X5743700Y-20000724D01*
X5724653Y-20000724D01*
X5705605Y-19991200D01*
X5696081Y-19981677D01*
X5686557Y-19962629D01*
X5677034Y-19924534D01*
X5677034Y-19876915D01*
X5686557Y-19838819D01*
X5696081Y-19819772D01*
X5705605Y-19810248D01*
X5724653Y-19800724D01*
X5915129Y-19800724D02*
X5934176Y-19800724D01*
X5953224Y-19810248D01*
X5962748Y-19819772D01*
X5972272Y-19838819D01*
X5981796Y-19876915D01*
X5981796Y-19924534D01*
X5972272Y-19962629D01*
X5962748Y-19981677D01*
X5953224Y-19991200D01*
X5934176Y-20000724D01*
X5915129Y-20000724D01*
X5896081Y-19991200D01*
X5886557Y-19981677D01*
X5877034Y-19962629D01*
X5867510Y-19924534D01*
X5867510Y-19876915D01*
X5877034Y-19838819D01*
X5886557Y-19819772D01*
X5896081Y-19810248D01*
X5915129Y-19800724D01*
X6067510Y-20000724D02*
X6067510Y-19867391D01*
X6067510Y-19886438D02*
X6077034Y-19876915D01*
X6096081Y-19867391D01*
X6124653Y-19867391D01*
X6143700Y-19876915D01*
X6153224Y-19895962D01*
X6153224Y-20000724D01*
X6153224Y-19895962D02*
X6162748Y-19876915D01*
X6181796Y-19867391D01*
X6210367Y-19867391D01*
X6229415Y-19876915D01*
X6238938Y-19895962D01*
X6238938Y-20000724D01*
X6334176Y-20000724D02*
X6334176Y-19867391D01*
X6334176Y-19886438D02*
X6343700Y-19876915D01*
X6362748Y-19867391D01*
X6391319Y-19867391D01*
X6410367Y-19876915D01*
X6419891Y-19895962D01*
X6419891Y-20000724D01*
X6419891Y-19895962D02*
X6429415Y-19876915D01*
X6448462Y-19867391D01*
X6477034Y-19867391D01*
X6496081Y-19876915D01*
X6505605Y-19895962D01*
X6505605Y-20000724D01*
X6896081Y-19791200D02*
X6724653Y-20048343D01*
X7153224Y-19800724D02*
X7172272Y-19800724D01*
X7191319Y-19810248D01*
X7200843Y-19819772D01*
X7210367Y-19838819D01*
X7219891Y-19876915D01*
X7219891Y-19924534D01*
X7210367Y-19962629D01*
X7200843Y-19981677D01*
X7191319Y-19991200D01*
X7172272Y-20000724D01*
X7153224Y-20000724D01*
X7134176Y-19991200D01*
X7124653Y-19981677D01*
X7115129Y-19962629D01*
X7105605Y-19924534D01*
X7105605Y-19876915D01*
X7115129Y-19838819D01*
X7124653Y-19819772D01*
X7134176Y-19810248D01*
X7153224Y-19800724D01*
X7305605Y-19981677D02*
X7315129Y-19991200D01*
X7305605Y-20000724D01*
X7296081Y-19991200D01*
X7305605Y-19981677D01*
X7305605Y-20000724D01*
X7438938Y-19800724D02*
X7457986Y-19800724D01*
X7477034Y-19810248D01*
X7486557Y-19819772D01*
X7496081Y-19838819D01*
X7505605Y-19876915D01*
X7505605Y-19924534D01*
X7496081Y-19962629D01*
X7486557Y-19981677D01*
X7477034Y-19991200D01*
X7457986Y-20000724D01*
X7438938Y-20000724D01*
X7419891Y-19991200D01*
X7410367Y-19981677D01*
X7400843Y-19962629D01*
X7391319Y-19924534D01*
X7391319Y-19876915D01*
X7400843Y-19838819D01*
X7410367Y-19819772D01*
X7419891Y-19810248D01*
X7438938Y-19800724D01*
X7677034Y-19867391D02*
X7677034Y-20000724D01*
X7629415Y-19791200D02*
X7581796Y-19934058D01*
X7705605Y-19934058D01*
X7762748Y-19800724D02*
X7896081Y-19800724D01*
X7810367Y-20000724D01*
X7962748Y-19819772D02*
X7972272Y-19810248D01*
X7991319Y-19800724D01*
X8038938Y-19800724D01*
X8057986Y-19810248D01*
X8067510Y-19819772D01*
X8077034Y-19838819D01*
X8077034Y-19857867D01*
X8067510Y-19886438D01*
X7953224Y-20000724D01*
X8077034Y-20000724D01*
X8153224Y-19800724D02*
X8153224Y-19838819D01*
X8229415Y-19800724D02*
X8229415Y-19838819D01*
X8524653Y-20076915D02*
X8515129Y-20067391D01*
X8496081Y-20038819D01*
X8486558Y-20019772D01*
X8477034Y-19991200D01*
X8467510Y-19943581D01*
X8467510Y-19905486D01*
X8477034Y-19857867D01*
X8486558Y-19829296D01*
X8496081Y-19810248D01*
X8515129Y-19781677D01*
X8524653Y-19772153D01*
X8591319Y-19819772D02*
X8600843Y-19810248D01*
X8619891Y-19800724D01*
X8667510Y-19800724D01*
X8686558Y-19810248D01*
X8696081Y-19819772D01*
X8705605Y-19838819D01*
X8705605Y-19857867D01*
X8696081Y-19886438D01*
X8581796Y-20000724D01*
X8705605Y-20000724D01*
X8943700Y-20000724D02*
X8943700Y-19800724D01*
X9029415Y-20000724D02*
X9029415Y-19895962D01*
X9019891Y-19876915D01*
X9000843Y-19867391D01*
X8972272Y-19867391D01*
X8953224Y-19876915D01*
X8943700Y-19886438D01*
X9153224Y-20000724D02*
X9134177Y-19991200D01*
X9124653Y-19981677D01*
X9115129Y-19962629D01*
X9115129Y-19905486D01*
X9124653Y-19886438D01*
X9134177Y-19876915D01*
X9153224Y-19867391D01*
X9181796Y-19867391D01*
X9200843Y-19876915D01*
X9210367Y-19886438D01*
X9219891Y-19905486D01*
X9219891Y-19962629D01*
X9210367Y-19981677D01*
X9200843Y-19991200D01*
X9181796Y-20000724D01*
X9153224Y-20000724D01*
X9334177Y-20000724D02*
X9315129Y-19991200D01*
X9305605Y-19972153D01*
X9305605Y-19800724D01*
X9486558Y-19991200D02*
X9467510Y-20000724D01*
X9429415Y-20000724D01*
X9410367Y-19991200D01*
X9400843Y-19972153D01*
X9400843Y-19895962D01*
X9410367Y-19876915D01*
X9429415Y-19867391D01*
X9467510Y-19867391D01*
X9486558Y-19876915D01*
X9496081Y-19895962D01*
X9496081Y-19915010D01*
X9400843Y-19934058D01*
X9572272Y-19991200D02*
X9591319Y-20000724D01*
X9629415Y-20000724D01*
X9648462Y-19991200D01*
X9657986Y-19972153D01*
X9657986Y-19962629D01*
X9648462Y-19943581D01*
X9629415Y-19934058D01*
X9600843Y-19934058D01*
X9581796Y-19924534D01*
X9572272Y-19905486D01*
X9572272Y-19895962D01*
X9581796Y-19876915D01*
X9600843Y-19867391D01*
X9629415Y-19867391D01*
X9648462Y-19876915D01*
X9724653Y-20076915D02*
X9734177Y-20067391D01*
X9753224Y-20038819D01*
X9762748Y-20019772D01*
X9772272Y-19991200D01*
X9781796Y-19943581D01*
X9781796Y-19905486D01*
X9772272Y-19857867D01*
X9762748Y-19829296D01*
X9753224Y-19810248D01*
X9734177Y-19781677D01*
X9724653Y-19772153D01*
D20*
X4877748Y-20099248D02*
X4877748Y-20249248D01*
X4802748Y-20174248D02*
X4952748Y-20174248D01*
X4952748Y-20174248D02*
G75*
G03*
X4952748Y-20174248I-75000J0D01*
G01*
D11*
X5315129Y-20264724D02*
X5200843Y-20264724D01*
X5257986Y-20264724D02*
X5257986Y-20064724D01*
X5238938Y-20093296D01*
X5219891Y-20112343D01*
X5200843Y-20121867D01*
X5400843Y-20245677D02*
X5410367Y-20255200D01*
X5400843Y-20264724D01*
X5391319Y-20255200D01*
X5400843Y-20245677D01*
X5400843Y-20264724D01*
X5591319Y-20064724D02*
X5496081Y-20064724D01*
X5486558Y-20159962D01*
X5496081Y-20150438D01*
X5515129Y-20140915D01*
X5562748Y-20140915D01*
X5581796Y-20150438D01*
X5591319Y-20159962D01*
X5600843Y-20179010D01*
X5600843Y-20226629D01*
X5591319Y-20245677D01*
X5581796Y-20255200D01*
X5562748Y-20264724D01*
X5515129Y-20264724D01*
X5496081Y-20255200D01*
X5486558Y-20245677D01*
X5724653Y-20064724D02*
X5743700Y-20064724D01*
X5762748Y-20074248D01*
X5772272Y-20083772D01*
X5781796Y-20102819D01*
X5791319Y-20140915D01*
X5791319Y-20188534D01*
X5781796Y-20226629D01*
X5772272Y-20245677D01*
X5762748Y-20255200D01*
X5743700Y-20264724D01*
X5724653Y-20264724D01*
X5705605Y-20255200D01*
X5696081Y-20245677D01*
X5686557Y-20226629D01*
X5677034Y-20188534D01*
X5677034Y-20140915D01*
X5686557Y-20102819D01*
X5696081Y-20083772D01*
X5705605Y-20074248D01*
X5724653Y-20064724D01*
X5915129Y-20064724D02*
X5934176Y-20064724D01*
X5953224Y-20074248D01*
X5962748Y-20083772D01*
X5972272Y-20102819D01*
X5981796Y-20140915D01*
X5981796Y-20188534D01*
X5972272Y-20226629D01*
X5962748Y-20245677D01*
X5953224Y-20255200D01*
X5934176Y-20264724D01*
X5915129Y-20264724D01*
X5896081Y-20255200D01*
X5886557Y-20245677D01*
X5877034Y-20226629D01*
X5867510Y-20188534D01*
X5867510Y-20140915D01*
X5877034Y-20102819D01*
X5886557Y-20083772D01*
X5896081Y-20074248D01*
X5915129Y-20064724D01*
X6067510Y-20264724D02*
X6067510Y-20131391D01*
X6067510Y-20150438D02*
X6077034Y-20140915D01*
X6096081Y-20131391D01*
X6124653Y-20131391D01*
X6143700Y-20140915D01*
X6153224Y-20159962D01*
X6153224Y-20264724D01*
X6153224Y-20159962D02*
X6162748Y-20140915D01*
X6181796Y-20131391D01*
X6210367Y-20131391D01*
X6229415Y-20140915D01*
X6238938Y-20159962D01*
X6238938Y-20264724D01*
X6334176Y-20264724D02*
X6334176Y-20131391D01*
X6334176Y-20150438D02*
X6343700Y-20140915D01*
X6362748Y-20131391D01*
X6391319Y-20131391D01*
X6410367Y-20140915D01*
X6419891Y-20159962D01*
X6419891Y-20264724D01*
X6419891Y-20159962D02*
X6429415Y-20140915D01*
X6448462Y-20131391D01*
X6477034Y-20131391D01*
X6496081Y-20140915D01*
X6505605Y-20159962D01*
X6505605Y-20264724D01*
X6896081Y-20055200D02*
X6724653Y-20312343D01*
X7153224Y-20064724D02*
X7172272Y-20064724D01*
X7191319Y-20074248D01*
X7200843Y-20083772D01*
X7210367Y-20102819D01*
X7219891Y-20140915D01*
X7219891Y-20188534D01*
X7210367Y-20226629D01*
X7200843Y-20245677D01*
X7191319Y-20255200D01*
X7172272Y-20264724D01*
X7153224Y-20264724D01*
X7134176Y-20255200D01*
X7124653Y-20245677D01*
X7115129Y-20226629D01*
X7105605Y-20188534D01*
X7105605Y-20140915D01*
X7115129Y-20102819D01*
X7124653Y-20083772D01*
X7134176Y-20074248D01*
X7153224Y-20064724D01*
X7305605Y-20245677D02*
X7315129Y-20255200D01*
X7305605Y-20264724D01*
X7296081Y-20255200D01*
X7305605Y-20245677D01*
X7305605Y-20264724D01*
X7438938Y-20064724D02*
X7457986Y-20064724D01*
X7477034Y-20074248D01*
X7486557Y-20083772D01*
X7496081Y-20102819D01*
X7505605Y-20140915D01*
X7505605Y-20188534D01*
X7496081Y-20226629D01*
X7486557Y-20245677D01*
X7477034Y-20255200D01*
X7457986Y-20264724D01*
X7438938Y-20264724D01*
X7419891Y-20255200D01*
X7410367Y-20245677D01*
X7400843Y-20226629D01*
X7391319Y-20188534D01*
X7391319Y-20140915D01*
X7400843Y-20102819D01*
X7410367Y-20083772D01*
X7419891Y-20074248D01*
X7438938Y-20064724D01*
X7686557Y-20064724D02*
X7591319Y-20064724D01*
X7581796Y-20159962D01*
X7591319Y-20150438D01*
X7610367Y-20140915D01*
X7657986Y-20140915D01*
X7677034Y-20150438D01*
X7686557Y-20159962D01*
X7696081Y-20179010D01*
X7696081Y-20226629D01*
X7686557Y-20245677D01*
X7677034Y-20255200D01*
X7657986Y-20264724D01*
X7610367Y-20264724D01*
X7591319Y-20255200D01*
X7581796Y-20245677D01*
X7791319Y-20264724D02*
X7829415Y-20264724D01*
X7848462Y-20255200D01*
X7857986Y-20245677D01*
X7877034Y-20217105D01*
X7886557Y-20179010D01*
X7886557Y-20102819D01*
X7877034Y-20083772D01*
X7867510Y-20074248D01*
X7848462Y-20064724D01*
X7810367Y-20064724D01*
X7791319Y-20074248D01*
X7781796Y-20083772D01*
X7772272Y-20102819D01*
X7772272Y-20150438D01*
X7781796Y-20169486D01*
X7791319Y-20179010D01*
X7810367Y-20188534D01*
X7848462Y-20188534D01*
X7867510Y-20179010D01*
X7877034Y-20169486D01*
X7886557Y-20150438D01*
X8077034Y-20264724D02*
X7962748Y-20264724D01*
X8019891Y-20264724D02*
X8019891Y-20064724D01*
X8000843Y-20093296D01*
X7981796Y-20112343D01*
X7962748Y-20121867D01*
X8153224Y-20064724D02*
X8153224Y-20102819D01*
X8229415Y-20064724D02*
X8229415Y-20102819D01*
X8524653Y-20340915D02*
X8515129Y-20331391D01*
X8496081Y-20302819D01*
X8486558Y-20283772D01*
X8477034Y-20255200D01*
X8467510Y-20207581D01*
X8467510Y-20169486D01*
X8477034Y-20121867D01*
X8486558Y-20093296D01*
X8496081Y-20074248D01*
X8515129Y-20045677D01*
X8524653Y-20036153D01*
X8686558Y-20131391D02*
X8686558Y-20264724D01*
X8638938Y-20055200D02*
X8591319Y-20198058D01*
X8715129Y-20198058D01*
X8943700Y-20264724D02*
X8943700Y-20064724D01*
X9029415Y-20264724D02*
X9029415Y-20159962D01*
X9019891Y-20140915D01*
X9000843Y-20131391D01*
X8972272Y-20131391D01*
X8953224Y-20140915D01*
X8943700Y-20150438D01*
X9153224Y-20264724D02*
X9134177Y-20255200D01*
X9124653Y-20245677D01*
X9115129Y-20226629D01*
X9115129Y-20169486D01*
X9124653Y-20150438D01*
X9134177Y-20140915D01*
X9153224Y-20131391D01*
X9181796Y-20131391D01*
X9200843Y-20140915D01*
X9210367Y-20150438D01*
X9219891Y-20169486D01*
X9219891Y-20226629D01*
X9210367Y-20245677D01*
X9200843Y-20255200D01*
X9181796Y-20264724D01*
X9153224Y-20264724D01*
X9334177Y-20264724D02*
X9315129Y-20255200D01*
X9305605Y-20236153D01*
X9305605Y-20064724D01*
X9486558Y-20255200D02*
X9467510Y-20264724D01*
X9429415Y-20264724D01*
X9410367Y-20255200D01*
X9400843Y-20236153D01*
X9400843Y-20159962D01*
X9410367Y-20140915D01*
X9429415Y-20131391D01*
X9467510Y-20131391D01*
X9486558Y-20140915D01*
X9496081Y-20159962D01*
X9496081Y-20179010D01*
X9400843Y-20198058D01*
X9572272Y-20255200D02*
X9591319Y-20264724D01*
X9629415Y-20264724D01*
X9648462Y-20255200D01*
X9657986Y-20236153D01*
X9657986Y-20226629D01*
X9648462Y-20207581D01*
X9629415Y-20198058D01*
X9600843Y-20198058D01*
X9581796Y-20188534D01*
X9572272Y-20169486D01*
X9572272Y-20159962D01*
X9581796Y-20140915D01*
X9600843Y-20131391D01*
X9629415Y-20131391D01*
X9648462Y-20140915D01*
X9724653Y-20340915D02*
X9734177Y-20331391D01*
X9753224Y-20302819D01*
X9762748Y-20283772D01*
X9772272Y-20255200D01*
X9781796Y-20207581D01*
X9781796Y-20169486D01*
X9772272Y-20121867D01*
X9762748Y-20093296D01*
X9753224Y-20074248D01*
X9734177Y-20045677D01*
X9724653Y-20036153D01*
D21*
X4926388Y-20507888D02*
X4926388Y-20380608D01*
X4799108Y-20380608D01*
X4799108Y-20507888D01*
X4926388Y-20507888D01*
X4952748Y-20444248D02*
G75*
G03*
X4952748Y-20444248I-90000J0D01*
G01*
D11*
X5315129Y-20534724D02*
X5200843Y-20534724D01*
X5257986Y-20534724D02*
X5257986Y-20334724D01*
X5238938Y-20363296D01*
X5219891Y-20382343D01*
X5200843Y-20391867D01*
X5400843Y-20515677D02*
X5410367Y-20525200D01*
X5400843Y-20534724D01*
X5391319Y-20525200D01*
X5400843Y-20515677D01*
X5400843Y-20534724D01*
X5524653Y-20420438D02*
X5505605Y-20410915D01*
X5496081Y-20401391D01*
X5486558Y-20382343D01*
X5486558Y-20372819D01*
X5496081Y-20353772D01*
X5505605Y-20344248D01*
X5524653Y-20334724D01*
X5562748Y-20334724D01*
X5581796Y-20344248D01*
X5591319Y-20353772D01*
X5600843Y-20372819D01*
X5600843Y-20382343D01*
X5591319Y-20401391D01*
X5581796Y-20410915D01*
X5562748Y-20420438D01*
X5524653Y-20420438D01*
X5505605Y-20429962D01*
X5496081Y-20439486D01*
X5486558Y-20458534D01*
X5486558Y-20496629D01*
X5496081Y-20515677D01*
X5505605Y-20525200D01*
X5524653Y-20534724D01*
X5562748Y-20534724D01*
X5581796Y-20525200D01*
X5591319Y-20515677D01*
X5600843Y-20496629D01*
X5600843Y-20458534D01*
X5591319Y-20439486D01*
X5581796Y-20429962D01*
X5562748Y-20420438D01*
X5724653Y-20334724D02*
X5743700Y-20334724D01*
X5762748Y-20344248D01*
X5772272Y-20353772D01*
X5781796Y-20372819D01*
X5791319Y-20410915D01*
X5791319Y-20458534D01*
X5781796Y-20496629D01*
X5772272Y-20515677D01*
X5762748Y-20525200D01*
X5743700Y-20534724D01*
X5724653Y-20534724D01*
X5705605Y-20525200D01*
X5696081Y-20515677D01*
X5686557Y-20496629D01*
X5677034Y-20458534D01*
X5677034Y-20410915D01*
X5686557Y-20372819D01*
X5696081Y-20353772D01*
X5705605Y-20344248D01*
X5724653Y-20334724D01*
X5915129Y-20334724D02*
X5934176Y-20334724D01*
X5953224Y-20344248D01*
X5962748Y-20353772D01*
X5972272Y-20372819D01*
X5981796Y-20410915D01*
X5981796Y-20458534D01*
X5972272Y-20496629D01*
X5962748Y-20515677D01*
X5953224Y-20525200D01*
X5934176Y-20534724D01*
X5915129Y-20534724D01*
X5896081Y-20525200D01*
X5886557Y-20515677D01*
X5877034Y-20496629D01*
X5867510Y-20458534D01*
X5867510Y-20410915D01*
X5877034Y-20372819D01*
X5886557Y-20353772D01*
X5896081Y-20344248D01*
X5915129Y-20334724D01*
X6067510Y-20534724D02*
X6067510Y-20401391D01*
X6067510Y-20420438D02*
X6077034Y-20410915D01*
X6096081Y-20401391D01*
X6124653Y-20401391D01*
X6143700Y-20410915D01*
X6153224Y-20429962D01*
X6153224Y-20534724D01*
X6153224Y-20429962D02*
X6162748Y-20410915D01*
X6181796Y-20401391D01*
X6210367Y-20401391D01*
X6229415Y-20410915D01*
X6238938Y-20429962D01*
X6238938Y-20534724D01*
X6334176Y-20534724D02*
X6334176Y-20401391D01*
X6334176Y-20420438D02*
X6343700Y-20410915D01*
X6362748Y-20401391D01*
X6391319Y-20401391D01*
X6410367Y-20410915D01*
X6419891Y-20429962D01*
X6419891Y-20534724D01*
X6419891Y-20429962D02*
X6429415Y-20410915D01*
X6448462Y-20401391D01*
X6477034Y-20401391D01*
X6496081Y-20410915D01*
X6505605Y-20429962D01*
X6505605Y-20534724D01*
X6896081Y-20325200D02*
X6724653Y-20582343D01*
X7153224Y-20334724D02*
X7172272Y-20334724D01*
X7191319Y-20344248D01*
X7200843Y-20353772D01*
X7210367Y-20372819D01*
X7219891Y-20410915D01*
X7219891Y-20458534D01*
X7210367Y-20496629D01*
X7200843Y-20515677D01*
X7191319Y-20525200D01*
X7172272Y-20534724D01*
X7153224Y-20534724D01*
X7134176Y-20525200D01*
X7124653Y-20515677D01*
X7115129Y-20496629D01*
X7105605Y-20458534D01*
X7105605Y-20410915D01*
X7115129Y-20372819D01*
X7124653Y-20353772D01*
X7134176Y-20344248D01*
X7153224Y-20334724D01*
X7305605Y-20515677D02*
X7315129Y-20525200D01*
X7305605Y-20534724D01*
X7296081Y-20525200D01*
X7305605Y-20515677D01*
X7305605Y-20534724D01*
X7438938Y-20334724D02*
X7457986Y-20334724D01*
X7477034Y-20344248D01*
X7486557Y-20353772D01*
X7496081Y-20372819D01*
X7505605Y-20410915D01*
X7505605Y-20458534D01*
X7496081Y-20496629D01*
X7486557Y-20515677D01*
X7477034Y-20525200D01*
X7457986Y-20534724D01*
X7438938Y-20534724D01*
X7419891Y-20525200D01*
X7410367Y-20515677D01*
X7400843Y-20496629D01*
X7391319Y-20458534D01*
X7391319Y-20410915D01*
X7400843Y-20372819D01*
X7410367Y-20353772D01*
X7419891Y-20344248D01*
X7438938Y-20334724D01*
X7572272Y-20334724D02*
X7705605Y-20334724D01*
X7619891Y-20534724D01*
X7819891Y-20334724D02*
X7838938Y-20334724D01*
X7857986Y-20344248D01*
X7867510Y-20353772D01*
X7877034Y-20372819D01*
X7886557Y-20410915D01*
X7886557Y-20458534D01*
X7877034Y-20496629D01*
X7867510Y-20515677D01*
X7857986Y-20525200D01*
X7838938Y-20534724D01*
X7819891Y-20534724D01*
X7800843Y-20525200D01*
X7791319Y-20515677D01*
X7781796Y-20496629D01*
X7772272Y-20458534D01*
X7772272Y-20410915D01*
X7781796Y-20372819D01*
X7791319Y-20353772D01*
X7800843Y-20344248D01*
X7819891Y-20334724D01*
X7981796Y-20534724D02*
X8019891Y-20534724D01*
X8038938Y-20525200D01*
X8048462Y-20515677D01*
X8067510Y-20487105D01*
X8077034Y-20449010D01*
X8077034Y-20372819D01*
X8067510Y-20353772D01*
X8057986Y-20344248D01*
X8038938Y-20334724D01*
X8000843Y-20334724D01*
X7981796Y-20344248D01*
X7972272Y-20353772D01*
X7962748Y-20372819D01*
X7962748Y-20420438D01*
X7972272Y-20439486D01*
X7981796Y-20449010D01*
X8000843Y-20458534D01*
X8038938Y-20458534D01*
X8057986Y-20449010D01*
X8067510Y-20439486D01*
X8077034Y-20420438D01*
X8153224Y-20334724D02*
X8153224Y-20372819D01*
X8229415Y-20334724D02*
X8229415Y-20372819D01*
X8524653Y-20610915D02*
X8515129Y-20601391D01*
X8496081Y-20572819D01*
X8486558Y-20553772D01*
X8477034Y-20525200D01*
X8467510Y-20477581D01*
X8467510Y-20439486D01*
X8477034Y-20391867D01*
X8486558Y-20363296D01*
X8496081Y-20344248D01*
X8515129Y-20315677D01*
X8524653Y-20306153D01*
X8581796Y-20334724D02*
X8705605Y-20334724D01*
X8638938Y-20410915D01*
X8667510Y-20410915D01*
X8686558Y-20420438D01*
X8696081Y-20429962D01*
X8705605Y-20449010D01*
X8705605Y-20496629D01*
X8696081Y-20515677D01*
X8686558Y-20525200D01*
X8667510Y-20534724D01*
X8610367Y-20534724D01*
X8591319Y-20525200D01*
X8581796Y-20515677D01*
X8943700Y-20534724D02*
X8943700Y-20334724D01*
X9029415Y-20534724D02*
X9029415Y-20429962D01*
X9019891Y-20410915D01*
X9000843Y-20401391D01*
X8972272Y-20401391D01*
X8953224Y-20410915D01*
X8943700Y-20420438D01*
X9153224Y-20534724D02*
X9134177Y-20525200D01*
X9124653Y-20515677D01*
X9115129Y-20496629D01*
X9115129Y-20439486D01*
X9124653Y-20420438D01*
X9134177Y-20410915D01*
X9153224Y-20401391D01*
X9181796Y-20401391D01*
X9200843Y-20410915D01*
X9210367Y-20420438D01*
X9219891Y-20439486D01*
X9219891Y-20496629D01*
X9210367Y-20515677D01*
X9200843Y-20525200D01*
X9181796Y-20534724D01*
X9153224Y-20534724D01*
X9334177Y-20534724D02*
X9315129Y-20525200D01*
X9305605Y-20506153D01*
X9305605Y-20334724D01*
X9486558Y-20525200D02*
X9467510Y-20534724D01*
X9429415Y-20534724D01*
X9410367Y-20525200D01*
X9400843Y-20506153D01*
X9400843Y-20429962D01*
X9410367Y-20410915D01*
X9429415Y-20401391D01*
X9467510Y-20401391D01*
X9486558Y-20410915D01*
X9496081Y-20429962D01*
X9496081Y-20449010D01*
X9400843Y-20468058D01*
X9572272Y-20525200D02*
X9591319Y-20534724D01*
X9629415Y-20534724D01*
X9648462Y-20525200D01*
X9657986Y-20506153D01*
X9657986Y-20496629D01*
X9648462Y-20477581D01*
X9629415Y-20468058D01*
X9600843Y-20468058D01*
X9581796Y-20458534D01*
X9572272Y-20439486D01*
X9572272Y-20429962D01*
X9581796Y-20410915D01*
X9600843Y-20401391D01*
X9629415Y-20401391D01*
X9648462Y-20410915D01*
X9724653Y-20610915D02*
X9734177Y-20601391D01*
X9753224Y-20572819D01*
X9762748Y-20553772D01*
X9772272Y-20525200D01*
X9781796Y-20477581D01*
X9781796Y-20439486D01*
X9772272Y-20391867D01*
X9762748Y-20363296D01*
X9753224Y-20344248D01*
X9734177Y-20315677D01*
X9724653Y-20306153D01*
X4852748Y-20844248D02*
X4952748Y-20744248D01*
X4852748Y-20644248D01*
X4752748Y-20744248D01*
X4852748Y-20844248D01*
X4952748Y-20744248D02*
G75*
G03*
X4952748Y-20744248I-100000J0D01*
G01*
X5200843Y-20653772D02*
X5210367Y-20644248D01*
X5229415Y-20634724D01*
X5277034Y-20634724D01*
X5296081Y-20644248D01*
X5305605Y-20653772D01*
X5315129Y-20672819D01*
X5315129Y-20691867D01*
X5305605Y-20720438D01*
X5191319Y-20834724D01*
X5315129Y-20834724D01*
X5400843Y-20815677D02*
X5410367Y-20825200D01*
X5400843Y-20834724D01*
X5391319Y-20825200D01*
X5400843Y-20815677D01*
X5400843Y-20834724D01*
X5486558Y-20653772D02*
X5496081Y-20644248D01*
X5515129Y-20634724D01*
X5562748Y-20634724D01*
X5581796Y-20644248D01*
X5591319Y-20653772D01*
X5600843Y-20672819D01*
X5600843Y-20691867D01*
X5591319Y-20720438D01*
X5477034Y-20834724D01*
X5600843Y-20834724D01*
X5724653Y-20634724D02*
X5743700Y-20634724D01*
X5762748Y-20644248D01*
X5772272Y-20653772D01*
X5781796Y-20672819D01*
X5791319Y-20710915D01*
X5791319Y-20758534D01*
X5781796Y-20796629D01*
X5772272Y-20815677D01*
X5762748Y-20825200D01*
X5743700Y-20834724D01*
X5724653Y-20834724D01*
X5705605Y-20825200D01*
X5696081Y-20815677D01*
X5686557Y-20796629D01*
X5677034Y-20758534D01*
X5677034Y-20710915D01*
X5686557Y-20672819D01*
X5696081Y-20653772D01*
X5705605Y-20644248D01*
X5724653Y-20634724D01*
X5915129Y-20634724D02*
X5934176Y-20634724D01*
X5953224Y-20644248D01*
X5962748Y-20653772D01*
X5972272Y-20672819D01*
X5981796Y-20710915D01*
X5981796Y-20758534D01*
X5972272Y-20796629D01*
X5962748Y-20815677D01*
X5953224Y-20825200D01*
X5934176Y-20834724D01*
X5915129Y-20834724D01*
X5896081Y-20825200D01*
X5886557Y-20815677D01*
X5877034Y-20796629D01*
X5867510Y-20758534D01*
X5867510Y-20710915D01*
X5877034Y-20672819D01*
X5886557Y-20653772D01*
X5896081Y-20644248D01*
X5915129Y-20634724D01*
X6067510Y-20834724D02*
X6067510Y-20701391D01*
X6067510Y-20720438D02*
X6077034Y-20710915D01*
X6096081Y-20701391D01*
X6124653Y-20701391D01*
X6143700Y-20710915D01*
X6153224Y-20729962D01*
X6153224Y-20834724D01*
X6153224Y-20729962D02*
X6162748Y-20710915D01*
X6181796Y-20701391D01*
X6210367Y-20701391D01*
X6229415Y-20710915D01*
X6238938Y-20729962D01*
X6238938Y-20834724D01*
X6334176Y-20834724D02*
X6334176Y-20701391D01*
X6334176Y-20720438D02*
X6343700Y-20710915D01*
X6362748Y-20701391D01*
X6391319Y-20701391D01*
X6410367Y-20710915D01*
X6419891Y-20729962D01*
X6419891Y-20834724D01*
X6419891Y-20729962D02*
X6429415Y-20710915D01*
X6448462Y-20701391D01*
X6477034Y-20701391D01*
X6496081Y-20710915D01*
X6505605Y-20729962D01*
X6505605Y-20834724D01*
X6896081Y-20625200D02*
X6724653Y-20882343D01*
X7153224Y-20634724D02*
X7172272Y-20634724D01*
X7191319Y-20644248D01*
X7200843Y-20653772D01*
X7210367Y-20672819D01*
X7219891Y-20710915D01*
X7219891Y-20758534D01*
X7210367Y-20796629D01*
X7200843Y-20815677D01*
X7191319Y-20825200D01*
X7172272Y-20834724D01*
X7153224Y-20834724D01*
X7134176Y-20825200D01*
X7124653Y-20815677D01*
X7115129Y-20796629D01*
X7105605Y-20758534D01*
X7105605Y-20710915D01*
X7115129Y-20672819D01*
X7124653Y-20653772D01*
X7134176Y-20644248D01*
X7153224Y-20634724D01*
X7305605Y-20815677D02*
X7315129Y-20825200D01*
X7305605Y-20834724D01*
X7296081Y-20825200D01*
X7305605Y-20815677D01*
X7305605Y-20834724D01*
X7438938Y-20634724D02*
X7457986Y-20634724D01*
X7477034Y-20644248D01*
X7486557Y-20653772D01*
X7496081Y-20672819D01*
X7505605Y-20710915D01*
X7505605Y-20758534D01*
X7496081Y-20796629D01*
X7486557Y-20815677D01*
X7477034Y-20825200D01*
X7457986Y-20834724D01*
X7438938Y-20834724D01*
X7419891Y-20825200D01*
X7410367Y-20815677D01*
X7400843Y-20796629D01*
X7391319Y-20758534D01*
X7391319Y-20710915D01*
X7400843Y-20672819D01*
X7410367Y-20653772D01*
X7419891Y-20644248D01*
X7438938Y-20634724D01*
X7619891Y-20720438D02*
X7600843Y-20710915D01*
X7591319Y-20701391D01*
X7581796Y-20682343D01*
X7581796Y-20672819D01*
X7591319Y-20653772D01*
X7600843Y-20644248D01*
X7619891Y-20634724D01*
X7657986Y-20634724D01*
X7677034Y-20644248D01*
X7686557Y-20653772D01*
X7696081Y-20672819D01*
X7696081Y-20682343D01*
X7686557Y-20701391D01*
X7677034Y-20710915D01*
X7657986Y-20720438D01*
X7619891Y-20720438D01*
X7600843Y-20729962D01*
X7591319Y-20739486D01*
X7581796Y-20758534D01*
X7581796Y-20796629D01*
X7591319Y-20815677D01*
X7600843Y-20825200D01*
X7619891Y-20834724D01*
X7657986Y-20834724D01*
X7677034Y-20825200D01*
X7686557Y-20815677D01*
X7696081Y-20796629D01*
X7696081Y-20758534D01*
X7686557Y-20739486D01*
X7677034Y-20729962D01*
X7657986Y-20720438D01*
X7867510Y-20634724D02*
X7829415Y-20634724D01*
X7810367Y-20644248D01*
X7800843Y-20653772D01*
X7781796Y-20682343D01*
X7772272Y-20720438D01*
X7772272Y-20796629D01*
X7781796Y-20815677D01*
X7791319Y-20825200D01*
X7810367Y-20834724D01*
X7848462Y-20834724D01*
X7867510Y-20825200D01*
X7877034Y-20815677D01*
X7886557Y-20796629D01*
X7886557Y-20749010D01*
X7877034Y-20729962D01*
X7867510Y-20720438D01*
X7848462Y-20710915D01*
X7810367Y-20710915D01*
X7791319Y-20720438D01*
X7781796Y-20729962D01*
X7772272Y-20749010D01*
X8057986Y-20634724D02*
X8019891Y-20634724D01*
X8000843Y-20644248D01*
X7991319Y-20653772D01*
X7972272Y-20682343D01*
X7962748Y-20720438D01*
X7962748Y-20796629D01*
X7972272Y-20815677D01*
X7981796Y-20825200D01*
X8000843Y-20834724D01*
X8038938Y-20834724D01*
X8057986Y-20825200D01*
X8067510Y-20815677D01*
X8077034Y-20796629D01*
X8077034Y-20749010D01*
X8067510Y-20729962D01*
X8057986Y-20720438D01*
X8038938Y-20710915D01*
X8000843Y-20710915D01*
X7981796Y-20720438D01*
X7972272Y-20729962D01*
X7962748Y-20749010D01*
X8153224Y-20634724D02*
X8153224Y-20672819D01*
X8229415Y-20634724D02*
X8229415Y-20672819D01*
X8524653Y-20910915D02*
X8515129Y-20901391D01*
X8496081Y-20872819D01*
X8486558Y-20853772D01*
X8477034Y-20825200D01*
X8467510Y-20777581D01*
X8467510Y-20739486D01*
X8477034Y-20691867D01*
X8486558Y-20663296D01*
X8496081Y-20644248D01*
X8515129Y-20615677D01*
X8524653Y-20606153D01*
X8591319Y-20653772D02*
X8600843Y-20644248D01*
X8619891Y-20634724D01*
X8667510Y-20634724D01*
X8686558Y-20644248D01*
X8696081Y-20653772D01*
X8705605Y-20672819D01*
X8705605Y-20691867D01*
X8696081Y-20720438D01*
X8581796Y-20834724D01*
X8705605Y-20834724D01*
X8943700Y-20834724D02*
X8943700Y-20634724D01*
X9029415Y-20834724D02*
X9029415Y-20729962D01*
X9019891Y-20710915D01*
X9000843Y-20701391D01*
X8972272Y-20701391D01*
X8953224Y-20710915D01*
X8943700Y-20720438D01*
X9153224Y-20834724D02*
X9134177Y-20825200D01*
X9124653Y-20815677D01*
X9115129Y-20796629D01*
X9115129Y-20739486D01*
X9124653Y-20720438D01*
X9134177Y-20710915D01*
X9153224Y-20701391D01*
X9181796Y-20701391D01*
X9200843Y-20710915D01*
X9210367Y-20720438D01*
X9219891Y-20739486D01*
X9219891Y-20796629D01*
X9210367Y-20815677D01*
X9200843Y-20825200D01*
X9181796Y-20834724D01*
X9153224Y-20834724D01*
X9334177Y-20834724D02*
X9315129Y-20825200D01*
X9305605Y-20806153D01*
X9305605Y-20634724D01*
X9486558Y-20825200D02*
X9467510Y-20834724D01*
X9429415Y-20834724D01*
X9410367Y-20825200D01*
X9400843Y-20806153D01*
X9400843Y-20729962D01*
X9410367Y-20710915D01*
X9429415Y-20701391D01*
X9467510Y-20701391D01*
X9486558Y-20710915D01*
X9496081Y-20729962D01*
X9496081Y-20749010D01*
X9400843Y-20768058D01*
X9572272Y-20825200D02*
X9591319Y-20834724D01*
X9629415Y-20834724D01*
X9648462Y-20825200D01*
X9657986Y-20806153D01*
X9657986Y-20796629D01*
X9648462Y-20777581D01*
X9629415Y-20768058D01*
X9600843Y-20768058D01*
X9581796Y-20758534D01*
X9572272Y-20739486D01*
X9572272Y-20729962D01*
X9581796Y-20710915D01*
X9600843Y-20701391D01*
X9629415Y-20701391D01*
X9648462Y-20710915D01*
X9724653Y-20910915D02*
X9734177Y-20901391D01*
X9753224Y-20872819D01*
X9762748Y-20853772D01*
X9772272Y-20825200D01*
X9781796Y-20777581D01*
X9781796Y-20739486D01*
X9772272Y-20691867D01*
X9762748Y-20663296D01*
X9753224Y-20644248D01*
X9734177Y-20615677D01*
X9724653Y-20606153D01*
X4852748Y-20964248D02*
X4852748Y-21164248D01*
X4752748Y-21064248D02*
X4952748Y-21064248D01*
X4923459Y-21134959D02*
X4923459Y-20993537D01*
X4782037Y-20993537D01*
X4782037Y-21134959D01*
X4923459Y-21134959D01*
X5200843Y-20973772D02*
X5210367Y-20964248D01*
X5229415Y-20954724D01*
X5277034Y-20954724D01*
X5296081Y-20964248D01*
X5305605Y-20973772D01*
X5315129Y-20992819D01*
X5315129Y-21011867D01*
X5305605Y-21040438D01*
X5191319Y-21154724D01*
X5315129Y-21154724D01*
X5400843Y-21135677D02*
X5410367Y-21145200D01*
X5400843Y-21154724D01*
X5391319Y-21145200D01*
X5400843Y-21135677D01*
X5400843Y-21154724D01*
X5477034Y-20954724D02*
X5600843Y-20954724D01*
X5534177Y-21030915D01*
X5562748Y-21030915D01*
X5581796Y-21040438D01*
X5591319Y-21049962D01*
X5600843Y-21069010D01*
X5600843Y-21116629D01*
X5591319Y-21135677D01*
X5581796Y-21145200D01*
X5562748Y-21154724D01*
X5505605Y-21154724D01*
X5486558Y-21145200D01*
X5477034Y-21135677D01*
X5724653Y-20954724D02*
X5743700Y-20954724D01*
X5762748Y-20964248D01*
X5772272Y-20973772D01*
X5781796Y-20992819D01*
X5791319Y-21030915D01*
X5791319Y-21078534D01*
X5781796Y-21116629D01*
X5772272Y-21135677D01*
X5762748Y-21145200D01*
X5743700Y-21154724D01*
X5724653Y-21154724D01*
X5705605Y-21145200D01*
X5696081Y-21135677D01*
X5686557Y-21116629D01*
X5677034Y-21078534D01*
X5677034Y-21030915D01*
X5686557Y-20992819D01*
X5696081Y-20973772D01*
X5705605Y-20964248D01*
X5724653Y-20954724D01*
X5915129Y-20954724D02*
X5934176Y-20954724D01*
X5953224Y-20964248D01*
X5962748Y-20973772D01*
X5972272Y-20992819D01*
X5981796Y-21030915D01*
X5981796Y-21078534D01*
X5972272Y-21116629D01*
X5962748Y-21135677D01*
X5953224Y-21145200D01*
X5934176Y-21154724D01*
X5915129Y-21154724D01*
X5896081Y-21145200D01*
X5886557Y-21135677D01*
X5877034Y-21116629D01*
X5867510Y-21078534D01*
X5867510Y-21030915D01*
X5877034Y-20992819D01*
X5886557Y-20973772D01*
X5896081Y-20964248D01*
X5915129Y-20954724D01*
X6067510Y-21154724D02*
X6067510Y-21021391D01*
X6067510Y-21040438D02*
X6077034Y-21030915D01*
X6096081Y-21021391D01*
X6124653Y-21021391D01*
X6143700Y-21030915D01*
X6153224Y-21049962D01*
X6153224Y-21154724D01*
X6153224Y-21049962D02*
X6162748Y-21030915D01*
X6181796Y-21021391D01*
X6210367Y-21021391D01*
X6229415Y-21030915D01*
X6238938Y-21049962D01*
X6238938Y-21154724D01*
X6334176Y-21154724D02*
X6334176Y-21021391D01*
X6334176Y-21040438D02*
X6343700Y-21030915D01*
X6362748Y-21021391D01*
X6391319Y-21021391D01*
X6410367Y-21030915D01*
X6419891Y-21049962D01*
X6419891Y-21154724D01*
X6419891Y-21049962D02*
X6429415Y-21030915D01*
X6448462Y-21021391D01*
X6477034Y-21021391D01*
X6496081Y-21030915D01*
X6505605Y-21049962D01*
X6505605Y-21154724D01*
X6896081Y-20945200D02*
X6724653Y-21202343D01*
X7153224Y-20954724D02*
X7172272Y-20954724D01*
X7191319Y-20964248D01*
X7200843Y-20973772D01*
X7210367Y-20992819D01*
X7219891Y-21030915D01*
X7219891Y-21078534D01*
X7210367Y-21116629D01*
X7200843Y-21135677D01*
X7191319Y-21145200D01*
X7172272Y-21154724D01*
X7153224Y-21154724D01*
X7134176Y-21145200D01*
X7124653Y-21135677D01*
X7115129Y-21116629D01*
X7105605Y-21078534D01*
X7105605Y-21030915D01*
X7115129Y-20992819D01*
X7124653Y-20973772D01*
X7134176Y-20964248D01*
X7153224Y-20954724D01*
X7305605Y-21135677D02*
X7315129Y-21145200D01*
X7305605Y-21154724D01*
X7296081Y-21145200D01*
X7305605Y-21135677D01*
X7305605Y-21154724D01*
X7438938Y-20954724D02*
X7457986Y-20954724D01*
X7477034Y-20964248D01*
X7486557Y-20973772D01*
X7496081Y-20992819D01*
X7505605Y-21030915D01*
X7505605Y-21078534D01*
X7496081Y-21116629D01*
X7486557Y-21135677D01*
X7477034Y-21145200D01*
X7457986Y-21154724D01*
X7438938Y-21154724D01*
X7419891Y-21145200D01*
X7410367Y-21135677D01*
X7400843Y-21116629D01*
X7391319Y-21078534D01*
X7391319Y-21030915D01*
X7400843Y-20992819D01*
X7410367Y-20973772D01*
X7419891Y-20964248D01*
X7438938Y-20954724D01*
X7600843Y-21154724D02*
X7638938Y-21154724D01*
X7657986Y-21145200D01*
X7667510Y-21135677D01*
X7686557Y-21107105D01*
X7696081Y-21069010D01*
X7696081Y-20992819D01*
X7686557Y-20973772D01*
X7677034Y-20964248D01*
X7657986Y-20954724D01*
X7619891Y-20954724D01*
X7600843Y-20964248D01*
X7591319Y-20973772D01*
X7581796Y-20992819D01*
X7581796Y-21040438D01*
X7591319Y-21059486D01*
X7600843Y-21069010D01*
X7619891Y-21078534D01*
X7657986Y-21078534D01*
X7677034Y-21069010D01*
X7686557Y-21059486D01*
X7696081Y-21040438D01*
X7819891Y-20954724D02*
X7838938Y-20954724D01*
X7857986Y-20964248D01*
X7867510Y-20973772D01*
X7877034Y-20992819D01*
X7886557Y-21030915D01*
X7886557Y-21078534D01*
X7877034Y-21116629D01*
X7867510Y-21135677D01*
X7857986Y-21145200D01*
X7838938Y-21154724D01*
X7819891Y-21154724D01*
X7800843Y-21145200D01*
X7791319Y-21135677D01*
X7781796Y-21116629D01*
X7772272Y-21078534D01*
X7772272Y-21030915D01*
X7781796Y-20992819D01*
X7791319Y-20973772D01*
X7800843Y-20964248D01*
X7819891Y-20954724D01*
X8057986Y-20954724D02*
X8019891Y-20954724D01*
X8000843Y-20964248D01*
X7991319Y-20973772D01*
X7972272Y-21002343D01*
X7962748Y-21040438D01*
X7962748Y-21116629D01*
X7972272Y-21135677D01*
X7981796Y-21145200D01*
X8000843Y-21154724D01*
X8038938Y-21154724D01*
X8057986Y-21145200D01*
X8067510Y-21135677D01*
X8077034Y-21116629D01*
X8077034Y-21069010D01*
X8067510Y-21049962D01*
X8057986Y-21040438D01*
X8038938Y-21030915D01*
X8000843Y-21030915D01*
X7981796Y-21040438D01*
X7972272Y-21049962D01*
X7962748Y-21069010D01*
X8153224Y-20954724D02*
X8153224Y-20992819D01*
X8229415Y-20954724D02*
X8229415Y-20992819D01*
X8524653Y-21230915D02*
X8515129Y-21221391D01*
X8496081Y-21192819D01*
X8486558Y-21173772D01*
X8477034Y-21145200D01*
X8467510Y-21097581D01*
X8467510Y-21059486D01*
X8477034Y-21011867D01*
X8486558Y-20983296D01*
X8496081Y-20964248D01*
X8515129Y-20935677D01*
X8524653Y-20926153D01*
X8629415Y-21040438D02*
X8610367Y-21030915D01*
X8600843Y-21021391D01*
X8591319Y-21002343D01*
X8591319Y-20992819D01*
X8600843Y-20973772D01*
X8610367Y-20964248D01*
X8629415Y-20954724D01*
X8667510Y-20954724D01*
X8686558Y-20964248D01*
X8696081Y-20973772D01*
X8705605Y-20992819D01*
X8705605Y-21002343D01*
X8696081Y-21021391D01*
X8686558Y-21030915D01*
X8667510Y-21040438D01*
X8629415Y-21040438D01*
X8610367Y-21049962D01*
X8600843Y-21059486D01*
X8591319Y-21078534D01*
X8591319Y-21116629D01*
X8600843Y-21135677D01*
X8610367Y-21145200D01*
X8629415Y-21154724D01*
X8667510Y-21154724D01*
X8686558Y-21145200D01*
X8696081Y-21135677D01*
X8705605Y-21116629D01*
X8705605Y-21078534D01*
X8696081Y-21059486D01*
X8686558Y-21049962D01*
X8667510Y-21040438D01*
X8943700Y-21154724D02*
X8943700Y-20954724D01*
X9029415Y-21154724D02*
X9029415Y-21049962D01*
X9019891Y-21030915D01*
X9000843Y-21021391D01*
X8972272Y-21021391D01*
X8953224Y-21030915D01*
X8943700Y-21040438D01*
X9153224Y-21154724D02*
X9134177Y-21145200D01*
X9124653Y-21135677D01*
X9115129Y-21116629D01*
X9115129Y-21059486D01*
X9124653Y-21040438D01*
X9134177Y-21030915D01*
X9153224Y-21021391D01*
X9181796Y-21021391D01*
X9200843Y-21030915D01*
X9210367Y-21040438D01*
X9219891Y-21059486D01*
X9219891Y-21116629D01*
X9210367Y-21135677D01*
X9200843Y-21145200D01*
X9181796Y-21154724D01*
X9153224Y-21154724D01*
X9334177Y-21154724D02*
X9315129Y-21145200D01*
X9305605Y-21126153D01*
X9305605Y-20954724D01*
X9486558Y-21145200D02*
X9467510Y-21154724D01*
X9429415Y-21154724D01*
X9410367Y-21145200D01*
X9400843Y-21126153D01*
X9400843Y-21049962D01*
X9410367Y-21030915D01*
X9429415Y-21021391D01*
X9467510Y-21021391D01*
X9486558Y-21030915D01*
X9496081Y-21049962D01*
X9496081Y-21069010D01*
X9400843Y-21088058D01*
X9572272Y-21145200D02*
X9591319Y-21154724D01*
X9629415Y-21154724D01*
X9648462Y-21145200D01*
X9657986Y-21126153D01*
X9657986Y-21116629D01*
X9648462Y-21097581D01*
X9629415Y-21088058D01*
X9600843Y-21088058D01*
X9581796Y-21078534D01*
X9572272Y-21059486D01*
X9572272Y-21049962D01*
X9581796Y-21030915D01*
X9600843Y-21021391D01*
X9629415Y-21021391D01*
X9648462Y-21030915D01*
X9724653Y-21230915D02*
X9734177Y-21221391D01*
X9753224Y-21192819D01*
X9762748Y-21173772D01*
X9772272Y-21145200D01*
X9781796Y-21097581D01*
X9781796Y-21059486D01*
X9772272Y-21011867D01*
X9762748Y-20983296D01*
X9753224Y-20964248D01*
X9734177Y-20935677D01*
X9724653Y-20926153D01*
X4852748Y-21284248D02*
X4852748Y-21484248D01*
X4752748Y-21384248D02*
X4952748Y-21384248D01*
X4852748Y-21484248D02*
X4952748Y-21384248D01*
X4852748Y-21284248D01*
X4752748Y-21384248D01*
X4852748Y-21484248D01*
X5191319Y-21274724D02*
X5315129Y-21274724D01*
X5248462Y-21350915D01*
X5277034Y-21350915D01*
X5296081Y-21360438D01*
X5305605Y-21369962D01*
X5315129Y-21389010D01*
X5315129Y-21436629D01*
X5305605Y-21455677D01*
X5296081Y-21465200D01*
X5277034Y-21474724D01*
X5219891Y-21474724D01*
X5200843Y-21465200D01*
X5191319Y-21455677D01*
X5400843Y-21455677D02*
X5410367Y-21465200D01*
X5400843Y-21474724D01*
X5391319Y-21465200D01*
X5400843Y-21455677D01*
X5400843Y-21474724D01*
X5591319Y-21274724D02*
X5496081Y-21274724D01*
X5486558Y-21369962D01*
X5496081Y-21360438D01*
X5515129Y-21350915D01*
X5562748Y-21350915D01*
X5581796Y-21360438D01*
X5591319Y-21369962D01*
X5600843Y-21389010D01*
X5600843Y-21436629D01*
X5591319Y-21455677D01*
X5581796Y-21465200D01*
X5562748Y-21474724D01*
X5515129Y-21474724D01*
X5496081Y-21465200D01*
X5486558Y-21455677D01*
X5724653Y-21274724D02*
X5743700Y-21274724D01*
X5762748Y-21284248D01*
X5772272Y-21293772D01*
X5781796Y-21312819D01*
X5791319Y-21350915D01*
X5791319Y-21398534D01*
X5781796Y-21436629D01*
X5772272Y-21455677D01*
X5762748Y-21465200D01*
X5743700Y-21474724D01*
X5724653Y-21474724D01*
X5705605Y-21465200D01*
X5696081Y-21455677D01*
X5686557Y-21436629D01*
X5677034Y-21398534D01*
X5677034Y-21350915D01*
X5686557Y-21312819D01*
X5696081Y-21293772D01*
X5705605Y-21284248D01*
X5724653Y-21274724D01*
X5915129Y-21274724D02*
X5934176Y-21274724D01*
X5953224Y-21284248D01*
X5962748Y-21293772D01*
X5972272Y-21312819D01*
X5981796Y-21350915D01*
X5981796Y-21398534D01*
X5972272Y-21436629D01*
X5962748Y-21455677D01*
X5953224Y-21465200D01*
X5934176Y-21474724D01*
X5915129Y-21474724D01*
X5896081Y-21465200D01*
X5886557Y-21455677D01*
X5877034Y-21436629D01*
X5867510Y-21398534D01*
X5867510Y-21350915D01*
X5877034Y-21312819D01*
X5886557Y-21293772D01*
X5896081Y-21284248D01*
X5915129Y-21274724D01*
X6067510Y-21474724D02*
X6067510Y-21341391D01*
X6067510Y-21360438D02*
X6077034Y-21350915D01*
X6096081Y-21341391D01*
X6124653Y-21341391D01*
X6143700Y-21350915D01*
X6153224Y-21369962D01*
X6153224Y-21474724D01*
X6153224Y-21369962D02*
X6162748Y-21350915D01*
X6181796Y-21341391D01*
X6210367Y-21341391D01*
X6229415Y-21350915D01*
X6238938Y-21369962D01*
X6238938Y-21474724D01*
X6334176Y-21474724D02*
X6334176Y-21341391D01*
X6334176Y-21360438D02*
X6343700Y-21350915D01*
X6362748Y-21341391D01*
X6391319Y-21341391D01*
X6410367Y-21350915D01*
X6419891Y-21369962D01*
X6419891Y-21474724D01*
X6419891Y-21369962D02*
X6429415Y-21350915D01*
X6448462Y-21341391D01*
X6477034Y-21341391D01*
X6496081Y-21350915D01*
X6505605Y-21369962D01*
X6505605Y-21474724D01*
X6896081Y-21265200D02*
X6724653Y-21522343D01*
X7153224Y-21274724D02*
X7172272Y-21274724D01*
X7191319Y-21284248D01*
X7200843Y-21293772D01*
X7210367Y-21312819D01*
X7219891Y-21350915D01*
X7219891Y-21398534D01*
X7210367Y-21436629D01*
X7200843Y-21455677D01*
X7191319Y-21465200D01*
X7172272Y-21474724D01*
X7153224Y-21474724D01*
X7134176Y-21465200D01*
X7124653Y-21455677D01*
X7115129Y-21436629D01*
X7105605Y-21398534D01*
X7105605Y-21350915D01*
X7115129Y-21312819D01*
X7124653Y-21293772D01*
X7134176Y-21284248D01*
X7153224Y-21274724D01*
X7305605Y-21455677D02*
X7315129Y-21465200D01*
X7305605Y-21474724D01*
X7296081Y-21465200D01*
X7305605Y-21455677D01*
X7305605Y-21474724D01*
X7505605Y-21474724D02*
X7391319Y-21474724D01*
X7448462Y-21474724D02*
X7448462Y-21274724D01*
X7429415Y-21303296D01*
X7410367Y-21322343D01*
X7391319Y-21331867D01*
X7572272Y-21274724D02*
X7696081Y-21274724D01*
X7629415Y-21350915D01*
X7657986Y-21350915D01*
X7677034Y-21360438D01*
X7686557Y-21369962D01*
X7696081Y-21389010D01*
X7696081Y-21436629D01*
X7686557Y-21455677D01*
X7677034Y-21465200D01*
X7657986Y-21474724D01*
X7600843Y-21474724D01*
X7581796Y-21465200D01*
X7572272Y-21455677D01*
X7762748Y-21274724D02*
X7896081Y-21274724D01*
X7810367Y-21474724D01*
X8000843Y-21360438D02*
X7981796Y-21350915D01*
X7972272Y-21341391D01*
X7962748Y-21322343D01*
X7962748Y-21312819D01*
X7972272Y-21293772D01*
X7981796Y-21284248D01*
X8000843Y-21274724D01*
X8038938Y-21274724D01*
X8057986Y-21284248D01*
X8067510Y-21293772D01*
X8077034Y-21312819D01*
X8077034Y-21322343D01*
X8067510Y-21341391D01*
X8057986Y-21350915D01*
X8038938Y-21360438D01*
X8000843Y-21360438D01*
X7981796Y-21369962D01*
X7972272Y-21379486D01*
X7962748Y-21398534D01*
X7962748Y-21436629D01*
X7972272Y-21455677D01*
X7981796Y-21465200D01*
X8000843Y-21474724D01*
X8038938Y-21474724D01*
X8057986Y-21465200D01*
X8067510Y-21455677D01*
X8077034Y-21436629D01*
X8077034Y-21398534D01*
X8067510Y-21379486D01*
X8057986Y-21369962D01*
X8038938Y-21360438D01*
X8153224Y-21274724D02*
X8153224Y-21312819D01*
X8229415Y-21274724D02*
X8229415Y-21312819D01*
X8524653Y-21550915D02*
X8515129Y-21541391D01*
X8496081Y-21512819D01*
X8486558Y-21493772D01*
X8477034Y-21465200D01*
X8467510Y-21417581D01*
X8467510Y-21379486D01*
X8477034Y-21331867D01*
X8486558Y-21303296D01*
X8496081Y-21284248D01*
X8515129Y-21255677D01*
X8524653Y-21246153D01*
X8591319Y-21293772D02*
X8600843Y-21284248D01*
X8619891Y-21274724D01*
X8667510Y-21274724D01*
X8686558Y-21284248D01*
X8696081Y-21293772D01*
X8705605Y-21312819D01*
X8705605Y-21331867D01*
X8696081Y-21360438D01*
X8581796Y-21474724D01*
X8705605Y-21474724D01*
X8943700Y-21474724D02*
X8943700Y-21274724D01*
X9029415Y-21474724D02*
X9029415Y-21369962D01*
X9019891Y-21350915D01*
X9000843Y-21341391D01*
X8972272Y-21341391D01*
X8953224Y-21350915D01*
X8943700Y-21360438D01*
X9153224Y-21474724D02*
X9134177Y-21465200D01*
X9124653Y-21455677D01*
X9115129Y-21436629D01*
X9115129Y-21379486D01*
X9124653Y-21360438D01*
X9134177Y-21350915D01*
X9153224Y-21341391D01*
X9181796Y-21341391D01*
X9200843Y-21350915D01*
X9210367Y-21360438D01*
X9219891Y-21379486D01*
X9219891Y-21436629D01*
X9210367Y-21455677D01*
X9200843Y-21465200D01*
X9181796Y-21474724D01*
X9153224Y-21474724D01*
X9334177Y-21474724D02*
X9315129Y-21465200D01*
X9305605Y-21446153D01*
X9305605Y-21274724D01*
X9486558Y-21465200D02*
X9467510Y-21474724D01*
X9429415Y-21474724D01*
X9410367Y-21465200D01*
X9400843Y-21446153D01*
X9400843Y-21369962D01*
X9410367Y-21350915D01*
X9429415Y-21341391D01*
X9467510Y-21341391D01*
X9486558Y-21350915D01*
X9496081Y-21369962D01*
X9496081Y-21389010D01*
X9400843Y-21408058D01*
X9572272Y-21465200D02*
X9591319Y-21474724D01*
X9629415Y-21474724D01*
X9648462Y-21465200D01*
X9657986Y-21446153D01*
X9657986Y-21436629D01*
X9648462Y-21417581D01*
X9629415Y-21408058D01*
X9600843Y-21408058D01*
X9581796Y-21398534D01*
X9572272Y-21379486D01*
X9572272Y-21369962D01*
X9581796Y-21350915D01*
X9600843Y-21341391D01*
X9629415Y-21341391D01*
X9648462Y-21350915D01*
X9724653Y-21550915D02*
X9734177Y-21541391D01*
X9753224Y-21512819D01*
X9762748Y-21493772D01*
X9772272Y-21465200D01*
X9781796Y-21417581D01*
X9781796Y-21379486D01*
X9772272Y-21331867D01*
X9762748Y-21303296D01*
X9753224Y-21284248D01*
X9734177Y-21255677D01*
X9724653Y-21246153D01*
M02*
