%TF.GenerationSoftware,KiCad,Pcbnew,(6.0.1)*%
%TF.CreationDate,2022-02-13T15:50:39-08:00*%
%TF.ProjectId,keymani,6b65796d-616e-4692-9e6b-696361645f70,-*%
%TF.SameCoordinates,Original*%
%TF.FileFunction,Legend,Bot*%
%TF.FilePolarity,Positive*%
%FSLAX46Y46*%
G04 Gerber Fmt 4.6, Leading zero omitted, Abs format (unit mm)*
G04 Created by KiCad (PCBNEW (6.0.1)) date 2022-02-13 15:50:39*
%MOMM*%
%LPD*%
G01*
G04 APERTURE LIST*
G04 Aperture macros list*
%AMRoundRect*
0 Rectangle with rounded corners*
0 $1 Rounding radius*
0 $2 $3 $4 $5 $6 $7 $8 $9 X,Y pos of 4 corners*
0 Add a 4 corners polygon primitive as box body*
4,1,4,$2,$3,$4,$5,$6,$7,$8,$9,$2,$3,0*
0 Add four circle primitives for the rounded corners*
1,1,$1+$1,$2,$3*
1,1,$1+$1,$4,$5*
1,1,$1+$1,$6,$7*
1,1,$1+$1,$8,$9*
0 Add four rect primitives between the rounded corners*
20,1,$1+$1,$2,$3,$4,$5,0*
20,1,$1+$1,$4,$5,$6,$7,0*
20,1,$1+$1,$6,$7,$8,$9,0*
20,1,$1+$1,$8,$9,$2,$3,0*%
G04 Aperture macros list end*
%ADD10C,0.150000*%
%ADD11C,0.120000*%
%ADD12C,1.600000*%
%ADD13C,5.000000*%
%ADD14C,1.701800*%
%ADD15C,2.032000*%
%ADD16RoundRect,0.250000X0.600000X0.725000X-0.600000X0.725000X-0.600000X-0.725000X0.600000X-0.725000X0*%
%ADD17O,1.700000X1.950000*%
%ADD18C,3.500000*%
%ADD19R,1.600000X1.600000*%
%ADD20O,1.600000X1.600000*%
%ADD21RoundRect,0.250000X0.250000X0.475000X-0.250000X0.475000X-0.250000X-0.475000X0.250000X-0.475000X0*%
G04 APERTURE END LIST*
D10*
X121732380Y-154809523D02*
X121732380Y-154333333D01*
X122208571Y-154285714D01*
X122160952Y-154333333D01*
X122113333Y-154428571D01*
X122113333Y-154666666D01*
X122160952Y-154761904D01*
X122208571Y-154809523D01*
X122303809Y-154857142D01*
X122541904Y-154857142D01*
X122637142Y-154809523D01*
X122684761Y-154761904D01*
X122732380Y-154666666D01*
X122732380Y-154428571D01*
X122684761Y-154333333D01*
X122637142Y-154285714D01*
X121732380Y-155142857D02*
X122732380Y-155476190D01*
X121732380Y-155809523D01*
X125952380Y-153976190D02*
X124952380Y-153976190D01*
X124952380Y-154214285D01*
X125000000Y-154357142D01*
X125095238Y-154452380D01*
X125190476Y-154500000D01*
X125380952Y-154547619D01*
X125523809Y-154547619D01*
X125714285Y-154500000D01*
X125809523Y-154452380D01*
X125904761Y-154357142D01*
X125952380Y-154214285D01*
X125952380Y-153976190D01*
X125952380Y-154976190D02*
X124952380Y-154976190D01*
X125952380Y-155452380D02*
X124952380Y-155452380D01*
X125952380Y-156023809D01*
X124952380Y-156023809D01*
X128220000Y-154238095D02*
X128172380Y-154142857D01*
X128172380Y-154000000D01*
X128220000Y-153857142D01*
X128315238Y-153761904D01*
X128410476Y-153714285D01*
X128600952Y-153666666D01*
X128743809Y-153666666D01*
X128934285Y-153714285D01*
X129029523Y-153761904D01*
X129124761Y-153857142D01*
X129172380Y-154000000D01*
X129172380Y-154095238D01*
X129124761Y-154238095D01*
X129077142Y-154285714D01*
X128743809Y-154285714D01*
X128743809Y-154095238D01*
X129172380Y-154714285D02*
X128172380Y-154714285D01*
X129172380Y-155285714D01*
X128172380Y-155285714D01*
X129172380Y-155761904D02*
X128172380Y-155761904D01*
X128172380Y-156000000D01*
X128220000Y-156142857D01*
X128315238Y-156238095D01*
X128410476Y-156285714D01*
X128600952Y-156333333D01*
X128743809Y-156333333D01*
X128934285Y-156285714D01*
X129029523Y-156238095D01*
X129124761Y-156142857D01*
X129172380Y-156000000D01*
X129172380Y-155761904D01*
%TO.C,D4*%
X145702380Y-117661904D02*
X144702380Y-117661904D01*
X144702380Y-117900000D01*
X144750000Y-118042857D01*
X144845238Y-118138095D01*
X144940476Y-118185714D01*
X145130952Y-118233333D01*
X145273809Y-118233333D01*
X145464285Y-118185714D01*
X145559523Y-118138095D01*
X145654761Y-118042857D01*
X145702380Y-117900000D01*
X145702380Y-117661904D01*
X145035714Y-119090476D02*
X145702380Y-119090476D01*
X144654761Y-118852380D02*
X145369047Y-118614285D01*
X145369047Y-119233333D01*
X141652380Y-114328095D02*
X140652380Y-114328095D01*
X141652380Y-114899523D02*
X141080952Y-114470952D01*
X140652380Y-114899523D02*
X141223809Y-114328095D01*
%TO.C,D3*%
X182452380Y-135661904D02*
X181452380Y-135661904D01*
X181452380Y-135900000D01*
X181500000Y-136042857D01*
X181595238Y-136138095D01*
X181690476Y-136185714D01*
X181880952Y-136233333D01*
X182023809Y-136233333D01*
X182214285Y-136185714D01*
X182309523Y-136138095D01*
X182404761Y-136042857D01*
X182452380Y-135900000D01*
X182452380Y-135661904D01*
X181452380Y-136566666D02*
X181452380Y-137185714D01*
X181833333Y-136852380D01*
X181833333Y-136995238D01*
X181880952Y-137090476D01*
X181928571Y-137138095D01*
X182023809Y-137185714D01*
X182261904Y-137185714D01*
X182357142Y-137138095D01*
X182404761Y-137090476D01*
X182452380Y-136995238D01*
X182452380Y-136709523D01*
X182404761Y-136614285D01*
X182357142Y-136566666D01*
X178652380Y-133138095D02*
X177652380Y-133138095D01*
X178652380Y-133709523D02*
X178080952Y-133280952D01*
X177652380Y-133709523D02*
X178223809Y-133138095D01*
%TO.C,D6*%
X183452380Y-117661904D02*
X182452380Y-117661904D01*
X182452380Y-117900000D01*
X182500000Y-118042857D01*
X182595238Y-118138095D01*
X182690476Y-118185714D01*
X182880952Y-118233333D01*
X183023809Y-118233333D01*
X183214285Y-118185714D01*
X183309523Y-118138095D01*
X183404761Y-118042857D01*
X183452380Y-117900000D01*
X183452380Y-117661904D01*
X182452380Y-119090476D02*
X182452380Y-118900000D01*
X182500000Y-118804761D01*
X182547619Y-118757142D01*
X182690476Y-118661904D01*
X182880952Y-118614285D01*
X183261904Y-118614285D01*
X183357142Y-118661904D01*
X183404761Y-118709523D01*
X183452380Y-118804761D01*
X183452380Y-118995238D01*
X183404761Y-119090476D01*
X183357142Y-119138095D01*
X183261904Y-119185714D01*
X183023809Y-119185714D01*
X182928571Y-119138095D01*
X182880952Y-119090476D01*
X182833333Y-118995238D01*
X182833333Y-118804761D01*
X182880952Y-118709523D01*
X182928571Y-118661904D01*
X183023809Y-118614285D01*
X179652380Y-114328095D02*
X178652380Y-114328095D01*
X179652380Y-114899523D02*
X179080952Y-114470952D01*
X178652380Y-114899523D02*
X179223809Y-114328095D01*
%TO.C,C7*%
X134916666Y-88577142D02*
X134964285Y-88624761D01*
X135107142Y-88672380D01*
X135202380Y-88672380D01*
X135345238Y-88624761D01*
X135440476Y-88529523D01*
X135488095Y-88434285D01*
X135535714Y-88243809D01*
X135535714Y-88100952D01*
X135488095Y-87910476D01*
X135440476Y-87815238D01*
X135345238Y-87720000D01*
X135202380Y-87672380D01*
X135107142Y-87672380D01*
X134964285Y-87720000D01*
X134916666Y-87767619D01*
X134583333Y-87672380D02*
X133916666Y-87672380D01*
X134345238Y-88672380D01*
%TO.C,C1*%
X134916666Y-126507142D02*
X134964285Y-126554761D01*
X135107142Y-126602380D01*
X135202380Y-126602380D01*
X135345238Y-126554761D01*
X135440476Y-126459523D01*
X135488095Y-126364285D01*
X135535714Y-126173809D01*
X135535714Y-126030952D01*
X135488095Y-125840476D01*
X135440476Y-125745238D01*
X135345238Y-125650000D01*
X135202380Y-125602380D01*
X135107142Y-125602380D01*
X134964285Y-125650000D01*
X134916666Y-125697619D01*
X133964285Y-126602380D02*
X134535714Y-126602380D01*
X134250000Y-126602380D02*
X134250000Y-125602380D01*
X134345238Y-125745238D01*
X134440476Y-125840476D01*
X134535714Y-125888095D01*
%TO.C,C5*%
X153916666Y-107577142D02*
X153964285Y-107624761D01*
X154107142Y-107672380D01*
X154202380Y-107672380D01*
X154345238Y-107624761D01*
X154440476Y-107529523D01*
X154488095Y-107434285D01*
X154535714Y-107243809D01*
X154535714Y-107100952D01*
X154488095Y-106910476D01*
X154440476Y-106815238D01*
X154345238Y-106720000D01*
X154202380Y-106672380D01*
X154107142Y-106672380D01*
X153964285Y-106720000D01*
X153916666Y-106767619D01*
X153011904Y-106672380D02*
X153488095Y-106672380D01*
X153535714Y-107148571D01*
X153488095Y-107100952D01*
X153392857Y-107053333D01*
X153154761Y-107053333D01*
X153059523Y-107100952D01*
X153011904Y-107148571D01*
X152964285Y-107243809D01*
X152964285Y-107481904D01*
X153011904Y-107577142D01*
X153059523Y-107624761D01*
X153154761Y-107672380D01*
X153392857Y-107672380D01*
X153488095Y-107624761D01*
X153535714Y-107577142D01*
%TO.C,D12*%
X183452380Y-79185714D02*
X182452380Y-79185714D01*
X182452380Y-79423809D01*
X182500000Y-79566666D01*
X182595238Y-79661904D01*
X182690476Y-79709523D01*
X182880952Y-79757142D01*
X183023809Y-79757142D01*
X183214285Y-79709523D01*
X183309523Y-79661904D01*
X183404761Y-79566666D01*
X183452380Y-79423809D01*
X183452380Y-79185714D01*
X183452380Y-80709523D02*
X183452380Y-80138095D01*
X183452380Y-80423809D02*
X182452380Y-80423809D01*
X182595238Y-80328571D01*
X182690476Y-80233333D01*
X182738095Y-80138095D01*
X182547619Y-81090476D02*
X182500000Y-81138095D01*
X182452380Y-81233333D01*
X182452380Y-81471428D01*
X182500000Y-81566666D01*
X182547619Y-81614285D01*
X182642857Y-81661904D01*
X182738095Y-81661904D01*
X182880952Y-81614285D01*
X183452380Y-81042857D01*
X183452380Y-81661904D01*
X179652380Y-76328095D02*
X178652380Y-76328095D01*
X179652380Y-76899523D02*
X179080952Y-76470952D01*
X178652380Y-76899523D02*
X179223809Y-76328095D01*
%TO.C,C6*%
X172916666Y-107577142D02*
X172964285Y-107624761D01*
X173107142Y-107672380D01*
X173202380Y-107672380D01*
X173345238Y-107624761D01*
X173440476Y-107529523D01*
X173488095Y-107434285D01*
X173535714Y-107243809D01*
X173535714Y-107100952D01*
X173488095Y-106910476D01*
X173440476Y-106815238D01*
X173345238Y-106720000D01*
X173202380Y-106672380D01*
X173107142Y-106672380D01*
X172964285Y-106720000D01*
X172916666Y-106767619D01*
X172059523Y-106672380D02*
X172250000Y-106672380D01*
X172345238Y-106720000D01*
X172392857Y-106767619D01*
X172488095Y-106910476D01*
X172535714Y-107100952D01*
X172535714Y-107481904D01*
X172488095Y-107577142D01*
X172440476Y-107624761D01*
X172345238Y-107672380D01*
X172154761Y-107672380D01*
X172059523Y-107624761D01*
X172011904Y-107577142D01*
X171964285Y-107481904D01*
X171964285Y-107243809D01*
X172011904Y-107148571D01*
X172059523Y-107100952D01*
X172154761Y-107053333D01*
X172345238Y-107053333D01*
X172440476Y-107100952D01*
X172488095Y-107148571D01*
X172535714Y-107243809D01*
%TO.C,D7*%
X145452380Y-98661904D02*
X144452380Y-98661904D01*
X144452380Y-98900000D01*
X144500000Y-99042857D01*
X144595238Y-99138095D01*
X144690476Y-99185714D01*
X144880952Y-99233333D01*
X145023809Y-99233333D01*
X145214285Y-99185714D01*
X145309523Y-99138095D01*
X145404761Y-99042857D01*
X145452380Y-98900000D01*
X145452380Y-98661904D01*
X144452380Y-99566666D02*
X144452380Y-100233333D01*
X145452380Y-99804761D01*
X141652380Y-95328095D02*
X140652380Y-95328095D01*
X141652380Y-95899523D02*
X141080952Y-95470952D01*
X140652380Y-95899523D02*
X141223809Y-95328095D01*
%TO.C,D9*%
X183452380Y-98661904D02*
X182452380Y-98661904D01*
X182452380Y-98900000D01*
X182500000Y-99042857D01*
X182595238Y-99138095D01*
X182690476Y-99185714D01*
X182880952Y-99233333D01*
X183023809Y-99233333D01*
X183214285Y-99185714D01*
X183309523Y-99138095D01*
X183404761Y-99042857D01*
X183452380Y-98900000D01*
X183452380Y-98661904D01*
X183452380Y-99709523D02*
X183452380Y-99900000D01*
X183404761Y-99995238D01*
X183357142Y-100042857D01*
X183214285Y-100138095D01*
X183023809Y-100185714D01*
X182642857Y-100185714D01*
X182547619Y-100138095D01*
X182500000Y-100090476D01*
X182452380Y-99995238D01*
X182452380Y-99804761D01*
X182500000Y-99709523D01*
X182547619Y-99661904D01*
X182642857Y-99614285D01*
X182880952Y-99614285D01*
X182976190Y-99661904D01*
X183023809Y-99709523D01*
X183071428Y-99804761D01*
X183071428Y-99995238D01*
X183023809Y-100090476D01*
X182976190Y-100138095D01*
X182880952Y-100185714D01*
X179652380Y-95328095D02*
X178652380Y-95328095D01*
X179652380Y-95899523D02*
X179080952Y-95470952D01*
X178652380Y-95899523D02*
X179223809Y-95328095D01*
%TO.C,CN2*%
X126190476Y-148057142D02*
X126238095Y-148104761D01*
X126380952Y-148152380D01*
X126476190Y-148152380D01*
X126619047Y-148104761D01*
X126714285Y-148009523D01*
X126761904Y-147914285D01*
X126809523Y-147723809D01*
X126809523Y-147580952D01*
X126761904Y-147390476D01*
X126714285Y-147295238D01*
X126619047Y-147200000D01*
X126476190Y-147152380D01*
X126380952Y-147152380D01*
X126238095Y-147200000D01*
X126190476Y-147247619D01*
X125761904Y-148152380D02*
X125761904Y-147152380D01*
X125190476Y-148152380D01*
X125190476Y-147152380D01*
X124761904Y-147247619D02*
X124714285Y-147200000D01*
X124619047Y-147152380D01*
X124380952Y-147152380D01*
X124285714Y-147200000D01*
X124238095Y-147247619D01*
X124190476Y-147342857D01*
X124190476Y-147438095D01*
X124238095Y-147580952D01*
X124809523Y-148152380D01*
X124190476Y-148152380D01*
%TO.C,C3*%
X172916666Y-126577142D02*
X172964285Y-126624761D01*
X173107142Y-126672380D01*
X173202380Y-126672380D01*
X173345238Y-126624761D01*
X173440476Y-126529523D01*
X173488095Y-126434285D01*
X173535714Y-126243809D01*
X173535714Y-126100952D01*
X173488095Y-125910476D01*
X173440476Y-125815238D01*
X173345238Y-125720000D01*
X173202380Y-125672380D01*
X173107142Y-125672380D01*
X172964285Y-125720000D01*
X172916666Y-125767619D01*
X172583333Y-125672380D02*
X171964285Y-125672380D01*
X172297619Y-126053333D01*
X172154761Y-126053333D01*
X172059523Y-126100952D01*
X172011904Y-126148571D01*
X171964285Y-126243809D01*
X171964285Y-126481904D01*
X172011904Y-126577142D01*
X172059523Y-126624761D01*
X172154761Y-126672380D01*
X172440476Y-126672380D01*
X172535714Y-126624761D01*
X172583333Y-126577142D01*
%TO.C,D11*%
X164452380Y-79185714D02*
X163452380Y-79185714D01*
X163452380Y-79423809D01*
X163500000Y-79566666D01*
X163595238Y-79661904D01*
X163690476Y-79709523D01*
X163880952Y-79757142D01*
X164023809Y-79757142D01*
X164214285Y-79709523D01*
X164309523Y-79661904D01*
X164404761Y-79566666D01*
X164452380Y-79423809D01*
X164452380Y-79185714D01*
X164452380Y-80709523D02*
X164452380Y-80138095D01*
X164452380Y-80423809D02*
X163452380Y-80423809D01*
X163595238Y-80328571D01*
X163690476Y-80233333D01*
X163738095Y-80138095D01*
X164452380Y-81661904D02*
X164452380Y-81090476D01*
X164452380Y-81376190D02*
X163452380Y-81376190D01*
X163595238Y-81280952D01*
X163690476Y-81185714D01*
X163738095Y-81090476D01*
X160652380Y-76328095D02*
X159652380Y-76328095D01*
X160652380Y-76899523D02*
X160080952Y-76470952D01*
X159652380Y-76899523D02*
X160223809Y-76328095D01*
%TO.C,C11*%
X157642857Y-72257142D02*
X157690476Y-72304761D01*
X157833333Y-72352380D01*
X157928571Y-72352380D01*
X158071428Y-72304761D01*
X158166666Y-72209523D01*
X158214285Y-72114285D01*
X158261904Y-71923809D01*
X158261904Y-71780952D01*
X158214285Y-71590476D01*
X158166666Y-71495238D01*
X158071428Y-71400000D01*
X157928571Y-71352380D01*
X157833333Y-71352380D01*
X157690476Y-71400000D01*
X157642857Y-71447619D01*
X156690476Y-72352380D02*
X157261904Y-72352380D01*
X156976190Y-72352380D02*
X156976190Y-71352380D01*
X157071428Y-71495238D01*
X157166666Y-71590476D01*
X157261904Y-71638095D01*
X155738095Y-72352380D02*
X156309523Y-72352380D01*
X156023809Y-72352380D02*
X156023809Y-71352380D01*
X156119047Y-71495238D01*
X156214285Y-71590476D01*
X156309523Y-71638095D01*
%TO.C,C2*%
X153916666Y-126507142D02*
X153964285Y-126554761D01*
X154107142Y-126602380D01*
X154202380Y-126602380D01*
X154345238Y-126554761D01*
X154440476Y-126459523D01*
X154488095Y-126364285D01*
X154535714Y-126173809D01*
X154535714Y-126030952D01*
X154488095Y-125840476D01*
X154440476Y-125745238D01*
X154345238Y-125650000D01*
X154202380Y-125602380D01*
X154107142Y-125602380D01*
X153964285Y-125650000D01*
X153916666Y-125697619D01*
X153535714Y-125697619D02*
X153488095Y-125650000D01*
X153392857Y-125602380D01*
X153154761Y-125602380D01*
X153059523Y-125650000D01*
X153011904Y-125697619D01*
X152964285Y-125792857D01*
X152964285Y-125888095D01*
X153011904Y-126030952D01*
X153583333Y-126602380D01*
X152964285Y-126602380D01*
%TO.C,D2*%
X164452380Y-135661904D02*
X163452380Y-135661904D01*
X163452380Y-135900000D01*
X163500000Y-136042857D01*
X163595238Y-136138095D01*
X163690476Y-136185714D01*
X163880952Y-136233333D01*
X164023809Y-136233333D01*
X164214285Y-136185714D01*
X164309523Y-136138095D01*
X164404761Y-136042857D01*
X164452380Y-135900000D01*
X164452380Y-135661904D01*
X163547619Y-136614285D02*
X163500000Y-136661904D01*
X163452380Y-136757142D01*
X163452380Y-136995238D01*
X163500000Y-137090476D01*
X163547619Y-137138095D01*
X163642857Y-137185714D01*
X163738095Y-137185714D01*
X163880952Y-137138095D01*
X164452380Y-136566666D01*
X164452380Y-137185714D01*
X160652380Y-132328095D02*
X159652380Y-132328095D01*
X160652380Y-132899523D02*
X160080952Y-132470952D01*
X159652380Y-132899523D02*
X160223809Y-132328095D01*
%TO.C,C9*%
X172966666Y-88577142D02*
X173014285Y-88624761D01*
X173157142Y-88672380D01*
X173252380Y-88672380D01*
X173395238Y-88624761D01*
X173490476Y-88529523D01*
X173538095Y-88434285D01*
X173585714Y-88243809D01*
X173585714Y-88100952D01*
X173538095Y-87910476D01*
X173490476Y-87815238D01*
X173395238Y-87720000D01*
X173252380Y-87672380D01*
X173157142Y-87672380D01*
X173014285Y-87720000D01*
X172966666Y-87767619D01*
X172490476Y-88672380D02*
X172300000Y-88672380D01*
X172204761Y-88624761D01*
X172157142Y-88577142D01*
X172061904Y-88434285D01*
X172014285Y-88243809D01*
X172014285Y-87862857D01*
X172061904Y-87767619D01*
X172109523Y-87720000D01*
X172204761Y-87672380D01*
X172395238Y-87672380D01*
X172490476Y-87720000D01*
X172538095Y-87767619D01*
X172585714Y-87862857D01*
X172585714Y-88100952D01*
X172538095Y-88196190D01*
X172490476Y-88243809D01*
X172395238Y-88291428D01*
X172204761Y-88291428D01*
X172109523Y-88243809D01*
X172061904Y-88196190D01*
X172014285Y-88100952D01*
%TO.C,D10*%
X145452380Y-79185714D02*
X144452380Y-79185714D01*
X144452380Y-79423809D01*
X144500000Y-79566666D01*
X144595238Y-79661904D01*
X144690476Y-79709523D01*
X144880952Y-79757142D01*
X145023809Y-79757142D01*
X145214285Y-79709523D01*
X145309523Y-79661904D01*
X145404761Y-79566666D01*
X145452380Y-79423809D01*
X145452380Y-79185714D01*
X145452380Y-80709523D02*
X145452380Y-80138095D01*
X145452380Y-80423809D02*
X144452380Y-80423809D01*
X144595238Y-80328571D01*
X144690476Y-80233333D01*
X144738095Y-80138095D01*
X144452380Y-81328571D02*
X144452380Y-81423809D01*
X144500000Y-81519047D01*
X144547619Y-81566666D01*
X144642857Y-81614285D01*
X144833333Y-81661904D01*
X145071428Y-81661904D01*
X145261904Y-81614285D01*
X145357142Y-81566666D01*
X145404761Y-81519047D01*
X145452380Y-81423809D01*
X145452380Y-81328571D01*
X145404761Y-81233333D01*
X145357142Y-81185714D01*
X145261904Y-81138095D01*
X145071428Y-81090476D01*
X144833333Y-81090476D01*
X144642857Y-81138095D01*
X144547619Y-81185714D01*
X144500000Y-81233333D01*
X144452380Y-81328571D01*
X141652380Y-76328095D02*
X140652380Y-76328095D01*
X141652380Y-76899523D02*
X141080952Y-76470952D01*
X140652380Y-76899523D02*
X141223809Y-76328095D01*
%TO.C,C12*%
X176642857Y-72257142D02*
X176690476Y-72304761D01*
X176833333Y-72352380D01*
X176928571Y-72352380D01*
X177071428Y-72304761D01*
X177166666Y-72209523D01*
X177214285Y-72114285D01*
X177261904Y-71923809D01*
X177261904Y-71780952D01*
X177214285Y-71590476D01*
X177166666Y-71495238D01*
X177071428Y-71400000D01*
X176928571Y-71352380D01*
X176833333Y-71352380D01*
X176690476Y-71400000D01*
X176642857Y-71447619D01*
X175690476Y-72352380D02*
X176261904Y-72352380D01*
X175976190Y-72352380D02*
X175976190Y-71352380D01*
X176071428Y-71495238D01*
X176166666Y-71590476D01*
X176261904Y-71638095D01*
X175309523Y-71447619D02*
X175261904Y-71400000D01*
X175166666Y-71352380D01*
X174928571Y-71352380D01*
X174833333Y-71400000D01*
X174785714Y-71447619D01*
X174738095Y-71542857D01*
X174738095Y-71638095D01*
X174785714Y-71780952D01*
X175357142Y-72352380D01*
X174738095Y-72352380D01*
%TO.C,D1*%
X145702380Y-135911904D02*
X144702380Y-135911904D01*
X144702380Y-136150000D01*
X144750000Y-136292857D01*
X144845238Y-136388095D01*
X144940476Y-136435714D01*
X145130952Y-136483333D01*
X145273809Y-136483333D01*
X145464285Y-136435714D01*
X145559523Y-136388095D01*
X145654761Y-136292857D01*
X145702380Y-136150000D01*
X145702380Y-135911904D01*
X145702380Y-137435714D02*
X145702380Y-136864285D01*
X145702380Y-137150000D02*
X144702380Y-137150000D01*
X144845238Y-137054761D01*
X144940476Y-136959523D01*
X144988095Y-136864285D01*
X141652380Y-132328095D02*
X140652380Y-132328095D01*
X141652380Y-132899523D02*
X141080952Y-132470952D01*
X140652380Y-132899523D02*
X141223809Y-132328095D01*
%TO.C,D8*%
X164452380Y-98661904D02*
X163452380Y-98661904D01*
X163452380Y-98900000D01*
X163500000Y-99042857D01*
X163595238Y-99138095D01*
X163690476Y-99185714D01*
X163880952Y-99233333D01*
X164023809Y-99233333D01*
X164214285Y-99185714D01*
X164309523Y-99138095D01*
X164404761Y-99042857D01*
X164452380Y-98900000D01*
X164452380Y-98661904D01*
X163880952Y-99804761D02*
X163833333Y-99709523D01*
X163785714Y-99661904D01*
X163690476Y-99614285D01*
X163642857Y-99614285D01*
X163547619Y-99661904D01*
X163500000Y-99709523D01*
X163452380Y-99804761D01*
X163452380Y-99995238D01*
X163500000Y-100090476D01*
X163547619Y-100138095D01*
X163642857Y-100185714D01*
X163690476Y-100185714D01*
X163785714Y-100138095D01*
X163833333Y-100090476D01*
X163880952Y-99995238D01*
X163880952Y-99804761D01*
X163928571Y-99709523D01*
X163976190Y-99661904D01*
X164071428Y-99614285D01*
X164261904Y-99614285D01*
X164357142Y-99661904D01*
X164404761Y-99709523D01*
X164452380Y-99804761D01*
X164452380Y-99995238D01*
X164404761Y-100090476D01*
X164357142Y-100138095D01*
X164261904Y-100185714D01*
X164071428Y-100185714D01*
X163976190Y-100138095D01*
X163928571Y-100090476D01*
X163880952Y-99995238D01*
X160652380Y-95328095D02*
X159652380Y-95328095D01*
X160652380Y-95899523D02*
X160080952Y-95470952D01*
X159652380Y-95899523D02*
X160223809Y-95328095D01*
%TO.C,C8*%
X153916666Y-88577142D02*
X153964285Y-88624761D01*
X154107142Y-88672380D01*
X154202380Y-88672380D01*
X154345238Y-88624761D01*
X154440476Y-88529523D01*
X154488095Y-88434285D01*
X154535714Y-88243809D01*
X154535714Y-88100952D01*
X154488095Y-87910476D01*
X154440476Y-87815238D01*
X154345238Y-87720000D01*
X154202380Y-87672380D01*
X154107142Y-87672380D01*
X153964285Y-87720000D01*
X153916666Y-87767619D01*
X153345238Y-88100952D02*
X153440476Y-88053333D01*
X153488095Y-88005714D01*
X153535714Y-87910476D01*
X153535714Y-87862857D01*
X153488095Y-87767619D01*
X153440476Y-87720000D01*
X153345238Y-87672380D01*
X153154761Y-87672380D01*
X153059523Y-87720000D01*
X153011904Y-87767619D01*
X152964285Y-87862857D01*
X152964285Y-87910476D01*
X153011904Y-88005714D01*
X153059523Y-88053333D01*
X153154761Y-88100952D01*
X153345238Y-88100952D01*
X153440476Y-88148571D01*
X153488095Y-88196190D01*
X153535714Y-88291428D01*
X153535714Y-88481904D01*
X153488095Y-88577142D01*
X153440476Y-88624761D01*
X153345238Y-88672380D01*
X153154761Y-88672380D01*
X153059523Y-88624761D01*
X153011904Y-88577142D01*
X152964285Y-88481904D01*
X152964285Y-88291428D01*
X153011904Y-88196190D01*
X153059523Y-88148571D01*
X153154761Y-88100952D01*
%TO.C,C10*%
X138642857Y-72257142D02*
X138690476Y-72304761D01*
X138833333Y-72352380D01*
X138928571Y-72352380D01*
X139071428Y-72304761D01*
X139166666Y-72209523D01*
X139214285Y-72114285D01*
X139261904Y-71923809D01*
X139261904Y-71780952D01*
X139214285Y-71590476D01*
X139166666Y-71495238D01*
X139071428Y-71400000D01*
X138928571Y-71352380D01*
X138833333Y-71352380D01*
X138690476Y-71400000D01*
X138642857Y-71447619D01*
X137690476Y-72352380D02*
X138261904Y-72352380D01*
X137976190Y-72352380D02*
X137976190Y-71352380D01*
X138071428Y-71495238D01*
X138166666Y-71590476D01*
X138261904Y-71638095D01*
X137071428Y-71352380D02*
X136976190Y-71352380D01*
X136880952Y-71400000D01*
X136833333Y-71447619D01*
X136785714Y-71542857D01*
X136738095Y-71733333D01*
X136738095Y-71971428D01*
X136785714Y-72161904D01*
X136833333Y-72257142D01*
X136880952Y-72304761D01*
X136976190Y-72352380D01*
X137071428Y-72352380D01*
X137166666Y-72304761D01*
X137214285Y-72257142D01*
X137261904Y-72161904D01*
X137309523Y-71971428D01*
X137309523Y-71733333D01*
X137261904Y-71542857D01*
X137214285Y-71447619D01*
X137166666Y-71400000D01*
X137071428Y-71352380D01*
%TO.C,C4*%
X134916666Y-107577142D02*
X134964285Y-107624761D01*
X135107142Y-107672380D01*
X135202380Y-107672380D01*
X135345238Y-107624761D01*
X135440476Y-107529523D01*
X135488095Y-107434285D01*
X135535714Y-107243809D01*
X135535714Y-107100952D01*
X135488095Y-106910476D01*
X135440476Y-106815238D01*
X135345238Y-106720000D01*
X135202380Y-106672380D01*
X135107142Y-106672380D01*
X134964285Y-106720000D01*
X134916666Y-106767619D01*
X134059523Y-107005714D02*
X134059523Y-107672380D01*
X134297619Y-106624761D02*
X134535714Y-107339047D01*
X133916666Y-107339047D01*
%TO.C,D5*%
X164452380Y-117661904D02*
X163452380Y-117661904D01*
X163452380Y-117900000D01*
X163500000Y-118042857D01*
X163595238Y-118138095D01*
X163690476Y-118185714D01*
X163880952Y-118233333D01*
X164023809Y-118233333D01*
X164214285Y-118185714D01*
X164309523Y-118138095D01*
X164404761Y-118042857D01*
X164452380Y-117900000D01*
X164452380Y-117661904D01*
X163452380Y-119138095D02*
X163452380Y-118661904D01*
X163928571Y-118614285D01*
X163880952Y-118661904D01*
X163833333Y-118757142D01*
X163833333Y-118995238D01*
X163880952Y-119090476D01*
X163928571Y-119138095D01*
X164023809Y-119185714D01*
X164261904Y-119185714D01*
X164357142Y-119138095D01*
X164404761Y-119090476D01*
X164452380Y-118995238D01*
X164452380Y-118757142D01*
X164404761Y-118661904D01*
X164357142Y-118614285D01*
X160652380Y-114328095D02*
X159652380Y-114328095D01*
X160652380Y-114899523D02*
X160080952Y-114470952D01*
X159652380Y-114899523D02*
X160223809Y-114328095D01*
D11*
%TO.C,D4*%
X143000000Y-115630000D02*
X143000000Y-116280000D01*
X141880000Y-116880000D02*
X144120000Y-116880000D01*
X144120000Y-120520000D02*
X141880000Y-120520000D01*
X141880000Y-117000000D02*
X144120000Y-117000000D01*
X141880000Y-120520000D02*
X141880000Y-116280000D01*
X143000000Y-121170000D02*
X143000000Y-120520000D01*
X144120000Y-116280000D02*
X144120000Y-120520000D01*
X141880000Y-117120000D02*
X144120000Y-117120000D01*
X141880000Y-116280000D02*
X144120000Y-116280000D01*
%TO.C,D3*%
X178880000Y-134280000D02*
X181120000Y-134280000D01*
X178880000Y-134880000D02*
X181120000Y-134880000D01*
X181120000Y-134280000D02*
X181120000Y-138520000D01*
X180000000Y-139170000D02*
X180000000Y-138520000D01*
X181120000Y-138520000D02*
X178880000Y-138520000D01*
X178880000Y-135120000D02*
X181120000Y-135120000D01*
X178880000Y-135000000D02*
X181120000Y-135000000D01*
X178880000Y-138520000D02*
X178880000Y-134280000D01*
X180000000Y-133630000D02*
X180000000Y-134280000D01*
%TO.C,D6*%
X179880000Y-116880000D02*
X182120000Y-116880000D01*
X181000000Y-115630000D02*
X181000000Y-116280000D01*
X179880000Y-116280000D02*
X182120000Y-116280000D01*
X182120000Y-116280000D02*
X182120000Y-120520000D01*
X179880000Y-117120000D02*
X182120000Y-117120000D01*
X182120000Y-120520000D02*
X179880000Y-120520000D01*
X179880000Y-120520000D02*
X179880000Y-116280000D01*
X179880000Y-117000000D02*
X182120000Y-117000000D01*
X181000000Y-121170000D02*
X181000000Y-120520000D01*
%TO.C,C7*%
X135011252Y-90635000D02*
X134488748Y-90635000D01*
X135011252Y-89165000D02*
X134488748Y-89165000D01*
%TO.C,C1*%
X135011252Y-127165000D02*
X134488748Y-127165000D01*
X135011252Y-128635000D02*
X134488748Y-128635000D01*
%TO.C,C5*%
X154011252Y-109635000D02*
X153488748Y-109635000D01*
X154011252Y-108165000D02*
X153488748Y-108165000D01*
%TO.C,D12*%
X179880000Y-78280000D02*
X182120000Y-78280000D01*
X179880000Y-82520000D02*
X179880000Y-78280000D01*
X179880000Y-78880000D02*
X182120000Y-78880000D01*
X179880000Y-79120000D02*
X182120000Y-79120000D01*
X181000000Y-77630000D02*
X181000000Y-78280000D01*
X179880000Y-79000000D02*
X182120000Y-79000000D01*
X182120000Y-78280000D02*
X182120000Y-82520000D01*
X181000000Y-83170000D02*
X181000000Y-82520000D01*
X182120000Y-82520000D02*
X179880000Y-82520000D01*
%TO.C,C6*%
X173011252Y-109635000D02*
X172488748Y-109635000D01*
X173011252Y-108165000D02*
X172488748Y-108165000D01*
%TO.C,D7*%
X141880000Y-101520000D02*
X141880000Y-97280000D01*
X141880000Y-97880000D02*
X144120000Y-97880000D01*
X143000000Y-102170000D02*
X143000000Y-101520000D01*
X143000000Y-96630000D02*
X143000000Y-97280000D01*
X141880000Y-98120000D02*
X144120000Y-98120000D01*
X144120000Y-97280000D02*
X144120000Y-101520000D01*
X141880000Y-97280000D02*
X144120000Y-97280000D01*
X144120000Y-101520000D02*
X141880000Y-101520000D01*
X141880000Y-98000000D02*
X144120000Y-98000000D01*
%TO.C,D9*%
X179880000Y-97880000D02*
X182120000Y-97880000D01*
X181000000Y-102170000D02*
X181000000Y-101520000D01*
X179880000Y-98000000D02*
X182120000Y-98000000D01*
X182120000Y-101520000D02*
X179880000Y-101520000D01*
X182120000Y-97280000D02*
X182120000Y-101520000D01*
X181000000Y-96630000D02*
X181000000Y-97280000D01*
X179880000Y-101520000D02*
X179880000Y-97280000D01*
X179880000Y-98120000D02*
X182120000Y-98120000D01*
X179880000Y-97280000D02*
X182120000Y-97280000D01*
%TO.C,CN2*%
X130910000Y-153110000D02*
X128410000Y-153110000D01*
X130910000Y-150610000D02*
X130910000Y-153110000D01*
X130610000Y-151310000D02*
X129610000Y-151310000D01*
X120390000Y-148790000D02*
X130610000Y-148790000D01*
X129610000Y-151310000D02*
X129610000Y-152810000D01*
X120390000Y-152810000D02*
X120390000Y-148790000D01*
X130110000Y-149290000D02*
X120890000Y-149290000D01*
X130110000Y-150500000D02*
X130110000Y-149290000D01*
X120890000Y-150500000D02*
X120390000Y-150500000D01*
X121390000Y-151310000D02*
X121390000Y-152810000D01*
X130610000Y-148790000D02*
X130610000Y-152810000D01*
X130610000Y-152810000D02*
X120390000Y-152810000D01*
X120390000Y-151310000D02*
X121390000Y-151310000D01*
X130610000Y-150500000D02*
X130110000Y-150500000D01*
X120890000Y-149290000D02*
X120890000Y-150500000D01*
%TO.C,C3*%
X173011252Y-127165000D02*
X172488748Y-127165000D01*
X173011252Y-128635000D02*
X172488748Y-128635000D01*
%TO.C,D11*%
X160880000Y-82520000D02*
X160880000Y-78280000D01*
X163120000Y-78280000D02*
X163120000Y-82520000D01*
X163120000Y-82520000D02*
X160880000Y-82520000D01*
X160880000Y-78880000D02*
X163120000Y-78880000D01*
X162000000Y-83170000D02*
X162000000Y-82520000D01*
X160880000Y-79000000D02*
X163120000Y-79000000D01*
X162000000Y-77630000D02*
X162000000Y-78280000D01*
X160880000Y-79120000D02*
X163120000Y-79120000D01*
X160880000Y-78280000D02*
X163120000Y-78280000D01*
%TO.C,C11*%
X154011252Y-71165000D02*
X153488748Y-71165000D01*
X154011252Y-72635000D02*
X153488748Y-72635000D01*
%TO.C,C2*%
X154011252Y-127165000D02*
X153488748Y-127165000D01*
X154011252Y-128635000D02*
X153488748Y-128635000D01*
%TO.C,D2*%
X160880000Y-135120000D02*
X163120000Y-135120000D01*
X160880000Y-138520000D02*
X160880000Y-134280000D01*
X162000000Y-139170000D02*
X162000000Y-138520000D01*
X163120000Y-138520000D02*
X160880000Y-138520000D01*
X160880000Y-135000000D02*
X163120000Y-135000000D01*
X162000000Y-133630000D02*
X162000000Y-134280000D01*
X163120000Y-134280000D02*
X163120000Y-138520000D01*
X160880000Y-134880000D02*
X163120000Y-134880000D01*
X160880000Y-134280000D02*
X163120000Y-134280000D01*
%TO.C,C9*%
X173061252Y-89165000D02*
X172538748Y-89165000D01*
X173061252Y-90635000D02*
X172538748Y-90635000D01*
%TO.C,D10*%
X141880000Y-79000000D02*
X144120000Y-79000000D01*
X141880000Y-78880000D02*
X144120000Y-78880000D01*
X143000000Y-83170000D02*
X143000000Y-82520000D01*
X141880000Y-82520000D02*
X141880000Y-78280000D01*
X143000000Y-77630000D02*
X143000000Y-78280000D01*
X141880000Y-79120000D02*
X144120000Y-79120000D01*
X144120000Y-82520000D02*
X141880000Y-82520000D01*
X141880000Y-78280000D02*
X144120000Y-78280000D01*
X144120000Y-78280000D02*
X144120000Y-82520000D01*
%TO.C,C12*%
X173011252Y-72635000D02*
X172488748Y-72635000D01*
X173011252Y-71165000D02*
X172488748Y-71165000D01*
%TO.C,D1*%
X143000000Y-139170000D02*
X143000000Y-138520000D01*
X141880000Y-134280000D02*
X144120000Y-134280000D01*
X143000000Y-133630000D02*
X143000000Y-134280000D01*
X141880000Y-135120000D02*
X144120000Y-135120000D01*
X141880000Y-134880000D02*
X144120000Y-134880000D01*
X144120000Y-134280000D02*
X144120000Y-138520000D01*
X141880000Y-135000000D02*
X144120000Y-135000000D01*
X144120000Y-138520000D02*
X141880000Y-138520000D01*
X141880000Y-138520000D02*
X141880000Y-134280000D01*
%TO.C,D8*%
X160880000Y-98120000D02*
X163120000Y-98120000D01*
X162000000Y-102170000D02*
X162000000Y-101520000D01*
X160880000Y-101520000D02*
X160880000Y-97280000D01*
X162000000Y-96630000D02*
X162000000Y-97280000D01*
X163120000Y-101520000D02*
X160880000Y-101520000D01*
X163120000Y-97280000D02*
X163120000Y-101520000D01*
X160880000Y-97280000D02*
X163120000Y-97280000D01*
X160880000Y-97880000D02*
X163120000Y-97880000D01*
X160880000Y-98000000D02*
X163120000Y-98000000D01*
%TO.C,C8*%
X154011252Y-89165000D02*
X153488748Y-89165000D01*
X154011252Y-90635000D02*
X153488748Y-90635000D01*
%TO.C,C10*%
X135011252Y-72635000D02*
X134488748Y-72635000D01*
X135011252Y-71165000D02*
X134488748Y-71165000D01*
%TO.C,C4*%
X135011252Y-108165000D02*
X134488748Y-108165000D01*
X135011252Y-109635000D02*
X134488748Y-109635000D01*
%TO.C,D5*%
X160880000Y-116880000D02*
X163120000Y-116880000D01*
X160880000Y-116280000D02*
X163120000Y-116280000D01*
X162000000Y-115630000D02*
X162000000Y-116280000D01*
X160880000Y-120520000D02*
X160880000Y-116280000D01*
X163120000Y-116280000D02*
X163120000Y-120520000D01*
X163120000Y-120520000D02*
X160880000Y-120520000D01*
X162000000Y-121170000D02*
X162000000Y-120520000D01*
X160880000Y-117000000D02*
X163120000Y-117000000D01*
X160880000Y-117120000D02*
X163120000Y-117120000D01*
%TD*%
%LPC*%
D12*
%TO.C,SW10*%
X138950000Y-74775000D03*
D13*
X133950000Y-79925000D03*
D14*
X139450000Y-79925000D03*
X128450000Y-79925000D03*
D15*
X133950000Y-85825000D03*
X128950000Y-83725000D03*
%TD*%
D14*
%TO.C,SW5*%
X147500000Y-118025000D03*
D13*
X153000000Y-118025000D03*
D12*
X158000000Y-112875000D03*
D14*
X158500000Y-118025000D03*
D15*
X153000000Y-123925000D03*
X148000000Y-121825000D03*
%TD*%
D16*
%TO.C,CN1*%
X161750000Y-149967500D03*
D17*
X159250000Y-149967500D03*
X156750000Y-149967500D03*
X154250000Y-149967500D03*
X151750000Y-149967500D03*
X149250000Y-149967500D03*
X146750000Y-149967500D03*
X144250000Y-149967500D03*
%TD*%
D13*
%TO.C,SW8*%
X153000000Y-98975000D03*
D14*
X158500000Y-98975000D03*
D12*
X158000000Y-93825000D03*
D14*
X147500000Y-98975000D03*
D15*
X153000000Y-104875000D03*
X148000000Y-102775000D03*
%TD*%
D14*
%TO.C,SW9*%
X177550000Y-98975000D03*
D13*
X172050000Y-98975000D03*
D12*
X177050000Y-93825000D03*
D14*
X166550000Y-98975000D03*
D15*
X172050000Y-104875000D03*
X167050000Y-102775000D03*
%TD*%
D18*
%TO.C,REF2*%
X186000000Y-137000000D03*
%TD*%
D12*
%TO.C,SW12*%
X177050000Y-74775000D03*
D14*
X177550000Y-79925000D03*
X166550000Y-79925000D03*
D13*
X172050000Y-79925000D03*
D15*
X172050000Y-85825000D03*
X167050000Y-83725000D03*
%TD*%
D12*
%TO.C,SW2*%
X158000000Y-131925000D03*
D13*
X153000000Y-137075000D03*
D14*
X147500000Y-137075000D03*
X158500000Y-137075000D03*
D15*
X153000000Y-142975000D03*
X148000000Y-140875000D03*
%TD*%
D18*
%TO.C,REF1*%
X120000000Y-137000000D03*
%TD*%
D14*
%TO.C,SW1*%
X128450000Y-137075000D03*
D13*
X133950000Y-137075000D03*
D14*
X139450000Y-137075000D03*
D12*
X138950000Y-131925000D03*
D15*
X133950000Y-142975000D03*
X128950000Y-140875000D03*
%TD*%
D18*
%TO.C,REF3*%
X120000000Y-80000000D03*
%TD*%
D12*
%TO.C,SW3*%
X177050000Y-131925000D03*
D14*
X177550000Y-137075000D03*
D13*
X172050000Y-137075000D03*
D14*
X166550000Y-137075000D03*
D15*
X172050000Y-142975000D03*
X167050000Y-140875000D03*
%TD*%
D18*
%TO.C,REF4*%
X186000000Y-80000000D03*
%TD*%
D13*
%TO.C,SW6*%
X172050000Y-118025000D03*
D14*
X166550000Y-118025000D03*
X177550000Y-118025000D03*
D12*
X177050000Y-112875000D03*
D15*
X172050000Y-123925000D03*
X167050000Y-121825000D03*
%TD*%
D14*
%TO.C,SW4*%
X139450000Y-118025000D03*
D13*
X133950000Y-118025000D03*
D12*
X138950000Y-112875000D03*
D14*
X128450000Y-118025000D03*
D15*
X133950000Y-123925000D03*
X128950000Y-121825000D03*
%TD*%
D14*
%TO.C,SW11*%
X158500000Y-79925000D03*
D12*
X158000000Y-74775000D03*
D14*
X147500000Y-79925000D03*
D13*
X153000000Y-79925000D03*
D15*
X153000000Y-85825000D03*
X148000000Y-83725000D03*
%TD*%
D13*
%TO.C,SW7*%
X133950000Y-98975000D03*
D14*
X128450000Y-98975000D03*
X139450000Y-98975000D03*
D12*
X138950000Y-93825000D03*
D15*
X133950000Y-104875000D03*
X128950000Y-102775000D03*
%TD*%
D19*
%TO.C,D4*%
X143000000Y-114590000D03*
D20*
X143000000Y-122210000D03*
%TD*%
D19*
%TO.C,D3*%
X180000000Y-132590000D03*
D20*
X180000000Y-140210000D03*
%TD*%
D19*
%TO.C,D6*%
X181000000Y-114590000D03*
D20*
X181000000Y-122210000D03*
%TD*%
D21*
%TO.C,C7*%
X135700000Y-89900000D03*
X133800000Y-89900000D03*
%TD*%
%TO.C,C1*%
X135700000Y-127900000D03*
X133800000Y-127900000D03*
%TD*%
%TO.C,C5*%
X154700000Y-108900000D03*
X152800000Y-108900000D03*
%TD*%
D19*
%TO.C,D12*%
X181000000Y-76590000D03*
D20*
X181000000Y-84210000D03*
%TD*%
D21*
%TO.C,C6*%
X173700000Y-108900000D03*
X171800000Y-108900000D03*
%TD*%
D19*
%TO.C,D7*%
X143000000Y-95590000D03*
D20*
X143000000Y-103210000D03*
%TD*%
D19*
%TO.C,D9*%
X181000000Y-95590000D03*
D20*
X181000000Y-103210000D03*
%TD*%
D16*
%TO.C,CN2*%
X128000000Y-150500000D03*
D17*
X125500000Y-150500000D03*
X123000000Y-150500000D03*
%TD*%
D21*
%TO.C,C3*%
X173700000Y-127900000D03*
X171800000Y-127900000D03*
%TD*%
D19*
%TO.C,D11*%
X162000000Y-76590000D03*
D20*
X162000000Y-84210000D03*
%TD*%
D21*
%TO.C,C11*%
X154700000Y-71900000D03*
X152800000Y-71900000D03*
%TD*%
%TO.C,C2*%
X154700000Y-127900000D03*
X152800000Y-127900000D03*
%TD*%
D19*
%TO.C,D2*%
X162000000Y-132590000D03*
D20*
X162000000Y-140210000D03*
%TD*%
D21*
%TO.C,C9*%
X173750000Y-89900000D03*
X171850000Y-89900000D03*
%TD*%
D19*
%TO.C,D10*%
X143000000Y-76590000D03*
D20*
X143000000Y-84210000D03*
%TD*%
D21*
%TO.C,C12*%
X173700000Y-71900000D03*
X171800000Y-71900000D03*
%TD*%
D19*
%TO.C,D1*%
X143000000Y-132590000D03*
D20*
X143000000Y-140210000D03*
%TD*%
D19*
%TO.C,D8*%
X162000000Y-95590000D03*
D20*
X162000000Y-103210000D03*
%TD*%
D21*
%TO.C,C8*%
X154700000Y-89900000D03*
X152800000Y-89900000D03*
%TD*%
%TO.C,C10*%
X135700000Y-71900000D03*
X133800000Y-71900000D03*
%TD*%
%TO.C,C4*%
X135700000Y-108900000D03*
X133800000Y-108900000D03*
%TD*%
D19*
%TO.C,D5*%
X162000000Y-114590000D03*
D20*
X162000000Y-122210000D03*
%TD*%
M02*
