%FSLAX45Y45*%
G04 Gerber Fmt 4.5, Leading zero omitted, Abs format (unit mm)*
G04 Created by KiCad (PCBNEW (6.0.1)) date 2022-02-13 15:50:42*
%MOMM*%
%LPD*%
G01*
G04 APERTURE LIST*
%TA.AperFunction,Profile*%
%ADD10C,0.100000*%
%TD*%
%TA.AperFunction,Profile*%
%ADD11C,0.200000*%
%TD*%
%ADD12C,0.200000*%
%ADD13C,0.040000*%
%ADD14C,0.080000*%
%ADD15C,0.095000*%
%ADD16C,0.127000*%
G04 APERTURE END LIST*
D10*
X6700000Y9400000D02*
G75*
G03*
X6700000Y9400000I0J0D01*
G01*
D11*
X19000000Y-7000000D02*
X11600000Y-7000000D01*
X11600000Y-7000000D02*
X11600000Y-15700000D01*
X11600000Y-15700000D02*
X19000000Y-15700000D01*
X19000000Y-15700000D02*
X19000000Y-7000000D01*
D12*
D13*
X13380000Y-7620000D02*
X13420000Y-7660000D01*
X13420000Y-7620000D02*
X13380000Y-7660000D01*
X13380000Y-9495000D02*
X13420000Y-9535000D01*
X13420000Y-9495000D02*
X13380000Y-9535000D01*
X13380000Y-11420000D02*
X13420000Y-11460000D01*
X13420000Y-11420000D02*
X13380000Y-11460000D01*
X13555000Y-7295000D02*
X13595000Y-7335000D01*
X13595000Y-7295000D02*
X13555000Y-7335000D01*
X13555000Y-9145000D02*
X13595000Y-9185000D01*
X13595000Y-9145000D02*
X13555000Y-9185000D01*
X13555000Y-11045000D02*
X13595000Y-11085000D01*
X13595000Y-11045000D02*
X13555000Y-11085000D01*
X13555000Y-12945000D02*
X13595000Y-12985000D01*
X13595000Y-12945000D02*
X13555000Y-12985000D01*
X14280000Y-9295000D02*
X14320000Y-9335000D01*
X14320000Y-9295000D02*
X14280000Y-9335000D01*
X14455000Y-13070000D02*
X14495000Y-13110000D01*
X14495000Y-13070000D02*
X14455000Y-13110000D01*
X14580000Y-9420000D02*
X14620000Y-9460000D01*
X14620000Y-9420000D02*
X14580000Y-9460000D01*
X14580000Y-9645000D02*
X14620000Y-9685000D01*
X14620000Y-9645000D02*
X14580000Y-9685000D01*
X14605000Y-11320000D02*
X14645000Y-11360000D01*
X14645000Y-11320000D02*
X14605000Y-11360000D01*
X14605000Y-11520000D02*
X14645000Y-11560000D01*
X14645000Y-11520000D02*
X14605000Y-11560000D01*
X14607458Y-13212542D02*
X14647458Y-13252542D01*
X14647458Y-13212542D02*
X14607458Y-13252542D01*
X14607458Y-13370000D02*
X14647458Y-13410000D01*
X14647458Y-13370000D02*
X14607458Y-13410000D01*
X14830000Y-7470000D02*
X14870000Y-7510000D01*
X14870000Y-7470000D02*
X14830000Y-7510000D01*
X14830000Y-8795000D02*
X14870000Y-8835000D01*
X14870000Y-8795000D02*
X14830000Y-8835000D01*
X14830000Y-10695000D02*
X14870000Y-10735000D01*
X14870000Y-10695000D02*
X14830000Y-10735000D01*
X14830000Y-12645000D02*
X14870000Y-12685000D01*
X14870000Y-12645000D02*
X14830000Y-12685000D01*
X14855000Y-9620000D02*
X14895000Y-9660000D01*
X14895000Y-9620000D02*
X14855000Y-9660000D01*
X14880000Y-11545000D02*
X14920000Y-11585000D01*
X14920000Y-11545000D02*
X14880000Y-11585000D01*
X14880000Y-13070000D02*
X14920000Y-13110000D01*
X14920000Y-13070000D02*
X14880000Y-13110000D01*
X15455000Y-7295000D02*
X15495000Y-7335000D01*
X15495000Y-7295000D02*
X15455000Y-7335000D01*
X15455000Y-9145000D02*
X15495000Y-9185000D01*
X15495000Y-9145000D02*
X15455000Y-9185000D01*
X15455000Y-11045000D02*
X15495000Y-11085000D01*
X15495000Y-11045000D02*
X15455000Y-11085000D01*
X15455000Y-12945000D02*
X15495000Y-12985000D01*
X15495000Y-12945000D02*
X15455000Y-12985000D01*
X15630000Y-9245000D02*
X15670000Y-9285000D01*
X15670000Y-9245000D02*
X15630000Y-9285000D01*
X15630000Y-11145000D02*
X15670000Y-11185000D01*
X15670000Y-11145000D02*
X15630000Y-11185000D01*
X15705000Y-13045000D02*
X15745000Y-13085000D01*
X15745000Y-13045000D02*
X15705000Y-13085000D01*
X16180000Y-9345000D02*
X16220000Y-9385000D01*
X16220000Y-9345000D02*
X16180000Y-9385000D01*
X16455000Y-9395000D02*
X16495000Y-9435000D01*
X16495000Y-9395000D02*
X16455000Y-9435000D01*
X16455000Y-9645000D02*
X16495000Y-9685000D01*
X16495000Y-9645000D02*
X16455000Y-9685000D01*
X16505000Y-13220000D02*
X16545000Y-13260000D01*
X16545000Y-13220000D02*
X16505000Y-13260000D01*
X16505000Y-13370000D02*
X16545000Y-13410000D01*
X16545000Y-13370000D02*
X16505000Y-13410000D01*
X16512458Y-11362542D02*
X16552458Y-11402542D01*
X16552458Y-11362542D02*
X16512458Y-11402542D01*
X16512458Y-11537542D02*
X16552458Y-11577542D01*
X16552458Y-11537542D02*
X16512458Y-11577542D01*
X16730000Y-7470000D02*
X16770000Y-7510000D01*
X16770000Y-7470000D02*
X16730000Y-7510000D01*
X17180000Y-9395000D02*
X17220000Y-9435000D01*
X17220000Y-9395000D02*
X17180000Y-9435000D01*
X17180000Y-11320000D02*
X17220000Y-11360000D01*
X17220000Y-11320000D02*
X17180000Y-11360000D01*
X17180000Y-13220000D02*
X17220000Y-13260000D01*
X17220000Y-13220000D02*
X17180000Y-13260000D01*
X17355000Y-7295000D02*
X17395000Y-7335000D01*
X17395000Y-7295000D02*
X17355000Y-7335000D01*
X17355000Y-9145000D02*
X17395000Y-9185000D01*
X17395000Y-9145000D02*
X17355000Y-9185000D01*
X17355000Y-11045000D02*
X17395000Y-11085000D01*
X17395000Y-11045000D02*
X17355000Y-11085000D01*
X17355000Y-12945000D02*
X17395000Y-12985000D01*
X17395000Y-12945000D02*
X17355000Y-12985000D01*
D14*
X14340000Y-7659000D02*
G75*
G03*
X14340000Y-7659000I-40000J0D01*
G01*
X14340000Y-8421000D02*
G75*
G03*
X14340000Y-8421000I-40000J0D01*
G01*
X14340000Y-9559000D02*
G75*
G03*
X14340000Y-9559000I-40000J0D01*
G01*
X14340000Y-10321000D02*
G75*
G03*
X14340000Y-10321000I-40000J0D01*
G01*
X14340000Y-11459000D02*
G75*
G03*
X14340000Y-11459000I-40000J0D01*
G01*
X14340000Y-12221000D02*
G75*
G03*
X14340000Y-12221000I-40000J0D01*
G01*
X14340000Y-13259000D02*
G75*
G03*
X14340000Y-13259000I-40000J0D01*
G01*
X14340000Y-14021000D02*
G75*
G03*
X14340000Y-14021000I-40000J0D01*
G01*
X16240000Y-7659000D02*
G75*
G03*
X16240000Y-7659000I-40000J0D01*
G01*
X16240000Y-8421000D02*
G75*
G03*
X16240000Y-8421000I-40000J0D01*
G01*
X16240000Y-9559000D02*
G75*
G03*
X16240000Y-9559000I-40000J0D01*
G01*
X16240000Y-10321000D02*
G75*
G03*
X16240000Y-10321000I-40000J0D01*
G01*
X16240000Y-11459000D02*
G75*
G03*
X16240000Y-11459000I-40000J0D01*
G01*
X16240000Y-12221000D02*
G75*
G03*
X16240000Y-12221000I-40000J0D01*
G01*
X16240000Y-13259000D02*
G75*
G03*
X16240000Y-13259000I-40000J0D01*
G01*
X16240000Y-14021000D02*
G75*
G03*
X16240000Y-14021000I-40000J0D01*
G01*
X18040000Y-13259000D02*
G75*
G03*
X18040000Y-13259000I-40000J0D01*
G01*
X18040000Y-14021000D02*
G75*
G03*
X18040000Y-14021000I-40000J0D01*
G01*
X18140000Y-7659000D02*
G75*
G03*
X18140000Y-7659000I-40000J0D01*
G01*
X18140000Y-8421000D02*
G75*
G03*
X18140000Y-8421000I-40000J0D01*
G01*
X18140000Y-9559000D02*
G75*
G03*
X18140000Y-9559000I-40000J0D01*
G01*
X18140000Y-10321000D02*
G75*
G03*
X18140000Y-10321000I-40000J0D01*
G01*
X18140000Y-11459000D02*
G75*
G03*
X18140000Y-11459000I-40000J0D01*
G01*
X18140000Y-12221000D02*
G75*
G03*
X18140000Y-12221000I-40000J0D01*
G01*
D15*
X12300000Y-15002500D02*
X12300000Y-15097500D01*
X12252500Y-15050000D02*
X12347500Y-15050000D01*
X12550000Y-15002500D02*
X12550000Y-15097500D01*
X12502500Y-15050000D02*
X12597500Y-15050000D01*
X12800000Y-15002500D02*
X12800000Y-15097500D01*
X12752500Y-15050000D02*
X12847500Y-15050000D01*
X14425000Y-14949250D02*
X14425000Y-15044250D01*
X14377500Y-14996750D02*
X14472500Y-14996750D01*
X14675000Y-14949250D02*
X14675000Y-15044250D01*
X14627500Y-14996750D02*
X14722500Y-14996750D01*
X14925000Y-14949250D02*
X14925000Y-15044250D01*
X14877500Y-14996750D02*
X14972500Y-14996750D01*
X15175000Y-14949250D02*
X15175000Y-15044250D01*
X15127500Y-14996750D02*
X15222500Y-14996750D01*
X15425000Y-14949250D02*
X15425000Y-15044250D01*
X15377500Y-14996750D02*
X15472500Y-14996750D01*
X15675000Y-14949250D02*
X15675000Y-15044250D01*
X15627500Y-14996750D02*
X15722500Y-14996750D01*
X15925000Y-14949250D02*
X15925000Y-15044250D01*
X15877500Y-14996750D02*
X15972500Y-14996750D01*
X16175000Y-14949250D02*
X16175000Y-15044250D01*
X16127500Y-14996750D02*
X16222500Y-14996750D01*
D16*
X12939902Y-8417402D02*
X12939902Y-8327598D01*
X12850098Y-8327598D01*
X12850098Y-8417402D01*
X12939902Y-8417402D01*
X12939902Y-10322402D02*
X12939902Y-10232598D01*
X12850098Y-10232598D01*
X12850098Y-10322402D01*
X12939902Y-10322402D01*
X12939902Y-12227402D02*
X12939902Y-12137598D01*
X12850098Y-12137598D01*
X12850098Y-12227402D01*
X12939902Y-12227402D01*
X12939902Y-14132402D02*
X12939902Y-14042598D01*
X12850098Y-14042598D01*
X12850098Y-14132402D01*
X12939902Y-14132402D01*
X13439902Y-8627402D02*
X13439902Y-8537598D01*
X13350098Y-8537598D01*
X13350098Y-8627402D01*
X13439902Y-8627402D01*
X13439902Y-10532402D02*
X13439902Y-10442598D01*
X13350098Y-10442598D01*
X13350098Y-10532402D01*
X13439902Y-10532402D01*
X13439902Y-12437402D02*
X13439902Y-12347598D01*
X13350098Y-12347598D01*
X13350098Y-12437402D01*
X13439902Y-12437402D01*
X13439902Y-14342402D02*
X13439902Y-14252598D01*
X13350098Y-14252598D01*
X13350098Y-14342402D01*
X13439902Y-14342402D01*
X14844902Y-8417402D02*
X14844902Y-8327598D01*
X14755098Y-8327598D01*
X14755098Y-8417402D01*
X14844902Y-8417402D01*
X14844902Y-10322402D02*
X14844902Y-10232598D01*
X14755098Y-10232598D01*
X14755098Y-10322402D01*
X14844902Y-10322402D01*
X14844902Y-12227402D02*
X14844902Y-12137598D01*
X14755098Y-12137598D01*
X14755098Y-12227402D01*
X14844902Y-12227402D01*
X14844902Y-14132402D02*
X14844902Y-14042598D01*
X14755098Y-14042598D01*
X14755098Y-14132402D01*
X14844902Y-14132402D01*
X15344902Y-8627402D02*
X15344902Y-8537598D01*
X15255098Y-8537598D01*
X15255098Y-8627402D01*
X15344902Y-8627402D01*
X15344902Y-10532402D02*
X15344902Y-10442598D01*
X15255098Y-10442598D01*
X15255098Y-10532402D01*
X15344902Y-10532402D01*
X15344902Y-12437402D02*
X15344902Y-12347598D01*
X15255098Y-12347598D01*
X15255098Y-12437402D01*
X15344902Y-12437402D01*
X15344902Y-14342402D02*
X15344902Y-14252598D01*
X15255098Y-14252598D01*
X15255098Y-14342402D01*
X15344902Y-14342402D01*
X16749902Y-8417402D02*
X16749902Y-8327598D01*
X16660098Y-8327598D01*
X16660098Y-8417402D01*
X16749902Y-8417402D01*
X16749902Y-10322402D02*
X16749902Y-10232598D01*
X16660098Y-10232598D01*
X16660098Y-10322402D01*
X16749902Y-10322402D01*
X16749902Y-12227402D02*
X16749902Y-12137598D01*
X16660098Y-12137598D01*
X16660098Y-12227402D01*
X16749902Y-12227402D01*
X16749902Y-14132402D02*
X16749902Y-14042598D01*
X16660098Y-14042598D01*
X16660098Y-14132402D01*
X16749902Y-14132402D01*
X17249902Y-8627402D02*
X17249902Y-8537598D01*
X17160098Y-8537598D01*
X17160098Y-8627402D01*
X17249902Y-8627402D01*
X17249902Y-10532402D02*
X17249902Y-10442598D01*
X17160098Y-10442598D01*
X17160098Y-10532402D01*
X17249902Y-10532402D01*
X17249902Y-12437402D02*
X17249902Y-12347598D01*
X17160098Y-12347598D01*
X17160098Y-12437402D01*
X17249902Y-12437402D01*
X17249902Y-14342402D02*
X17249902Y-14252598D01*
X17160098Y-14252598D01*
X17160098Y-14342402D01*
X17249902Y-14342402D01*
D12*
X6952619Y-16020476D02*
X6952619Y-15820476D01*
X7000238Y-15820476D01*
X7028809Y-15830000D01*
X7047857Y-15849048D01*
X7057381Y-15868095D01*
X7066905Y-15906190D01*
X7066905Y-15934762D01*
X7057381Y-15972857D01*
X7047857Y-15991905D01*
X7028809Y-16010952D01*
X7000238Y-16020476D01*
X6952619Y-16020476D01*
X7152619Y-16020476D02*
X7152619Y-15887143D01*
X7152619Y-15925238D02*
X7162143Y-15906190D01*
X7171666Y-15896667D01*
X7190714Y-15887143D01*
X7209762Y-15887143D01*
X7276428Y-16020476D02*
X7276428Y-15887143D01*
X7276428Y-15820476D02*
X7266905Y-15830000D01*
X7276428Y-15839524D01*
X7285952Y-15830000D01*
X7276428Y-15820476D01*
X7276428Y-15839524D01*
X7400238Y-16020476D02*
X7381190Y-16010952D01*
X7371666Y-15991905D01*
X7371666Y-15820476D01*
X7505000Y-16020476D02*
X7485952Y-16010952D01*
X7476428Y-15991905D01*
X7476428Y-15820476D01*
X7733571Y-16020476D02*
X7733571Y-15820476D01*
X7800238Y-15963333D01*
X7866905Y-15820476D01*
X7866905Y-16020476D01*
X8047857Y-16020476D02*
X8047857Y-15915714D01*
X8038333Y-15896667D01*
X8019286Y-15887143D01*
X7981190Y-15887143D01*
X7962143Y-15896667D01*
X8047857Y-16010952D02*
X8028809Y-16020476D01*
X7981190Y-16020476D01*
X7962143Y-16010952D01*
X7952619Y-15991905D01*
X7952619Y-15972857D01*
X7962143Y-15953809D01*
X7981190Y-15944286D01*
X8028809Y-15944286D01*
X8047857Y-15934762D01*
X8143095Y-15887143D02*
X8143095Y-16087143D01*
X8143095Y-15896667D02*
X8162143Y-15887143D01*
X8200238Y-15887143D01*
X8219286Y-15896667D01*
X8228809Y-15906190D01*
X8238333Y-15925238D01*
X8238333Y-15982381D01*
X8228809Y-16001428D01*
X8219286Y-16010952D01*
X8200238Y-16020476D01*
X8162143Y-16020476D01*
X8143095Y-16010952D01*
X8324047Y-16001428D02*
X8333571Y-16010952D01*
X8324047Y-16020476D01*
X8314524Y-16010952D01*
X8324047Y-16001428D01*
X8324047Y-16020476D01*
X8324047Y-15896667D02*
X8333571Y-15906190D01*
X8324047Y-15915714D01*
X8314524Y-15906190D01*
X8324047Y-15896667D01*
X8324047Y-15915714D01*
D13*
X6655000Y-16330000D02*
X6695000Y-16370000D01*
X6695000Y-16330000D02*
X6655000Y-16370000D01*
D12*
X6990714Y-16240476D02*
X7009762Y-16240476D01*
X7028809Y-16250000D01*
X7038333Y-16259524D01*
X7047857Y-16278571D01*
X7057381Y-16316667D01*
X7057381Y-16364286D01*
X7047857Y-16402381D01*
X7038333Y-16421428D01*
X7028809Y-16430952D01*
X7009762Y-16440476D01*
X6990714Y-16440476D01*
X6971666Y-16430952D01*
X6962143Y-16421428D01*
X6952619Y-16402381D01*
X6943095Y-16364286D01*
X6943095Y-16316667D01*
X6952619Y-16278571D01*
X6962143Y-16259524D01*
X6971666Y-16250000D01*
X6990714Y-16240476D01*
X7143095Y-16421428D02*
X7152619Y-16430952D01*
X7143095Y-16440476D01*
X7133571Y-16430952D01*
X7143095Y-16421428D01*
X7143095Y-16440476D01*
X7324047Y-16307143D02*
X7324047Y-16440476D01*
X7276428Y-16230952D02*
X7228809Y-16373809D01*
X7352619Y-16373809D01*
X7466905Y-16240476D02*
X7485952Y-16240476D01*
X7505000Y-16250000D01*
X7514524Y-16259524D01*
X7524047Y-16278571D01*
X7533571Y-16316667D01*
X7533571Y-16364286D01*
X7524047Y-16402381D01*
X7514524Y-16421428D01*
X7505000Y-16430952D01*
X7485952Y-16440476D01*
X7466905Y-16440476D01*
X7447857Y-16430952D01*
X7438333Y-16421428D01*
X7428809Y-16402381D01*
X7419286Y-16364286D01*
X7419286Y-16316667D01*
X7428809Y-16278571D01*
X7438333Y-16259524D01*
X7447857Y-16250000D01*
X7466905Y-16240476D01*
X7657381Y-16240476D02*
X7676428Y-16240476D01*
X7695476Y-16250000D01*
X7705000Y-16259524D01*
X7714524Y-16278571D01*
X7724047Y-16316667D01*
X7724047Y-16364286D01*
X7714524Y-16402381D01*
X7705000Y-16421428D01*
X7695476Y-16430952D01*
X7676428Y-16440476D01*
X7657381Y-16440476D01*
X7638333Y-16430952D01*
X7628809Y-16421428D01*
X7619286Y-16402381D01*
X7609762Y-16364286D01*
X7609762Y-16316667D01*
X7619286Y-16278571D01*
X7628809Y-16259524D01*
X7638333Y-16250000D01*
X7657381Y-16240476D01*
X7809762Y-16440476D02*
X7809762Y-16307143D01*
X7809762Y-16326190D02*
X7819286Y-16316667D01*
X7838333Y-16307143D01*
X7866905Y-16307143D01*
X7885952Y-16316667D01*
X7895476Y-16335714D01*
X7895476Y-16440476D01*
X7895476Y-16335714D02*
X7905000Y-16316667D01*
X7924047Y-16307143D01*
X7952619Y-16307143D01*
X7971666Y-16316667D01*
X7981190Y-16335714D01*
X7981190Y-16440476D01*
X8076428Y-16440476D02*
X8076428Y-16307143D01*
X8076428Y-16326190D02*
X8085952Y-16316667D01*
X8105000Y-16307143D01*
X8133571Y-16307143D01*
X8152619Y-16316667D01*
X8162143Y-16335714D01*
X8162143Y-16440476D01*
X8162143Y-16335714D02*
X8171666Y-16316667D01*
X8190714Y-16307143D01*
X8219286Y-16307143D01*
X8238333Y-16316667D01*
X8247857Y-16335714D01*
X8247857Y-16440476D01*
X8638333Y-16230952D02*
X8466905Y-16488095D01*
X8895476Y-16240476D02*
X8914524Y-16240476D01*
X8933571Y-16250000D01*
X8943095Y-16259524D01*
X8952619Y-16278571D01*
X8962143Y-16316667D01*
X8962143Y-16364286D01*
X8952619Y-16402381D01*
X8943095Y-16421428D01*
X8933571Y-16430952D01*
X8914524Y-16440476D01*
X8895476Y-16440476D01*
X8876428Y-16430952D01*
X8866905Y-16421428D01*
X8857381Y-16402381D01*
X8847857Y-16364286D01*
X8847857Y-16316667D01*
X8857381Y-16278571D01*
X8866905Y-16259524D01*
X8876428Y-16250000D01*
X8895476Y-16240476D01*
X9047857Y-16421428D02*
X9057381Y-16430952D01*
X9047857Y-16440476D01*
X9038333Y-16430952D01*
X9047857Y-16421428D01*
X9047857Y-16440476D01*
X9181190Y-16240476D02*
X9200238Y-16240476D01*
X9219286Y-16250000D01*
X9228809Y-16259524D01*
X9238333Y-16278571D01*
X9247857Y-16316667D01*
X9247857Y-16364286D01*
X9238333Y-16402381D01*
X9228809Y-16421428D01*
X9219286Y-16430952D01*
X9200238Y-16440476D01*
X9181190Y-16440476D01*
X9162143Y-16430952D01*
X9152619Y-16421428D01*
X9143095Y-16402381D01*
X9133571Y-16364286D01*
X9133571Y-16316667D01*
X9143095Y-16278571D01*
X9152619Y-16259524D01*
X9162143Y-16250000D01*
X9181190Y-16240476D01*
X9438333Y-16440476D02*
X9324048Y-16440476D01*
X9381190Y-16440476D02*
X9381190Y-16240476D01*
X9362143Y-16269048D01*
X9343095Y-16288095D01*
X9324048Y-16297619D01*
X9619286Y-16240476D02*
X9524048Y-16240476D01*
X9514524Y-16335714D01*
X9524048Y-16326190D01*
X9543095Y-16316667D01*
X9590714Y-16316667D01*
X9609762Y-16326190D01*
X9619286Y-16335714D01*
X9628809Y-16354762D01*
X9628809Y-16402381D01*
X9619286Y-16421428D01*
X9609762Y-16430952D01*
X9590714Y-16440476D01*
X9543095Y-16440476D01*
X9524048Y-16430952D01*
X9514524Y-16421428D01*
X9695476Y-16240476D02*
X9828809Y-16240476D01*
X9743095Y-16440476D01*
X9895476Y-16240476D02*
X9895476Y-16278571D01*
X9971667Y-16240476D02*
X9971667Y-16278571D01*
X10266905Y-16516667D02*
X10257381Y-16507143D01*
X10238333Y-16478571D01*
X10228809Y-16459524D01*
X10219286Y-16430952D01*
X10209762Y-16383333D01*
X10209762Y-16345238D01*
X10219286Y-16297619D01*
X10228809Y-16269048D01*
X10238333Y-16250000D01*
X10257381Y-16221428D01*
X10266905Y-16211905D01*
X10428809Y-16307143D02*
X10428809Y-16440476D01*
X10381190Y-16230952D02*
X10333571Y-16373809D01*
X10457381Y-16373809D01*
X10619286Y-16307143D02*
X10619286Y-16440476D01*
X10571667Y-16230952D02*
X10524048Y-16373809D01*
X10647857Y-16373809D01*
X10876428Y-16440476D02*
X10876428Y-16240476D01*
X10962143Y-16440476D02*
X10962143Y-16335714D01*
X10952619Y-16316667D01*
X10933571Y-16307143D01*
X10905000Y-16307143D01*
X10885952Y-16316667D01*
X10876428Y-16326190D01*
X11085952Y-16440476D02*
X11066905Y-16430952D01*
X11057381Y-16421428D01*
X11047857Y-16402381D01*
X11047857Y-16345238D01*
X11057381Y-16326190D01*
X11066905Y-16316667D01*
X11085952Y-16307143D01*
X11114524Y-16307143D01*
X11133571Y-16316667D01*
X11143095Y-16326190D01*
X11152619Y-16345238D01*
X11152619Y-16402381D01*
X11143095Y-16421428D01*
X11133571Y-16430952D01*
X11114524Y-16440476D01*
X11085952Y-16440476D01*
X11266905Y-16440476D02*
X11247857Y-16430952D01*
X11238333Y-16411905D01*
X11238333Y-16240476D01*
X11419286Y-16430952D02*
X11400238Y-16440476D01*
X11362143Y-16440476D01*
X11343095Y-16430952D01*
X11333571Y-16411905D01*
X11333571Y-16335714D01*
X11343095Y-16316667D01*
X11362143Y-16307143D01*
X11400238Y-16307143D01*
X11419286Y-16316667D01*
X11428809Y-16335714D01*
X11428809Y-16354762D01*
X11333571Y-16373809D01*
X11505000Y-16430952D02*
X11524047Y-16440476D01*
X11562143Y-16440476D01*
X11581190Y-16430952D01*
X11590714Y-16411905D01*
X11590714Y-16402381D01*
X11581190Y-16383333D01*
X11562143Y-16373809D01*
X11533571Y-16373809D01*
X11514524Y-16364286D01*
X11505000Y-16345238D01*
X11505000Y-16335714D01*
X11514524Y-16316667D01*
X11533571Y-16307143D01*
X11562143Y-16307143D01*
X11581190Y-16316667D01*
X11657381Y-16516667D02*
X11666905Y-16507143D01*
X11685952Y-16478571D01*
X11695476Y-16459524D01*
X11705000Y-16430952D01*
X11714524Y-16383333D01*
X11714524Y-16345238D01*
X11705000Y-16297619D01*
X11695476Y-16269048D01*
X11685952Y-16250000D01*
X11666905Y-16221428D01*
X11657381Y-16211905D01*
D14*
X6695000Y-16614000D02*
G75*
G03*
X6695000Y-16614000I-40000J0D01*
G01*
D12*
X6990714Y-16504476D02*
X7009762Y-16504476D01*
X7028809Y-16514000D01*
X7038333Y-16523524D01*
X7047857Y-16542571D01*
X7057381Y-16580667D01*
X7057381Y-16628286D01*
X7047857Y-16666381D01*
X7038333Y-16685428D01*
X7028809Y-16694952D01*
X7009762Y-16704476D01*
X6990714Y-16704476D01*
X6971666Y-16694952D01*
X6962143Y-16685428D01*
X6952619Y-16666381D01*
X6943095Y-16628286D01*
X6943095Y-16580667D01*
X6952619Y-16542571D01*
X6962143Y-16523524D01*
X6971666Y-16514000D01*
X6990714Y-16504476D01*
X7143095Y-16685428D02*
X7152619Y-16694952D01*
X7143095Y-16704476D01*
X7133571Y-16694952D01*
X7143095Y-16685428D01*
X7143095Y-16704476D01*
X7266905Y-16590190D02*
X7247857Y-16580667D01*
X7238333Y-16571143D01*
X7228809Y-16552095D01*
X7228809Y-16542571D01*
X7238333Y-16523524D01*
X7247857Y-16514000D01*
X7266905Y-16504476D01*
X7305000Y-16504476D01*
X7324047Y-16514000D01*
X7333571Y-16523524D01*
X7343095Y-16542571D01*
X7343095Y-16552095D01*
X7333571Y-16571143D01*
X7324047Y-16580667D01*
X7305000Y-16590190D01*
X7266905Y-16590190D01*
X7247857Y-16599714D01*
X7238333Y-16609238D01*
X7228809Y-16628286D01*
X7228809Y-16666381D01*
X7238333Y-16685428D01*
X7247857Y-16694952D01*
X7266905Y-16704476D01*
X7305000Y-16704476D01*
X7324047Y-16694952D01*
X7333571Y-16685428D01*
X7343095Y-16666381D01*
X7343095Y-16628286D01*
X7333571Y-16609238D01*
X7324047Y-16599714D01*
X7305000Y-16590190D01*
X7466905Y-16504476D02*
X7485952Y-16504476D01*
X7505000Y-16514000D01*
X7514524Y-16523524D01*
X7524047Y-16542571D01*
X7533571Y-16580667D01*
X7533571Y-16628286D01*
X7524047Y-16666381D01*
X7514524Y-16685428D01*
X7505000Y-16694952D01*
X7485952Y-16704476D01*
X7466905Y-16704476D01*
X7447857Y-16694952D01*
X7438333Y-16685428D01*
X7428809Y-16666381D01*
X7419286Y-16628286D01*
X7419286Y-16580667D01*
X7428809Y-16542571D01*
X7438333Y-16523524D01*
X7447857Y-16514000D01*
X7466905Y-16504476D01*
X7657381Y-16504476D02*
X7676428Y-16504476D01*
X7695476Y-16514000D01*
X7705000Y-16523524D01*
X7714524Y-16542571D01*
X7724047Y-16580667D01*
X7724047Y-16628286D01*
X7714524Y-16666381D01*
X7705000Y-16685428D01*
X7695476Y-16694952D01*
X7676428Y-16704476D01*
X7657381Y-16704476D01*
X7638333Y-16694952D01*
X7628809Y-16685428D01*
X7619286Y-16666381D01*
X7609762Y-16628286D01*
X7609762Y-16580667D01*
X7619286Y-16542571D01*
X7628809Y-16523524D01*
X7638333Y-16514000D01*
X7657381Y-16504476D01*
X7809762Y-16704476D02*
X7809762Y-16571143D01*
X7809762Y-16590190D02*
X7819286Y-16580667D01*
X7838333Y-16571143D01*
X7866905Y-16571143D01*
X7885952Y-16580667D01*
X7895476Y-16599714D01*
X7895476Y-16704476D01*
X7895476Y-16599714D02*
X7905000Y-16580667D01*
X7924047Y-16571143D01*
X7952619Y-16571143D01*
X7971666Y-16580667D01*
X7981190Y-16599714D01*
X7981190Y-16704476D01*
X8076428Y-16704476D02*
X8076428Y-16571143D01*
X8076428Y-16590190D02*
X8085952Y-16580667D01*
X8105000Y-16571143D01*
X8133571Y-16571143D01*
X8152619Y-16580667D01*
X8162143Y-16599714D01*
X8162143Y-16704476D01*
X8162143Y-16599714D02*
X8171666Y-16580667D01*
X8190714Y-16571143D01*
X8219286Y-16571143D01*
X8238333Y-16580667D01*
X8247857Y-16599714D01*
X8247857Y-16704476D01*
X8638333Y-16494952D02*
X8466905Y-16752095D01*
X8895476Y-16504476D02*
X8914524Y-16504476D01*
X8933571Y-16514000D01*
X8943095Y-16523524D01*
X8952619Y-16542571D01*
X8962143Y-16580667D01*
X8962143Y-16628286D01*
X8952619Y-16666381D01*
X8943095Y-16685428D01*
X8933571Y-16694952D01*
X8914524Y-16704476D01*
X8895476Y-16704476D01*
X8876428Y-16694952D01*
X8866905Y-16685428D01*
X8857381Y-16666381D01*
X8847857Y-16628286D01*
X8847857Y-16580667D01*
X8857381Y-16542571D01*
X8866905Y-16523524D01*
X8876428Y-16514000D01*
X8895476Y-16504476D01*
X9047857Y-16685428D02*
X9057381Y-16694952D01*
X9047857Y-16704476D01*
X9038333Y-16694952D01*
X9047857Y-16685428D01*
X9047857Y-16704476D01*
X9181190Y-16504476D02*
X9200238Y-16504476D01*
X9219286Y-16514000D01*
X9228809Y-16523524D01*
X9238333Y-16542571D01*
X9247857Y-16580667D01*
X9247857Y-16628286D01*
X9238333Y-16666381D01*
X9228809Y-16685428D01*
X9219286Y-16694952D01*
X9200238Y-16704476D01*
X9181190Y-16704476D01*
X9162143Y-16694952D01*
X9152619Y-16685428D01*
X9143095Y-16666381D01*
X9133571Y-16628286D01*
X9133571Y-16580667D01*
X9143095Y-16542571D01*
X9152619Y-16523524D01*
X9162143Y-16514000D01*
X9181190Y-16504476D01*
X9314524Y-16504476D02*
X9438333Y-16504476D01*
X9371667Y-16580667D01*
X9400238Y-16580667D01*
X9419286Y-16590190D01*
X9428809Y-16599714D01*
X9438333Y-16618762D01*
X9438333Y-16666381D01*
X9428809Y-16685428D01*
X9419286Y-16694952D01*
X9400238Y-16704476D01*
X9343095Y-16704476D01*
X9324048Y-16694952D01*
X9314524Y-16685428D01*
X9628809Y-16704476D02*
X9514524Y-16704476D01*
X9571667Y-16704476D02*
X9571667Y-16504476D01*
X9552619Y-16533048D01*
X9533571Y-16552095D01*
X9514524Y-16561619D01*
X9809762Y-16504476D02*
X9714524Y-16504476D01*
X9705000Y-16599714D01*
X9714524Y-16590190D01*
X9733571Y-16580667D01*
X9781190Y-16580667D01*
X9800238Y-16590190D01*
X9809762Y-16599714D01*
X9819286Y-16618762D01*
X9819286Y-16666381D01*
X9809762Y-16685428D01*
X9800238Y-16694952D01*
X9781190Y-16704476D01*
X9733571Y-16704476D01*
X9714524Y-16694952D01*
X9705000Y-16685428D01*
X9895476Y-16504476D02*
X9895476Y-16542571D01*
X9971667Y-16504476D02*
X9971667Y-16542571D01*
X10266905Y-16780667D02*
X10257381Y-16771143D01*
X10238333Y-16742571D01*
X10228809Y-16723524D01*
X10219286Y-16694952D01*
X10209762Y-16647333D01*
X10209762Y-16609238D01*
X10219286Y-16561619D01*
X10228809Y-16533048D01*
X10238333Y-16514000D01*
X10257381Y-16485428D01*
X10266905Y-16475905D01*
X10333571Y-16523524D02*
X10343095Y-16514000D01*
X10362143Y-16504476D01*
X10409762Y-16504476D01*
X10428809Y-16514000D01*
X10438333Y-16523524D01*
X10447857Y-16542571D01*
X10447857Y-16561619D01*
X10438333Y-16590190D01*
X10324048Y-16704476D01*
X10447857Y-16704476D01*
X10619286Y-16571143D02*
X10619286Y-16704476D01*
X10571667Y-16494952D02*
X10524048Y-16637809D01*
X10647857Y-16637809D01*
X10876428Y-16704476D02*
X10876428Y-16504476D01*
X10962143Y-16704476D02*
X10962143Y-16599714D01*
X10952619Y-16580667D01*
X10933571Y-16571143D01*
X10905000Y-16571143D01*
X10885952Y-16580667D01*
X10876428Y-16590190D01*
X11085952Y-16704476D02*
X11066905Y-16694952D01*
X11057381Y-16685428D01*
X11047857Y-16666381D01*
X11047857Y-16609238D01*
X11057381Y-16590190D01*
X11066905Y-16580667D01*
X11085952Y-16571143D01*
X11114524Y-16571143D01*
X11133571Y-16580667D01*
X11143095Y-16590190D01*
X11152619Y-16609238D01*
X11152619Y-16666381D01*
X11143095Y-16685428D01*
X11133571Y-16694952D01*
X11114524Y-16704476D01*
X11085952Y-16704476D01*
X11266905Y-16704476D02*
X11247857Y-16694952D01*
X11238333Y-16675905D01*
X11238333Y-16504476D01*
X11419286Y-16694952D02*
X11400238Y-16704476D01*
X11362143Y-16704476D01*
X11343095Y-16694952D01*
X11333571Y-16675905D01*
X11333571Y-16599714D01*
X11343095Y-16580667D01*
X11362143Y-16571143D01*
X11400238Y-16571143D01*
X11419286Y-16580667D01*
X11428809Y-16599714D01*
X11428809Y-16618762D01*
X11333571Y-16637809D01*
X11505000Y-16694952D02*
X11524047Y-16704476D01*
X11562143Y-16704476D01*
X11581190Y-16694952D01*
X11590714Y-16675905D01*
X11590714Y-16666381D01*
X11581190Y-16647333D01*
X11562143Y-16637809D01*
X11533571Y-16637809D01*
X11514524Y-16628286D01*
X11505000Y-16609238D01*
X11505000Y-16599714D01*
X11514524Y-16580667D01*
X11533571Y-16571143D01*
X11562143Y-16571143D01*
X11581190Y-16580667D01*
X11657381Y-16780667D02*
X11666905Y-16771143D01*
X11685952Y-16742571D01*
X11695476Y-16723524D01*
X11705000Y-16694952D01*
X11714524Y-16647333D01*
X11714524Y-16609238D01*
X11705000Y-16561619D01*
X11695476Y-16533048D01*
X11685952Y-16514000D01*
X11666905Y-16485428D01*
X11657381Y-16475905D01*
D15*
X6647500Y-16830500D02*
X6647500Y-16925500D01*
X6600000Y-16878000D02*
X6695000Y-16878000D01*
D12*
X6990714Y-16768476D02*
X7009762Y-16768476D01*
X7028809Y-16778000D01*
X7038333Y-16787524D01*
X7047857Y-16806571D01*
X7057381Y-16844667D01*
X7057381Y-16892286D01*
X7047857Y-16930381D01*
X7038333Y-16949429D01*
X7028809Y-16958952D01*
X7009762Y-16968476D01*
X6990714Y-16968476D01*
X6971666Y-16958952D01*
X6962143Y-16949429D01*
X6952619Y-16930381D01*
X6943095Y-16892286D01*
X6943095Y-16844667D01*
X6952619Y-16806571D01*
X6962143Y-16787524D01*
X6971666Y-16778000D01*
X6990714Y-16768476D01*
X7143095Y-16949429D02*
X7152619Y-16958952D01*
X7143095Y-16968476D01*
X7133571Y-16958952D01*
X7143095Y-16949429D01*
X7143095Y-16968476D01*
X7247857Y-16968476D02*
X7285952Y-16968476D01*
X7305000Y-16958952D01*
X7314524Y-16949429D01*
X7333571Y-16920857D01*
X7343095Y-16882762D01*
X7343095Y-16806571D01*
X7333571Y-16787524D01*
X7324047Y-16778000D01*
X7305000Y-16768476D01*
X7266905Y-16768476D01*
X7247857Y-16778000D01*
X7238333Y-16787524D01*
X7228809Y-16806571D01*
X7228809Y-16854190D01*
X7238333Y-16873238D01*
X7247857Y-16882762D01*
X7266905Y-16892286D01*
X7305000Y-16892286D01*
X7324047Y-16882762D01*
X7333571Y-16873238D01*
X7343095Y-16854190D01*
X7524047Y-16768476D02*
X7428809Y-16768476D01*
X7419286Y-16863714D01*
X7428809Y-16854190D01*
X7447857Y-16844667D01*
X7495476Y-16844667D01*
X7514524Y-16854190D01*
X7524047Y-16863714D01*
X7533571Y-16882762D01*
X7533571Y-16930381D01*
X7524047Y-16949429D01*
X7514524Y-16958952D01*
X7495476Y-16968476D01*
X7447857Y-16968476D01*
X7428809Y-16958952D01*
X7419286Y-16949429D01*
X7657381Y-16768476D02*
X7676428Y-16768476D01*
X7695476Y-16778000D01*
X7705000Y-16787524D01*
X7714524Y-16806571D01*
X7724047Y-16844667D01*
X7724047Y-16892286D01*
X7714524Y-16930381D01*
X7705000Y-16949429D01*
X7695476Y-16958952D01*
X7676428Y-16968476D01*
X7657381Y-16968476D01*
X7638333Y-16958952D01*
X7628809Y-16949429D01*
X7619286Y-16930381D01*
X7609762Y-16892286D01*
X7609762Y-16844667D01*
X7619286Y-16806571D01*
X7628809Y-16787524D01*
X7638333Y-16778000D01*
X7657381Y-16768476D01*
X7809762Y-16968476D02*
X7809762Y-16835143D01*
X7809762Y-16854190D02*
X7819286Y-16844667D01*
X7838333Y-16835143D01*
X7866905Y-16835143D01*
X7885952Y-16844667D01*
X7895476Y-16863714D01*
X7895476Y-16968476D01*
X7895476Y-16863714D02*
X7905000Y-16844667D01*
X7924047Y-16835143D01*
X7952619Y-16835143D01*
X7971666Y-16844667D01*
X7981190Y-16863714D01*
X7981190Y-16968476D01*
X8076428Y-16968476D02*
X8076428Y-16835143D01*
X8076428Y-16854190D02*
X8085952Y-16844667D01*
X8105000Y-16835143D01*
X8133571Y-16835143D01*
X8152619Y-16844667D01*
X8162143Y-16863714D01*
X8162143Y-16968476D01*
X8162143Y-16863714D02*
X8171666Y-16844667D01*
X8190714Y-16835143D01*
X8219286Y-16835143D01*
X8238333Y-16844667D01*
X8247857Y-16863714D01*
X8247857Y-16968476D01*
X8638333Y-16758952D02*
X8466905Y-17016095D01*
X8895476Y-16768476D02*
X8914524Y-16768476D01*
X8933571Y-16778000D01*
X8943095Y-16787524D01*
X8952619Y-16806571D01*
X8962143Y-16844667D01*
X8962143Y-16892286D01*
X8952619Y-16930381D01*
X8943095Y-16949429D01*
X8933571Y-16958952D01*
X8914524Y-16968476D01*
X8895476Y-16968476D01*
X8876428Y-16958952D01*
X8866905Y-16949429D01*
X8857381Y-16930381D01*
X8847857Y-16892286D01*
X8847857Y-16844667D01*
X8857381Y-16806571D01*
X8866905Y-16787524D01*
X8876428Y-16778000D01*
X8895476Y-16768476D01*
X9047857Y-16949429D02*
X9057381Y-16958952D01*
X9047857Y-16968476D01*
X9038333Y-16958952D01*
X9047857Y-16949429D01*
X9047857Y-16968476D01*
X9181190Y-16768476D02*
X9200238Y-16768476D01*
X9219286Y-16778000D01*
X9228809Y-16787524D01*
X9238333Y-16806571D01*
X9247857Y-16844667D01*
X9247857Y-16892286D01*
X9238333Y-16930381D01*
X9228809Y-16949429D01*
X9219286Y-16958952D01*
X9200238Y-16968476D01*
X9181190Y-16968476D01*
X9162143Y-16958952D01*
X9152619Y-16949429D01*
X9143095Y-16930381D01*
X9133571Y-16892286D01*
X9133571Y-16844667D01*
X9143095Y-16806571D01*
X9152619Y-16787524D01*
X9162143Y-16778000D01*
X9181190Y-16768476D01*
X9314524Y-16768476D02*
X9438333Y-16768476D01*
X9371667Y-16844667D01*
X9400238Y-16844667D01*
X9419286Y-16854190D01*
X9428809Y-16863714D01*
X9438333Y-16882762D01*
X9438333Y-16930381D01*
X9428809Y-16949429D01*
X9419286Y-16958952D01*
X9400238Y-16968476D01*
X9343095Y-16968476D01*
X9324048Y-16958952D01*
X9314524Y-16949429D01*
X9505000Y-16768476D02*
X9638333Y-16768476D01*
X9552619Y-16968476D01*
X9800238Y-16835143D02*
X9800238Y-16968476D01*
X9752619Y-16758952D02*
X9705000Y-16901810D01*
X9828809Y-16901810D01*
X9895476Y-16768476D02*
X9895476Y-16806571D01*
X9971667Y-16768476D02*
X9971667Y-16806571D01*
X10266905Y-17044667D02*
X10257381Y-17035143D01*
X10238333Y-17006571D01*
X10228809Y-16987524D01*
X10219286Y-16958952D01*
X10209762Y-16911333D01*
X10209762Y-16873238D01*
X10219286Y-16825619D01*
X10228809Y-16797048D01*
X10238333Y-16778000D01*
X10257381Y-16749428D01*
X10266905Y-16739905D01*
X10447857Y-16968476D02*
X10333571Y-16968476D01*
X10390714Y-16968476D02*
X10390714Y-16768476D01*
X10371667Y-16797048D01*
X10352619Y-16816095D01*
X10333571Y-16825619D01*
X10638333Y-16968476D02*
X10524048Y-16968476D01*
X10581190Y-16968476D02*
X10581190Y-16768476D01*
X10562143Y-16797048D01*
X10543095Y-16816095D01*
X10524048Y-16825619D01*
X10876428Y-16968476D02*
X10876428Y-16768476D01*
X10962143Y-16968476D02*
X10962143Y-16863714D01*
X10952619Y-16844667D01*
X10933571Y-16835143D01*
X10905000Y-16835143D01*
X10885952Y-16844667D01*
X10876428Y-16854190D01*
X11085952Y-16968476D02*
X11066905Y-16958952D01*
X11057381Y-16949429D01*
X11047857Y-16930381D01*
X11047857Y-16873238D01*
X11057381Y-16854190D01*
X11066905Y-16844667D01*
X11085952Y-16835143D01*
X11114524Y-16835143D01*
X11133571Y-16844667D01*
X11143095Y-16854190D01*
X11152619Y-16873238D01*
X11152619Y-16930381D01*
X11143095Y-16949429D01*
X11133571Y-16958952D01*
X11114524Y-16968476D01*
X11085952Y-16968476D01*
X11266905Y-16968476D02*
X11247857Y-16958952D01*
X11238333Y-16939905D01*
X11238333Y-16768476D01*
X11419286Y-16958952D02*
X11400238Y-16968476D01*
X11362143Y-16968476D01*
X11343095Y-16958952D01*
X11333571Y-16939905D01*
X11333571Y-16863714D01*
X11343095Y-16844667D01*
X11362143Y-16835143D01*
X11400238Y-16835143D01*
X11419286Y-16844667D01*
X11428809Y-16863714D01*
X11428809Y-16882762D01*
X11333571Y-16901810D01*
X11505000Y-16958952D02*
X11524047Y-16968476D01*
X11562143Y-16968476D01*
X11581190Y-16958952D01*
X11590714Y-16939905D01*
X11590714Y-16930381D01*
X11581190Y-16911333D01*
X11562143Y-16901810D01*
X11533571Y-16901810D01*
X11514524Y-16892286D01*
X11505000Y-16873238D01*
X11505000Y-16863714D01*
X11514524Y-16844667D01*
X11533571Y-16835143D01*
X11562143Y-16835143D01*
X11581190Y-16844667D01*
X11657381Y-17044667D02*
X11666905Y-17035143D01*
X11685952Y-17006571D01*
X11695476Y-16987524D01*
X11705000Y-16958952D01*
X11714524Y-16911333D01*
X11714524Y-16873238D01*
X11705000Y-16825619D01*
X11695476Y-16797048D01*
X11685952Y-16778000D01*
X11666905Y-16749428D01*
X11657381Y-16739905D01*
D16*
X6676402Y-17186902D02*
X6676402Y-17097098D01*
X6586598Y-17097098D01*
X6586598Y-17186902D01*
X6676402Y-17186902D01*
D12*
X7057381Y-17232476D02*
X6943095Y-17232476D01*
X7000238Y-17232476D02*
X7000238Y-17032476D01*
X6981190Y-17061048D01*
X6962143Y-17080095D01*
X6943095Y-17089619D01*
X7143095Y-17213429D02*
X7152619Y-17222952D01*
X7143095Y-17232476D01*
X7133571Y-17222952D01*
X7143095Y-17213429D01*
X7143095Y-17232476D01*
X7228809Y-17051524D02*
X7238333Y-17042000D01*
X7257381Y-17032476D01*
X7305000Y-17032476D01*
X7324047Y-17042000D01*
X7333571Y-17051524D01*
X7343095Y-17070571D01*
X7343095Y-17089619D01*
X7333571Y-17118190D01*
X7219286Y-17232476D01*
X7343095Y-17232476D01*
X7409762Y-17032476D02*
X7543095Y-17032476D01*
X7457381Y-17232476D01*
X7657381Y-17032476D02*
X7676428Y-17032476D01*
X7695476Y-17042000D01*
X7705000Y-17051524D01*
X7714524Y-17070571D01*
X7724047Y-17108667D01*
X7724047Y-17156286D01*
X7714524Y-17194381D01*
X7705000Y-17213429D01*
X7695476Y-17222952D01*
X7676428Y-17232476D01*
X7657381Y-17232476D01*
X7638333Y-17222952D01*
X7628809Y-17213429D01*
X7619286Y-17194381D01*
X7609762Y-17156286D01*
X7609762Y-17108667D01*
X7619286Y-17070571D01*
X7628809Y-17051524D01*
X7638333Y-17042000D01*
X7657381Y-17032476D01*
X7809762Y-17232476D02*
X7809762Y-17099143D01*
X7809762Y-17118190D02*
X7819286Y-17108667D01*
X7838333Y-17099143D01*
X7866905Y-17099143D01*
X7885952Y-17108667D01*
X7895476Y-17127714D01*
X7895476Y-17232476D01*
X7895476Y-17127714D02*
X7905000Y-17108667D01*
X7924047Y-17099143D01*
X7952619Y-17099143D01*
X7971666Y-17108667D01*
X7981190Y-17127714D01*
X7981190Y-17232476D01*
X8076428Y-17232476D02*
X8076428Y-17099143D01*
X8076428Y-17118190D02*
X8085952Y-17108667D01*
X8105000Y-17099143D01*
X8133571Y-17099143D01*
X8152619Y-17108667D01*
X8162143Y-17127714D01*
X8162143Y-17232476D01*
X8162143Y-17127714D02*
X8171666Y-17108667D01*
X8190714Y-17099143D01*
X8219286Y-17099143D01*
X8238333Y-17108667D01*
X8247857Y-17127714D01*
X8247857Y-17232476D01*
X8638333Y-17022952D02*
X8466905Y-17280095D01*
X8895476Y-17032476D02*
X8914524Y-17032476D01*
X8933571Y-17042000D01*
X8943095Y-17051524D01*
X8952619Y-17070571D01*
X8962143Y-17108667D01*
X8962143Y-17156286D01*
X8952619Y-17194381D01*
X8943095Y-17213429D01*
X8933571Y-17222952D01*
X8914524Y-17232476D01*
X8895476Y-17232476D01*
X8876428Y-17222952D01*
X8866905Y-17213429D01*
X8857381Y-17194381D01*
X8847857Y-17156286D01*
X8847857Y-17108667D01*
X8857381Y-17070571D01*
X8866905Y-17051524D01*
X8876428Y-17042000D01*
X8895476Y-17032476D01*
X9047857Y-17213429D02*
X9057381Y-17222952D01*
X9047857Y-17232476D01*
X9038333Y-17222952D01*
X9047857Y-17213429D01*
X9047857Y-17232476D01*
X9181190Y-17032476D02*
X9200238Y-17032476D01*
X9219286Y-17042000D01*
X9228809Y-17051524D01*
X9238333Y-17070571D01*
X9247857Y-17108667D01*
X9247857Y-17156286D01*
X9238333Y-17194381D01*
X9228809Y-17213429D01*
X9219286Y-17222952D01*
X9200238Y-17232476D01*
X9181190Y-17232476D01*
X9162143Y-17222952D01*
X9152619Y-17213429D01*
X9143095Y-17194381D01*
X9133571Y-17156286D01*
X9133571Y-17108667D01*
X9143095Y-17070571D01*
X9152619Y-17051524D01*
X9162143Y-17042000D01*
X9181190Y-17032476D01*
X9428809Y-17032476D02*
X9333571Y-17032476D01*
X9324048Y-17127714D01*
X9333571Y-17118190D01*
X9352619Y-17108667D01*
X9400238Y-17108667D01*
X9419286Y-17118190D01*
X9428809Y-17127714D01*
X9438333Y-17146762D01*
X9438333Y-17194381D01*
X9428809Y-17213429D01*
X9419286Y-17222952D01*
X9400238Y-17232476D01*
X9352619Y-17232476D01*
X9333571Y-17222952D01*
X9324048Y-17213429D01*
X9562143Y-17032476D02*
X9581190Y-17032476D01*
X9600238Y-17042000D01*
X9609762Y-17051524D01*
X9619286Y-17070571D01*
X9628809Y-17108667D01*
X9628809Y-17156286D01*
X9619286Y-17194381D01*
X9609762Y-17213429D01*
X9600238Y-17222952D01*
X9581190Y-17232476D01*
X9562143Y-17232476D01*
X9543095Y-17222952D01*
X9533571Y-17213429D01*
X9524048Y-17194381D01*
X9514524Y-17156286D01*
X9514524Y-17108667D01*
X9524048Y-17070571D01*
X9533571Y-17051524D01*
X9543095Y-17042000D01*
X9562143Y-17032476D01*
X9752619Y-17032476D02*
X9771667Y-17032476D01*
X9790714Y-17042000D01*
X9800238Y-17051524D01*
X9809762Y-17070571D01*
X9819286Y-17108667D01*
X9819286Y-17156286D01*
X9809762Y-17194381D01*
X9800238Y-17213429D01*
X9790714Y-17222952D01*
X9771667Y-17232476D01*
X9752619Y-17232476D01*
X9733571Y-17222952D01*
X9724048Y-17213429D01*
X9714524Y-17194381D01*
X9705000Y-17156286D01*
X9705000Y-17108667D01*
X9714524Y-17070571D01*
X9724048Y-17051524D01*
X9733571Y-17042000D01*
X9752619Y-17032476D01*
X9895476Y-17032476D02*
X9895476Y-17070571D01*
X9971667Y-17032476D02*
X9971667Y-17070571D01*
X10266905Y-17308667D02*
X10257381Y-17299143D01*
X10238333Y-17270571D01*
X10228809Y-17251524D01*
X10219286Y-17222952D01*
X10209762Y-17175333D01*
X10209762Y-17137238D01*
X10219286Y-17089619D01*
X10228809Y-17061048D01*
X10238333Y-17042000D01*
X10257381Y-17013429D01*
X10266905Y-17003905D01*
X10333571Y-17051524D02*
X10343095Y-17042000D01*
X10362143Y-17032476D01*
X10409762Y-17032476D01*
X10428809Y-17042000D01*
X10438333Y-17051524D01*
X10447857Y-17070571D01*
X10447857Y-17089619D01*
X10438333Y-17118190D01*
X10324048Y-17232476D01*
X10447857Y-17232476D01*
X10619286Y-17099143D02*
X10619286Y-17232476D01*
X10571667Y-17022952D02*
X10524048Y-17165810D01*
X10647857Y-17165810D01*
X10876428Y-17232476D02*
X10876428Y-17032476D01*
X10962143Y-17232476D02*
X10962143Y-17127714D01*
X10952619Y-17108667D01*
X10933571Y-17099143D01*
X10905000Y-17099143D01*
X10885952Y-17108667D01*
X10876428Y-17118190D01*
X11085952Y-17232476D02*
X11066905Y-17222952D01*
X11057381Y-17213429D01*
X11047857Y-17194381D01*
X11047857Y-17137238D01*
X11057381Y-17118190D01*
X11066905Y-17108667D01*
X11085952Y-17099143D01*
X11114524Y-17099143D01*
X11133571Y-17108667D01*
X11143095Y-17118190D01*
X11152619Y-17137238D01*
X11152619Y-17194381D01*
X11143095Y-17213429D01*
X11133571Y-17222952D01*
X11114524Y-17232476D01*
X11085952Y-17232476D01*
X11266905Y-17232476D02*
X11247857Y-17222952D01*
X11238333Y-17203905D01*
X11238333Y-17032476D01*
X11419286Y-17222952D02*
X11400238Y-17232476D01*
X11362143Y-17232476D01*
X11343095Y-17222952D01*
X11333571Y-17203905D01*
X11333571Y-17127714D01*
X11343095Y-17108667D01*
X11362143Y-17099143D01*
X11400238Y-17099143D01*
X11419286Y-17108667D01*
X11428809Y-17127714D01*
X11428809Y-17146762D01*
X11333571Y-17165810D01*
X11505000Y-17222952D02*
X11524047Y-17232476D01*
X11562143Y-17232476D01*
X11581190Y-17222952D01*
X11590714Y-17203905D01*
X11590714Y-17194381D01*
X11581190Y-17175333D01*
X11562143Y-17165810D01*
X11533571Y-17165810D01*
X11514524Y-17156286D01*
X11505000Y-17137238D01*
X11505000Y-17127714D01*
X11514524Y-17108667D01*
X11533571Y-17099143D01*
X11562143Y-17099143D01*
X11581190Y-17108667D01*
X11657381Y-17308667D02*
X11666905Y-17299143D01*
X11685952Y-17270571D01*
X11695476Y-17251524D01*
X11705000Y-17222952D01*
X11714524Y-17175333D01*
X11714524Y-17137238D01*
X11705000Y-17089619D01*
X11695476Y-17061048D01*
X11685952Y-17042000D01*
X11666905Y-17013429D01*
X11657381Y-17003905D01*
M02*
