%FSLAX45Y45*%
G04 Gerber Fmt 4.5, Leading zero omitted, Abs format (unit mm)*
G04 Created by KiCad (PCBNEW (6.0.1)) date 2022-02-13 15:50:42*
%MOMM*%
%LPD*%
G01*
G04 APERTURE LIST*
%TA.AperFunction,Profile*%
%ADD10C,0.100000*%
%TD*%
%TA.AperFunction,Profile*%
%ADD11C,0.200000*%
%TD*%
%ADD12C,0.200000*%
%ADD13C,0.160000*%
%ADD14C,0.170180*%
%ADD15C,0.350000*%
%ADD16C,0.500000*%
G04 APERTURE END LIST*
D10*
X6700000Y9400000D02*
G75*
G03*
X6700000Y9400000I0J0D01*
G01*
D11*
X19000000Y-7000000D02*
X11600000Y-7000000D01*
X11600000Y-7000000D02*
X11600000Y-15700000D01*
X11600000Y-15700000D02*
X19000000Y-15700000D01*
X19000000Y-15700000D02*
X19000000Y-7000000D01*
D12*
D13*
X13815000Y-7397500D02*
X13975000Y-7557500D01*
X13975000Y-7397500D02*
X13815000Y-7557500D01*
X13815000Y-9302500D02*
X13975000Y-9462500D01*
X13975000Y-9302500D02*
X13815000Y-9462500D01*
X13815000Y-11207500D02*
X13975000Y-11367500D01*
X13975000Y-11207500D02*
X13815000Y-11367500D01*
X13815000Y-13112500D02*
X13975000Y-13272500D01*
X13975000Y-13112500D02*
X13815000Y-13272500D01*
X15720000Y-7397500D02*
X15880000Y-7557500D01*
X15880000Y-7397500D02*
X15720000Y-7557500D01*
X15720000Y-9302500D02*
X15880000Y-9462500D01*
X15880000Y-9302500D02*
X15720000Y-9462500D01*
X15720000Y-11207500D02*
X15880000Y-11367500D01*
X15880000Y-11207500D02*
X15720000Y-11367500D01*
X15720000Y-13112500D02*
X15880000Y-13272500D01*
X15880000Y-13112500D02*
X15720000Y-13272500D01*
X17625000Y-7397500D02*
X17785000Y-7557500D01*
X17785000Y-7397500D02*
X17625000Y-7557500D01*
X17625000Y-9302500D02*
X17785000Y-9462500D01*
X17785000Y-9302500D02*
X17625000Y-9462500D01*
X17625000Y-11207500D02*
X17785000Y-11367500D01*
X17785000Y-11207500D02*
X17625000Y-11367500D01*
X17625000Y-13112500D02*
X17785000Y-13272500D01*
X17785000Y-13112500D02*
X17625000Y-13272500D01*
D14*
X12930090Y-7992500D02*
G75*
G03*
X12930090Y-7992500I-85090J0D01*
G01*
X12930090Y-9897500D02*
G75*
G03*
X12930090Y-9897500I-85090J0D01*
G01*
X12930090Y-11802500D02*
G75*
G03*
X12930090Y-11802500I-85090J0D01*
G01*
X12930090Y-13707500D02*
G75*
G03*
X12930090Y-13707500I-85090J0D01*
G01*
X14030090Y-7992500D02*
G75*
G03*
X14030090Y-7992500I-85090J0D01*
G01*
X14030090Y-9897500D02*
G75*
G03*
X14030090Y-9897500I-85090J0D01*
G01*
X14030090Y-11802500D02*
G75*
G03*
X14030090Y-11802500I-85090J0D01*
G01*
X14030090Y-13707500D02*
G75*
G03*
X14030090Y-13707500I-85090J0D01*
G01*
X14835090Y-7992500D02*
G75*
G03*
X14835090Y-7992500I-85090J0D01*
G01*
X14835090Y-9897500D02*
G75*
G03*
X14835090Y-9897500I-85090J0D01*
G01*
X14835090Y-11802500D02*
G75*
G03*
X14835090Y-11802500I-85090J0D01*
G01*
X14835090Y-13707500D02*
G75*
G03*
X14835090Y-13707500I-85090J0D01*
G01*
X15935090Y-7992500D02*
G75*
G03*
X15935090Y-7992500I-85090J0D01*
G01*
X15935090Y-9897500D02*
G75*
G03*
X15935090Y-9897500I-85090J0D01*
G01*
X15935090Y-11802500D02*
G75*
G03*
X15935090Y-11802500I-85090J0D01*
G01*
X15935090Y-13707500D02*
G75*
G03*
X15935090Y-13707500I-85090J0D01*
G01*
X16740090Y-7992500D02*
G75*
G03*
X16740090Y-7992500I-85090J0D01*
G01*
X16740090Y-9897500D02*
G75*
G03*
X16740090Y-9897500I-85090J0D01*
G01*
X16740090Y-11802500D02*
G75*
G03*
X16740090Y-11802500I-85090J0D01*
G01*
X16740090Y-13707500D02*
G75*
G03*
X16740090Y-13707500I-85090J0D01*
G01*
X17840090Y-7992500D02*
G75*
G03*
X17840090Y-7992500I-85090J0D01*
G01*
X17840090Y-9897500D02*
G75*
G03*
X17840090Y-9897500I-85090J0D01*
G01*
X17840090Y-11802500D02*
G75*
G03*
X17840090Y-11802500I-85090J0D01*
G01*
X17840090Y-13707500D02*
G75*
G03*
X17840090Y-13707500I-85090J0D01*
G01*
D15*
X12000000Y-7825000D02*
X12000000Y-8175000D01*
X11825000Y-8000000D02*
X12175000Y-8000000D01*
X12000000Y-13525000D02*
X12000000Y-13875000D01*
X11825000Y-13700000D02*
X12175000Y-13700000D01*
X18600000Y-7825000D02*
X18600000Y-8175000D01*
X18425000Y-8000000D02*
X18775000Y-8000000D01*
X18600000Y-13525000D02*
X18600000Y-13875000D01*
X18425000Y-13700000D02*
X18775000Y-13700000D01*
D16*
X13571778Y-8169278D02*
X13571778Y-7815722D01*
X13218222Y-7815722D01*
X13218222Y-8169278D01*
X13571778Y-8169278D01*
X13571778Y-10074278D02*
X13571778Y-9720722D01*
X13218222Y-9720722D01*
X13218222Y-10074278D01*
X13571778Y-10074278D01*
X13571778Y-11979278D02*
X13571778Y-11625722D01*
X13218222Y-11625722D01*
X13218222Y-11979278D01*
X13571778Y-11979278D01*
X13571778Y-13884278D02*
X13571778Y-13530722D01*
X13218222Y-13530722D01*
X13218222Y-13884278D01*
X13571778Y-13884278D01*
X15476778Y-8169278D02*
X15476778Y-7815722D01*
X15123222Y-7815722D01*
X15123222Y-8169278D01*
X15476778Y-8169278D01*
X15476778Y-10074278D02*
X15476778Y-9720722D01*
X15123222Y-9720722D01*
X15123222Y-10074278D01*
X15476778Y-10074278D01*
X15476778Y-11979278D02*
X15476778Y-11625722D01*
X15123222Y-11625722D01*
X15123222Y-11979278D01*
X15476778Y-11979278D01*
X15476778Y-13884278D02*
X15476778Y-13530722D01*
X15123222Y-13530722D01*
X15123222Y-13884278D01*
X15476778Y-13884278D01*
X17381778Y-8169278D02*
X17381778Y-7815722D01*
X17028222Y-7815722D01*
X17028222Y-8169278D01*
X17381778Y-8169278D01*
X17381778Y-10074278D02*
X17381778Y-9720722D01*
X17028222Y-9720722D01*
X17028222Y-10074278D01*
X17381778Y-10074278D01*
X17381778Y-11979278D02*
X17381778Y-11625722D01*
X17028222Y-11625722D01*
X17028222Y-11979278D01*
X17381778Y-11979278D01*
X17381778Y-13884278D02*
X17381778Y-13530722D01*
X17028222Y-13530722D01*
X17028222Y-13884278D01*
X17381778Y-13884278D01*
D12*
X6952619Y-16020476D02*
X6952619Y-15820476D01*
X7000238Y-15820476D01*
X7028809Y-15830000D01*
X7047857Y-15849048D01*
X7057381Y-15868095D01*
X7066905Y-15906190D01*
X7066905Y-15934762D01*
X7057381Y-15972857D01*
X7047857Y-15991905D01*
X7028809Y-16010952D01*
X7000238Y-16020476D01*
X6952619Y-16020476D01*
X7152619Y-16020476D02*
X7152619Y-15887143D01*
X7152619Y-15925238D02*
X7162143Y-15906190D01*
X7171666Y-15896667D01*
X7190714Y-15887143D01*
X7209762Y-15887143D01*
X7276428Y-16020476D02*
X7276428Y-15887143D01*
X7276428Y-15820476D02*
X7266905Y-15830000D01*
X7276428Y-15839524D01*
X7285952Y-15830000D01*
X7276428Y-15820476D01*
X7276428Y-15839524D01*
X7400238Y-16020476D02*
X7381190Y-16010952D01*
X7371666Y-15991905D01*
X7371666Y-15820476D01*
X7505000Y-16020476D02*
X7485952Y-16010952D01*
X7476428Y-15991905D01*
X7476428Y-15820476D01*
X7733571Y-16020476D02*
X7733571Y-15820476D01*
X7800238Y-15963333D01*
X7866905Y-15820476D01*
X7866905Y-16020476D01*
X8047857Y-16020476D02*
X8047857Y-15915714D01*
X8038333Y-15896667D01*
X8019286Y-15887143D01*
X7981190Y-15887143D01*
X7962143Y-15896667D01*
X8047857Y-16010952D02*
X8028809Y-16020476D01*
X7981190Y-16020476D01*
X7962143Y-16010952D01*
X7952619Y-15991905D01*
X7952619Y-15972857D01*
X7962143Y-15953809D01*
X7981190Y-15944286D01*
X8028809Y-15944286D01*
X8047857Y-15934762D01*
X8143095Y-15887143D02*
X8143095Y-16087143D01*
X8143095Y-15896667D02*
X8162143Y-15887143D01*
X8200238Y-15887143D01*
X8219286Y-15896667D01*
X8228809Y-15906190D01*
X8238333Y-15925238D01*
X8238333Y-15982381D01*
X8228809Y-16001428D01*
X8219286Y-16010952D01*
X8200238Y-16020476D01*
X8162143Y-16020476D01*
X8143095Y-16010952D01*
X8324047Y-16001428D02*
X8333571Y-16010952D01*
X8324047Y-16020476D01*
X8314524Y-16010952D01*
X8324047Y-16001428D01*
X8324047Y-16020476D01*
X8324047Y-15896667D02*
X8333571Y-15906190D01*
X8324047Y-15915714D01*
X8314524Y-15906190D01*
X8324047Y-15896667D01*
X8324047Y-15915714D01*
D13*
X6535000Y-16270000D02*
X6695000Y-16430000D01*
X6695000Y-16270000D02*
X6535000Y-16430000D01*
D12*
X7057381Y-16440476D02*
X6943095Y-16440476D01*
X7000238Y-16440476D02*
X7000238Y-16240476D01*
X6981190Y-16269048D01*
X6962143Y-16288095D01*
X6943095Y-16297619D01*
X7143095Y-16421428D02*
X7152619Y-16430952D01*
X7143095Y-16440476D01*
X7133571Y-16430952D01*
X7143095Y-16421428D01*
X7143095Y-16440476D01*
X7324047Y-16240476D02*
X7285952Y-16240476D01*
X7266905Y-16250000D01*
X7257381Y-16259524D01*
X7238333Y-16288095D01*
X7228809Y-16326190D01*
X7228809Y-16402381D01*
X7238333Y-16421428D01*
X7247857Y-16430952D01*
X7266905Y-16440476D01*
X7305000Y-16440476D01*
X7324047Y-16430952D01*
X7333571Y-16421428D01*
X7343095Y-16402381D01*
X7343095Y-16354762D01*
X7333571Y-16335714D01*
X7324047Y-16326190D01*
X7305000Y-16316667D01*
X7266905Y-16316667D01*
X7247857Y-16326190D01*
X7238333Y-16335714D01*
X7228809Y-16354762D01*
X7466905Y-16240476D02*
X7485952Y-16240476D01*
X7505000Y-16250000D01*
X7514524Y-16259524D01*
X7524047Y-16278571D01*
X7533571Y-16316667D01*
X7533571Y-16364286D01*
X7524047Y-16402381D01*
X7514524Y-16421428D01*
X7505000Y-16430952D01*
X7485952Y-16440476D01*
X7466905Y-16440476D01*
X7447857Y-16430952D01*
X7438333Y-16421428D01*
X7428809Y-16402381D01*
X7419286Y-16364286D01*
X7419286Y-16316667D01*
X7428809Y-16278571D01*
X7438333Y-16259524D01*
X7447857Y-16250000D01*
X7466905Y-16240476D01*
X7657381Y-16240476D02*
X7676428Y-16240476D01*
X7695476Y-16250000D01*
X7705000Y-16259524D01*
X7714524Y-16278571D01*
X7724047Y-16316667D01*
X7724047Y-16364286D01*
X7714524Y-16402381D01*
X7705000Y-16421428D01*
X7695476Y-16430952D01*
X7676428Y-16440476D01*
X7657381Y-16440476D01*
X7638333Y-16430952D01*
X7628809Y-16421428D01*
X7619286Y-16402381D01*
X7609762Y-16364286D01*
X7609762Y-16316667D01*
X7619286Y-16278571D01*
X7628809Y-16259524D01*
X7638333Y-16250000D01*
X7657381Y-16240476D01*
X7809762Y-16440476D02*
X7809762Y-16307143D01*
X7809762Y-16326190D02*
X7819286Y-16316667D01*
X7838333Y-16307143D01*
X7866905Y-16307143D01*
X7885952Y-16316667D01*
X7895476Y-16335714D01*
X7895476Y-16440476D01*
X7895476Y-16335714D02*
X7905000Y-16316667D01*
X7924047Y-16307143D01*
X7952619Y-16307143D01*
X7971666Y-16316667D01*
X7981190Y-16335714D01*
X7981190Y-16440476D01*
X8076428Y-16440476D02*
X8076428Y-16307143D01*
X8076428Y-16326190D02*
X8085952Y-16316667D01*
X8105000Y-16307143D01*
X8133571Y-16307143D01*
X8152619Y-16316667D01*
X8162143Y-16335714D01*
X8162143Y-16440476D01*
X8162143Y-16335714D02*
X8171666Y-16316667D01*
X8190714Y-16307143D01*
X8219286Y-16307143D01*
X8238333Y-16316667D01*
X8247857Y-16335714D01*
X8247857Y-16440476D01*
X8638333Y-16230952D02*
X8466905Y-16488095D01*
X8895476Y-16240476D02*
X8914524Y-16240476D01*
X8933571Y-16250000D01*
X8943095Y-16259524D01*
X8952619Y-16278571D01*
X8962143Y-16316667D01*
X8962143Y-16364286D01*
X8952619Y-16402381D01*
X8943095Y-16421428D01*
X8933571Y-16430952D01*
X8914524Y-16440476D01*
X8895476Y-16440476D01*
X8876428Y-16430952D01*
X8866905Y-16421428D01*
X8857381Y-16402381D01*
X8847857Y-16364286D01*
X8847857Y-16316667D01*
X8857381Y-16278571D01*
X8866905Y-16259524D01*
X8876428Y-16250000D01*
X8895476Y-16240476D01*
X9047857Y-16421428D02*
X9057381Y-16430952D01*
X9047857Y-16440476D01*
X9038333Y-16430952D01*
X9047857Y-16421428D01*
X9047857Y-16440476D01*
X9181190Y-16240476D02*
X9200238Y-16240476D01*
X9219286Y-16250000D01*
X9228809Y-16259524D01*
X9238333Y-16278571D01*
X9247857Y-16316667D01*
X9247857Y-16364286D01*
X9238333Y-16402381D01*
X9228809Y-16421428D01*
X9219286Y-16430952D01*
X9200238Y-16440476D01*
X9181190Y-16440476D01*
X9162143Y-16430952D01*
X9152619Y-16421428D01*
X9143095Y-16402381D01*
X9133571Y-16364286D01*
X9133571Y-16316667D01*
X9143095Y-16278571D01*
X9152619Y-16259524D01*
X9162143Y-16250000D01*
X9181190Y-16240476D01*
X9419286Y-16240476D02*
X9381190Y-16240476D01*
X9362143Y-16250000D01*
X9352619Y-16259524D01*
X9333571Y-16288095D01*
X9324048Y-16326190D01*
X9324048Y-16402381D01*
X9333571Y-16421428D01*
X9343095Y-16430952D01*
X9362143Y-16440476D01*
X9400238Y-16440476D01*
X9419286Y-16430952D01*
X9428809Y-16421428D01*
X9438333Y-16402381D01*
X9438333Y-16354762D01*
X9428809Y-16335714D01*
X9419286Y-16326190D01*
X9400238Y-16316667D01*
X9362143Y-16316667D01*
X9343095Y-16326190D01*
X9333571Y-16335714D01*
X9324048Y-16354762D01*
X9505000Y-16240476D02*
X9628809Y-16240476D01*
X9562143Y-16316667D01*
X9590714Y-16316667D01*
X9609762Y-16326190D01*
X9619286Y-16335714D01*
X9628809Y-16354762D01*
X9628809Y-16402381D01*
X9619286Y-16421428D01*
X9609762Y-16430952D01*
X9590714Y-16440476D01*
X9533571Y-16440476D01*
X9514524Y-16430952D01*
X9505000Y-16421428D01*
X9752619Y-16240476D02*
X9771667Y-16240476D01*
X9790714Y-16250000D01*
X9800238Y-16259524D01*
X9809762Y-16278571D01*
X9819286Y-16316667D01*
X9819286Y-16364286D01*
X9809762Y-16402381D01*
X9800238Y-16421428D01*
X9790714Y-16430952D01*
X9771667Y-16440476D01*
X9752619Y-16440476D01*
X9733571Y-16430952D01*
X9724048Y-16421428D01*
X9714524Y-16402381D01*
X9705000Y-16364286D01*
X9705000Y-16316667D01*
X9714524Y-16278571D01*
X9724048Y-16259524D01*
X9733571Y-16250000D01*
X9752619Y-16240476D01*
X9895476Y-16240476D02*
X9895476Y-16278571D01*
X9971667Y-16240476D02*
X9971667Y-16278571D01*
X10266905Y-16516667D02*
X10257381Y-16507143D01*
X10238333Y-16478571D01*
X10228809Y-16459524D01*
X10219286Y-16430952D01*
X10209762Y-16383333D01*
X10209762Y-16345238D01*
X10219286Y-16297619D01*
X10228809Y-16269048D01*
X10238333Y-16250000D01*
X10257381Y-16221428D01*
X10266905Y-16211905D01*
X10447857Y-16440476D02*
X10333571Y-16440476D01*
X10390714Y-16440476D02*
X10390714Y-16240476D01*
X10371667Y-16269048D01*
X10352619Y-16288095D01*
X10333571Y-16297619D01*
X10524048Y-16259524D02*
X10533571Y-16250000D01*
X10552619Y-16240476D01*
X10600238Y-16240476D01*
X10619286Y-16250000D01*
X10628809Y-16259524D01*
X10638333Y-16278571D01*
X10638333Y-16297619D01*
X10628809Y-16326190D01*
X10514524Y-16440476D01*
X10638333Y-16440476D01*
X10876428Y-16440476D02*
X10876428Y-16240476D01*
X10962143Y-16440476D02*
X10962143Y-16335714D01*
X10952619Y-16316667D01*
X10933571Y-16307143D01*
X10905000Y-16307143D01*
X10885952Y-16316667D01*
X10876428Y-16326190D01*
X11085952Y-16440476D02*
X11066905Y-16430952D01*
X11057381Y-16421428D01*
X11047857Y-16402381D01*
X11047857Y-16345238D01*
X11057381Y-16326190D01*
X11066905Y-16316667D01*
X11085952Y-16307143D01*
X11114524Y-16307143D01*
X11133571Y-16316667D01*
X11143095Y-16326190D01*
X11152619Y-16345238D01*
X11152619Y-16402381D01*
X11143095Y-16421428D01*
X11133571Y-16430952D01*
X11114524Y-16440476D01*
X11085952Y-16440476D01*
X11266905Y-16440476D02*
X11247857Y-16430952D01*
X11238333Y-16411905D01*
X11238333Y-16240476D01*
X11419286Y-16430952D02*
X11400238Y-16440476D01*
X11362143Y-16440476D01*
X11343095Y-16430952D01*
X11333571Y-16411905D01*
X11333571Y-16335714D01*
X11343095Y-16316667D01*
X11362143Y-16307143D01*
X11400238Y-16307143D01*
X11419286Y-16316667D01*
X11428809Y-16335714D01*
X11428809Y-16354762D01*
X11333571Y-16373809D01*
X11505000Y-16430952D02*
X11524047Y-16440476D01*
X11562143Y-16440476D01*
X11581190Y-16430952D01*
X11590714Y-16411905D01*
X11590714Y-16402381D01*
X11581190Y-16383333D01*
X11562143Y-16373809D01*
X11533571Y-16373809D01*
X11514524Y-16364286D01*
X11505000Y-16345238D01*
X11505000Y-16335714D01*
X11514524Y-16316667D01*
X11533571Y-16307143D01*
X11562143Y-16307143D01*
X11581190Y-16316667D01*
X11657381Y-16516667D02*
X11666905Y-16507143D01*
X11685952Y-16478571D01*
X11695476Y-16459524D01*
X11705000Y-16430952D01*
X11714524Y-16383333D01*
X11714524Y-16345238D01*
X11705000Y-16297619D01*
X11695476Y-16269048D01*
X11685952Y-16250000D01*
X11666905Y-16221428D01*
X11657381Y-16211905D01*
X12019286Y-16516667D02*
X12009762Y-16507143D01*
X11990714Y-16478571D01*
X11981190Y-16459524D01*
X11971666Y-16430952D01*
X11962143Y-16383333D01*
X11962143Y-16345238D01*
X11971666Y-16297619D01*
X11981190Y-16269048D01*
X11990714Y-16250000D01*
X12009762Y-16221428D01*
X12019286Y-16211905D01*
X12095476Y-16307143D02*
X12095476Y-16440476D01*
X12095476Y-16326190D02*
X12105000Y-16316667D01*
X12124047Y-16307143D01*
X12152619Y-16307143D01*
X12171666Y-16316667D01*
X12181190Y-16335714D01*
X12181190Y-16440476D01*
X12305000Y-16440476D02*
X12285952Y-16430952D01*
X12276428Y-16421428D01*
X12266905Y-16402381D01*
X12266905Y-16345238D01*
X12276428Y-16326190D01*
X12285952Y-16316667D01*
X12305000Y-16307143D01*
X12333571Y-16307143D01*
X12352619Y-16316667D01*
X12362143Y-16326190D01*
X12371666Y-16345238D01*
X12371666Y-16402381D01*
X12362143Y-16421428D01*
X12352619Y-16430952D01*
X12333571Y-16440476D01*
X12305000Y-16440476D01*
X12428809Y-16307143D02*
X12505000Y-16307143D01*
X12457381Y-16240476D02*
X12457381Y-16411905D01*
X12466905Y-16430952D01*
X12485952Y-16440476D01*
X12505000Y-16440476D01*
X12724047Y-16307143D02*
X12724047Y-16507143D01*
X12724047Y-16316667D02*
X12743095Y-16307143D01*
X12781190Y-16307143D01*
X12800238Y-16316667D01*
X12809762Y-16326190D01*
X12819286Y-16345238D01*
X12819286Y-16402381D01*
X12809762Y-16421428D01*
X12800238Y-16430952D01*
X12781190Y-16440476D01*
X12743095Y-16440476D01*
X12724047Y-16430952D01*
X12933571Y-16440476D02*
X12914524Y-16430952D01*
X12905000Y-16411905D01*
X12905000Y-16240476D01*
X13095476Y-16440476D02*
X13095476Y-16335714D01*
X13085952Y-16316667D01*
X13066905Y-16307143D01*
X13028809Y-16307143D01*
X13009762Y-16316667D01*
X13095476Y-16430952D02*
X13076428Y-16440476D01*
X13028809Y-16440476D01*
X13009762Y-16430952D01*
X13000238Y-16411905D01*
X13000238Y-16392857D01*
X13009762Y-16373809D01*
X13028809Y-16364286D01*
X13076428Y-16364286D01*
X13095476Y-16354762D01*
X13162143Y-16307143D02*
X13238333Y-16307143D01*
X13190714Y-16240476D02*
X13190714Y-16411905D01*
X13200238Y-16430952D01*
X13219286Y-16440476D01*
X13238333Y-16440476D01*
X13381190Y-16430952D02*
X13362143Y-16440476D01*
X13324047Y-16440476D01*
X13305000Y-16430952D01*
X13295476Y-16411905D01*
X13295476Y-16335714D01*
X13305000Y-16316667D01*
X13324047Y-16307143D01*
X13362143Y-16307143D01*
X13381190Y-16316667D01*
X13390714Y-16335714D01*
X13390714Y-16354762D01*
X13295476Y-16373809D01*
X13562143Y-16440476D02*
X13562143Y-16240476D01*
X13562143Y-16430952D02*
X13543095Y-16440476D01*
X13505000Y-16440476D01*
X13485952Y-16430952D01*
X13476428Y-16421428D01*
X13466905Y-16402381D01*
X13466905Y-16345238D01*
X13476428Y-16326190D01*
X13485952Y-16316667D01*
X13505000Y-16307143D01*
X13543095Y-16307143D01*
X13562143Y-16316667D01*
X13638333Y-16516667D02*
X13647857Y-16507143D01*
X13666905Y-16478571D01*
X13676428Y-16459524D01*
X13685952Y-16430952D01*
X13695476Y-16383333D01*
X13695476Y-16345238D01*
X13685952Y-16297619D01*
X13676428Y-16269048D01*
X13666905Y-16250000D01*
X13647857Y-16221428D01*
X13638333Y-16211905D01*
D14*
X6695000Y-16630000D02*
G75*
G03*
X6695000Y-16630000I-85090J0D01*
G01*
D12*
X7057381Y-16720476D02*
X6943095Y-16720476D01*
X7000238Y-16720476D02*
X7000238Y-16520476D01*
X6981190Y-16549048D01*
X6962143Y-16568095D01*
X6943095Y-16577619D01*
X7143095Y-16701428D02*
X7152619Y-16710952D01*
X7143095Y-16720476D01*
X7133571Y-16710952D01*
X7143095Y-16701428D01*
X7143095Y-16720476D01*
X7219286Y-16520476D02*
X7352619Y-16520476D01*
X7266905Y-16720476D01*
X7466905Y-16520476D02*
X7485952Y-16520476D01*
X7505000Y-16530000D01*
X7514524Y-16539524D01*
X7524047Y-16558571D01*
X7533571Y-16596667D01*
X7533571Y-16644286D01*
X7524047Y-16682381D01*
X7514524Y-16701428D01*
X7505000Y-16710952D01*
X7485952Y-16720476D01*
X7466905Y-16720476D01*
X7447857Y-16710952D01*
X7438333Y-16701428D01*
X7428809Y-16682381D01*
X7419286Y-16644286D01*
X7419286Y-16596667D01*
X7428809Y-16558571D01*
X7438333Y-16539524D01*
X7447857Y-16530000D01*
X7466905Y-16520476D01*
X7609762Y-16539524D02*
X7619286Y-16530000D01*
X7638333Y-16520476D01*
X7685952Y-16520476D01*
X7705000Y-16530000D01*
X7714524Y-16539524D01*
X7724047Y-16558571D01*
X7724047Y-16577619D01*
X7714524Y-16606190D01*
X7600238Y-16720476D01*
X7724047Y-16720476D01*
X7809762Y-16720476D02*
X7809762Y-16587143D01*
X7809762Y-16606190D02*
X7819286Y-16596667D01*
X7838333Y-16587143D01*
X7866905Y-16587143D01*
X7885952Y-16596667D01*
X7895476Y-16615714D01*
X7895476Y-16720476D01*
X7895476Y-16615714D02*
X7905000Y-16596667D01*
X7924047Y-16587143D01*
X7952619Y-16587143D01*
X7971666Y-16596667D01*
X7981190Y-16615714D01*
X7981190Y-16720476D01*
X8076428Y-16720476D02*
X8076428Y-16587143D01*
X8076428Y-16606190D02*
X8085952Y-16596667D01*
X8105000Y-16587143D01*
X8133571Y-16587143D01*
X8152619Y-16596667D01*
X8162143Y-16615714D01*
X8162143Y-16720476D01*
X8162143Y-16615714D02*
X8171666Y-16596667D01*
X8190714Y-16587143D01*
X8219286Y-16587143D01*
X8238333Y-16596667D01*
X8247857Y-16615714D01*
X8247857Y-16720476D01*
X8638333Y-16510952D02*
X8466905Y-16768095D01*
X8895476Y-16520476D02*
X8914524Y-16520476D01*
X8933571Y-16530000D01*
X8943095Y-16539524D01*
X8952619Y-16558571D01*
X8962143Y-16596667D01*
X8962143Y-16644286D01*
X8952619Y-16682381D01*
X8943095Y-16701428D01*
X8933571Y-16710952D01*
X8914524Y-16720476D01*
X8895476Y-16720476D01*
X8876428Y-16710952D01*
X8866905Y-16701428D01*
X8857381Y-16682381D01*
X8847857Y-16644286D01*
X8847857Y-16596667D01*
X8857381Y-16558571D01*
X8866905Y-16539524D01*
X8876428Y-16530000D01*
X8895476Y-16520476D01*
X9047857Y-16701428D02*
X9057381Y-16710952D01*
X9047857Y-16720476D01*
X9038333Y-16710952D01*
X9047857Y-16701428D01*
X9047857Y-16720476D01*
X9181190Y-16520476D02*
X9200238Y-16520476D01*
X9219286Y-16530000D01*
X9228809Y-16539524D01*
X9238333Y-16558571D01*
X9247857Y-16596667D01*
X9247857Y-16644286D01*
X9238333Y-16682381D01*
X9228809Y-16701428D01*
X9219286Y-16710952D01*
X9200238Y-16720476D01*
X9181190Y-16720476D01*
X9162143Y-16710952D01*
X9152619Y-16701428D01*
X9143095Y-16682381D01*
X9133571Y-16644286D01*
X9133571Y-16596667D01*
X9143095Y-16558571D01*
X9152619Y-16539524D01*
X9162143Y-16530000D01*
X9181190Y-16520476D01*
X9419286Y-16520476D02*
X9381190Y-16520476D01*
X9362143Y-16530000D01*
X9352619Y-16539524D01*
X9333571Y-16568095D01*
X9324048Y-16606190D01*
X9324048Y-16682381D01*
X9333571Y-16701428D01*
X9343095Y-16710952D01*
X9362143Y-16720476D01*
X9400238Y-16720476D01*
X9419286Y-16710952D01*
X9428809Y-16701428D01*
X9438333Y-16682381D01*
X9438333Y-16634762D01*
X9428809Y-16615714D01*
X9419286Y-16606190D01*
X9400238Y-16596667D01*
X9362143Y-16596667D01*
X9343095Y-16606190D01*
X9333571Y-16615714D01*
X9324048Y-16634762D01*
X9505000Y-16520476D02*
X9638333Y-16520476D01*
X9552619Y-16720476D01*
X9752619Y-16520476D02*
X9771667Y-16520476D01*
X9790714Y-16530000D01*
X9800238Y-16539524D01*
X9809762Y-16558571D01*
X9819286Y-16596667D01*
X9819286Y-16644286D01*
X9809762Y-16682381D01*
X9800238Y-16701428D01*
X9790714Y-16710952D01*
X9771667Y-16720476D01*
X9752619Y-16720476D01*
X9733571Y-16710952D01*
X9724048Y-16701428D01*
X9714524Y-16682381D01*
X9705000Y-16644286D01*
X9705000Y-16596667D01*
X9714524Y-16558571D01*
X9724048Y-16539524D01*
X9733571Y-16530000D01*
X9752619Y-16520476D01*
X9895476Y-16520476D02*
X9895476Y-16558571D01*
X9971667Y-16520476D02*
X9971667Y-16558571D01*
X10266905Y-16796667D02*
X10257381Y-16787143D01*
X10238333Y-16758571D01*
X10228809Y-16739524D01*
X10219286Y-16710952D01*
X10209762Y-16663333D01*
X10209762Y-16625238D01*
X10219286Y-16577619D01*
X10228809Y-16549048D01*
X10238333Y-16530000D01*
X10257381Y-16501428D01*
X10266905Y-16491905D01*
X10333571Y-16539524D02*
X10343095Y-16530000D01*
X10362143Y-16520476D01*
X10409762Y-16520476D01*
X10428809Y-16530000D01*
X10438333Y-16539524D01*
X10447857Y-16558571D01*
X10447857Y-16577619D01*
X10438333Y-16606190D01*
X10324048Y-16720476D01*
X10447857Y-16720476D01*
X10619286Y-16587143D02*
X10619286Y-16720476D01*
X10571667Y-16510952D02*
X10524048Y-16653809D01*
X10647857Y-16653809D01*
X10876428Y-16720476D02*
X10876428Y-16520476D01*
X10962143Y-16720476D02*
X10962143Y-16615714D01*
X10952619Y-16596667D01*
X10933571Y-16587143D01*
X10905000Y-16587143D01*
X10885952Y-16596667D01*
X10876428Y-16606190D01*
X11085952Y-16720476D02*
X11066905Y-16710952D01*
X11057381Y-16701428D01*
X11047857Y-16682381D01*
X11047857Y-16625238D01*
X11057381Y-16606190D01*
X11066905Y-16596667D01*
X11085952Y-16587143D01*
X11114524Y-16587143D01*
X11133571Y-16596667D01*
X11143095Y-16606190D01*
X11152619Y-16625238D01*
X11152619Y-16682381D01*
X11143095Y-16701428D01*
X11133571Y-16710952D01*
X11114524Y-16720476D01*
X11085952Y-16720476D01*
X11266905Y-16720476D02*
X11247857Y-16710952D01*
X11238333Y-16691905D01*
X11238333Y-16520476D01*
X11419286Y-16710952D02*
X11400238Y-16720476D01*
X11362143Y-16720476D01*
X11343095Y-16710952D01*
X11333571Y-16691905D01*
X11333571Y-16615714D01*
X11343095Y-16596667D01*
X11362143Y-16587143D01*
X11400238Y-16587143D01*
X11419286Y-16596667D01*
X11428809Y-16615714D01*
X11428809Y-16634762D01*
X11333571Y-16653809D01*
X11505000Y-16710952D02*
X11524047Y-16720476D01*
X11562143Y-16720476D01*
X11581190Y-16710952D01*
X11590714Y-16691905D01*
X11590714Y-16682381D01*
X11581190Y-16663333D01*
X11562143Y-16653809D01*
X11533571Y-16653809D01*
X11514524Y-16644286D01*
X11505000Y-16625238D01*
X11505000Y-16615714D01*
X11514524Y-16596667D01*
X11533571Y-16587143D01*
X11562143Y-16587143D01*
X11581190Y-16596667D01*
X11657381Y-16796667D02*
X11666905Y-16787143D01*
X11685952Y-16758571D01*
X11695476Y-16739524D01*
X11705000Y-16710952D01*
X11714524Y-16663333D01*
X11714524Y-16625238D01*
X11705000Y-16577619D01*
X11695476Y-16549048D01*
X11685952Y-16530000D01*
X11666905Y-16501428D01*
X11657381Y-16491905D01*
X12019286Y-16796667D02*
X12009762Y-16787143D01*
X11990714Y-16758571D01*
X11981190Y-16739524D01*
X11971666Y-16710952D01*
X11962143Y-16663333D01*
X11962143Y-16625238D01*
X11971666Y-16577619D01*
X11981190Y-16549048D01*
X11990714Y-16530000D01*
X12009762Y-16501428D01*
X12019286Y-16491905D01*
X12095476Y-16587143D02*
X12095476Y-16720476D01*
X12095476Y-16606190D02*
X12105000Y-16596667D01*
X12124047Y-16587143D01*
X12152619Y-16587143D01*
X12171666Y-16596667D01*
X12181190Y-16615714D01*
X12181190Y-16720476D01*
X12305000Y-16720476D02*
X12285952Y-16710952D01*
X12276428Y-16701428D01*
X12266905Y-16682381D01*
X12266905Y-16625238D01*
X12276428Y-16606190D01*
X12285952Y-16596667D01*
X12305000Y-16587143D01*
X12333571Y-16587143D01*
X12352619Y-16596667D01*
X12362143Y-16606190D01*
X12371666Y-16625238D01*
X12371666Y-16682381D01*
X12362143Y-16701428D01*
X12352619Y-16710952D01*
X12333571Y-16720476D01*
X12305000Y-16720476D01*
X12428809Y-16587143D02*
X12505000Y-16587143D01*
X12457381Y-16520476D02*
X12457381Y-16691905D01*
X12466905Y-16710952D01*
X12485952Y-16720476D01*
X12505000Y-16720476D01*
X12724047Y-16587143D02*
X12724047Y-16787143D01*
X12724047Y-16596667D02*
X12743095Y-16587143D01*
X12781190Y-16587143D01*
X12800238Y-16596667D01*
X12809762Y-16606190D01*
X12819286Y-16625238D01*
X12819286Y-16682381D01*
X12809762Y-16701428D01*
X12800238Y-16710952D01*
X12781190Y-16720476D01*
X12743095Y-16720476D01*
X12724047Y-16710952D01*
X12933571Y-16720476D02*
X12914524Y-16710952D01*
X12905000Y-16691905D01*
X12905000Y-16520476D01*
X13095476Y-16720476D02*
X13095476Y-16615714D01*
X13085952Y-16596667D01*
X13066905Y-16587143D01*
X13028809Y-16587143D01*
X13009762Y-16596667D01*
X13095476Y-16710952D02*
X13076428Y-16720476D01*
X13028809Y-16720476D01*
X13009762Y-16710952D01*
X13000238Y-16691905D01*
X13000238Y-16672857D01*
X13009762Y-16653809D01*
X13028809Y-16644286D01*
X13076428Y-16644286D01*
X13095476Y-16634762D01*
X13162143Y-16587143D02*
X13238333Y-16587143D01*
X13190714Y-16520476D02*
X13190714Y-16691905D01*
X13200238Y-16710952D01*
X13219286Y-16720476D01*
X13238333Y-16720476D01*
X13381190Y-16710952D02*
X13362143Y-16720476D01*
X13324047Y-16720476D01*
X13305000Y-16710952D01*
X13295476Y-16691905D01*
X13295476Y-16615714D01*
X13305000Y-16596667D01*
X13324047Y-16587143D01*
X13362143Y-16587143D01*
X13381190Y-16596667D01*
X13390714Y-16615714D01*
X13390714Y-16634762D01*
X13295476Y-16653809D01*
X13562143Y-16720476D02*
X13562143Y-16520476D01*
X13562143Y-16710952D02*
X13543095Y-16720476D01*
X13505000Y-16720476D01*
X13485952Y-16710952D01*
X13476428Y-16701428D01*
X13466905Y-16682381D01*
X13466905Y-16625238D01*
X13476428Y-16606190D01*
X13485952Y-16596667D01*
X13505000Y-16587143D01*
X13543095Y-16587143D01*
X13562143Y-16596667D01*
X13638333Y-16796667D02*
X13647857Y-16787143D01*
X13666905Y-16758571D01*
X13676428Y-16739524D01*
X13685952Y-16710952D01*
X13695476Y-16663333D01*
X13695476Y-16625238D01*
X13685952Y-16577619D01*
X13676428Y-16549048D01*
X13666905Y-16530000D01*
X13647857Y-16501428D01*
X13638333Y-16491905D01*
X6595000Y-16820180D02*
X6595000Y-17020180D01*
X6495000Y-16920180D02*
X6695000Y-16920180D01*
X6933571Y-16810656D02*
X7057381Y-16810656D01*
X6990714Y-16886847D01*
X7019286Y-16886847D01*
X7038333Y-16896370D01*
X7047857Y-16905894D01*
X7057381Y-16924942D01*
X7057381Y-16972561D01*
X7047857Y-16991609D01*
X7038333Y-17001132D01*
X7019286Y-17010656D01*
X6962143Y-17010656D01*
X6943095Y-17001132D01*
X6933571Y-16991609D01*
X7143095Y-16991609D02*
X7152619Y-17001132D01*
X7143095Y-17010656D01*
X7133571Y-17001132D01*
X7143095Y-16991609D01*
X7143095Y-17010656D01*
X7333571Y-16810656D02*
X7238333Y-16810656D01*
X7228809Y-16905894D01*
X7238333Y-16896370D01*
X7257381Y-16886847D01*
X7305000Y-16886847D01*
X7324047Y-16896370D01*
X7333571Y-16905894D01*
X7343095Y-16924942D01*
X7343095Y-16972561D01*
X7333571Y-16991609D01*
X7324047Y-17001132D01*
X7305000Y-17010656D01*
X7257381Y-17010656D01*
X7238333Y-17001132D01*
X7228809Y-16991609D01*
X7466905Y-16810656D02*
X7485952Y-16810656D01*
X7505000Y-16820180D01*
X7514524Y-16829704D01*
X7524047Y-16848751D01*
X7533571Y-16886847D01*
X7533571Y-16934466D01*
X7524047Y-16972561D01*
X7514524Y-16991609D01*
X7505000Y-17001132D01*
X7485952Y-17010656D01*
X7466905Y-17010656D01*
X7447857Y-17001132D01*
X7438333Y-16991609D01*
X7428809Y-16972561D01*
X7419286Y-16934466D01*
X7419286Y-16886847D01*
X7428809Y-16848751D01*
X7438333Y-16829704D01*
X7447857Y-16820180D01*
X7466905Y-16810656D01*
X7657381Y-16810656D02*
X7676428Y-16810656D01*
X7695476Y-16820180D01*
X7705000Y-16829704D01*
X7714524Y-16848751D01*
X7724047Y-16886847D01*
X7724047Y-16934466D01*
X7714524Y-16972561D01*
X7705000Y-16991609D01*
X7695476Y-17001132D01*
X7676428Y-17010656D01*
X7657381Y-17010656D01*
X7638333Y-17001132D01*
X7628809Y-16991609D01*
X7619286Y-16972561D01*
X7609762Y-16934466D01*
X7609762Y-16886847D01*
X7619286Y-16848751D01*
X7628809Y-16829704D01*
X7638333Y-16820180D01*
X7657381Y-16810656D01*
X7809762Y-17010656D02*
X7809762Y-16877323D01*
X7809762Y-16896370D02*
X7819286Y-16886847D01*
X7838333Y-16877323D01*
X7866905Y-16877323D01*
X7885952Y-16886847D01*
X7895476Y-16905894D01*
X7895476Y-17010656D01*
X7895476Y-16905894D02*
X7905000Y-16886847D01*
X7924047Y-16877323D01*
X7952619Y-16877323D01*
X7971666Y-16886847D01*
X7981190Y-16905894D01*
X7981190Y-17010656D01*
X8076428Y-17010656D02*
X8076428Y-16877323D01*
X8076428Y-16896370D02*
X8085952Y-16886847D01*
X8105000Y-16877323D01*
X8133571Y-16877323D01*
X8152619Y-16886847D01*
X8162143Y-16905894D01*
X8162143Y-17010656D01*
X8162143Y-16905894D02*
X8171666Y-16886847D01*
X8190714Y-16877323D01*
X8219286Y-16877323D01*
X8238333Y-16886847D01*
X8247857Y-16905894D01*
X8247857Y-17010656D01*
X8638333Y-16801132D02*
X8466905Y-17058275D01*
X8895476Y-16810656D02*
X8914524Y-16810656D01*
X8933571Y-16820180D01*
X8943095Y-16829704D01*
X8952619Y-16848751D01*
X8962143Y-16886847D01*
X8962143Y-16934466D01*
X8952619Y-16972561D01*
X8943095Y-16991609D01*
X8933571Y-17001132D01*
X8914524Y-17010656D01*
X8895476Y-17010656D01*
X8876428Y-17001132D01*
X8866905Y-16991609D01*
X8857381Y-16972561D01*
X8847857Y-16934466D01*
X8847857Y-16886847D01*
X8857381Y-16848751D01*
X8866905Y-16829704D01*
X8876428Y-16820180D01*
X8895476Y-16810656D01*
X9047857Y-16991609D02*
X9057381Y-17001132D01*
X9047857Y-17010656D01*
X9038333Y-17001132D01*
X9047857Y-16991609D01*
X9047857Y-17010656D01*
X9247857Y-17010656D02*
X9133571Y-17010656D01*
X9190714Y-17010656D02*
X9190714Y-16810656D01*
X9171667Y-16839228D01*
X9152619Y-16858275D01*
X9133571Y-16867799D01*
X9314524Y-16810656D02*
X9438333Y-16810656D01*
X9371667Y-16886847D01*
X9400238Y-16886847D01*
X9419286Y-16896370D01*
X9428809Y-16905894D01*
X9438333Y-16924942D01*
X9438333Y-16972561D01*
X9428809Y-16991609D01*
X9419286Y-17001132D01*
X9400238Y-17010656D01*
X9343095Y-17010656D01*
X9324048Y-17001132D01*
X9314524Y-16991609D01*
X9505000Y-16810656D02*
X9638333Y-16810656D01*
X9552619Y-17010656D01*
X9743095Y-16896370D02*
X9724048Y-16886847D01*
X9714524Y-16877323D01*
X9705000Y-16858275D01*
X9705000Y-16848751D01*
X9714524Y-16829704D01*
X9724048Y-16820180D01*
X9743095Y-16810656D01*
X9781190Y-16810656D01*
X9800238Y-16820180D01*
X9809762Y-16829704D01*
X9819286Y-16848751D01*
X9819286Y-16858275D01*
X9809762Y-16877323D01*
X9800238Y-16886847D01*
X9781190Y-16896370D01*
X9743095Y-16896370D01*
X9724048Y-16905894D01*
X9714524Y-16915418D01*
X9705000Y-16934466D01*
X9705000Y-16972561D01*
X9714524Y-16991609D01*
X9724048Y-17001132D01*
X9743095Y-17010656D01*
X9781190Y-17010656D01*
X9800238Y-17001132D01*
X9809762Y-16991609D01*
X9819286Y-16972561D01*
X9819286Y-16934466D01*
X9809762Y-16915418D01*
X9800238Y-16905894D01*
X9781190Y-16896370D01*
X9895476Y-16810656D02*
X9895476Y-16848751D01*
X9971667Y-16810656D02*
X9971667Y-16848751D01*
X10266905Y-17086847D02*
X10257381Y-17077323D01*
X10238333Y-17048751D01*
X10228809Y-17029704D01*
X10219286Y-17001132D01*
X10209762Y-16953513D01*
X10209762Y-16915418D01*
X10219286Y-16867799D01*
X10228809Y-16839228D01*
X10238333Y-16820180D01*
X10257381Y-16791609D01*
X10266905Y-16782085D01*
X10428809Y-16877323D02*
X10428809Y-17010656D01*
X10381190Y-16801132D02*
X10333571Y-16943990D01*
X10457381Y-16943990D01*
X10685952Y-17010656D02*
X10685952Y-16810656D01*
X10771667Y-17010656D02*
X10771667Y-16905894D01*
X10762143Y-16886847D01*
X10743095Y-16877323D01*
X10714524Y-16877323D01*
X10695476Y-16886847D01*
X10685952Y-16896370D01*
X10895476Y-17010656D02*
X10876428Y-17001132D01*
X10866905Y-16991609D01*
X10857381Y-16972561D01*
X10857381Y-16915418D01*
X10866905Y-16896370D01*
X10876428Y-16886847D01*
X10895476Y-16877323D01*
X10924048Y-16877323D01*
X10943095Y-16886847D01*
X10952619Y-16896370D01*
X10962143Y-16915418D01*
X10962143Y-16972561D01*
X10952619Y-16991609D01*
X10943095Y-17001132D01*
X10924048Y-17010656D01*
X10895476Y-17010656D01*
X11076428Y-17010656D02*
X11057381Y-17001132D01*
X11047857Y-16982085D01*
X11047857Y-16810656D01*
X11228809Y-17001132D02*
X11209762Y-17010656D01*
X11171667Y-17010656D01*
X11152619Y-17001132D01*
X11143095Y-16982085D01*
X11143095Y-16905894D01*
X11152619Y-16886847D01*
X11171667Y-16877323D01*
X11209762Y-16877323D01*
X11228809Y-16886847D01*
X11238333Y-16905894D01*
X11238333Y-16924942D01*
X11143095Y-16943990D01*
X11314524Y-17001132D02*
X11333571Y-17010656D01*
X11371666Y-17010656D01*
X11390714Y-17001132D01*
X11400238Y-16982085D01*
X11400238Y-16972561D01*
X11390714Y-16953513D01*
X11371666Y-16943990D01*
X11343095Y-16943990D01*
X11324047Y-16934466D01*
X11314524Y-16915418D01*
X11314524Y-16905894D01*
X11324047Y-16886847D01*
X11343095Y-16877323D01*
X11371666Y-16877323D01*
X11390714Y-16886847D01*
X11466905Y-17086847D02*
X11476428Y-17077323D01*
X11495476Y-17048751D01*
X11505000Y-17029704D01*
X11514524Y-17001132D01*
X11524047Y-16953513D01*
X11524047Y-16915418D01*
X11514524Y-16867799D01*
X11505000Y-16839228D01*
X11495476Y-16820180D01*
X11476428Y-16791609D01*
X11466905Y-16782085D01*
X11828809Y-17086847D02*
X11819286Y-17077323D01*
X11800238Y-17048751D01*
X11790714Y-17029704D01*
X11781190Y-17001132D01*
X11771666Y-16953513D01*
X11771666Y-16915418D01*
X11781190Y-16867799D01*
X11790714Y-16839228D01*
X11800238Y-16820180D01*
X11819286Y-16791609D01*
X11828809Y-16782085D01*
X11905000Y-16877323D02*
X11905000Y-17010656D01*
X11905000Y-16896370D02*
X11914524Y-16886847D01*
X11933571Y-16877323D01*
X11962143Y-16877323D01*
X11981190Y-16886847D01*
X11990714Y-16905894D01*
X11990714Y-17010656D01*
X12114524Y-17010656D02*
X12095476Y-17001132D01*
X12085952Y-16991609D01*
X12076428Y-16972561D01*
X12076428Y-16915418D01*
X12085952Y-16896370D01*
X12095476Y-16886847D01*
X12114524Y-16877323D01*
X12143095Y-16877323D01*
X12162143Y-16886847D01*
X12171666Y-16896370D01*
X12181190Y-16915418D01*
X12181190Y-16972561D01*
X12171666Y-16991609D01*
X12162143Y-17001132D01*
X12143095Y-17010656D01*
X12114524Y-17010656D01*
X12238333Y-16877323D02*
X12314524Y-16877323D01*
X12266905Y-16810656D02*
X12266905Y-16982085D01*
X12276428Y-17001132D01*
X12295476Y-17010656D01*
X12314524Y-17010656D01*
X12533571Y-16877323D02*
X12533571Y-17077323D01*
X12533571Y-16886847D02*
X12552619Y-16877323D01*
X12590714Y-16877323D01*
X12609762Y-16886847D01*
X12619286Y-16896370D01*
X12628809Y-16915418D01*
X12628809Y-16972561D01*
X12619286Y-16991609D01*
X12609762Y-17001132D01*
X12590714Y-17010656D01*
X12552619Y-17010656D01*
X12533571Y-17001132D01*
X12743095Y-17010656D02*
X12724047Y-17001132D01*
X12714524Y-16982085D01*
X12714524Y-16810656D01*
X12905000Y-17010656D02*
X12905000Y-16905894D01*
X12895476Y-16886847D01*
X12876428Y-16877323D01*
X12838333Y-16877323D01*
X12819286Y-16886847D01*
X12905000Y-17001132D02*
X12885952Y-17010656D01*
X12838333Y-17010656D01*
X12819286Y-17001132D01*
X12809762Y-16982085D01*
X12809762Y-16963037D01*
X12819286Y-16943990D01*
X12838333Y-16934466D01*
X12885952Y-16934466D01*
X12905000Y-16924942D01*
X12971666Y-16877323D02*
X13047857Y-16877323D01*
X13000238Y-16810656D02*
X13000238Y-16982085D01*
X13009762Y-17001132D01*
X13028809Y-17010656D01*
X13047857Y-17010656D01*
X13190714Y-17001132D02*
X13171666Y-17010656D01*
X13133571Y-17010656D01*
X13114524Y-17001132D01*
X13105000Y-16982085D01*
X13105000Y-16905894D01*
X13114524Y-16886847D01*
X13133571Y-16877323D01*
X13171666Y-16877323D01*
X13190714Y-16886847D01*
X13200238Y-16905894D01*
X13200238Y-16924942D01*
X13105000Y-16943990D01*
X13371666Y-17010656D02*
X13371666Y-16810656D01*
X13371666Y-17001132D02*
X13352619Y-17010656D01*
X13314524Y-17010656D01*
X13295476Y-17001132D01*
X13285952Y-16991609D01*
X13276428Y-16972561D01*
X13276428Y-16915418D01*
X13285952Y-16896370D01*
X13295476Y-16886847D01*
X13314524Y-16877323D01*
X13352619Y-16877323D01*
X13371666Y-16886847D01*
X13447857Y-17086847D02*
X13457381Y-17077323D01*
X13476428Y-17048751D01*
X13485952Y-17029704D01*
X13495476Y-17001132D01*
X13505000Y-16953513D01*
X13505000Y-16915418D01*
X13495476Y-16867799D01*
X13485952Y-16839228D01*
X13476428Y-16820180D01*
X13457381Y-16791609D01*
X13447857Y-16782085D01*
X6665711Y-17310891D02*
X6665711Y-17169469D01*
X6524288Y-17169469D01*
X6524288Y-17310891D01*
X6665711Y-17310891D01*
X7047857Y-17130656D02*
X6952619Y-17130656D01*
X6943095Y-17225894D01*
X6952619Y-17216370D01*
X6971666Y-17206847D01*
X7019286Y-17206847D01*
X7038333Y-17216370D01*
X7047857Y-17225894D01*
X7057381Y-17244942D01*
X7057381Y-17292561D01*
X7047857Y-17311609D01*
X7038333Y-17321132D01*
X7019286Y-17330656D01*
X6971666Y-17330656D01*
X6952619Y-17321132D01*
X6943095Y-17311609D01*
X7143095Y-17311609D02*
X7152619Y-17321132D01*
X7143095Y-17330656D01*
X7133571Y-17321132D01*
X7143095Y-17311609D01*
X7143095Y-17330656D01*
X7276428Y-17130656D02*
X7295476Y-17130656D01*
X7314524Y-17140180D01*
X7324047Y-17149704D01*
X7333571Y-17168751D01*
X7343095Y-17206847D01*
X7343095Y-17254466D01*
X7333571Y-17292561D01*
X7324047Y-17311609D01*
X7314524Y-17321132D01*
X7295476Y-17330656D01*
X7276428Y-17330656D01*
X7257381Y-17321132D01*
X7247857Y-17311609D01*
X7238333Y-17292561D01*
X7228809Y-17254466D01*
X7228809Y-17206847D01*
X7238333Y-17168751D01*
X7247857Y-17149704D01*
X7257381Y-17140180D01*
X7276428Y-17130656D01*
X7466905Y-17130656D02*
X7485952Y-17130656D01*
X7505000Y-17140180D01*
X7514524Y-17149704D01*
X7524047Y-17168751D01*
X7533571Y-17206847D01*
X7533571Y-17254466D01*
X7524047Y-17292561D01*
X7514524Y-17311609D01*
X7505000Y-17321132D01*
X7485952Y-17330656D01*
X7466905Y-17330656D01*
X7447857Y-17321132D01*
X7438333Y-17311609D01*
X7428809Y-17292561D01*
X7419286Y-17254466D01*
X7419286Y-17206847D01*
X7428809Y-17168751D01*
X7438333Y-17149704D01*
X7447857Y-17140180D01*
X7466905Y-17130656D01*
X7657381Y-17130656D02*
X7676428Y-17130656D01*
X7695476Y-17140180D01*
X7705000Y-17149704D01*
X7714524Y-17168751D01*
X7724047Y-17206847D01*
X7724047Y-17254466D01*
X7714524Y-17292561D01*
X7705000Y-17311609D01*
X7695476Y-17321132D01*
X7676428Y-17330656D01*
X7657381Y-17330656D01*
X7638333Y-17321132D01*
X7628809Y-17311609D01*
X7619286Y-17292561D01*
X7609762Y-17254466D01*
X7609762Y-17206847D01*
X7619286Y-17168751D01*
X7628809Y-17149704D01*
X7638333Y-17140180D01*
X7657381Y-17130656D01*
X7809762Y-17330656D02*
X7809762Y-17197323D01*
X7809762Y-17216370D02*
X7819286Y-17206847D01*
X7838333Y-17197323D01*
X7866905Y-17197323D01*
X7885952Y-17206847D01*
X7895476Y-17225894D01*
X7895476Y-17330656D01*
X7895476Y-17225894D02*
X7905000Y-17206847D01*
X7924047Y-17197323D01*
X7952619Y-17197323D01*
X7971666Y-17206847D01*
X7981190Y-17225894D01*
X7981190Y-17330656D01*
X8076428Y-17330656D02*
X8076428Y-17197323D01*
X8076428Y-17216370D02*
X8085952Y-17206847D01*
X8105000Y-17197323D01*
X8133571Y-17197323D01*
X8152619Y-17206847D01*
X8162143Y-17225894D01*
X8162143Y-17330656D01*
X8162143Y-17225894D02*
X8171666Y-17206847D01*
X8190714Y-17197323D01*
X8219286Y-17197323D01*
X8238333Y-17206847D01*
X8247857Y-17225894D01*
X8247857Y-17330656D01*
X8638333Y-17121132D02*
X8466905Y-17378275D01*
X8895476Y-17130656D02*
X8914524Y-17130656D01*
X8933571Y-17140180D01*
X8943095Y-17149704D01*
X8952619Y-17168751D01*
X8962143Y-17206847D01*
X8962143Y-17254466D01*
X8952619Y-17292561D01*
X8943095Y-17311609D01*
X8933571Y-17321132D01*
X8914524Y-17330656D01*
X8895476Y-17330656D01*
X8876428Y-17321132D01*
X8866905Y-17311609D01*
X8857381Y-17292561D01*
X8847857Y-17254466D01*
X8847857Y-17206847D01*
X8857381Y-17168751D01*
X8866905Y-17149704D01*
X8876428Y-17140180D01*
X8895476Y-17130656D01*
X9047857Y-17311609D02*
X9057381Y-17321132D01*
X9047857Y-17330656D01*
X9038333Y-17321132D01*
X9047857Y-17311609D01*
X9047857Y-17330656D01*
X9247857Y-17330656D02*
X9133571Y-17330656D01*
X9190714Y-17330656D02*
X9190714Y-17130656D01*
X9171667Y-17159228D01*
X9152619Y-17178275D01*
X9133571Y-17187799D01*
X9343095Y-17330656D02*
X9381190Y-17330656D01*
X9400238Y-17321132D01*
X9409762Y-17311609D01*
X9428809Y-17283037D01*
X9438333Y-17244942D01*
X9438333Y-17168751D01*
X9428809Y-17149704D01*
X9419286Y-17140180D01*
X9400238Y-17130656D01*
X9362143Y-17130656D01*
X9343095Y-17140180D01*
X9333571Y-17149704D01*
X9324048Y-17168751D01*
X9324048Y-17216370D01*
X9333571Y-17235418D01*
X9343095Y-17244942D01*
X9362143Y-17254466D01*
X9400238Y-17254466D01*
X9419286Y-17244942D01*
X9428809Y-17235418D01*
X9438333Y-17216370D01*
X9609762Y-17130656D02*
X9571667Y-17130656D01*
X9552619Y-17140180D01*
X9543095Y-17149704D01*
X9524048Y-17178275D01*
X9514524Y-17216370D01*
X9514524Y-17292561D01*
X9524048Y-17311609D01*
X9533571Y-17321132D01*
X9552619Y-17330656D01*
X9590714Y-17330656D01*
X9609762Y-17321132D01*
X9619286Y-17311609D01*
X9628809Y-17292561D01*
X9628809Y-17244942D01*
X9619286Y-17225894D01*
X9609762Y-17216370D01*
X9590714Y-17206847D01*
X9552619Y-17206847D01*
X9533571Y-17216370D01*
X9524048Y-17225894D01*
X9514524Y-17244942D01*
X9724048Y-17330656D02*
X9762143Y-17330656D01*
X9781190Y-17321132D01*
X9790714Y-17311609D01*
X9809762Y-17283037D01*
X9819286Y-17244942D01*
X9819286Y-17168751D01*
X9809762Y-17149704D01*
X9800238Y-17140180D01*
X9781190Y-17130656D01*
X9743095Y-17130656D01*
X9724048Y-17140180D01*
X9714524Y-17149704D01*
X9705000Y-17168751D01*
X9705000Y-17216370D01*
X9714524Y-17235418D01*
X9724048Y-17244942D01*
X9743095Y-17254466D01*
X9781190Y-17254466D01*
X9800238Y-17244942D01*
X9809762Y-17235418D01*
X9819286Y-17216370D01*
X9895476Y-17130656D02*
X9895476Y-17168751D01*
X9971667Y-17130656D02*
X9971667Y-17168751D01*
X10266905Y-17406847D02*
X10257381Y-17397323D01*
X10238333Y-17368751D01*
X10228809Y-17349704D01*
X10219286Y-17321132D01*
X10209762Y-17273513D01*
X10209762Y-17235418D01*
X10219286Y-17187799D01*
X10228809Y-17159228D01*
X10238333Y-17140180D01*
X10257381Y-17111609D01*
X10266905Y-17102085D01*
X10447857Y-17330656D02*
X10333571Y-17330656D01*
X10390714Y-17330656D02*
X10390714Y-17130656D01*
X10371667Y-17159228D01*
X10352619Y-17178275D01*
X10333571Y-17187799D01*
X10524048Y-17149704D02*
X10533571Y-17140180D01*
X10552619Y-17130656D01*
X10600238Y-17130656D01*
X10619286Y-17140180D01*
X10628809Y-17149704D01*
X10638333Y-17168751D01*
X10638333Y-17187799D01*
X10628809Y-17216370D01*
X10514524Y-17330656D01*
X10638333Y-17330656D01*
X10876428Y-17330656D02*
X10876428Y-17130656D01*
X10962143Y-17330656D02*
X10962143Y-17225894D01*
X10952619Y-17206847D01*
X10933571Y-17197323D01*
X10905000Y-17197323D01*
X10885952Y-17206847D01*
X10876428Y-17216370D01*
X11085952Y-17330656D02*
X11066905Y-17321132D01*
X11057381Y-17311609D01*
X11047857Y-17292561D01*
X11047857Y-17235418D01*
X11057381Y-17216370D01*
X11066905Y-17206847D01*
X11085952Y-17197323D01*
X11114524Y-17197323D01*
X11133571Y-17206847D01*
X11143095Y-17216370D01*
X11152619Y-17235418D01*
X11152619Y-17292561D01*
X11143095Y-17311609D01*
X11133571Y-17321132D01*
X11114524Y-17330656D01*
X11085952Y-17330656D01*
X11266905Y-17330656D02*
X11247857Y-17321132D01*
X11238333Y-17302085D01*
X11238333Y-17130656D01*
X11419286Y-17321132D02*
X11400238Y-17330656D01*
X11362143Y-17330656D01*
X11343095Y-17321132D01*
X11333571Y-17302085D01*
X11333571Y-17225894D01*
X11343095Y-17206847D01*
X11362143Y-17197323D01*
X11400238Y-17197323D01*
X11419286Y-17206847D01*
X11428809Y-17225894D01*
X11428809Y-17244942D01*
X11333571Y-17263990D01*
X11505000Y-17321132D02*
X11524047Y-17330656D01*
X11562143Y-17330656D01*
X11581190Y-17321132D01*
X11590714Y-17302085D01*
X11590714Y-17292561D01*
X11581190Y-17273513D01*
X11562143Y-17263990D01*
X11533571Y-17263990D01*
X11514524Y-17254466D01*
X11505000Y-17235418D01*
X11505000Y-17225894D01*
X11514524Y-17206847D01*
X11533571Y-17197323D01*
X11562143Y-17197323D01*
X11581190Y-17206847D01*
X11657381Y-17406847D02*
X11666905Y-17397323D01*
X11685952Y-17368751D01*
X11695476Y-17349704D01*
X11705000Y-17321132D01*
X11714524Y-17273513D01*
X11714524Y-17235418D01*
X11705000Y-17187799D01*
X11695476Y-17159228D01*
X11685952Y-17140180D01*
X11666905Y-17111609D01*
X11657381Y-17102085D01*
X12019286Y-17406847D02*
X12009762Y-17397323D01*
X11990714Y-17368751D01*
X11981190Y-17349704D01*
X11971666Y-17321132D01*
X11962143Y-17273513D01*
X11962143Y-17235418D01*
X11971666Y-17187799D01*
X11981190Y-17159228D01*
X11990714Y-17140180D01*
X12009762Y-17111609D01*
X12019286Y-17102085D01*
X12095476Y-17197323D02*
X12095476Y-17330656D01*
X12095476Y-17216370D02*
X12105000Y-17206847D01*
X12124047Y-17197323D01*
X12152619Y-17197323D01*
X12171666Y-17206847D01*
X12181190Y-17225894D01*
X12181190Y-17330656D01*
X12305000Y-17330656D02*
X12285952Y-17321132D01*
X12276428Y-17311609D01*
X12266905Y-17292561D01*
X12266905Y-17235418D01*
X12276428Y-17216370D01*
X12285952Y-17206847D01*
X12305000Y-17197323D01*
X12333571Y-17197323D01*
X12352619Y-17206847D01*
X12362143Y-17216370D01*
X12371666Y-17235418D01*
X12371666Y-17292561D01*
X12362143Y-17311609D01*
X12352619Y-17321132D01*
X12333571Y-17330656D01*
X12305000Y-17330656D01*
X12428809Y-17197323D02*
X12505000Y-17197323D01*
X12457381Y-17130656D02*
X12457381Y-17302085D01*
X12466905Y-17321132D01*
X12485952Y-17330656D01*
X12505000Y-17330656D01*
X12724047Y-17197323D02*
X12724047Y-17397323D01*
X12724047Y-17206847D02*
X12743095Y-17197323D01*
X12781190Y-17197323D01*
X12800238Y-17206847D01*
X12809762Y-17216370D01*
X12819286Y-17235418D01*
X12819286Y-17292561D01*
X12809762Y-17311609D01*
X12800238Y-17321132D01*
X12781190Y-17330656D01*
X12743095Y-17330656D01*
X12724047Y-17321132D01*
X12933571Y-17330656D02*
X12914524Y-17321132D01*
X12905000Y-17302085D01*
X12905000Y-17130656D01*
X13095476Y-17330656D02*
X13095476Y-17225894D01*
X13085952Y-17206847D01*
X13066905Y-17197323D01*
X13028809Y-17197323D01*
X13009762Y-17206847D01*
X13095476Y-17321132D02*
X13076428Y-17330656D01*
X13028809Y-17330656D01*
X13009762Y-17321132D01*
X13000238Y-17302085D01*
X13000238Y-17283037D01*
X13009762Y-17263990D01*
X13028809Y-17254466D01*
X13076428Y-17254466D01*
X13095476Y-17244942D01*
X13162143Y-17197323D02*
X13238333Y-17197323D01*
X13190714Y-17130656D02*
X13190714Y-17302085D01*
X13200238Y-17321132D01*
X13219286Y-17330656D01*
X13238333Y-17330656D01*
X13381190Y-17321132D02*
X13362143Y-17330656D01*
X13324047Y-17330656D01*
X13305000Y-17321132D01*
X13295476Y-17302085D01*
X13295476Y-17225894D01*
X13305000Y-17206847D01*
X13324047Y-17197323D01*
X13362143Y-17197323D01*
X13381190Y-17206847D01*
X13390714Y-17225894D01*
X13390714Y-17244942D01*
X13295476Y-17263990D01*
X13562143Y-17330656D02*
X13562143Y-17130656D01*
X13562143Y-17321132D02*
X13543095Y-17330656D01*
X13505000Y-17330656D01*
X13485952Y-17321132D01*
X13476428Y-17311609D01*
X13466905Y-17292561D01*
X13466905Y-17235418D01*
X13476428Y-17216370D01*
X13485952Y-17206847D01*
X13505000Y-17197323D01*
X13543095Y-17197323D01*
X13562143Y-17206847D01*
X13638333Y-17406847D02*
X13647857Y-17397323D01*
X13666905Y-17368751D01*
X13676428Y-17349704D01*
X13685952Y-17321132D01*
X13695476Y-17273513D01*
X13695476Y-17235418D01*
X13685952Y-17187799D01*
X13676428Y-17159228D01*
X13666905Y-17140180D01*
X13647857Y-17111609D01*
X13638333Y-17102085D01*
M02*
