M48
; DRILL file {KiCad (6.0.1)} date Sun Feb 13 15:50:42 2022
; FORMAT={-:-/ absolute / metric / decimal}
; #@! TF.CreationDate,2022-02-13T15:50:42-08:00
; #@! TF.GenerationSoftware,Kicad,Pcbnew,(6.0.1)
; #@! TF.FileFunction,NonPlated,1,2,NPTH
FMAT,2
METRIC
; #@! TA.AperFunction,NonPlated,NPTH,ComponentDrill
T1C1.600
; #@! TA.AperFunction,NonPlated,NPTH,ComponentDrill
T2C1.702
; #@! TA.AperFunction,NonPlated,NPTH,ComponentDrill
T3C3.500
; #@! TA.AperFunction,NonPlated,NPTH,ComponentDrill
T4C5.000
%
G90
G05
T1
X138.95Y-74.775
X138.95Y-93.825
X138.95Y-112.875
X138.95Y-131.925
X158.0Y-74.775
X158.0Y-93.825
X158.0Y-112.875
X158.0Y-131.925
X177.05Y-74.775
X177.05Y-93.825
X177.05Y-112.875
X177.05Y-131.925
T2
X128.45Y-79.925
X128.45Y-98.975
X128.45Y-118.025
X128.45Y-137.075
X139.45Y-79.925
X139.45Y-98.975
X139.45Y-118.025
X139.45Y-137.075
X147.5Y-79.925
X147.5Y-98.975
X147.5Y-118.025
X147.5Y-137.075
X158.5Y-79.925
X158.5Y-98.975
X158.5Y-118.025
X158.5Y-137.075
X166.55Y-79.925
X166.55Y-98.975
X166.55Y-118.025
X166.55Y-137.075
X177.55Y-79.925
X177.55Y-98.975
X177.55Y-118.025
X177.55Y-137.075
T3
X120.0Y-80.0
X120.0Y-137.0
X186.0Y-80.0
X186.0Y-137.0
T4
X133.95Y-79.925
X133.95Y-98.975
X133.95Y-118.025
X133.95Y-137.075
X153.0Y-79.925
X153.0Y-98.975
X153.0Y-118.025
X153.0Y-137.075
X172.05Y-79.925
X172.05Y-98.975
X172.05Y-118.025
X172.05Y-137.075
T0
M30
