%TF.GenerationSoftware,KiCad,Pcbnew,(6.0.1)*%
%TF.CreationDate,2022-02-13T15:50:39-08:00*%
%TF.ProjectId,keymani,6b65796d-616e-4692-9e6b-696361645f70,-*%
%TF.SameCoordinates,Original*%
%TF.FileFunction,Soldermask,Bot*%
%TF.FilePolarity,Negative*%
%FSLAX46Y46*%
G04 Gerber Fmt 4.6, Leading zero omitted, Abs format (unit mm)*
G04 Created by KiCad (PCBNEW (6.0.1)) date 2022-02-13 15:50:39*
%MOMM*%
%LPD*%
G01*
G04 APERTURE LIST*
G04 Aperture macros list*
%AMRoundRect*
0 Rectangle with rounded corners*
0 $1 Rounding radius*
0 $2 $3 $4 $5 $6 $7 $8 $9 X,Y pos of 4 corners*
0 Add a 4 corners polygon primitive as box body*
4,1,4,$2,$3,$4,$5,$6,$7,$8,$9,$2,$3,0*
0 Add four circle primitives for the rounded corners*
1,1,$1+$1,$2,$3*
1,1,$1+$1,$4,$5*
1,1,$1+$1,$6,$7*
1,1,$1+$1,$8,$9*
0 Add four rect primitives between the rounded corners*
20,1,$1+$1,$2,$3,$4,$5,0*
20,1,$1+$1,$4,$5,$6,$7,0*
20,1,$1+$1,$6,$7,$8,$9,0*
20,1,$1+$1,$8,$9,$2,$3,0*%
G04 Aperture macros list end*
%ADD10C,1.600000*%
%ADD11C,5.000000*%
%ADD12C,1.701800*%
%ADD13C,2.032000*%
%ADD14RoundRect,0.250000X0.600000X0.725000X-0.600000X0.725000X-0.600000X-0.725000X0.600000X-0.725000X0*%
%ADD15O,1.700000X1.950000*%
%ADD16C,3.500000*%
%ADD17R,1.600000X1.600000*%
%ADD18O,1.600000X1.600000*%
%ADD19RoundRect,0.250000X0.250000X0.475000X-0.250000X0.475000X-0.250000X-0.475000X0.250000X-0.475000X0*%
G04 APERTURE END LIST*
D10*
%TO.C,SW10*%
X138950000Y-74775000D03*
D11*
X133950000Y-79925000D03*
D12*
X139450000Y-79925000D03*
X128450000Y-79925000D03*
D13*
X133950000Y-85825000D03*
X128950000Y-83725000D03*
%TD*%
D12*
%TO.C,SW5*%
X147500000Y-118025000D03*
D11*
X153000000Y-118025000D03*
D10*
X158000000Y-112875000D03*
D12*
X158500000Y-118025000D03*
D13*
X153000000Y-123925000D03*
X148000000Y-121825000D03*
%TD*%
D14*
%TO.C,CN1*%
X161750000Y-149967500D03*
D15*
X159250000Y-149967500D03*
X156750000Y-149967500D03*
X154250000Y-149967500D03*
X151750000Y-149967500D03*
X149250000Y-149967500D03*
X146750000Y-149967500D03*
X144250000Y-149967500D03*
%TD*%
D11*
%TO.C,SW8*%
X153000000Y-98975000D03*
D12*
X158500000Y-98975000D03*
D10*
X158000000Y-93825000D03*
D12*
X147500000Y-98975000D03*
D13*
X153000000Y-104875000D03*
X148000000Y-102775000D03*
%TD*%
D12*
%TO.C,SW9*%
X177550000Y-98975000D03*
D11*
X172050000Y-98975000D03*
D10*
X177050000Y-93825000D03*
D12*
X166550000Y-98975000D03*
D13*
X172050000Y-104875000D03*
X167050000Y-102775000D03*
%TD*%
D16*
%TO.C,REF2*%
X186000000Y-137000000D03*
%TD*%
D10*
%TO.C,SW12*%
X177050000Y-74775000D03*
D12*
X177550000Y-79925000D03*
X166550000Y-79925000D03*
D11*
X172050000Y-79925000D03*
D13*
X172050000Y-85825000D03*
X167050000Y-83725000D03*
%TD*%
D10*
%TO.C,SW2*%
X158000000Y-131925000D03*
D11*
X153000000Y-137075000D03*
D12*
X147500000Y-137075000D03*
X158500000Y-137075000D03*
D13*
X153000000Y-142975000D03*
X148000000Y-140875000D03*
%TD*%
D16*
%TO.C,REF1*%
X120000000Y-137000000D03*
%TD*%
D12*
%TO.C,SW1*%
X128450000Y-137075000D03*
D11*
X133950000Y-137075000D03*
D12*
X139450000Y-137075000D03*
D10*
X138950000Y-131925000D03*
D13*
X133950000Y-142975000D03*
X128950000Y-140875000D03*
%TD*%
D16*
%TO.C,REF3*%
X120000000Y-80000000D03*
%TD*%
D10*
%TO.C,SW3*%
X177050000Y-131925000D03*
D12*
X177550000Y-137075000D03*
D11*
X172050000Y-137075000D03*
D12*
X166550000Y-137075000D03*
D13*
X172050000Y-142975000D03*
X167050000Y-140875000D03*
%TD*%
D16*
%TO.C,REF4*%
X186000000Y-80000000D03*
%TD*%
D11*
%TO.C,SW6*%
X172050000Y-118025000D03*
D12*
X166550000Y-118025000D03*
X177550000Y-118025000D03*
D10*
X177050000Y-112875000D03*
D13*
X172050000Y-123925000D03*
X167050000Y-121825000D03*
%TD*%
D12*
%TO.C,SW4*%
X139450000Y-118025000D03*
D11*
X133950000Y-118025000D03*
D10*
X138950000Y-112875000D03*
D12*
X128450000Y-118025000D03*
D13*
X133950000Y-123925000D03*
X128950000Y-121825000D03*
%TD*%
D12*
%TO.C,SW11*%
X158500000Y-79925000D03*
D10*
X158000000Y-74775000D03*
D12*
X147500000Y-79925000D03*
D11*
X153000000Y-79925000D03*
D13*
X153000000Y-85825000D03*
X148000000Y-83725000D03*
%TD*%
D11*
%TO.C,SW7*%
X133950000Y-98975000D03*
D12*
X128450000Y-98975000D03*
X139450000Y-98975000D03*
D10*
X138950000Y-93825000D03*
D13*
X133950000Y-104875000D03*
X128950000Y-102775000D03*
%TD*%
D17*
%TO.C,D4*%
X143000000Y-114590000D03*
D18*
X143000000Y-122210000D03*
%TD*%
D17*
%TO.C,D3*%
X180000000Y-132590000D03*
D18*
X180000000Y-140210000D03*
%TD*%
D17*
%TO.C,D6*%
X181000000Y-114590000D03*
D18*
X181000000Y-122210000D03*
%TD*%
D19*
%TO.C,C7*%
X135700000Y-89900000D03*
X133800000Y-89900000D03*
%TD*%
%TO.C,C1*%
X135700000Y-127900000D03*
X133800000Y-127900000D03*
%TD*%
%TO.C,C5*%
X154700000Y-108900000D03*
X152800000Y-108900000D03*
%TD*%
D17*
%TO.C,D12*%
X181000000Y-76590000D03*
D18*
X181000000Y-84210000D03*
%TD*%
D19*
%TO.C,C6*%
X173700000Y-108900000D03*
X171800000Y-108900000D03*
%TD*%
D17*
%TO.C,D7*%
X143000000Y-95590000D03*
D18*
X143000000Y-103210000D03*
%TD*%
D17*
%TO.C,D9*%
X181000000Y-95590000D03*
D18*
X181000000Y-103210000D03*
%TD*%
D14*
%TO.C,CN2*%
X128000000Y-150500000D03*
D15*
X125500000Y-150500000D03*
X123000000Y-150500000D03*
%TD*%
D19*
%TO.C,C3*%
X173700000Y-127900000D03*
X171800000Y-127900000D03*
%TD*%
D17*
%TO.C,D11*%
X162000000Y-76590000D03*
D18*
X162000000Y-84210000D03*
%TD*%
D19*
%TO.C,C11*%
X154700000Y-71900000D03*
X152800000Y-71900000D03*
%TD*%
%TO.C,C2*%
X154700000Y-127900000D03*
X152800000Y-127900000D03*
%TD*%
D17*
%TO.C,D2*%
X162000000Y-132590000D03*
D18*
X162000000Y-140210000D03*
%TD*%
D19*
%TO.C,C9*%
X173750000Y-89900000D03*
X171850000Y-89900000D03*
%TD*%
D17*
%TO.C,D10*%
X143000000Y-76590000D03*
D18*
X143000000Y-84210000D03*
%TD*%
D19*
%TO.C,C12*%
X173700000Y-71900000D03*
X171800000Y-71900000D03*
%TD*%
D17*
%TO.C,D1*%
X143000000Y-132590000D03*
D18*
X143000000Y-140210000D03*
%TD*%
D17*
%TO.C,D8*%
X162000000Y-95590000D03*
D18*
X162000000Y-103210000D03*
%TD*%
D19*
%TO.C,C8*%
X154700000Y-89900000D03*
X152800000Y-89900000D03*
%TD*%
%TO.C,C10*%
X135700000Y-71900000D03*
X133800000Y-71900000D03*
%TD*%
%TO.C,C4*%
X135700000Y-108900000D03*
X133800000Y-108900000D03*
%TD*%
D17*
%TO.C,D5*%
X162000000Y-114590000D03*
D18*
X162000000Y-122210000D03*
%TD*%
M02*
