M48
; DRILL file {KiCad (6.0.1)} date Sun Feb 13 15:50:42 2022
; FORMAT={-:-/ absolute / metric / decimal}
; #@! TF.CreationDate,2022-02-13T15:50:42-08:00
; #@! TF.GenerationSoftware,Kicad,Pcbnew,(6.0.1)
; #@! TF.FileFunction,Plated,1,2,PTH
FMAT,2
METRIC
; #@! TA.AperFunction,Plated,PTH,ViaDrill
T1C0.400
; #@! TA.AperFunction,Plated,PTH,ComponentDrill
T2C0.800
; #@! TA.AperFunction,Plated,PTH,ComponentDrill
T3C0.950
; #@! TA.AperFunction,Plated,PTH,ComponentDrill
T4C1.270
%
G90
G05
T1
X134.0Y-76.4
X134.0Y-95.15
X134.0Y-114.4
X135.75Y-73.15
X135.75Y-91.65
X135.75Y-110.65
X135.75Y-129.65
X143.0Y-93.15
X144.75Y-130.9
X146.0Y-94.4
X146.0Y-96.65
X146.25Y-113.4
X146.25Y-115.4
X146.275Y-132.325
X146.275Y-133.9
X148.5Y-74.9
X148.5Y-88.15
X148.5Y-107.15
X148.5Y-126.65
X148.75Y-96.4
X149.0Y-115.65
X149.0Y-130.9
X154.75Y-73.15
X154.75Y-91.65
X154.75Y-110.65
X154.75Y-129.65
X156.5Y-92.65
X156.5Y-111.65
X157.25Y-130.65
X162.0Y-93.65
X164.75Y-94.15
X164.75Y-96.65
X165.25Y-132.4
X165.25Y-133.9
X165.325Y-113.825
X165.325Y-115.575
X167.5Y-74.9
X172.0Y-94.15
X172.0Y-113.4
X172.0Y-132.4
X173.75Y-73.15
X173.75Y-91.65
X173.75Y-110.65
X173.75Y-129.65
T2
X143.0Y-76.59
X143.0Y-84.21
X143.0Y-95.59
X143.0Y-103.21
X143.0Y-114.59
X143.0Y-122.21
X143.0Y-132.59
X143.0Y-140.21
X162.0Y-76.59
X162.0Y-84.21
X162.0Y-95.59
X162.0Y-103.21
X162.0Y-114.59
X162.0Y-122.21
X162.0Y-132.59
X162.0Y-140.21
X180.0Y-132.59
X180.0Y-140.21
X181.0Y-76.59
X181.0Y-84.21
X181.0Y-95.59
X181.0Y-103.21
X181.0Y-114.59
X181.0Y-122.21
T3
X123.0Y-150.5
X125.5Y-150.5
X128.0Y-150.5
X144.25Y-149.968
X146.75Y-149.968
X149.25Y-149.968
X151.75Y-149.968
X154.25Y-149.968
X156.75Y-149.968
X159.25Y-149.968
X161.75Y-149.968
T4
X128.95Y-83.725
X128.95Y-102.775
X128.95Y-121.825
X128.95Y-140.875
X133.95Y-85.825
X133.95Y-104.875
X133.95Y-123.925
X133.95Y-142.975
X148.0Y-83.725
X148.0Y-102.775
X148.0Y-121.825
X148.0Y-140.875
X153.0Y-85.825
X153.0Y-104.875
X153.0Y-123.925
X153.0Y-142.975
X167.05Y-83.725
X167.05Y-102.775
X167.05Y-121.825
X167.05Y-140.875
X172.05Y-85.825
X172.05Y-104.875
X172.05Y-123.925
X172.05Y-142.975
T0
M30
